<?xml version="1.0" encoding="utf-8"?>
<!-- Generator: Adobe Illustrator 24.0.1, SVG Export Plug-In . SVG Version: 6.00 Build 0)  -->
<svg version="1.1" id="Layer_1" xmlns="http://www.w3.org/2000/svg" xmlns:xlink="http://www.w3.org/1999/xlink" x="0px" y="0px"
	 viewBox="0 0 567.4 571.7" style="enable-background:new 0 0 567.4 571.7;" xml:space="preserve">
<style type="text/css">
	.st0{fill:#F4453B;}
	.st1{fill:url(#SVGID_1_);}
	.st2{fill:url(#SVGID_2_);}
	.st3{fill:url(#SVGID_3_);}
	.st4{fill:url(#SVGID_4_);}
	.st5{fill:#3F3D56;}
	.st6{fill:url(#SVGID_5_);}
	.st7{fill:url(#SVGID_6_);}
	.st8{fill:url(#SVGID_7_);}
	.st9{fill:url(#SVGID_8_);}
	.st10{fill:url(#SVGID_9_);}
	.st11{fill:url(#SVGID_10_);}
	.st12{fill:url(#SVGID_11_);}
	.st13{opacity:0.69;fill:url(#SVGID_12_);enable-background:new    ;}
	.st14{opacity:0.69;fill:url(#SVGID_13_);enable-background:new    ;}
	.st15{fill:#FFFFFF;}
	.st16{opacity:0.69;fill:url(#SVGID_14_);enable-background:new    ;}
	.st17{opacity:0.69;fill:url(#SVGID_15_);enable-background:new    ;}
	.st18{opacity:0.69;fill:url(#SVGID_16_);enable-background:new    ;}
	.st19{opacity:0.69;fill:url(#SVGID_17_);enable-background:new    ;}
</style>
<title>Analyze Market</title>
<g>
	<path class="st0" d="M249,364.4c0,0-152.5,18.3-168.3,56.7s-36.5,72.4-36.5,72.4s127.4,104.8,228.4,71.7S382,510.5,433,514.3
		c51,3.8,93.4-52.8,93.4-76.4s-157.7-72-183.1-70.5S249,364.4,249,364.4z"/>
	
		<linearGradient id="SVGID_1_" gradientUnits="userSpaceOnUse" x1="215.5525" y1="84.5987" x2="331.3156" y2="84.5987" gradientTransform="matrix(0.9939 -0.1106 -0.1106 -0.9939 28.4451 492.9457)">
		<stop  offset="0" style="stop-color:#ECC4D7"/>
		<stop  offset="0.42" style="stop-color:#EFD4D1"/>
		<stop  offset="1" style="stop-color:#F2EAC9"/>
	</linearGradient>
	<path class="st1" d="M252.6,363c0,5.4-1.5-3.5-3.6,1.5c-2.9,6.6-7.7,25.6-10.9,32c-5.5,11-0.2,25,9.2,33.1s21.7,11.5,33.7,14.2
		c17.8,4,38.1,6.5,52.8-4.3c14-10.4,18-29.7,16.8-47.1c-0.7-8.6-2-17.2-3.7-25.6l-10.3-56.4c-0.1-1-0.5-1.9-1-2.7
		c-1.1-1.5-3.2-1.6-5.1-1.7c-19.4-0.2-50.6,0.4-67.5,11.2C247.1,327.2,252.5,344.6,252.6,363z"/>
	
		<linearGradient id="SVGID_2_" gradientUnits="userSpaceOnUse" x1="289.6937" y1="234.7123" x2="429.1937" y2="30.3823" gradientTransform="matrix(1 0 0 -1 -5.02 567.2197)">
		<stop  offset="0" style="stop-color:#ECC4D7"/>
		<stop  offset="0.42" style="stop-color:#EFD4D1"/>
		<stop  offset="1" style="stop-color:#F2EAC9"/>
	</linearGradient>
	<path class="st2" d="M251.6,375.4c5.7,12.4,17.9,21.2,31.2,24s27.5-0.2,39.3-7.1c9.6-5.7,17.8-14.3,21.2-24.9
		c1.9-6,2.2-12.3,2.5-18.5l0.9-17.9c-5.4,7.9-15.3,11.5-24.8,12.8c-23.9,3.4-44.6-5.3-66.9-11.9c-10.5-3.1-10.3,3.3-9.4,12.2
		C246.5,354.5,247.1,365.7,251.6,375.4z"/>
	
		<linearGradient id="SVGID_3_" gradientUnits="userSpaceOnUse" x1="294.9397" y1="413.6697" x2="322.7197" y2="226.9897" gradientTransform="matrix(1 0 0 -1 -5.02 567.2197)">
		<stop  offset="0" style="stop-color:#ECC4D7"/>
		<stop  offset="0.42" style="stop-color:#EFD4D1"/>
		<stop  offset="1" style="stop-color:#F2EAC9"/>
	</linearGradient>
	<path class="st3" d="M213.6,300.7c0,0,38.8,64.2,65.9,67.2s67.9,1.9,96.8-65.6s34-157.3-12-173.3C364.3,129,138.8,68.8,213.6,300.7
		z"/>
	
		<linearGradient id="SVGID_4_" gradientUnits="userSpaceOnUse" x1="301.8513" y1="234.3592" x2="312.2314" y2="648.6292" gradientTransform="matrix(1 0 0 -1 -5.02 567.2197)">
		<stop  offset="0" style="stop-color:#000000;stop-opacity:0"/>
		<stop  offset="0.99" style="stop-color:#000000"/>
	</linearGradient>
	<path class="st4" d="M372.9,303.3c-0.8,4.3-1.9,9-5.2,11.8c-4.6,3.9-11.7,2.6-17-0.2c-10.9-5.7-18-16.4-26.5-25.3
		c-3.6-3.9-7.8-7.4-12.3-10.2l4.9,9.7c1,1.8,1.7,3.6,2.3,5.5c0.5,2.2,0.5,4.4,0,6.6c-0.1,0.5-0.3,0.9-0.6,1.3
		c-0.5,0.5-1,0.8-1.7,0.9c-2.7,0.7-5.4,1-8.1,1c-4.8,0.2-9.8,0.4-14.3-1.3c-1.4-0.5-2.8-1.4-3-2.9c-0.2-2,2.4-3.1,4.4-3.4
		c2.7,0,5.3-0.3,8-0.1c3.7,0.4,3.6,0.6,3.6-3.2c0-5.5-0.1-11-0.1-16.6c-4.8-2.2-10.1-3-15.3-2c-10.1,2-17.4,10.6-23.1,19.2
		s-10.9,18-19.7,23.5c-9.7,6.1-26.9,4.8-28.5-8.6c-1.7-14.3,6.6-31.9,14.6-43.2c10.7-15.1,26.2-26,44-31.2c6.3-1.8,12.9-2.9,19.4-2
		c7.2,0.9,13.9,4.1,20.4,7.3l34.2,16.4c5.9,2.8,11.9,5.8,16,10.9C377.2,277,375.2,291.1,372.9,303.3z"/>
	<path class="st5" d="M441.7,122.3c0.2,1.6,1.8,2.6,3,3.8c5.1,4.9,2.9,13.8-1.9,19s-11.6,8.1-16.9,12.7c-3.3,2.6-5.5,6.3-6.1,10.4
		c-0.9,5.7,0.7,11.8,0.9,18.1c0.1,1.8,0,3.6-0.2,5.4c-2,15.2-7.7,29.7-16.6,42.3c-2.6,3.6-6.1,7.3-10.6,7.5
		c-7.2,0.3-11.3-8-13.3-14.9c-4-14.1-6.9-28.6-8.7-43.1c-0.7-5.5-1.2-11-1.6-16.5c-1.4,6.7-11.1,8.3-16.8,4.5
		c-0.3-0.2-0.6-0.4-0.9-0.7c-5.1-3.9-7.7-10.2-10.5-16c-3-6.1-7.1-12.6-13.7-14.3c-7.5-1.9-15.1,0-22.7-0.3
		c-11.8-0.5-23.6-1.8-35.3-2.7c-6.4-0.5-13-0.9-18.9,1.4c-2.1,0.8-4,2-5.6,3.5c-3.1,2.9-5.1,6.9-4.6,11
		c-11.9-0.4-12.3,9.2-21.2,17.2s-24.6,15.4-17.7,25.2c7.1,10.2,1.7,16.9,1.1,28.9c-1.1,19.9-7.2,39.2-13.3,58.2
		c-9.2-13.2-18.6-26.7-22.7-42.2c-2.1-7.8-3.4-15.5-4.9-23c-2.3-12-4.7-23.8-10.7-35.6c-2.4-4.6-5.3-9-6.9-14
		c-2.5-7.4-2.1-15.4-1.6-23.1c1-16.6,2.3-34.4,12.7-47.4c3.8-4.6,8.6-8.3,14.1-10.7c7.6-3.6,15.7-5.8,22.6-11.1
		c3.7-2.8,6.3-7,8.3-11.6c3.8-8.4,5.9-18.6,10.4-25.7c8.2-12.6,19.9-22.6,33.6-28.8c22.8-10.4,49-11.1,73.9-7.7
		c20.6,2.8,41.2,8.5,58.3,20.2c7.2,5.2,14,11.1,20.3,17.4c15.3,15,29.7,31.1,50,36.7c6.8,1.9,14.8,3,18.7,8.9
		c4,6.2,1.2,14.7-3.8,20.1s-11.8,8.7-17.7,13.1C443,119.3,441.5,120.7,441.7,122.3z"/>
	
		<linearGradient id="SVGID_5_" gradientUnits="userSpaceOnUse" x1="240.6278" y1="463.0383" x2="74.7878" y2="350.1682" gradientTransform="matrix(1 0 0 -1 -5.02 567.2197)">
		<stop  offset="0" style="stop-color:#000000;stop-opacity:0"/>
		<stop  offset="0.99" style="stop-color:#000000"/>
	</linearGradient>
	<path class="st6" d="M178.6,166.9c-3.6,6.4-6.4,14.2-3.8,21.2c3.5-2,7-3.9,10.4-5.9L162,217.5c-2.3-12-4.7-23.8-10.7-35.6
		c-2.4-4.6-5.3-9-6.9-14c-2.5-7.4-2.1-15.4-1.6-23.1c1-16.6,2.3-34.4,12.7-47.4c3.8-4.6,8.6-8.3,14.1-10.7c1.5,0.7,2.9,1.7,4.1,3
		c5.4,5.9,6.7,15.3,8.9,22.7c3.4,11.1,8.9,23,6.1,34.8C186.9,154.4,182.2,160.5,178.6,166.9z"/>
	
		<linearGradient id="SVGID_6_" gradientUnits="userSpaceOnUse" x1="244.0597" y1="425.3427" x2="433.5532" y2="425.3427" gradientTransform="matrix(1 0 0 -1 -5.02 567.2197)">
		<stop  offset="0" style="stop-color:#000000;stop-opacity:0"/>
		<stop  offset="0.99" style="stop-color:#000000"/>
	</linearGradient>
	<path class="st7" d="M423.2,145.5c-4.8,6.4-4.5,14.6-3.5,22.8c0.5,3.4,1,6.8,1.5,10c0.4,2.7,0.5,5.7-0.5,8.1
		c-0.2,0.4-0.5,0.9-0.8,1.3c-3.5,4.7-10.7,3.2-16.2,1.3c-13.5-4.8-23.4-3.5-32.4-5.5c-6.3-1.4-12.1-4.4-18.4-12
		c-0.3-0.3-0.6-0.5-0.9-0.7c-5.1-3.9-7.7-10.2-10.5-16c-3-6.1-7.1-12.6-13.7-14.3c-7.5-1.9-15.1,0-22.7-0.3
		c-11.8-0.5-23.6-1.8-35.3-2.7c-6.4-0.5-13-0.9-18.9,1.4c-2.1,0.8-4,2-5.6,3.5c-2.6-0.6-4.5-2.4-5.4-6.5
		c-2.3-10.2,1.5-24.4,8.9-31.7s18.3-9.2,28.7-10.2c22-2.2,45.6-1.2,64.1,10.9c8.5,5.5,15.6,13.2,24.6,17.8
		c16.4,8.4,36.1,5.5,54.4,7.7c3.1,0.4,6.7,1.3,7.8,4.2C429.7,138.5,425.7,142.1,423.2,145.5z"/>
	
		<linearGradient id="SVGID_7_" gradientUnits="userSpaceOnUse" x1="49.1629" y1="211.5248" x2="277.0024" y2="211.5248" gradientTransform="matrix(1 0 0 -1 -5.02 567.2197)">
		<stop  offset="0" style="stop-color:#ECC4D7"/>
		<stop  offset="0.42" style="stop-color:#EFD4D1"/>
		<stop  offset="1" style="stop-color:#F2EAC9"/>
	</linearGradient>
	<path class="st8" d="M270.6,197.3c-2.1-4.8-6-8.7-10-12.1c-16.3-13.3-39-19.1-59.2-13.3c-3.9,1.1-7.7,2.7-11.1,4.9
		c-5.6,3.7-9.8,9-13.5,14.6c-22.2,32.9-29.6,73.4-32.8,112.9c-0.7,8.9,0.3,18.5-3.4,26.6C110,399.5,43.3,485.7,44.1,493.5
		c23.9,20,65.5,47.4,84.3,48.1c10.6-19.4,51.3-158.9,59.9-179.3c3.4-8,9.4-25.6,14.3-32.7c13.3-19.2,34.1-19.3,49.7-36.5
		c4-4.4,7.4-9.3,8.8-15c1.1-4.9,0.6-9.9,0.4-14.9c-0.6-12.1,0.5-24.2,3.2-35.9C266.9,217.2,275.2,207.6,270.6,197.3z"/>
	<path class="st0" d="M165.8,231.5h2.5c4.8,0,8.7,3.9,8.7,8.7v3.1c0,4.8-3.9,8.7-8.7,8.7h-2.5c-4.8,0-8.7-3.9-8.7-8.7v-3.1
		C157.1,235.4,161,231.5,165.8,231.5z"/>
	
		<linearGradient id="SVGID_8_" gradientUnits="userSpaceOnUse" x1="158.83" y1="330.1348" x2="178.8" y2="330.1348" gradientTransform="matrix(1 0 0 -1 0 571.8898)">
		<stop  offset="0" style="stop-color:#000000;stop-opacity:0"/>
		<stop  offset="0.99" style="stop-color:#000000"/>
	</linearGradient>
	<path class="st9" d="M167.6,231.5h2.5c4.8,0,8.7,3.9,8.7,8.7v3.1c0,4.8-3.9,8.7-8.7,8.7h-2.5c-4.8,0-8.7-3.9-8.7-8.7v-3.1
		C158.8,235.4,162.7,231.5,167.6,231.5z"/>
	
		<linearGradient id="SVGID_9_" gradientUnits="userSpaceOnUse" x1="-1752.9362" y1="227.1129" x2="-1543.4116" y2="227.1129" gradientTransform="matrix(-1 0 0 -1 -1217.03 567.2197)">
		<stop  offset="0" style="stop-color:#ECC4D7"/>
		<stop  offset="0.42" style="stop-color:#EFD4D1"/>
		<stop  offset="1" style="stop-color:#F2EAC9"/>
	</linearGradient>
	<path class="st10" d="M327.7,197.3c2.1-4.8,6-8.7,10-12.1c16.3-13.3,39-19.1,59.2-13.3c3.9,1.1,7.7,2.7,11.1,4.9
		c5.6,3.7,9.8,9,13.5,14.6c22.2,32.9,29.6,73.4,32.7,112.9c0.7,8.9-0.3,18.5,3.4,26.6c30.6,68.5,76.9,102.8,76.1,110.6
		c13.7,44.3-47.3,71.1-72.2,68.7c-10.6-19.4-43.1-127.6-51.7-148c-3.4-8-9.4-25.6-14.3-32.7c-13.3-19.2-34-19.3-49.7-36.5
		c-3.9-4.4-7.4-9.3-8.8-15c-1.1-4.9-0.6-9.9-0.4-14.9c0.6-12.1-0.5-24.2-3.2-35.9C331.5,217.2,323.2,207.6,327.7,197.3z"/>
	<path class="st0" d="M421.3,231.5h2.5c4.8,0,8.7,3.9,8.7,8.7v3.1c0,4.8-3.9,8.7-8.7,8.7h-2.5c-4.8,0-8.7-3.9-8.7-8.7v-3.1
		C412.5,235.4,416.5,231.5,421.3,231.5z"/>
	
		<linearGradient id="SVGID_10_" gradientUnits="userSpaceOnUse" x1="435.6502" y1="330.5823" x2="407.9202" y2="329.7623" gradientTransform="matrix(1 0 0 -1 0 571.8898)">
		<stop  offset="0" style="stop-color:#000000;stop-opacity:0"/>
		<stop  offset="0.99" style="stop-color:#000000"/>
	</linearGradient>
	<path class="st11" d="M419.3,231.5h2.5c4.8,0,8.7,3.9,8.7,8.7v3.1c0,4.8-3.9,8.7-8.7,8.7h-2.5c-4.8,0-8.7-3.9-8.7-8.7v-3.1
		C410.5,235.4,414.4,231.5,419.3,231.5z"/>
	<path class="st0" d="M268.6,209.3c0,0,22.4,14.7,52.5-1.2v50.2c0,0-26.6-18.9-49.8,0L268.6,209.3z"/>
	
		<linearGradient id="SVGID_11_" gradientUnits="userSpaceOnUse" x1="299.662" y1="369.0198" x2="301.9821" y2="251.3198" gradientTransform="matrix(1 0 0 -1 -5.02 567.2197)">
		<stop  offset="0" style="stop-color:#000000;stop-opacity:0"/>
		<stop  offset="0.99" style="stop-color:#000000"/>
	</linearGradient>
	<path class="st12" d="M268.6,209.3c0,0,22.4,14.7,52.5-1.2v50.2c0,0-26.6-18.9-49.8,0L268.6,209.3z"/>
	<rect x="272.1" y="226.2" class="st0" width="47.8" height="15.2"/>
	
		<linearGradient id="SVGID_12_" gradientUnits="userSpaceOnUse" x1="295.6342" y1="345.36" x2="296.2142" y2="332.63" gradientTransform="matrix(1 0 0 -1 0 571.8898)">
		<stop  offset="2.000000e-02" style="stop-color:#FFFFFF;stop-opacity:0"/>
		<stop  offset="0.58" style="stop-color:#FFFFFF;stop-opacity:0.39"/>
		<stop  offset="0.68" style="stop-color:#FFFFFF;stop-opacity:0.68"/>
		<stop  offset="1" style="stop-color:#FFFFFF"/>
	</linearGradient>
	<rect x="272.1" y="226.2" class="st13" width="47.8" height="15.2"/>
	<circle class="st0" cx="222.9" cy="239.6" r="55"/>
	
		<linearGradient id="SVGID_13_" gradientUnits="userSpaceOnUse" x1="217.757" y1="338.2271" x2="195.377" y2="364.0771" gradientTransform="matrix(1 0 0 -1 0 571.8898)">
		<stop  offset="2.000000e-02" style="stop-color:#FFFFFF;stop-opacity:0"/>
		<stop  offset="0.58" style="stop-color:#FFFFFF;stop-opacity:0.39"/>
		<stop  offset="0.68" style="stop-color:#FFFFFF;stop-opacity:0.68"/>
		<stop  offset="1" style="stop-color:#FFFFFF"/>
	</linearGradient>
	<circle class="st14" cx="222.9" cy="239.6" r="55"/>
	<circle class="st15" cx="222.6" cy="240.1" r="47.6"/>
	<circle class="st0" cx="367.2" cy="239.6" r="55"/>
	
		<linearGradient id="SVGID_14_" gradientUnits="userSpaceOnUse" x1="365.5498" y1="333.3094" x2="329.6598" y2="354.9194" gradientTransform="matrix(1 0 0 -1 0 571.8898)">
		<stop  offset="2.000000e-02" style="stop-color:#FFFFFF;stop-opacity:0"/>
		<stop  offset="0.58" style="stop-color:#FFFFFF;stop-opacity:0.39"/>
		<stop  offset="0.68" style="stop-color:#FFFFFF;stop-opacity:0.68"/>
		<stop  offset="1" style="stop-color:#FFFFFF"/>
	</linearGradient>
	<circle class="st16" cx="367.2" cy="239.6" r="55"/>
	<circle class="st15" cx="366.9" cy="240.1" r="47.6"/>
	<path class="st0" d="M291.9,208.7h2c3.4,0,6.2,2.8,6.2,6.2v3.2c0,3.4-2.8,6.2-6.2,6.2h-2c-3.4,0-6.2-2.8-6.2-6.2v-3.2
		C285.7,211.5,288.5,208.7,291.9,208.7z"/>
	
		<linearGradient id="SVGID_15_" gradientUnits="userSpaceOnUse" x1="303.8871" y1="490.2994" x2="301.2871" y2="805.4794" gradientTransform="matrix(1 0 0 -1 -5.02 567.2197)">
		<stop  offset="2.000000e-02" style="stop-color:#FFFFFF;stop-opacity:0"/>
		<stop  offset="0.58" style="stop-color:#FFFFFF;stop-opacity:0.39"/>
		<stop  offset="0.68" style="stop-color:#FFFFFF;stop-opacity:0.68"/>
		<stop  offset="1" style="stop-color:#FFFFFF"/>
	</linearGradient>
	<path class="st17" d="M397,39.5c-1.6,1.9-3.4,3.6-5.4,5.1c-14.2,10.3-33.9,4.3-50.2-2.3c-17.9-7.2-36.1-14.6-55.4-15.8
		s-40,4.9-51.7,20.2c-6.6,8.7-11.9,21.2-22.9,21.8c-4.2,0.1-8.3-1.5-11.2-4.6c3.8-8.4,5.9-18.6,10.4-25.7
		c8.2-12.6,19.9-22.6,33.6-28.8c22.8-10.4,49-11.1,73.9-7.7c20.6,2.8,41.2,8.5,58.3,20.2C383.9,27.3,390.7,33.1,397,39.5z"/>
	
		<linearGradient id="SVGID_16_" gradientUnits="userSpaceOnUse" x1="421.1335" y1="479.0132" x2="543.2734" y2="513.1633" gradientTransform="matrix(1 0 0 -1 -5.02 567.2197)">
		<stop  offset="2.000000e-02" style="stop-color:#FFFFFF;stop-opacity:0"/>
		<stop  offset="0.58" style="stop-color:#FFFFFF;stop-opacity:0.39"/>
		<stop  offset="0.68" style="stop-color:#FFFFFF;stop-opacity:0.68"/>
		<stop  offset="1" style="stop-color:#FFFFFF"/>
	</linearGradient>
	<path class="st18" d="M424.8,83.1c6.1,4.1,13.8,5.3,21.1,5.6c2.7,0,5.4,0.3,8,1c2.6,0.8,5,2.7,5.7,5.3c0.5,1.5,0.3,3.3,1.3,4.6
		c0.1,0.2,0.4,0.4,0.6,0.5c0.4,0,0.8-0.2,1-0.5c3.3-3.7,3.8-9.2,1.2-13.4c-3.2-5-9.8-6.5-15.5-8.4c-7.2-2.3-14-5.9-20.1-10.4
		c-3.6-2.7-11.8-8.3-12.3-0.3C415.5,73.4,419.8,79.7,424.8,83.1z"/>
	
		<linearGradient id="SVGID_17_" gradientUnits="userSpaceOnUse" x1="209.56" y1="471.6102" x2="974.97" y2="403.8902" gradientTransform="matrix(1 0 0 -1 -5.02 567.2197)">
		<stop  offset="2.000000e-02" style="stop-color:#FFFFFF;stop-opacity:0"/>
		<stop  offset="0.58" style="stop-color:#FFFFFF;stop-opacity:0.39"/>
		<stop  offset="0.68" style="stop-color:#FFFFFF;stop-opacity:0.68"/>
		<stop  offset="1" style="stop-color:#FFFFFF"/>
	</linearGradient>
	<path class="st19" d="M232.1,94.9c2.6-6,5.6-12.2,10.6-16.4c6-5.1,14.1-6.8,21.8-8c8.9-1.5,17.9-2.7,26.9-2.4
		c17.5,0.6,34.6,7.1,48.9,17.2c11.6,8.3,23.6,19.5,37.8,17.5c12.1,6-4.8,23.1-9.3,21.3c-9.1-3.8-27.8-21.2-36.9-25.2
		c-17.8-7.8-38-7.3-57.4-6c-4.6,0.3-9.4,0.7-13.5,2.8s-7.2,5.9-9.9,9.7c-3.9,5.6-7.3,11.7-8.9,18.3c-1.2,5.1,0.9,11.9-5.8,9.6
		C221.3,128.3,227.8,104.6,232.1,94.9z"/>
</g>
</svg>
