<?xml version="1.0" encoding="utf-8"?>
<!-- Generator: Adobe Illustrator 24.0.1, SVG Export Plug-In . SVG Version: 6.00 Build 0)  -->
<svg version="1.1" id="レイヤー_1" xmlns="http://www.w3.org/2000/svg" xmlns:xlink="http://www.w3.org/1999/xlink" x="0px"
	 y="0px" viewBox="0 0 345.7 85" style="enable-background:new 0 0 345.7 85;" xml:space="preserve">
<style type="text/css">
	.st0{fill:#FFFFFF;}
</style>
<title>アセット 2</title>
<g id="レイヤー_2_1_">
	<g id="レイヤー_1-2">
		<path class="st0" d="M0,59.2h8.1v2.9c1.5-2.3,4.2-3.7,7-3.5c1.6,0,3.3,0.3,4.7,1.1c1.3,0.8,2.4,2,3,3.5c0.8-1.3,1.9-2.4,3.2-3.2
			c1.6-1,3.4-1.5,5.3-1.4c2.5-0.1,5.1,0.7,7,2.3c2.4,2.3,2.6,5.7,2.6,7.4v15.8h-8.1V71.5c0-1.3,0-3.5-1.1-4.9
			c-0.7-0.9-1.8-1.4-2.9-1.3c-1.2,0-2.4,0.5-3.1,1.5c-0.9,1.5-1.4,3.2-1.2,4.9v12.4h-8.1v-13c0-1.7-0.1-3.6-1.3-4.9
			c-0.7-0.7-1.7-1.1-2.7-1c-1,0-2,0.3-2.8,1c-1.5,1.5-1.6,4.3-1.6,5.1v12.8H0V59.2z"/>
		<path class="st0" d="M60.9,59.2V73c-0.1,1.5,0.4,2.9,1.4,4c0.9,0.8,2.1,1.2,3.4,1.2c1.2,0.1,2.5-0.4,3.4-1.2c1-1.1,1.4-2.5,1.3-4
			V59.2h8.1v14.6c0,2.8-0.3,5.5-2.8,8c-2.9,2.8-7.1,3.3-10,3.3s-7.2-0.4-10.1-3.2c-2.3-2.2-2.7-4.8-2.7-7.5V59.2H60.9z"/>
		<path class="st0" d="M105.6,65.6c-1.3-0.8-2.9-1.3-4.4-1.4c-0.8,0-1.6,0.2-2.3,0.7c-0.3,0.3-0.5,0.7-0.5,1.1
			c0,0.5,0.3,0.9,0.8,1.1c0.8,0.3,1.6,0.6,2.4,0.8l2.1,0.7c1.5,0.4,2.9,1.2,4.2,2.2c1.4,1.2,2.1,3,2,4.8c0.1,2.4-0.9,4.8-2.6,6.6
			c-2.5,2.5-5.5,2.9-8.2,2.9c-3.7,0.1-7.4-1.1-10.3-3.6l3.4-5.4c0.8,0.7,1.7,1.3,2.7,1.8c1,0.5,2.2,0.8,3.4,0.8
			c0.9,0.1,1.8-0.1,2.5-0.6c0.5-0.4,0.8-1,0.8-1.6c0-0.6-0.3-1.2-0.9-1.5c-0.8-0.4-1.6-0.7-2.5-0.9l-2-0.6c-1.5-0.4-2.9-1.2-4-2.3
			c-1.2-1.2-1.8-2.8-1.8-4.5c0-2.2,0.8-4.3,2.4-5.8c2.1-1.8,4.8-2.7,7.6-2.5c2.9-0.1,5.8,0.7,8.3,2.1L105.6,65.6z"/>
		<path class="st0" d="M128.3,59.2V73c-0.1,1.5,0.4,2.9,1.4,4c0.9,0.8,2.1,1.2,3.4,1.2c1.2,0.1,2.5-0.4,3.4-1.2c1-1.1,1.5-2.5,1.3-4
			V59.2h8.1v14.6c0,2.8-0.3,5.5-2.8,8c-2.9,2.8-7.1,3.2-10,3.2s-7.2-0.4-10.1-3.2c-2.3-2.2-2.7-4.8-2.7-7.5v-15H128.3z"/>
		<path class="st0" d="M166,43.3V62c1.8-2.4,4.7-3.8,7.8-3.6c3.2,0,6.3,1.2,8.7,3.4c2.6,2.6,4,6.2,3.9,9.8c0.1,3.7-1.3,7.3-3.9,10
			c-2.2,2.3-5.3,3.6-8.5,3.4c-4.4,0-6.7-2.1-7.9-3.9v3h-8V43.3H166z M167.3,67.1c-1.2,1.2-1.8,2.9-1.8,4.6c0,1.7,0.6,3.3,1.8,4.5
			c1.3,1.2,2.9,1.8,4.6,1.8c1.6,0,3.1-0.6,4.2-1.7c1.3-1.2,2-2.9,2-4.6c0-1.8-0.7-3.5-2-4.8C173.6,64.7,169.7,64.7,167.3,67.1z"/>
		<path class="st0" d="M201.6,43.8c2.6,0,4.7,2.1,4.7,4.7c0,2.6-2.1,4.7-4.7,4.7s-4.7-2.1-4.7-4.7c0,0,0,0,0,0
			C196.9,46,199,43.9,201.6,43.8C201.6,43.8,201.6,43.8,201.6,43.8z M205.6,59.2v25h-8.1v-25H205.6z"/>
		<path class="st0" d="M237.3,59.2h8.1v25h-8.1v-3c-1.6,2.5-4.4,4-7.4,3.8c-3.5,0.2-7-1.2-9.4-3.8c-2.4-2.5-3.7-5.9-3.6-9.4
			c-0.1-3.7,1.3-7.4,3.9-10.1c2.3-2.3,5.4-3.5,8.7-3.4c3.1-0.1,6,1.2,7.8,3.7V59.2z M227,67.1c-1.2,1.2-1.9,2.8-1.9,4.5
			c0,1.7,0.6,3.3,1.7,4.5c1.2,1.3,3,2,4.8,2c1.6,0,3.1-0.6,4.2-1.7c2.6-2.5,2.6-6.7,0.1-9.3c-1.2-1.1-2.8-1.7-4.5-1.7
			C229.8,65.3,228.2,65.9,227,67.1z"/>
		<path class="st0" d="M261.8,43.8c2.6,0,4.7,2.1,4.7,4.7c0,2.6-2.1,4.7-4.7,4.7c-2.6,0-4.7-2.1-4.7-4.7c0,0,0,0,0,0
			C257.1,46,259.1,43.9,261.8,43.8C261.7,43.8,261.8,43.8,261.8,43.8z M265.8,59.2v25h-8.1v-25H265.8z"/>
		<path class="st0" d="M309.8,84.1h-20.4l8-8.7c1.6-1.7,3-3.5,4.4-5.4c0.9-1.3,1.5-2.9,1.6-4.5c0-1-0.3-1.9-1-2.6
			c-0.7-0.5-1.6-0.8-2.4-0.8c-0.9,0-1.8,0.3-2.4,1c-0.7,0.9-1.1,2.1-1.1,3.3h-6.2c0.2-2.5,1.1-4.8,2.8-6.7c1.3-1.4,3.6-2.8,7.4-2.8
			c2.6-0.1,5,0.8,6.9,2.5c1.6,1.7,2.5,4,2.5,6.4c0,2.1-0.7,4.2-2,5.9c-1.3,1.7-2.7,3.2-4.3,4.6l-2.8,2.7h9.2L309.8,84.1z"/>
		<path class="st0" d="M317.6,77.5c2,0,3.7,1.6,3.7,3.6c0,2-1.6,3.7-3.6,3.7c-2,0-3.7-1.6-3.7-3.6c0,0,0,0,0,0
			C314,79.1,315.6,77.5,317.6,77.5C317.6,77.5,317.6,77.5,317.6,77.5z"/>
		<path class="st0" d="M341.9,82c-1.9,1.8-4.5,2.8-7.2,2.8c-2.6,0.1-5.2-0.9-7.1-2.8c-2.6-2.6-3.8-6.6-3.8-11.2s1.2-8.7,3.8-11.2
			c1.9-1.8,4.4-2.8,7.1-2.8c2.7-0.1,5.2,0.9,7.2,2.8c2.6,2.5,3.8,6.6,3.8,11.2S344.5,79.4,341.9,82z M332.3,63.2
			c-2,1.9-2.2,5.8-2.2,7.6c0,2.1,0.4,5.8,2.2,7.7c1.4,1.4,3.6,1.4,5,0c1.9-1.8,2.2-5.6,2.2-7.7c0-1.9-0.3-5.7-2.2-7.6
			C335.9,61.8,333.7,61.8,332.3,63.2z"/>
		<path class="st0" d="M48.6,1.9h1.1L54.3,15h-1.2l-1.5-4.4h-5.1L45.1,15H44L48.6,1.9z M46.9,9.8h4.5l-0.8-2.4
			c-0.5-1.5-1-2.9-1.4-4.5h-0.1c-0.5,1.6-0.9,3-1.4,4.5L46.9,9.8z"/>
		<path class="st0" d="M60,1.9h1.1V15H60V1.9z"/>
		<path class="st0" d="M78.2,1.9c-0.1,0.5-0.3,1.8-0.5,3c1-0.1,1.8-0.2,2.3-0.2c1.4,0,2.7,0.5,2.7,2.8c0.1,2.2-0.3,4.4-1.1,6.4
			c-0.4,1-1.4,1.5-2.4,1.4c-0.7,0-1.4-0.1-2.1-0.3l-0.2-1c0.7,0.2,1.5,0.3,2.2,0.4c0.7,0.1,1.4-0.3,1.7-1c0.7-1.9,1-3.8,0.9-5.8
			c0-1.8-0.8-2.1-2-2.1c-0.5,0-1.4,0.1-2.3,0.2c-0.8,3.4-2.1,6.7-3.8,9.7l-0.9-0.4c1.8-2.5,3.3-6.9,3.9-9.3
			c-1.1,0.1-2.2,0.2-2.7,0.3c-0.3,0-1,0.1-1.4,0.2l-0.1-1c0.5,0,0.9,0,1.4,0s1.8-0.1,3-0.2c0.3-1.3,0.5-2.7,0.5-4l1.1,0.1
			C78.3,1.4,78.3,1.6,78.2,1.9z M87.9,9.6L87.1,10c-0.8-2.3-1.9-4.4-3.3-6.3l0.8-0.4C85.9,5.3,87,7.4,87.9,9.6z M86.6,3.1l-0.7,0.3
			c-0.4-0.9-0.9-1.7-1.5-2.5l0.7-0.3C85.6,1.5,86.1,2.3,86.6,3.1z M88.6,2.5l-0.7,0.3c-0.4-0.9-1-1.7-1.6-2.5L87,0
			C87.6,0.8,88.1,1.6,88.6,2.5L88.6,2.5z"/>
		<path class="st0" d="M95.3,10.3c-0.2,1.6-0.7,3.1-1.3,4.5c-0.2-0.1-0.5-0.3-0.7-0.4c0.7-1.4,1.1-2.8,1.3-4.3L95.3,10.3z M98.6,5.8
			c0.8,1.1,1.4,2.3,1.9,3.6l-0.7,0.4c-0.1-0.4-0.3-0.8-0.4-1.1l-1.9,0.1v7.6h-0.8V8.8c-1.2,0.1-2.2,0.1-3.1,0.1l-0.1-0.8h1.1
			C95,7.5,95.5,6.9,96,6.2c-0.7-1-1.6-1.9-2.5-2.7L94,3c0.2,0.2,0.4,0.3,0.6,0.5c0.7-1.1,1.3-2.3,1.7-3.5l0.8,0.3
			c-0.6,1.3-1.3,2.5-2.1,3.7c0.5,0.5,1,1,1.4,1.5C97.2,4.3,98,3.1,98.5,2l0.8,0.4c-1.2,2-2.5,3.9-3.9,5.7l3.5-0.2
			c-0.3-0.6-0.7-1.3-1.1-1.8L98.6,5.8z M99.1,10.1c0.6,1.1,1,2.3,1.2,3.5l-0.7,0.2c-0.3-1.2-0.7-2.4-1.2-3.5L99.1,10.1z M105.3,3.5
			v3.1h4.1v0.8h-8.7V6.6h3.7V3.5h-4.4V2.7h4.4V0h0.9v2.7h4.5v0.8L105.3,3.5z M101.3,9.7h7.6v6.6h-0.8v-0.9h-5.9v1h-0.8L101.3,9.7z
			 M102.2,10.5v4h5.9v-4H102.2z"/>
		<path class="st0" d="M115.2,14.5l-0.5-0.8c1.7-1,3.2-2.1,4.6-3.5l0.5,0.7C118.4,12.3,116.9,13.5,115.2,14.5z M122.5,14.7
			c1,0.1,1.9-0.5,2-1.5c0-0.1,0-0.1,0-0.2c0-1.3-1.3-2.9-2.4-4.2c-0.4-0.4-0.9-0.9-1.3-1.3l0.7-0.6c0.4,0.4,0.8,0.9,1.2,1.3
			c1.5,1.7,2.8,3.3,2.8,4.9c0,2.1-1.8,2.4-2.8,2.4c-1,0-2-0.1-2.9-0.3l-0.1-1C120.5,14.5,121.5,14.7,122.5,14.7z M124.6,4.5
			c-1.2-0.9-2.6-1.7-4-2.3l0.5-0.7c1.5,0.7,3,1.5,4.3,2.5l0.2,0.7c-0.4,0.3-1.2,0.9-1.8,1.4l-0.6-0.6C123.7,5.2,124.1,4.9,124.6,4.5
			z M127,9l0.7-0.4c1.4,1.6,2.5,3.5,3.3,5.4l-0.8,0.5C129.5,12.5,128.4,10.6,127,9z M129.4,5.8l-0.7,0.3c-0.4-0.9-0.9-1.7-1.5-2.5
			l0.7-0.3C128.4,4.1,128.9,4.9,129.4,5.8L129.4,5.8z M131.3,5l-0.7,0.3c-0.4-0.9-0.9-1.7-1.5-2.5l0.7-0.3
			C130.4,3.3,130.9,4.2,131.3,5z"/>
		<path class="st0" d="M136.9,11.9l0.7-0.7c1.5,1.2,2.9,2.6,4.1,4l-0.8,0.7C139.8,14.4,138.4,13.1,136.9,11.9z"/>
		<path class="st0" d="M165.5,13.7c-0.8-0.8-1.6-1.6-2.5-2.4v5h-0.9v-5.4c-0.9,1.5-2.1,2.9-3.5,4c-0.2-0.2-0.4-0.4-0.6-0.6
			c1.6-1.2,2.9-2.7,3.8-4.4h-3.5V9.1h3.7V6.9h-3.8V6.1h8.4v0.8H163v2.2h3.6v0.8H163v0.6c0.7,0.5,2.6,2.1,3,2.5L165.5,13.7z
			 M166.5,2.7h-7.8V2h3.5V0h0.8v2h3.4L166.5,2.7z M160.6,6c-0.1-1-0.4-1.9-0.8-2.8l0.7-0.2c0.4,0.9,0.7,1.8,0.8,2.8L160.6,6z
			 M163.5,5.8c0.4-0.9,0.7-1.9,1-2.8l0.8,0.2c-0.3,1-0.8,2.1-1.1,2.8L163.5,5.8z M174.6,7h-2.2v9.2h-0.9V7h-3.2v0.8
			c0,2.7-0.3,6.1-2.9,8.6c-0.2-0.2-0.4-0.5-0.6-0.6c2.4-2.3,2.7-5.4,2.7-8V1.5l0.8,0.3c1.8-0.3,3.6-0.9,5.3-1.5l0.7,0.6
			c-1.9,0.8-3.9,1.3-6,1.6v3.6h6.3L174.6,7z"/>
		<path class="st0" d="M186.4,2.2c-0.1,0.5-0.2,1.1-0.3,1.8c1.3-0.1,2.5-0.4,3.7-0.7v0.9c-1.3,0.3-2.6,0.5-3.9,0.6
			c-0.2,0.8-0.4,1.7-0.6,2.5c-0.7,2.8-1.6,5.5-2.8,8.2l-1-0.3c1.3-2.5,2.3-5.2,3-8c0.2-0.7,0.4-1.4,0.5-2.2c-0.7,0.1-1.4,0.1-2,0.1
			s-1.4,0-2-0.1V4.1c0.7,0.1,1.4,0.1,2.1,0.1c0.6,0,1.3,0,2.1-0.1c0.2-0.8,0.3-1.5,0.3-1.9c0-0.4,0-0.9,0-1.3l1.1,0.1
			C186.6,1.3,186.5,1.9,186.4,2.2z M188.5,12.5c0,0.9,0.5,1.8,3.4,1.8c1.1,0,2.3-0.1,3.4-0.3v1c-1.1,0.2-2.3,0.2-3.4,0.3
			c-2.7,0-4.2-0.8-4.2-2.5c0-0.7,0.1-1.3,0.3-2l0.9,0.1C188.6,11.3,188.5,11.9,188.5,12.5z M192,6.4c1,0,2.1,0,3.1,0.1v0.9
			c-1-0.1-2-0.2-3-0.2c-1.1,0-2.1,0.1-3.2,0.2V6.5C189.7,6.4,190.8,6.4,192,6.4z"/>
		<path class="st0" d="M207.8,3.8c1-0.1,2.1-0.4,3.1-0.7V4c-1.1,0.3-2.2,0.5-3.4,0.7c-1,2.7-2.3,5.2-4,7.6l-0.9-0.5
			c1.7-2.1,3.1-4.5,4-7c-0.6,0.1-1.3,0.1-2,0.1s-1.4,0-2,0l-0.1-0.9c0.7,0.1,1.4,0.1,2.1,0.1c0.7,0,1.5,0,2.2-0.1
			c0.3-1,0.6-2.1,0.6-3.2l1.1,0.1C208.4,1.6,208.1,2.8,207.8,3.8z M212.8,8.1c0,0.8,0.1,2.1,0.1,3.3c1.4,0.5,2.6,1.3,3.8,2.2
			l-0.5,0.8c-0.9-0.9-2-1.6-3.2-2.1c0,0.4,0,0.8,0,1.1c0,1.3-0.9,2.4-3,2.4c-1.8,0-3.3-0.7-3.3-2.4s1.6-2.4,3.4-2.4
			c0.7,0,1.4,0.1,2.1,0.3c0-1.6-0.2-3.5-0.2-4.8h0.9C212.8,7.1,212.8,7.5,212.8,8.1L212.8,8.1z M209.9,15c1.7,0,2.2-0.9,2.2-1.8
			c0-0.3,0-0.7,0-1.1c-0.7-0.2-1.4-0.3-2.1-0.3c-1.5,0-2.5,0.7-2.5,1.6S208.3,15,209.9,15z M212.7,4.2l0.4-0.7
			c1.4,0.7,2.8,1.4,4.1,2.4l-0.5,0.8C215.5,5.7,214.2,4.8,212.7,4.2L212.7,4.2z"/>
		<path class="st0" d="M238.2,9v7.3h-0.9v-1.1h-12v1.2h-0.9V9h0.9v5.3h5.4V7.7h-5.6v-6h0.9v5.2h4.8V0.1h0.9v6.8h5V1.8h0.9v6h-5.9
			v6.6h5.7V9H238.2z"/>
		<path class="st0" d="M253.1,0c2.1,2.8,4.9,5,8,6.5c-0.2,0.2-0.4,0.5-0.6,0.7c-3.1-1.5-5.7-3.7-7.9-6.4c-2,2.7-4.6,4.9-7.6,6.4
			c-0.1-0.3-0.3-0.5-0.5-0.7c3.1-1.5,5.7-3.8,7.6-6.6H253.1z M245.5,9.1h14.8V10h-8.7c-0.7,1.5-1.6,3.3-2.4,4.7
			c2.5-0.1,5.5-0.2,8.4-0.3c-0.8-1-1.8-1.9-2.7-2.8l0.7-0.4c1.6,1.4,3.1,3,4.3,4.8l-0.8,0.5c-0.3-0.4-0.6-0.9-0.9-1.3
			c-4.5,0.2-9.3,0.4-12.4,0.5l-0.1-0.9c0.8,0,1.6,0,2.6-0.1c0.9-1.5,1.7-3.1,2.3-4.7h-5.1L245.5,9.1z M257.1,5.7v0.8h-8.7V5.7
			L257.1,5.7z"/>
		<path class="st0" d="M269,4.1c0,1.1,0,2.9,0.1,4.5c0.3,3.3,1.4,5.4,2.8,5.4c1,0,1.9-1.7,2.4-3.7L275,11c-1,3-2.1,4-3.2,4
			c-1.5,0-3.1-1.6-3.6-6.2C268,7.3,268,5,268,4c0-0.5,0-1,0-1.4h1.1C269,3,269,3.7,269,4.1z M281.8,11.9l-0.9,0.4
			c-0.2-3.1-1.3-6.2-3.1-8.8l0.9-0.3C280.5,5.8,281.5,8.8,281.8,11.9L281.8,11.9z"/>
		<path class="st0" d="M293.2,13.3c0,1.5-1.2,2.7-2.6,2.7c-1.5,0-2.7-1.2-2.7-2.6s1.2-2.7,2.6-2.7c0,0,0,0,0,0
			C292,10.7,293.2,11.9,293.2,13.3z M292.5,13.3c0-1.1-0.8-2-2-2c-1.1,0-2,0.8-2,1.9s0.8,2,2,2c0,0,0.1,0,0.1,0
			C291.6,15.3,292.5,14.4,292.5,13.3C292.5,13.3,292.5,13.3,292.5,13.3L292.5,13.3z"/>
	</g>
</g>
</svg>
