<?xml version="1.0" encoding="utf-8"?>
<!-- Generator: Adobe Illustrator 24.0.1, SVG Export Plug-In . SVG Version: 6.00 Build 0)  -->
<svg version="1.1" id="Layer_1" xmlns="http://www.w3.org/2000/svg" xmlns:xlink="http://www.w3.org/1999/xlink" x="0px" y="0px"
	 viewBox="0 0 682.8 509.6" style="enable-background:new 0 0 682.8 509.6;" xml:space="preserve">
<style type="text/css">
	.st0{opacity:0.55;fill:#F4453B;enable-background:new    ;}
	.st1{fill:#606161;}
	.st2{fill:url(#SVGID_1_);}
	.st3{fill:url(#SVGID_2_);}
	.st4{fill:url(#SVGID_3_);}
	.st5{fill:url(#SVGID_4_);}
	.st6{fill:url(#SVGID_5_);}
	.st7{fill:url(#SVGID_6_);}
	.st8{fill:url(#SVGID_7_);}
	.st9{fill:url(#SVGID_8_);}
	.st10{fill:url(#SVGID_9_);}
	.st11{fill:url(#SVGID_10_);}
	.st12{fill:url(#SVGID_11_);}
	.st13{fill:url(#SVGID_12_);}
	.st14{fill:url(#SVGID_13_);}
	.st15{fill:url(#SVGID_14_);}
	.st16{fill:url(#SVGID_15_);}
	.st17{fill:#F4453B;}
	.st18{fill:url(#SVGID_16_);}
	.st19{fill:url(#SVGID_17_);}
	.st20{fill:url(#SVGID_18_);}
	.st21{fill:url(#SVGID_19_);}
	.st22{fill:url(#SVGID_20_);}
	.st23{fill:url(#SVGID_21_);}
	.st24{fill:url(#SVGID_22_);}
	.st25{fill:url(#SVGID_23_);}
	.st26{fill:url(#SVGID_24_);}
	.st27{fill:url(#SVGID_25_);}
	.st28{fill:url(#SVGID_26_);}
	.st29{fill:url(#SVGID_27_);}
	.st30{fill:url(#SVGID_28_);}
	.st31{fill:url(#SVGID_29_);}
	.st32{fill:none;}
	.st33{fill:url(#SVGID_30_);}
	.st34{opacity:0.24;fill:#F4453B;enable-background:new    ;}
</style>
<title>family 2</title>
<path class="st0" d="M131.4,450.8c31.8,3.4,63.4-6.6,95.3-7.9c31.3-1.2,62.2,6,93.3,9.3c23.6,2.5,47.4,2.8,71.1,3.1l133.2,1.7
	c7.5,0.1,15.2,0.1,22-3.1s12.1-10.6,10.3-17.9c-64.2,3.5-128.6,1.4-192.7-2.9c-32.5-2.2-65-4.9-97.5-7.8
	c-28.5-2.5-58.7-8.2-87.3-5.3c-22.1,2.2-47.1,14.3-66.7,23.9C117.2,448.8,124.8,450.1,131.4,450.8z"/>
<path class="st1" d="M189.2,141.4c-2.1-2.7-4.8-4.9-7.9-6.3c-6.3-2.9-13.7-2.9-20,0c-6.3,3.1-10.7,9.2-11.5,16.1
	c-0.2,2.3,0,4.7-0.1,7c-0.6,8.1-5.5,15.2-7.5,23.1c-1.1,4.4-1.3,9.1-2.8,13.4c-1.1,3.3-3,6.5-2.7,10c0.3,2,1,4,2.2,5.7
	c4.4,6.9,13.2,11.6,21,9c2.1-0.7,4.1-1.9,6.2-2.7c5.7-2.2,12.1-1.1,18.2-1.1c2.6,0.1,5.3-0.3,7.7-1.3c4.1-2.1,6.6-6.5,6.1-11.1
	c-0.4-2.4-1.1-4.7-2.1-6.9c-2.3-6.2-3.2-12.9-2.6-19.5c0.3-3.4,1-6.7,1-10.1c0-4.5-3.1-7.8-2.5-11.9
	C192.5,150.1,192.1,145.5,189.2,141.4z"/>
<path class="st1" d="M189.4,141.3c-2.1-2.7-4.8-4.9-7.9-6.3c-6.3-2.9-13.7-2.9-20,0c-6.3,3.1-10.6,9.2-11.4,16.1
	c-0.2,2.3,0,4.7-0.1,7c-0.5,8.1-5.5,15.2-7.5,23.1c-1.1,4.4-1.3,9.1-2.8,13.4c-1.1,3.3-3,6.5-2.7,10c0.2,2.1,1,4,2.2,5.7
	c4.4,6.9,13.2,11.6,21,9c2.1-0.7,4.1-1.9,6.2-2.7c5.7-2.2,12.1-1.1,18.2-1.1c2.6,0.1,5.3-0.3,7.7-1.3c4.1-2.1,6.5-6.5,6.1-11.1
	c-0.4-2.4-1.2-4.7-2.1-6.9c-2.3-6.2-3.2-12.9-2.6-19.5c0.3-3.4,1-6.7,1-10.1c0-4.5-3.1-7.8-2.5-11.9
	C192.7,150,192.3,145.4,189.4,141.3z"/>
<linearGradient id="SVGID_1_" gradientUnits="userSpaceOnUse" x1="174.2359" y1="337.9917" x2="164.1959" y2="157.5817" gradientTransform="matrix(1 0 0 -1 -1.54 468.8398)">
	<stop  offset="0.12" style="stop-color:#010101;stop-opacity:0"/>
	<stop  offset="0.95" style="stop-color:#010101"/>
</linearGradient>
<path class="st2" d="M150.2,189.5c1.2-2.9,3.1-5.6,4-8.6c1.1-3.7,0.7-7.7,0.9-11.5s1-8,4-10.5c2.3-1.9,5.5-2.4,8.5-2.6
	c4.1-0.3,8.5-0.1,12.2,1.8c5.8,3.1,8.5,10.1,8.9,16.6c0.2,3.6-0.2,7.2,0.6,10.6c0.4,1.3,0.6,2.6,0.5,3.9c-0.3,1.3-0.9,2.4-1.8,3.3
	c-6.3,7.4-15.9,10.7-25.3,11.5c-3,0.3-9.4,1.4-12-0.7C147.5,200.8,148.9,192.8,150.2,189.5z"/>
<linearGradient id="SVGID_2_" gradientUnits="userSpaceOnUse" x1="264.101" y1="263.8181" x2="280.6731" y2="263.8181" gradientTransform="matrix(0.9901 -0.14 -0.14 -0.9901 -56.5831 485.3002)">
	<stop  offset="0" style="stop-color:#E5C6D6"/>
	<stop  offset="0.42" style="stop-color:#EAD4D0"/>
	<stop  offset="1" style="stop-color:#F0E9CB"/>
</linearGradient>
<path class="st3" d="M170.6,186.2c0.1-1.2-1.1-6.8-1.1-7.9c0-2.8,2.7-1.1,5.2-2.2s7.4-1.4,7.7,1.3c0.8,6.9,0.2,9.3,1.6,10.9
	c1.3,1.4,1.7,3.1,0.5,4.6c-1.2,1.5-2.9,2.6-4.7,3c-2.1,0.4-4.3-0.4-6.4-1.1c-1.5-0.5-4.4-1.6-4.8-3.4S170.5,188.1,170.6,186.2z"/>
<linearGradient id="SVGID_3_" gradientUnits="userSpaceOnUse" x1="176.4078" y1="277.1801" x2="181.6678" y2="307.7101" gradientTransform="matrix(1 0 0 -1 -1.54 468.8398)">
	<stop  offset="0.12" style="stop-color:#010101;stop-opacity:0"/>
	<stop  offset="0.95" style="stop-color:#010101"/>
</linearGradient>
<path class="st4" d="M169.7,180.4c0,0,1,5.8,5.7,6.4c2.5,0.5,5.2,0.2,7.5-0.8l0.2-7L169.7,180.4z"/>
<linearGradient id="SVGID_4_" gradientUnits="userSpaceOnUse" x1="155.9307" y1="75.8932" x2="179.2014" y2="75.8932" gradientTransform="matrix(1 0 0 -1 -1.54 468.8398)">
	<stop  offset="0" style="stop-color:#E5C6D6"/>
	<stop  offset="0.42" style="stop-color:#EAD4D0"/>
	<stop  offset="1" style="stop-color:#F0E9CB"/>
</linearGradient>
<path class="st5" d="M159,402.3c0.6,9.7,1.2,17.8,2.3,22c0.7,2.6,2.4,5.4,5.1,5.9c1.9,0.2,3.8-0.6,5-2.1c1.1-1.5,1.9-3.3,2.3-5.2
	c2-7.3,0.6-44.4,3.8-59.5c0.2-0.9,0.1-1.9-0.4-2.8c-0.4-0.6-0.8-1.1-1.4-1.5c-4.5-3.4-19.5-6.2-21.3,1.8
	C153.5,365.7,158.6,396.4,159,402.3z"/>
<linearGradient id="SVGID_5_" gradientUnits="userSpaceOnUse" x1="-20.1014" y1="76.2298" x2="0.3186" y2="76.2298" gradientTransform="matrix(-1 0 0 -1 185.22 468.8398)">
	<stop  offset="0" style="stop-color:#E5C6D6"/>
	<stop  offset="0.42" style="stop-color:#EAD4D0"/>
	<stop  offset="1" style="stop-color:#F0E9CB"/>
</linearGradient>
<path class="st6" d="M201.2,424.3c-0.9,2.6-2.4,5.4-5.1,5.9c-1.9,0.2-3.8-0.6-5-2.1c-1.1-1.5-1.9-3.3-2.3-5.2
	c-2-7.3-2.3-15-2.5-22.5l-1.3-36.9c-0.1-0.9,0-1.9,0.4-2.8c0.4-0.6,0.8-1.1,1.4-1.5c4.5-3.4,16.6-7.4,18.3,0.6
	C206.1,364.6,204.5,415.1,201.2,424.3z"/>
<linearGradient id="SVGID_6_" gradientUnits="userSpaceOnUse" x1="107.1884" y1="214.423" x2="165.4451" y2="214.423" gradientTransform="matrix(1 0 0 -1 -1.54 468.8398)">
	<stop  offset="0" style="stop-color:#E5C6D6"/>
	<stop  offset="0.42" style="stop-color:#EAD4D0"/>
	<stop  offset="1" style="stop-color:#F0E9CB"/>
</linearGradient>
<path class="st7" d="M161.8,190.5c-3.6,1.9-6.9,4-9.2,7.4c-1.9,2.8-3.4,5.9-4.6,9.1c-12.7,30.8-19.2,64.7-37.9,92.4
	c-2.7,3.9-4.2,8.4-4.5,13.2c-0.1,2.1,0.1,4.6,2,5.5c1.3,0.4,2.7,0.3,3.8-0.3c4.8-2.1,8.5-6.2,10-11.3c0.2-0.9,0.5-1.8,1-2.6
	c0.4-0.6,0.9-1,1.3-1.6c1.7-2.3,1.5-5.4,1.8-8.2c0.4-3.7,2-7.2,3.6-10.6c6.4-13.8,13-27.4,19.8-41c2.5-4.8,4.7-9.7,6.6-14.7
	c1.4-4,2.3-8.2,3.4-12.4C162.9,201,166.2,191.1,161.8,190.5z"/>
<linearGradient id="SVGID_7_" gradientUnits="userSpaceOnUse" x1="190.1195" y1="216.4102" x2="255.3911" y2="216.4102" gradientTransform="matrix(1 0 0 -1 -1.54 468.8398)">
	<stop  offset="0" style="stop-color:#E5C6D6"/>
	<stop  offset="0.42" style="stop-color:#EAD4D0"/>
	<stop  offset="1" style="stop-color:#F0E9CB"/>
</linearGradient>
<path class="st8" d="M189.7,187.9c0,0,21.9,6.5,28.2,24.5s25.8,80.8,25.8,80.8s10.5,11.1,10.1,14.5s-0.5,10.6-5.6,8.9
	s-14.2-7.9-14.9-12.7c-0.4-4-0.6-8-0.4-12l-25.6-61.7l-9-11.3C198.3,219,184.7,193.6,189.7,187.9z"/>
<linearGradient id="SVGID_8_" gradientUnits="userSpaceOnUse" x1="278.1" y1="47.9826" x2="292.2315" y2="47.9826" gradientTransform="matrix(1 0 0 -1 -1.54 468.8398)">
	<stop  offset="0" style="stop-color:#E5C6D6"/>
	<stop  offset="0.42" style="stop-color:#EAD4D0"/>
	<stop  offset="1" style="stop-color:#F0E9CB"/>
</linearGradient>
<path class="st9" d="M277.1,429.6c-0.1,2-0.3,4.1,0.7,5.8c1.3,2.5,4.5,3.5,7,2.1c0.8-0.4,1.4-1,1.9-1.7c0.7-1.1,1.1-2.4,1.3-3.7
	c1.4-7.3,2.3-14.7,2.7-22.1c0.1-2.1,0-4.5-1.7-5.7c-1.2-0.7-2.6-1-4-0.8c-2.1,0-5,0-6.9,1.3c-2.3,1.5-1.4,3.3-1.2,5.8
	C277.4,417,277.5,423.3,277.1,429.6z"/>
<linearGradient id="SVGID_9_" gradientUnits="userSpaceOnUse" x1="356.7021" y1="23.2932" x2="370.8121" y2="23.2932" gradientTransform="matrix(0.9929 -0.1191 -0.1191 -0.9929 -53.5713 485.5985)">
	<stop  offset="0" style="stop-color:#E5C6D6"/>
	<stop  offset="0.42" style="stop-color:#EAD4D0"/>
	<stop  offset="1" style="stop-color:#F0E9CB"/>
</linearGradient>
<path class="st10" d="M299.4,428.6c0.1,2,0.2,4.1,1.4,5.7c1.7,2.3,4.9,2.9,7.3,1.2c0.7-0.5,1.3-1.2,1.6-1.9c0.5-1.2,0.8-2.5,0.8-3.8
	c0.5-7.4,0.5-14.8,0-22.3c-0.1-2.1-0.5-4.5-2.3-5.5c-1.3-0.5-2.7-0.6-4-0.3c-2.1,0.3-5,0.6-6.7,2.1c-2.1,1.8-1,3.4-0.5,5.9
	C298.2,416,299,422.3,299.4,428.6z"/>
<linearGradient id="SVGID_10_" gradientUnits="userSpaceOnUse" x1="303.2397" y1="116.3725" x2="326.0797" y2="116.3725" gradientTransform="matrix(1 0 0 -1 -1.54 468.8398)">
	<stop  offset="0" style="stop-color:#E5C6D6"/>
	<stop  offset="0.42" style="stop-color:#EAD4D0"/>
	<stop  offset="1" style="stop-color:#F0E9CB"/>
</linearGradient>
<path class="st11" d="M314.5,340.7c2.8,5.5,4.4,11.6,6.9,17.3c1.3,3,2.9,6,3.2,9.3s-1.3,7-4.4,8c-2.9,0.8-5.8-0.8-6.7-3.7
	c-0.2-1.5-0.3-2.9-0.2-4.4c-0.1-3.6-1.9-6.8-3.4-10c-3.4-7.3-7.1-16.5-8-24.6c-0.6-5.4,4-2.5,6.3-0.4
	C310.7,334.6,312.9,337.5,314.5,340.7z"/>
<path class="st1" d="M290.5,284.6c-4.1,2.1-7.3,5.6-8.9,9.9c-1.3,3.6-1.3,7.5-1.8,11.2c-0.4,3.2-1.3,6.3-2.5,9.2
	c-1.1,2.7-2.5,5.5-2.2,8.4c0.3,2.1,1.3,4,2.8,5.5c4.7,5.1,12.4,6.8,19.1,5.2c1.6-0.3,3-1,4.3-1.9c2.3-1.8,3.2-4.9,3.6-7.8
	s0.3-5.9,1.3-8.7c0.8-1.9,1.7-3.8,2.9-5.5c1.6-2.8,3.2-5.6,4.5-8.6c0.5-1.1,1-2.2,1.2-3.4c0.5-3.5-1-7-3.9-9
	c-1.6-1.2-3.6-1.9-5.3-2.9c-1.1-0.7-2.2-1.6-3.4-2.2C298.8,282.2,293.6,282.9,290.5,284.6z"/>
<linearGradient id="SVGID_11_" gradientUnits="userSpaceOnUse" x1="346.41" y1="173.6963" x2="350.76" y2="173.6963" gradientTransform="matrix(1 0 0 -1 -1.54 468.8398)">
	<stop  offset="0" style="stop-color:#E5C6D6"/>
	<stop  offset="0.42" style="stop-color:#EAD4D0"/>
	<stop  offset="1" style="stop-color:#F0E9CB"/>
</linearGradient>
<path class="st12" d="M345.5,292.9c-0.4,0.3-0.6,0.9-0.6,1.4c0,0.5,0.2,1,0.6,1.5c0.6,0.9,1.4,1.5,2.4,1.9c0.3,0.2,0.7,0.2,1.1,0
	c0.2-0.2,0.3-0.4,0.3-0.6c0.1-0.7,0-1.4-0.3-2C348.5,293.8,347,291.8,345.5,292.9z"/>
<linearGradient id="SVGID_12_" gradientUnits="userSpaceOnUse" x1="375.04" y1="176.6783" x2="378.67" y2="176.6783" gradientTransform="matrix(1 0 0 -1 -1.54 468.8398)">
	<stop  offset="0" style="stop-color:#E5C6D6"/>
	<stop  offset="0.42" style="stop-color:#EAD4D0"/>
	<stop  offset="1" style="stop-color:#F0E9CB"/>
</linearGradient>
<path class="st13" d="M374.6,289.4c0.4-0.4,0.9-0.7,1.5-0.6c0.4,0.1,0.7,0.5,0.9,0.9c0.1,0.4,0.1,0.9,0.1,1.3c0,1-0.3,2-0.8,2.9
	c-0.4,0.6-1,1.1-1.6,1.5c-0.1,0.1-0.3,0.2-0.5,0.2c-0.4,0-0.6-0.5-0.6-0.8C373.5,292.9,373.3,290.7,374.6,289.4z"/>
<linearGradient id="SVGID_13_" gradientUnits="userSpaceOnUse" x1="344.44" y1="49.0959" x2="359.96" y2="49.0959" gradientTransform="matrix(1 0 0 -1 -1.54 468.8398)">
	<stop  offset="0" style="stop-color:#E5C6D6"/>
	<stop  offset="0.42" style="stop-color:#EAD4D0"/>
	<stop  offset="1" style="stop-color:#F0E9CB"/>
</linearGradient>
<path class="st14" d="M345.5,401l-2.6,36.7c0,0,4.2,1.8,6.8,0.7s8.8-37.8,8.8-37.8L345.5,401z"/>
<linearGradient id="SVGID_14_" gradientUnits="userSpaceOnUse" x1="-132.33" y1="51.1058" x2="-116.81" y2="51.1058" gradientTransform="matrix(-1 0 0 -1 254.4 468.8398)">
	<stop  offset="0" style="stop-color:#E5C6D6"/>
	<stop  offset="0.42" style="stop-color:#EAD4D0"/>
	<stop  offset="1" style="stop-color:#F0E9CB"/>
</linearGradient>
<path class="st15" d="M384.2,399l2.5,36.7c0,0-4.2,1.8-6.8,0.7s-8.8-37.8-8.8-37.8L384.2,399z"/>
<path class="st1" d="M343.4,375.4c0,0-1.8,24.7-0.5,26.1s16.6,0.4,16.6,0.4l5.1-12.4l5.1,13.7c0,0,15,0,15.7-1.1s-0.2-30.5-3.1-31.8
	S343.4,375.4,343.4,375.4z"/>
<linearGradient id="SVGID_15_" gradientUnits="userSpaceOnUse" x1="314.11" y1="111.9929" x2="339.13" y2="111.9929" gradientTransform="matrix(1 0 0 -1 -1.54 468.8398)">
	<stop  offset="0" style="stop-color:#E5C6D6"/>
	<stop  offset="0.42" style="stop-color:#EAD4D0"/>
	<stop  offset="1" style="stop-color:#F0E9CB"/>
</linearGradient>
<path class="st16" d="M315.4,361.2c-1.2,1.7-2.1,3.5-2.6,5.5c-0.5,2,0,4.2,1.5,5.6c1.3,1,2.9,1.4,4.6,1.3c2,0,4.2-0.6,5.1-2.4
	c0.4-1.1,0.7-2.3,0.8-3.5c0.7-3.4,3.7-5.7,6.1-8.2c1.6-1.6,3-3.3,4.2-5.2c1.8-2.8,3.1-6.2,2.3-9.4c-0.6-2.3-2.4-4-4.6-4.6
	c-3-0.6-4.3,2-5.9,4.2C322.7,349.7,319,355.5,315.4,361.2z"/>
<path class="st17" d="M357.9,311.5c-5.1,0.5-10.6,1-14.7,4.1c-2.4,2-4.5,4.4-5.9,7.2c-3.5,6.1-5.7,10.6-9,16.8
	c-1.8,3.3,9.4,9.9,9.4,9.9c1.2-0.6,2.2-1.6,2.8-2.9c0.7,9.1,1.6,17.6,2.3,26.7c0,0.8,0.2,1.5,0.6,2.2c0.8,1,2.4,0.9,3.7,0.7
	l32.4-4.7c1.8,0.2,3.4-1.1,3.6-2.9c0-0.4,0-0.7-0.1-1.1l0.4-25c-0.1-2.1,0.2-4.2,0.7-6.2c0.7-1.9,1.8-3.7,3.1-5.2
	c2.2-2.9,3.4-0.5,5.9-3.1c0.5-0.4,0.9-1,1-1.7c-0.1-0.7-0.4-1.3-0.8-1.8c-3.2-4-2-10.9-5.2-14.9
	C380.4,313.6,366.6,310.7,357.9,311.5z"/>
<linearGradient id="SVGID_16_" gradientUnits="userSpaceOnUse" x1="358.5085" y1="159.5874" x2="370.6023" y2="159.5874" gradientTransform="matrix(1 0 0 -1 -1.54 468.8398)">
	<stop  offset="0" style="stop-color:#E5C6D6"/>
	<stop  offset="0.42" style="stop-color:#EAD4D0"/>
	<stop  offset="1" style="stop-color:#F0E9CB"/>
</linearGradient>
<path class="st18" d="M357.1,310.8c-0.4,2.3-0.3,5,1.5,6.4c0.7,0.5,1.6,0.9,2.5,1.1c0.7,0.2,1.3,0.3,2,0.3c2.5-0.1,4.5-2.2,5.3-4.6
	c0.7-2.4,0.8-4.9,0.5-7.4c0-1.3-0.3-2.6-0.8-3.8c-1.1-2-3.3-3.1-5.6-2.9C356,300.5,357.9,306.1,357.1,310.8z"/>
<path class="st1" d="M456.4,294.9c-2.4,7.5-3,15.5-3.5,23.3c-2,29.6-3.7,59.2-5,88.8c-0.5,10.5,1.7,24.3-7.5,31.7
	c-2.5,2.1-5.6,3.5-7.5,6.1c-0.3,0.3-0.4,0.7-0.5,1.2c0,1.3,1.7,1.7,3,1.7c5,0,9.9,0,14.9-0.1c2.3,0,4.8-0.3,6.2-2.1
	c1.1-1.5,1-3.6,1.1-5.5c0.4-4.8,4.5-9.4,5.5-14.1c15.8-67.9,17.7-84,24.4-96.3c2.9,6,6,20.7,6.6,27.4c1.3,15.3,4.1,27,4.9,42.4
	c0.4,7.4-0.1,15,0.7,22.4s3.1,15.1,5.3,22.2c0.2,1.9,1.9,3.2,3.8,3c6.4,0.6,12.9,0.6,19.4,0.3c0.9,0,1.7-0.2,2.5-0.6
	c1.6-1,1.6-3.5,0.6-5.1s-2.7-2.6-4.2-3.8c-5.6-4.6-8.6-11.7-7.9-18.9c0.4-3.9,0.6-7.9,0.6-11.8c-0.1-4.9-0.1-9.8,0-14.8
	c0.4-19.7,2-39.3,1.8-59c0-12.1-1.2-24.2-3.4-36.2c-0.3-1.7-0.8-3.5-2.2-4.6s-3.1-1.1-4.7-1.1h-37.6
	C467.4,291.4,461.5,291.2,456.4,294.9z"/>
<path class="st17" d="M433.9,236.5l6.4-20.4c2.2-7.1,4.5-14.4,9.3-20.1c7.2-8.7,18.7-12.3,29.5-15.5c2.5-0.7,5.2-1,7.8-0.6
	c9,1.1,20.8-1.4,29.7,3.7c5.1,2.9,8.6,8,11.7,13c18.8,31,28.3,66.8,27.4,103.1c0,1.8-0.2,3.8-1.6,4.9c-0.8,0.5-1.6,0.9-2.5,1
	c-2,0.5-5.7-0.8-8.8-1.6c-2.7-0.7-4.6-3-4.8-5.8c-0.6-8.3,0.3-14.6-1.4-23.9c-2.7-14.3-6-29.1-15-40.5l1,44.6
	c0.1,3.6,0.2,7.4-1,10.8c-2,6.2-7.7,10.7-14,12.8c-6.3,2-12.9,1.9-19.5,1.4c-6.6-0.6-13.2-1.6-19.6-3c-5.3-1.1-11-2.9-14-7.4
	c-2.3-3.4-2.7-7.7-2.7-11.8c0.1-6.8,1-13.5,2.7-20.1c2.6-9.8,6.9-20.9,1.5-29.5c-6.2,9-8.6,20-9.6,30.9c-0.6,6.1-7.1,25.6-14.9,26.5
	c-3.9,0.5-7.8-1-10.3-4.1c-3.7-4.8-1.8-10.6,0-15.8C426,256.1,429.8,249.8,433.9,236.5z"/>
<linearGradient id="SVGID_17_" gradientUnits="userSpaceOnUse" x1="479.8" y1="286.3118" x2="502.27" y2="286.3118" gradientTransform="matrix(1 0 0 -1 -1.54 468.8398)">
	<stop  offset="0" style="stop-color:#E5C6D6"/>
	<stop  offset="0.42" style="stop-color:#EAD4D0"/>
	<stop  offset="1" style="stop-color:#F0E9CB"/>
</linearGradient>
<path class="st19" d="M500,190.9c-0.9,2.1-2.3,4-3.9,5.6c-1.2,1.4-3,2-4.8,1.7c-5-0.4-9.3-4-12-8.3c-0.4-0.6-0.7-1.3-0.9-2
	c-0.1-1.4,0.1-2.8,0.6-4.1c0.6-2.7,1-5.5,1-8.3l0,0c0-0.4,0-0.9,0-1.4c-0.1-1.4-0.1-3.1,0.6-4.2c1.9-3.1,8.1-3.5,11.2-2.8
	c2.4,0.4,4.4,1.8,5.7,3.8c0.5,1,0.8,2.1,0.8,3.2c0.1,1.4,0.1,2.8,0,4.1c-0.1,2.4,0.3,4.7,1.4,6.8c0.2,0.4,0.4,0.7,0.6,1.1
	c0.2,0.3,0.3,0.6,0.4,0.9C500.8,188.3,500.6,189.7,500,190.9z"/>
<linearGradient id="SVGID_18_" gradientUnits="userSpaceOnUse" x1="491.09" y1="279.8598" x2="493.15" y2="317.8598" gradientTransform="matrix(1 0 0 -1 -1.54 468.8398)">
	<stop  offset="0.12" style="stop-color:#010101;stop-opacity:0"/>
	<stop  offset="0.95" style="stop-color:#010101"/>
</linearGradient>
<path class="st20" d="M500.2,186.2c0,0-4.6,2-12.3,0.5c-6.1-1.2-7.6-8.2-7.9-11.3l0,0c-0.1-0.5-0.1-0.9-0.1-1.4h18.3
	c0.1,1.4,0.1,2.8,0,4.1c-0.1,2.4,0.3,4.7,1.4,6.8c0.2,0.4,0.4,0.7,0.6,1.1V186.2z"/>
<linearGradient id="SVGID_19_" gradientUnits="userSpaceOnUse" x1="486.1226" y1="332.8024" x2="495.6946" y2="287.3525" gradientTransform="matrix(1 0 0 -1 -1.54 468.8398)">
	<stop  offset="0" style="stop-color:#E5C6D6"/>
	<stop  offset="0.42" style="stop-color:#EAD4D0"/>
	<stop  offset="1" style="stop-color:#F0E9CB"/>
</linearGradient>
<path class="st21" d="M469.2,153.9c0.8,6.2,2.5,12.4,6.4,17.3s10.2,8.1,16.3,6.9c1.8-0.4,3.6-1,5.2-1.8c1-0.4,1.9-0.9,2.7-1.6
	c0.8-0.9,1.5-1.9,1.9-3.1c1.1-2.4,2.1-4.9,2.8-7.4c0.8-3.1,1.2-6.2,1.4-9.4c0.4-3.1,0.4-6.2,0-9.3c-0.7-4.4-2.9-8.4-6.1-11.5
	c-0.6-0.6-1.3-1.1-2-1.5c-1-0.4-2-0.6-3.1-0.6c-3.3-0.3-6.5-0.3-9.8,0.1c-3.3,0.4-6.4,1.7-8.9,3.8c-2.5,2.4-4.3,5.3-5.3,8.6
	c-0.5,1.5-1,3-1.5,4.5S469,152.4,469.2,153.9z"/>
<path class="st1" d="M465.7,136.1c0-1.4,0.1-2.8,0.3-4.2c0.1-0.6,0.4-1.2,0.9-1.6c0.3-0.2,0.7-0.3,1-0.3c1.7-0.5,2.7-2.2,3.8-3.6
	c7.4-10.2,21.6-12.4,31.8-5.1c0.3,0.2,0.5,0.4,0.8,0.6c1.2,0.9,2.2,2,3,3.2c0.9,1.5,1.4,3.2,2.4,4.6c1.2,1.6,3,2.7,4.1,4.3
	c1.6,2.4,1.5,5.6,0.6,8.4s-2.5,5.2-3.7,7.8s-2.3,5.8-5,6.7c-0.3-0.7-0.3-1.5-0.2-2.3c0.4-4,0.3-8.1-0.4-12.1c0-0.3-0.2-0.7-0.4-0.9
	c-0.3-0.2-0.6-0.3-1-0.2c-2.1,0-4.3,0.4-6.4,0.3c-5-0.2-9.7-2.5-14.6-3.3c-2-0.5-4.1-0.2-6,0.6c-1.4,0.9-2.6,2.2-3.4,3.7
	c-1.4,1.9-2.3,4.1-2.7,6.5c0,1-0.2,2-0.3,3c-0.6,2.4-1.8,1.5-2.5-0.3c-0.7-1.6-1.1-3.4-1.4-5.1C465.8,143.2,465.6,139.7,465.7,136.1
	z"/>
<linearGradient id="SVGID_20_" gradientUnits="userSpaceOnUse" x1="540.4626" y1="156.4471" x2="559.1027" y2="156.4471" gradientTransform="matrix(1 0 0 -1 -1.54 468.8398)">
	<stop  offset="0" style="stop-color:#E5C6D6"/>
	<stop  offset="0.42" style="stop-color:#EAD4D0"/>
	<stop  offset="1" style="stop-color:#F0E9CB"/>
</linearGradient>
<path class="st22" d="M542.6,324.2c0.2,0.6,0.5,1.2,0.9,1.7c0.9,0.6,2,0.9,3,0.5c2.6-0.6,4.8-2.1,6.4-4.2c1.6-2.1,2.8-4.4,3.6-6.9
	c0.7-1.7,1-3.5,1-5.4c-0.1-1.5-0.5-3.1-1.2-4.5c-1.4-3.1-3.7-6-6.9-7c-4.4-1.2-9,1.5-10.1,6c0,0,0,0,0,0
	C538,311.1,540.5,318.1,542.6,324.2z"/>
<linearGradient id="SVGID_21_" gradientUnits="userSpaceOnUse" x1="347.9678" y1="177.9081" x2="376.4566" y2="177.9081" gradientTransform="matrix(1 0 0 -1 -1.54 468.8398)">
	<stop  offset="0" style="stop-color:#E5C6D6"/>
	<stop  offset="0.42" style="stop-color:#EAD4D0"/>
	<stop  offset="1" style="stop-color:#F0E9CB"/>
</linearGradient>
<path class="st23" d="M349.8,301.1c0.7,2,1.9,3.8,3.3,5.4c2,2,4.8,3.2,7.7,3.1c4.6-0.1,8.7-3.4,10.9-7.5s2.9-8.8,3.1-13.4
	c0.2-2.7,0-5.4-0.8-7.9c-1.7-4.2-5.3-7.3-9.7-8.2c-4.4-0.8-9,0.1-12.6,2.7c-1.2,0.8-2.3,1.8-3.1,3c-1,1.9-1.7,4-1.8,6.2
	c-0.3,1.4-0.4,2.9-0.2,4.3c0.3,1.2,0.6,2.3,0.8,3.5C347.8,295.3,348.6,298.2,349.8,301.1z"/>
<path class="st1" d="M342.1,285.9c-1.6-2.7-2.5-5.8-2.7-8.9c0-1.2,0.1-2.5,1.1-3.1c0.4-0.2,0.8-0.3,1.2-0.4c1-0.5,1.9-1.3,2.6-2.2
	c1.8-1.6,3.9-3,6.1-4c1.1-0.6,2.2-1.1,3.5-1.4c1-0.2,2-0.2,3-0.1c3.9,0.1,8.1,0.6,11,3.1c0.4,0.4,0.8,0.8,1.3,1.1
	c1.5,1.1,3.5,1.2,4.8,2.4c0.7,0.6,1.2,1.3,1.5,2.1c1.2,2.5,1.6,5.3,1.1,8c-0.2,1.1-0.5,2.3-0.9,3.4l-1.1,3.7
	c-1.5-3.8-3.2-7.6-4.9-11.4c-2.2,0.8-4.5,1.4-6.9,1.7c-2.7,0.2-5.5-0.3-8.1,0.6c-1.8,0.8-3.4,1.9-4.8,3.3c-0.6,0.6-1.2,1.2-1.6,1.9
	c-1.3,2.3,0,5.2-1.1,7.5c-1-0.3-2.1-2.6-2.7-3.4C343.7,288.6,342.9,287.3,342.1,285.9z"/>
<linearGradient id="SVGID_22_" gradientUnits="userSpaceOnUse" x1="388.2295" y1="163.0798" x2="430.2748" y2="163.0798" gradientTransform="matrix(1 0 0 -1 -1.54 468.8398)">
	<stop  offset="0" style="stop-color:#E5C6D6"/>
	<stop  offset="0.42" style="stop-color:#EAD4D0"/>
	<stop  offset="1" style="stop-color:#F0E9CB"/>
</linearGradient>
<path class="st24" d="M400.5,304.9c0,0-9.3,4.9-12.4,5.8s-0.3,15.1,2.6,14.4s21.7-15,23.2-15.9s4.4-2.9,4.4-2.9s4.6,0.4,8.8-5.7
	s-0.2-12.1-0.9-12.2s-3.6-2.7-5.4-2.1s-6.6,6.9-6.6,6.9S406.8,303.1,400.5,304.9z"/>
<linearGradient id="SVGID_23_" gradientUnits="userSpaceOnUse" x1="418.1027" y1="174.5356" x2="433.5572" y2="174.5356" gradientTransform="matrix(1 0 0 -1 -1.54 468.8398)">
	<stop  offset="0" style="stop-color:#E5C6D6"/>
	<stop  offset="0.42" style="stop-color:#EAD4D0"/>
	<stop  offset="1" style="stop-color:#F0E9CB"/>
</linearGradient>
<path class="st25" d="M416.6,297.9c0.1,1.9,0.3,4,1.5,5.5c1.7,2.1,4.8,2.5,6.9,0.9c0.4-0.3,0.8-0.7,1-1.1c1.1-1.6,1.2-3.8,2.1-5.5
	s2.8-3.2,3.5-5.1c2-4.8-3.9-10.7-8.6-8.8C417.4,286,416.4,292.6,416.6,297.9z"/>
<path class="st1" d="M344.6,433.9c-0.8-0.1-1.6,0-2.3,0.1c-0.5,0.2-1.1,0.5-1.5,0.8l-5.5,3.8c-0.8,0.6-1.7,1.3-1.7,2.3
	c0,0.4,0.2,0.9,0.4,1.2c1.1,1.4,3.2,1.5,5,1.4l8.2-0.5c1.4,0.2,2.7-0.6,3.3-1.9c1-1.7,2.9-4.4,1.5-6.3
	C350.3,432.5,346.8,433.9,344.6,433.9z"/>
<path class="st1" d="M384.3,433.9c0.8-0.1,1.6,0,2.3,0.1c0.5,0.2,1.1,0.5,1.5,0.8l5.5,3.8c0.8,0.6,1.7,1.3,1.7,2.3
	c0,0.4-0.2,0.9-0.5,1.2c-1.1,1.4-3.2,1.5-5,1.4l-8.2-0.5c-1.4,0.2-2.7-0.6-3.3-1.9c-1-1.7-2.9-4.4-1.5-6.3
	C378.6,432.5,382.1,433.9,384.3,433.9z"/>
<path class="st17" d="M277.1,343c-0.5,2.5-1.1,4.9-2,7.3c-2.8,8.6-5.6,17.2-8.5,25.8c-2.8,8.7-6.1,17.3-9.9,25.6
	c10.5,4.9,21.8,9.8,33.3,8.3c4.1-0.5,8-1.9,12.1-2.4s8.4-0.2,12.6-0.5s8.5-1.5,11.5-4.5l-6.1-11.9c-2.2-4.3-4.4-8.7-6.3-13.2
	c-3.4-8.6-5.3-17.8-5.5-27.1c-0.1-4.8,0.2-9.7-0.8-14.4c-0.4-2.3-1.4-4.4-3-6.1c-2.1-2-5.2-2.5-8.1-2.7c-4.2-0.4-13.2-2.3-16.9,0.4
	S277.8,339.1,277.1,343z"/>
<linearGradient id="SVGID_24_" gradientUnits="userSpaceOnUse" x1="212.037" y1="177.0468" x2="215.907" y2="177.0468" gradientTransform="matrix(0.9925 0.1219 0.1219 -0.9925 50.7765 458.3266)">
	<stop  offset="0" style="stop-color:#E5C6D6"/>
	<stop  offset="0.42" style="stop-color:#EAD4D0"/>
	<stop  offset="1" style="stop-color:#F0E9CB"/>
</linearGradient>
<path class="st26" d="M283.6,306.5c-0.4,0.2-0.7,0.7-0.7,1.2c0,0.5,0.1,0.9,0.3,1.4c0.4,0.8,1.1,1.5,1.9,1.9
	c0.3,0.2,0.6,0.2,0.9,0.1c0.2-0.1,0.3-0.3,0.3-0.5c0.2-0.6,0.2-1.2,0-1.8C286.1,307.6,285.1,305.7,283.6,306.5z"/>
<linearGradient id="SVGID_25_" gradientUnits="userSpaceOnUse" x1="237.5255" y1="179.6932" x2="240.7555" y2="179.6932" gradientTransform="matrix(0.9925 0.1219 0.1219 -0.9925 50.7765 458.3266)">
	<stop  offset="0" style="stop-color:#E5C6D6"/>
	<stop  offset="0.42" style="stop-color:#EAD4D0"/>
	<stop  offset="1" style="stop-color:#F0E9CB"/>
</linearGradient>
<path class="st27" d="M309.7,306.6c0.4-0.4,0.9-0.5,1.4-0.3c0.3,0.2,0.6,0.5,0.6,0.9c0.1,0.4,0,0.8,0,1.1c-0.1,0.9-0.5,1.7-1,2.5
	c-0.4,0.5-1,0.8-1.5,1.1c-0.1,0.1-0.3,0.1-0.4,0.1c-0.3,0-0.4-0.5-0.4-0.8C308.3,309.6,308.4,307.6,309.7,306.6z"/>
<linearGradient id="SVGID_26_" gradientUnits="userSpaceOnUse" x1="291.2576" y1="146.478" x2="302.0276" y2="146.478" gradientTransform="matrix(1 0 0 -1 -1.54 468.8398)">
	<stop  offset="0" style="stop-color:#E5C6D6"/>
	<stop  offset="0.42" style="stop-color:#EAD4D0"/>
	<stop  offset="1" style="stop-color:#F0E9CB"/>
</linearGradient>
<path class="st28" d="M289.9,323.7c-0.3,2-0.3,4.4,1.3,5.7c0.6,0.5,1.4,0.8,2.2,1c0.6,0.2,1.2,0.2,1.8,0.2c2.2-0.1,4-2,4.7-4
	c0.6-2.1,0.7-4.4,0.5-6.5c0-1.2-0.2-2.3-0.7-3.4c-1-1.8-3-2.8-5-2.5C288.9,314.5,290.5,319.5,289.9,323.7z"/>
<linearGradient id="SVGID_27_" gradientUnits="userSpaceOnUse" x1="294.7658" y1="143.0016" x2="302.0758" y2="157.8817" gradientTransform="matrix(1 0 0 -1 -1.54 468.8398)">
	<stop  offset="0.12" style="stop-color:#010101;stop-opacity:0"/>
	<stop  offset="0.95" style="stop-color:#010101"/>
</linearGradient>
<path class="st29" d="M295.2,325.1c0.7,0.3,1.5,0.5,2.3,0.5c0.8,0,1.6-0.3,2.1-0.9c0.6-0.9,0.9-1.9,0.7-3c0-0.4-0.1-0.8-0.2-1.1
	c-0.2-0.5-0.6-0.8-1.1-1c-1-0.4-2.1-0.6-3.3-0.6c-1.3,0-2.6,0-3.9,0.2c-1.4,0.2-2.1,0.3-1.3,1.7
	C291.6,322.8,293.2,324.3,295.2,325.1z"/>
<linearGradient id="SVGID_28_" gradientUnits="userSpaceOnUse" x1="213.4174" y1="180.7813" x2="238.7774" y2="180.7813" gradientTransform="matrix(0.9925 0.1219 0.1219 -0.9925 50.7765 458.3266)">
	<stop  offset="0" style="stop-color:#E5C6D6"/>
	<stop  offset="0.42" style="stop-color:#EAD4D0"/>
	<stop  offset="1" style="stop-color:#F0E9CB"/>
</linearGradient>
<path class="st30" d="M286.5,314.2c0.4,1.8,1.2,3.6,2.3,5.1c1.6,2,3.9,3.3,6.5,3.6c4.1,0.4,8.1-2.1,10.5-5.4s3.5-7.4,4.1-11.5
	c0.5-2.3,0.6-4.7,0.1-7.1c-1-3.9-3.9-7-7.7-8.3c-3.8-1.2-7.9-0.9-11.5,1c-1.2,0.6-2.2,1.3-3.1,2.3c-1.1,1.6-1.9,3.4-2.3,5.3
	c-0.4,1.2-0.7,2.5-0.6,3.8c0.1,1.1,0.3,2,0.3,3.1C285.3,308.9,285.7,311.6,286.5,314.2z"/>
<path class="st1" d="M284.1,304.7c0.1,1.1,0.7,2,1.6,2.6c0.5,0.2,1.1,0.3,1.7,0.3c1.6,0.2,3.3,0.1,4.9-0.4c1.6-0.5,2.7-2,2.8-3.7
	c-0.2,0.9-0.2,2,0.6,2.4c0.2,0.1,0.5,0.1,0.8,0.1l3.6,0.2c1,0.1,2,0,3-0.2c1-0.3,1.8-1,2.1-2c0.7,1.1,2.1,1.4,3.3,1.4
	c0.6,0.1,1.3,0,1.9-0.3c1.2-0.6,1.5-2.1,1.7-3.4c0.4-1.9,0.4-3.8-0.1-5.7c-0.8-1.8-2-3.4-3.5-4.6c-1.2-1.1-2.6-2.1-4.1-2.8
	c-2-0.7-4.1-1-6.2-0.9c-2.3,0.1-4.6,0.4-6.9,0.9c-2.1,0.4-4,1.3-5.6,2.7c-1.8,1.8-1.5,3.5-1.5,5.8
	C284.2,299.9,283.5,302.1,284.1,304.7z"/>
<linearGradient id="SVGID_29_" gradientUnits="userSpaceOnUse" x1="248.13" y1="143.0702" x2="281.6" y2="143.0702" gradientTransform="matrix(1 0 0 -1 -1.54 468.8398)">
	<stop  offset="0" style="stop-color:#E5C6D6"/>
	<stop  offset="0.42" style="stop-color:#EAD4D0"/>
	<stop  offset="1" style="stop-color:#F0E9CB"/>
</linearGradient>
<path class="st31" d="M265.2,319.8c-3.7-4.1-6.9-8.8-11.4-12c-0.9-0.8-2-1.3-3.2-1.4c-2.1,0-3.8,2.1-4,4.2s0.7,4.2,1.6,6.1
	c5.7,11.3,14.3,20.8,25,27.5c0.7,0.5,1.6,0.9,2.5,0.9c1.8-0.1,2.9-2,3.4-3.7c0.8-2.7,1.1-5.5,0.8-8.2c-0.3-3.3-0.4-4.2-3.2-5.3
	C272.3,326.2,268.3,323.4,265.2,319.8z"/>
<path class="st1" d="M274.9,433.6c-1.5,1.2-3,2.4-4.4,3.7c-0.7,0.6-1.4,1.2-1.4,2.1c0,0.7,0.5,1.3,1.1,1.6c0.6,0.3,1.3,0.4,1.9,0.5
	c3.2,0.3,6.4,0.2,9.5-0.2c0.9-0.1,1.7-0.3,2.5-0.6c1.5-0.7,2.7-2,3.4-3.5C291.1,429.2,278.8,431,274.9,433.6z"/>
<path class="st1" d="M311.5,433.6c1.5,1.2,3,2.4,4.5,3.7c0.7,0.6,1.4,1.2,1.4,2.1c0,0.7-0.5,1.3-1.1,1.6c-0.6,0.3-1.3,0.4-1.9,0.5
	c-3.2,0.3-6.4,0.2-9.5-0.2c-0.9-0.1-1.7-0.3-2.5-0.6c-1.5-0.7-2.7-2-3.4-3.5C295.2,429.2,307.6,431,311.5,433.6z"/>
<path class="st17" d="M161.8,190.5c0.9,6.9-0.1,13.9-3,20.2c-1.3,2.5-2.5,5.1-3.5,7.8c-3.6,11.5,4.7,24,1.9,35.7
	c-8,32.9-22.9,64.3-24.1,98.1c-0.1,0.8,0,1.7,0.4,2.5c0.7,0.8,1.6,1.3,2.7,1.5c21,5.7,43,11.3,64.2,6.5c9.5-2.1,18.5-6.3,27.3-10.4
	c2-0.9,4.2-2.1,5-4.2c0.3-1.2,0.3-2.4,0.1-3.6c-1.4-11.5-3.3-23.1-7.5-33.9c-4.4-11.5-11.2-21.9-16.6-32.9s-9.5-23.3-7.8-35.5
	c1.1-8.1,4.6-16.6,1.2-24c-1.2-2.5-3-4.7-4.6-7c-3.2-4.8-5.1-10.4-5.5-16.1c-0.2-2.6-0.2-5.7-2.4-7.2c-2.6-1.9-6.2,0.1-8.7,2.2
	s-5.6,4.4-8.6,3.2c-1.6-0.6-2.6-2.1-3.8-3.2S163.1,189.5,161.8,190.5z"/>
<path class="st32" d="M160.8,423.1l-0.5,0.8"/>
<path class="st1" d="M163.3,424.1c-0.5-0.3-1.1-0.3-1.7-0.1c-0.6,0.3-0.8,1.1-0.9,1.8c-1,3.3-3.2,6.2-6.1,8
	c-1.3,0.8-2.6,1.7-3.8,2.7c-1.2,1-1.9,2.6-1.8,4.2c0,0.2,0.1,0.3,0.1,0.5c0.2,0.2,0.4,0.2,0.6,0.2c4,0.2,7.9,0.3,11.9,0.1
	c4-0.1,8.2-0.3,11.6-2.5c0.4-0.2,0.7-0.6,1-0.9c0.4-0.7,0.5-1.5,0.4-2.3v-6.8c0-1.2,0.6-4.9-0.5-5.6s-3.7,1.1-4.8,1.3
	C167.3,424.9,165.3,424.7,163.3,424.1z"/>
<path class="st1" d="M190.7,421.6c3.1,1,6.6,1.4,9.4-0.1c0.6-0.3,1.4-0.8,2-0.4c0.3,0.2,0.5,0.4,0.6,0.7c1,2,0.6,4.4,1.3,6.4
	c0.9,2.4,3.1,4,5.2,5.4c0.9,0.4,1.6,1.1,2.2,1.8c0.6,0.8,0.7,1.8,0.2,2.7c-0.7,0.7-1.7,1.1-2.7,1.1c-5.1,0.4-10.2,0.4-15.4,0.2
	c-0.6,0-1.3-0.1-1.9-0.4c-0.6-0.3-1.1-0.8-1.6-1.1c-0.6-0.2-1.2-0.5-1.7-0.8c-0.6-0.6-1.1-1.3-1.3-2.1c-1-3.2-1.3-6.6-1-9.9
	C186.5,421.7,187.4,420.5,190.7,421.6z"/>
<linearGradient id="SVGID_30_" gradientUnits="userSpaceOnUse" x1="161.2165" y1="305.545" x2="189.0614" y2="305.545" gradientTransform="matrix(1 0 0 -1 -1.54 468.8398)">
	<stop  offset="0" style="stop-color:#E5C6D6"/>
	<stop  offset="0.42" style="stop-color:#EAD4D0"/>
	<stop  offset="1" style="stop-color:#F0E9CB"/>
</linearGradient>
<path class="st33" d="M178.5,143.4c0,0,7.1,1.1,8.2,7.6s2.5,29-6.3,32s-17.3-7.4-18.9-11.6S154.1,140.2,178.5,143.4z"/>
<path class="st1" d="M158.3,161.9c0.5-1.9,2.6-2.8,4.4-3.4c2.8-0.9,5.3-2.3,7.6-4.2c2.3-1.9,3.6-4.7,3.6-7.6
	c0.5,1.7,1.7,3.1,3.3,3.8c1.6,0.8,3.3,1.3,4.8,2.1c1.8,1.1,3.3,2.7,4.2,4.6c0.1,0.4,0.4,0.8,0.8,1.1c0.8,0.4,1.7-0.5,2-1.4
	c0.8-2.8,0.4-5.8-1-8.3c-1.4-2.5-3.2-4.8-5.2-6.8c-1-1.2-2.2-2.2-3.5-3c-2.2-1.1-4.7-1.4-7.1-0.9c-10.1,1.7-17,11.2-15.4,21.4
	c0,0.1,0,0.2,0.1,0.3"/>
<path class="st34" d="M273.4,136.6c0,0,7.7-25.1,27.5-22s23.2,18.2,23.2,18.2s10.6-27.7,38.3-17.4c32.4,12.1,6.7,49.9,3.5,52.4
	s-45.1,42.4-45.1,42.4s-44-44.1-46.5-48.7S269.4,148.4,273.4,136.6z"/>
</svg>
