<?xml version="1.0" encoding="utf-8"?>
<!-- Generator: Adobe Illustrator 24.0.1, SVG Export Plug-In . SVG Version: 6.00 Build 0)  -->
<svg version="1.1" id="Layer_1" xmlns="http://www.w3.org/2000/svg" xmlns:xlink="http://www.w3.org/1999/xlink" x="0px" y="0px"
	 viewBox="0 0 684.8 476.2" style="enable-background:new 0 0 684.8 476.2;" xml:space="preserve">
<style type="text/css">
	.st0{fill:#606161;}
	.st1{fill:url(#SVGID_1_);}
	.st2{fill:url(#SVGID_2_);}
	.st3{fill:#FF0000;}
	.st4{fill:url(#SVGID_3_);}
	.st5{opacity:0.5;fill:#FF0000;enable-background:new    ;}
	.st6{opacity:0.45;fill:url(#SVGID_4_);enable-background:new    ;}
	.st7{opacity:0.45;fill:url(#SVGID_5_);enable-background:new    ;}
	.st8{fill:url(#SVGID_6_);}
	.st9{fill:url(#SVGID_7_);}
	.st10{fill:url(#SVGID_8_);}
	.st11{fill:url(#SVGID_9_);}
	.st12{fill:url(#SVGID_10_);}
	.st13{fill:url(#SVGID_11_);}
	.st14{fill:url(#SVGID_12_);}
	.st15{fill:url(#SVGID_13_);}
	.st16{fill:url(#SVGID_14_);}
	.st17{fill:url(#SVGID_15_);}
	.st18{fill:url(#SVGID_16_);}
	.st19{fill:url(#SVGID_17_);}
	.st20{fill:url(#SVGID_18_);}
	.st21{fill:url(#SVGID_19_);}
	.st22{fill:url(#SVGID_20_);}
	.st23{fill:url(#SVGID_21_);}
	.st24{fill:url(#SVGID_22_);}
	.st25{fill:url(#SVGID_23_);}
	.st26{fill:url(#SVGID_24_);}
	.st27{fill:url(#SVGID_25_);}
	.st28{fill:url(#SVGID_26_);}
	.st29{fill:url(#SVGID_27_);}
	.st30{fill:url(#SVGID_28_);}
	.st31{fill:url(#SVGID_29_);}
	.st32{fill:url(#SVGID_30_);}
	.st33{fill:url(#SVGID_31_);}
	.st34{fill:url(#SVGID_32_);}
	.st35{fill:url(#SVGID_33_);}
	.st36{fill:url(#SVGID_34_);}
	.st37{fill:url(#SVGID_35_);}
	.st38{fill:url(#SVGID_36_);}
	.st39{fill:url(#SVGID_37_);}
	.st40{fill:url(#SVGID_38_);}
	.st41{fill:url(#SVGID_39_);}
	.st42{fill:url(#SVGID_40_);}
	.st43{fill:url(#SVGID_41_);}
	.st44{fill:url(#SVGID_42_);}
	.st45{fill:url(#SVGID_43_);}
	.st46{fill:url(#SVGID_44_);}
	.st47{fill:url(#SVGID_45_);}
	.st48{fill:url(#SVGID_46_);}
	.st49{fill:url(#SVGID_47_);}
	.st50{fill:url(#SVGID_48_);}
	.st51{fill:url(#SVGID_49_);}
	.st52{fill:url(#SVGID_50_);}
	.st53{fill:url(#SVGID_51_);}
	.st54{fill:url(#SVGID_52_);}
	.st55{fill:url(#SVGID_53_);}
	.st56{fill:url(#SVGID_54_);}
	.st57{fill:url(#SVGID_55_);}
	.st58{fill:url(#SVGID_56_);}
	.st59{fill:url(#SVGID_57_);}
	.st60{fill:url(#SVGID_58_);}
	.st61{fill:url(#SVGID_59_);}
	.st62{fill:url(#SVGID_60_);}
</style>
<title>family 3</title>
<path class="st0" d="M253.4,106.7c-3.3,1.8-6.2,4.3-8.5,7.3c-7.9,11.3-0.8,28.4-8.6,39.8c-1.9,2.8-4.6,5-6.8,7.6
	c-4.9,5.9-7.2,13.6-7.8,21.3s0.5,15.3,1.6,22.9c0.3,2.1,0.6,4.2,2,5.8s3.8,2.3,6,2.8c19.8,4.3,40,5.8,60.2,4.5
	c3.5-0.2,7.2-0.6,10.1-2.5c6.9-4.6,6.1-14.6,8.1-22.6c1.6-6.8,5.6-12.7,8-19.2c2.8-7.5,3.3-15.6,3.8-23.6c0.7-11,0.6-23.8-7.9-30.8
	c-2.7-2.3-6.1-3.7-9.3-5.1c-8.6-3.6-17.7-6.1-26.1-9.8C269.6,101.4,261.8,101.8,253.4,106.7z"/>
<linearGradient id="SVGID_1_" gradientUnits="userSpaceOnUse" x1="286.87" y1="224.2498" x2="317.3863" y2="224.2498" gradientTransform="matrix(1 0 0 -1 -1.46 391.2498)">
	<stop  offset="0.12" style="stop-color:#010101;stop-opacity:0"/>
	<stop  offset="0.67" style="stop-color:#010101;stop-opacity:0.67"/>
	<stop  offset="0.95" style="stop-color:#010101"/>
</linearGradient>
<path class="st1" d="M301.1,130.9c0,0,15.2,9.9,14.8,25.8s-11.6,43.7-11.6,43.7l-18.9,2.6L301.1,130.9z"/>
<linearGradient id="SVGID_2_" gradientUnits="userSpaceOnUse" x1="236.18" y1="218.0462" x2="267.7111" y2="218.0462" gradientTransform="matrix(1 0 0 -1 -1.46 391.2498)">
	<stop  offset="0.12" style="stop-color:#010101;stop-opacity:0"/>
	<stop  offset="0.67" style="stop-color:#010101;stop-opacity:0.67"/>
	<stop  offset="0.95" style="stop-color:#010101"/>
</linearGradient>
<path class="st2" d="M247.6,155c-2.5,2.1-4.2,5.1-5.5,8.2c-4.4,9.6-6.9,20-7.4,30.6l22.9,0.2c0.8,0.1,1.6-0.1,2.3-0.4
	c0.8-0.6,1.4-1.5,1.7-2.5c2.4-6.5,4.8-13.2,4.8-20.1C266.2,162.2,258.1,146.2,247.6,155z"/>
<path class="st3" d="M415.2,153.8c8-0.2,16,0.4,23.9,1c4.8,0.4,9.7,0.7,14.3,2.2c3.7,1.3,7.3,3,10.7,5c16.8,9.6,32.4,21.1,46.4,34.4
	c2.6,2.4,6,4.9,9.4,5.7s7.5,0.1,9.7-2.7c1.3-1.6,1.8-3.8,2.4-5.8c1.8-6,5.5-12.3,11.6-13.7c6-1.4,12.2,2.7,15.1,8.1
	s3.1,11.8,2.8,17.9c-0.7,10.2-2.8,20.2-6.2,29.8c-1.5,4.2-3.3,8.5-6.7,11.3s-8,3.6-12.4,4c-25,1.9-48.8-10.1-71-21.7
	c-0.3,12,2.4,23.8,3.1,35.8c0.6,12-1.2,24.8-9.1,33.8c-10.2,11.4-27.2,13.5-42.4,12.8c-13.1-0.6-26.1-2.6-38.8-6
	c-3.5-0.9-7-2-9.8-4.3c-2.2-1.9-3.8-4.4-4.9-7.1c-8.3-19.2-0.7-49.1-8.8-68.4c-42.3,8.7-83.3,10.6-123-6.6c-1.8-0.8-3.7-1.6-4.8-3.3
	c-1.3-1.9-1.2-4.3-1-6.5c0.5-6.4,1.9-12.8,4-18.9c16,7.6,32.3,15.3,49.8,18.1s19.4-0.9,33-12.2c9.9-8.2,33.3-19.1,43.2-27.4
	C371.5,155.9,394.5,154.2,415.2,153.8z"/>
<linearGradient id="SVGID_3_" gradientUnits="userSpaceOnUse" x1="378.4362" y1="100.5245" x2="401.0062" y2="211.9745" gradientTransform="matrix(1 0 0 -1 -1.46 391.2498)">
	<stop  offset="0" style="stop-color:#FFFFFF;stop-opacity:0"/>
	<stop  offset="0.95" style="stop-color:#FFFFFF"/>
</linearGradient>
<path class="st4" d="M415.2,153.8c8-0.2,16,0.4,23.9,1c4.8,0.4,9.7,0.7,14.3,2.2c3.7,1.3,7.3,3,10.7,5c16.8,9.6,32.4,21.1,46.4,34.4
	c2.6,2.4,6,4.9,9.4,5.7s7.5,0.1,9.7-2.7c1.3-1.6,1.8-3.8,2.4-5.8c1.8-6,5.5-12.3,11.6-13.7c6-1.4,12.2,2.7,15.1,8.1
	s3.1,11.8,2.8,17.9c-0.7,10.2-2.8,20.2-6.2,29.8c-1.5,4.2-3.3,8.5-6.7,11.3s-8,3.6-12.4,4c-25,1.9-48.8-10.1-71-21.7
	c-0.3,12,2.4,23.8,3.1,35.8c0.6,12-1.2,24.8-9.1,33.8c-10.2,11.4-27.2,13.5-42.4,12.8c-13.1-0.6-26.1-2.6-38.8-6
	c-3.5-0.9-7-2-9.8-4.3c-2.2-1.9-3.8-4.4-4.9-7.1c-8.3-19.2-0.7-49.1-8.8-68.4c-42.3,8.7-83.3,10.6-123-6.6c-1.8-0.8-3.7-1.6-4.8-3.3
	c-1.3-1.9-1.2-4.3-1-6.5c0.5-6.4,1.9-12.8,4-18.9c16,7.6,32.3,15.3,49.8,18.1s19.4-0.9,33-12.2c9.9-8.2,33.3-19.1,43.2-27.4
	C371.5,155.9,394.5,154.2,415.2,153.8z"/>
<path class="st5" d="M105.1,388.9c18.8,16.8,49.5,6.2,72.6,16.3c-7.7,4.6-14.1,11-18.8,18.6c32.1,1.2,64.2,1.6,96.4,1.1
	c-4.1,2.8-6.9,7.1-7.9,12c93.1,2.9,186.2,2.2,279.3-2.2c6.5-0.3,13.4-0.7,18.9-4.3s8.8-11.4,5.2-16.9c-2.5-3.9-7.4-5.3-11.5-7.4
	s-8.3-6.3-7-10.7c2.4-8.4,19.9-6.3,19.5-15.1c-0.2-3.9-4.5-6.2-8.1-7.6l8.4-3.2L323,367.8c-40.4-0.3-81-0.6-121.2,4.8
	C171.3,376.8,133.5,376.9,105.1,388.9z"/>
<linearGradient id="SVGID_4_" gradientUnits="userSpaceOnUse" x1="558.897" y1="85.6173" x2="387.347" y2="16.7173" gradientTransform="matrix(1 0 0 -1 -1.46 391.2498)">
	<stop  offset="0.12" style="stop-color:#010101;stop-opacity:0"/>
	<stop  offset="0.67" style="stop-color:#010101;stop-opacity:0.67"/>
	<stop  offset="0.95" style="stop-color:#010101"/>
</linearGradient>
<path class="st6" d="M500.3,342.6c-0.1,3.5-0.2,7,1,10.3c3.9,10.4,19.1,14.6,19.8,25.6c-13.6,5-30.4-1.6-37-14.5
	c-3.5-6.8-4.2-14.6-4.9-22.2c-1.4-16-3.1-31.9-4.3-47.9c-0.6-9.3,0.3-17.5,11.7-16.1C511.5,280.8,500.9,326.7,500.3,342.6z"/>
<linearGradient id="SVGID_5_" gradientUnits="userSpaceOnUse" x1="91.6996" y1="49.9165" x2="273.8596" y2="30.0865" gradientTransform="matrix(1 0 0 -1 -1.46 391.2498)">
	<stop  offset="0.12" style="stop-color:#010101;stop-opacity:0"/>
	<stop  offset="0.67" style="stop-color:#010101;stop-opacity:0.67"/>
	<stop  offset="0.95" style="stop-color:#010101"/>
</linearGradient>
<path class="st7" d="M125,310.4c-1.2,2.6-2.4,5.2-2.4,8.1c0,7.9,8.8,12.7,12.2,19.8c-10.8,8-14.2,24.4-7.5,36.1
	c2.2,3.8,5.3,7.4,5.1,11.7c-0.1,2.7-1.6,5.5-0.3,7.8c6.7,0.4,12.9-3,19-5.6c10.2-4.4,21.2-6.8,32-9.2c-1.1-5.7-4.1-10.8-7.1-15.8
	c-11-18.3-22.2-36.7-36.4-52.6c-3.3-3.7-4.8-10-8.3-12.9C128.4,300.6,126.8,306.5,125,310.4z"/>
<path class="st0" d="M518.5,387.6c2.1,2.4,4.1,5.4,3.7,8.6c-0.4,3.7-3.8,6.1-7.2,7c-4.4,1.1-9.1,0.2-13.6-0.7l-37-7.6
	c-0.9-0.1-1.7-0.4-2.4-0.9c-0.7-0.7-1.2-1.6-1.5-2.6c-1.8-6-1.3-15.5,3.2-20.2c3.7-3.9,10.1-3.2,14.9-3
	C494,368.8,508.4,375.9,518.5,387.6z"/>
<path class="st0" d="M516.2,390c2,2.2,4,4.9,3.6,7.8c-0.4,3.3-3.8,5.6-7,6.3c-4.4,1-8.9,0.2-13.3-0.7l-36.3-6.9
	c-0.9-0.1-1.7-0.4-2.4-0.9c-0.7-0.6-1.2-1.5-1.4-2.4c-1.8-5.5-1.3-14.1,3.1-18.4c3.7-3.5,9.9-2.9,14.6-2.7
	C491.9,372.8,505.9,379.2,516.2,390z"/>
<linearGradient id="SVGID_6_" gradientUnits="userSpaceOnUse" x1="474.3105" y1="-19.0184" x2="508.8705" y2="25.1815" gradientTransform="matrix(1 0 0 -1 -1.46 391.2498)">
	<stop  offset="0.12" style="stop-color:#010101;stop-opacity:0"/>
	<stop  offset="0.67" style="stop-color:#010101;stop-opacity:0.67"/>
	<stop  offset="0.95" style="stop-color:#010101"/>
</linearGradient>
<path class="st8" d="M516.2,390c2,2.2,4,4.9,3.6,7.8c-0.4,3.3-3.8,5.6-7,6.3c-4.4,1-8.9,0.2-13.3-0.7l-36.3-6.9
	c-0.9-0.1-1.7-0.4-2.4-0.9c-0.7-0.6-1.2-1.5-1.4-2.4c-1.8-5.5-1.3-14.1,3.1-18.4c3.7-3.5,9.9-2.9,14.6-2.7
	C491.9,372.8,505.9,379.2,516.2,390z"/>
<path class="st3" d="M311.6,215.7c7.7,8.4,10.9,20.4,10.2,31.8c-0.7,11.4-4.9,22.3-10.2,32.4c-2.7,5.1,1,19.3,0.3,25
	c-0.9,6.9-1.7,7.1-2.6,14.1c-1.1,7.8-9.9,11.8-15.4,17.4c-7.4,7.5-15.3,14.5-23.7,20.9c-11.3,8.7-25.1,16.7-39.1,14
	c-5.9-1.1-11.3-4.1-16.4-7.1c-6.4-3.7-12.6-7.6-18.7-11.7c-3.3-1.5-5.2-4.9-4.9-8.5c-0.7-11.7-1.4-23.7,1.2-35.1
	c2.2-9.9,6.8-19.2,9-29.1c4.4-19.4-0.4-40.1,5.3-59.2c1.1-3.5,2.6-7.1,5.4-9.5c2.4-2,5.4-3,8.4-4c12.6-4,25.2-8.1,38.3-9.7
	C280.5,194.6,296.8,199.4,311.6,215.7z"/>
<linearGradient id="SVGID_7_" gradientUnits="userSpaceOnUse" x1="257.5599" y1="12.8098" x2="271.5499" y2="159.3398" gradientTransform="matrix(1 0 0 -1 -1.46 391.2498)">
	<stop  offset="0" style="stop-color:#FFFFFF;stop-opacity:0"/>
	<stop  offset="0.95" style="stop-color:#FFFFFF"/>
</linearGradient>
<path class="st9" d="M318.7,229.1c2.1,11.6,23.6-10.8,22.9,1.2s-23.5,36.9-28.9,47.5c-2.7,5.3-0.3,23.3-1.1,29.3
	c-0.9,7.3-1.5,4.7-2.5,12c-1.1,8.2-9.9,9.7-15.4,15.5c-7.4,7.9-15.3,15.2-23.7,22c-11.3,9.2-25.1,17.6-39.1,14.8
	c-5.9-1.2-11.3-4.3-16.4-7.5c-6.4-3.9-12.6-8-18.7-12.3c-1.6-0.9-2.9-2.3-3.9-3.8c-0.7-1.6-1-3.3-1-5.1c-0.7-12.4-1.3-24.9,1.2-37
	c2.2-10.4,6.8-20.2,9-30.6c4.4-20.4-0.4-42.3,5.3-62.3c1.1-3.7,2.6-7.5,5.4-10c2.4-2.1,5.4-3.2,8.4-4.2c12.6-4.2,25.2-8.5,38.3-10.2
	C280.5,185.3,314.9,207.5,318.7,229.1z"/>
<linearGradient id="SVGID_8_" gradientUnits="userSpaceOnUse" x1="329.8806" y1="128.137" x2="251.6906" y2="112.247" gradientTransform="matrix(1 0 0 -1 -1.46 391.2498)">
	<stop  offset="0.12" style="stop-color:#010101;stop-opacity:0"/>
	<stop  offset="0.67" style="stop-color:#010101;stop-opacity:0.67"/>
	<stop  offset="0.95" style="stop-color:#010101"/>
</linearGradient>
<path class="st10" d="M304.5,229.5c0,0,0.7,25.2,7.3,75.4c0,0,11.4-22.5,11.7-25.6S316.5,229.5,304.5,229.5z"/>
<path class="st3" d="M233.5,246.7c0,0,13.6,41.4,25.4,48c11.8,6.6,19.3,5.2,19.3,5.2l2.8,16.9c0,0-29.4,9.2-37.2,0
	S233.5,246.7,233.5,246.7z"/>
<linearGradient id="SVGID_9_" gradientUnits="userSpaceOnUse" x1="259.5488" y1="109.943" x2="193.4788" y2="75.153" gradientTransform="matrix(1 0 0 -1 -1.46 391.2498)">
	<stop  offset="0.12" style="stop-color:#010101;stop-opacity:0"/>
	<stop  offset="0.67" style="stop-color:#010101;stop-opacity:0.67"/>
	<stop  offset="0.95" style="stop-color:#010101"/>
</linearGradient>
<path class="st11" d="M233.5,246.7c0,0,13.6,41.4,25.4,48c11.8,6.6,19.3,5.2,19.3,5.2l2.8,16.9c0,0-29.4,9.2-37.2,0
	S233.5,246.7,233.5,246.7z"/>
<path class="st3" d="M131.5,292.1c-1.5,3.2-2.9,6.5-3.1,9.9c0,3.7,0.9,7.4,2.6,10.7c4.4,8.9,11.8,15.8,20.9,19.7
	c9.5,4,20.2,4.3,30.5,4.4c3.3,0,6.9,0,9.6-2c4.1-3,4.4-8.8,4.3-13.8c-7.2-3.3-13.8-7.7-19.7-12.9c-1.5-1.2-2.7-2.7-3.6-4.4
	c-1.1-2.9,0-6,1.1-8.9c6-14.7,14.8-28.1,25.9-39.5c8.7-9,19.5-18,20.5-30.5c0.3-3-0.3-5.9-1.7-8.5c-1.6-2.6-4.4-4.4-7.1-5.7
	c-9.7-4.7-15.9-6-23.1,2.1s-14.6,16.5-21.6,25C153.3,254.5,140.7,272.4,131.5,292.1z"/>
<linearGradient id="SVGID_10_" gradientUnits="userSpaceOnUse" x1="233.7071" y1="91.2123" x2="146.2471" y2="140.5823" gradientTransform="matrix(1 0 0 -1 -1.46 391.2498)">
	<stop  offset="0" style="stop-color:#FFFFFF;stop-opacity:0"/>
	<stop  offset="0.95" style="stop-color:#FFFFFF"/>
</linearGradient>
<path class="st12" d="M131.5,292.1c-1.5,3.2-2.9,6.5-3.1,9.9c0,3.7,0.9,7.4,2.6,10.7c4.4,8.9,11.8,15.8,20.9,19.7
	c9.5,4,20.2,4.3,30.5,4.4c3.3,0,6.9,0,9.6-2c4.1-3,4.4-8.8,4.3-13.8c-7.2-3.3-13.8-7.7-19.7-12.9c-1.5-1.2-2.7-2.7-3.6-4.4
	c-1.1-2.9,0-6,1.1-8.9c6-14.7,14.8-28.1,25.9-39.5c8.7-9,19.5-18,20.5-30.5c0.3-3-0.3-5.9-1.7-8.5c-1.6-2.6-4.4-4.4-7.1-5.7
	c-9.7-4.7-15.9-6-23.1,2.1s-14.6,16.5-21.6,25C153.3,254.5,140.7,272.4,131.5,292.1z"/>
<path class="st3" d="M179.6,259.5c-4,10.6-4.6,22.2-4.7,33.6c-0.1,12.8,0.8,26.2,7.3,37.3c9.2,15.5,29.7,23.2,46.8,17.6
	c5-1.6,9.9-4.5,12.8-8.9c3.6-5.7,3.4-12.9,2.8-19.6c-1-9.5-2.7-19-3.2-28.6c-0.6-10.7,0.3-21.6-2.1-32.1
	c-2.4-10.5-9.2-20.8-19.6-23.6C200.8,230.2,186,242.4,179.6,259.5z"/>
<path class="st3" d="M242.2,327.1c0,0,47.3-23.3,52.9-9.2s-34.6,43-41.6,46.5c-7,3.5-28.2,5.6-28.2,5.6s-59.3-13.4-54.3-27.5
	S236.5,327.8,242.2,327.1z"/>
<linearGradient id="SVGID_11_" gradientUnits="userSpaceOnUse" x1="225.9188" y1="103.1934" x2="242.1388" y2="19.9734" gradientTransform="matrix(1 0 0 -1 -1.46 391.2498)">
	<stop  offset="0.12" style="stop-color:#010101;stop-opacity:0"/>
	<stop  offset="0.67" style="stop-color:#010101;stop-opacity:0.67"/>
	<stop  offset="0.95" style="stop-color:#010101"/>
</linearGradient>
<path class="st13" d="M242.2,327.6c0,0,47.3-23.3,52.9-9.2s-34.6,43-41.6,46.5c-7,3.5-28.2,5.6-28.2,5.6s-59.3-13.4-54.3-27.5
	S236.5,328.3,242.2,327.6z"/>
<linearGradient id="SVGID_12_" gradientUnits="userSpaceOnUse" x1="223.0358" y1="109.9361" x2="78.0958" y2="13.3061" gradientTransform="matrix(1 0 0 -1 -1.46 391.2498)">
	<stop  offset="0.12" style="stop-color:#010101;stop-opacity:0"/>
	<stop  offset="0.67" style="stop-color:#010101;stop-opacity:0.67"/>
	<stop  offset="0.95" style="stop-color:#010101"/>
</linearGradient>
<path class="st14" d="M198.8,246.4c0,0-37,25.4-38.1,63.1s18.7,37.6,27.5,40.2s41.6-27.1,41.6-27.1l-12-15.2c0,0-23.6,12.5-26.2,7.4
	C185.1,301.7,198.8,246.4,198.8,246.4z"/>
<path class="st3" d="M191.8,241c0,0-37,25.4-38.1,63.1s18.3,31.6,27.1,34.2s42-21.2,42-21.2l-12-15.2c0,0-23.6,12.5-26.2,7.4
	C178,296.4,191.8,241,191.8,241z"/>
<linearGradient id="SVGID_13_" gradientUnits="userSpaceOnUse" x1="197.6831" y1="152.426" x2="221.3945" y2="152.426" gradientTransform="matrix(1 0 0 -1 -1.46 391.2498)">
	<stop  offset="0" style="stop-color:#E5C6D6"/>
	<stop  offset="0.42" style="stop-color:#EAD4D0"/>
	<stop  offset="1" style="stop-color:#F0E9CB"/>
</linearGradient>
<path class="st15" d="M196.5,238.9c0.2,3.9,1.2,7.9,4.1,10.5c3.6,3.2,9.1,3.1,13.8,2c1.8-0.4,3.8-1.1,4.8-2.7s0.8-3.5,0.5-5.3
	c-0.4-2.9-1-5.8-1.6-8.7c-0.2-1.2-0.6-2.4-1.3-3.4c-0.9-1.1-2-2-3.4-2.6c-3.4-1.7-11.6-4.8-15.2-2.4
	C195.3,228.3,196.4,236.1,196.5,238.9z"/>
<linearGradient id="SVGID_14_" gradientUnits="userSpaceOnUse" x1="180.7749" y1="174.1248" x2="193.0149" y2="174.1248" gradientTransform="matrix(1 0 0 -1 -1.46 391.2498)">
	<stop  offset="0" style="stop-color:#E5C6D6"/>
	<stop  offset="0.42" style="stop-color:#EAD4D0"/>
	<stop  offset="1" style="stop-color:#F0E9CB"/>
</linearGradient>
<path class="st16" d="M181.8,211.7c-0.9,0.4-1.7,1.1-2.2,1.9c-0.7,1.5,0,3.2,0.7,4.7c0.5,1.5,1.5,2.7,2.7,3.7
	c0.7,0.4,1.5,0.7,2.3,0.9c1.1,0.3,2.3,0.4,3.4,0.2c1.2-0.2,2.1-0.9,2.6-2c0.2-0.6,0.3-1.3,0.1-2
	C190.7,213.8,187.7,209.4,181.8,211.7z"/>
<linearGradient id="SVGID_15_" gradientUnits="userSpaceOnUse" x1="190.0383" y1="174.5567" x2="174.8983" y2="170.8168" gradientTransform="matrix(1 0 0 -1 -1.46 391.2498)">
	<stop  offset="0.12" style="stop-color:#010101;stop-opacity:0"/>
	<stop  offset="0.95" style="stop-color:#010101"/>
</linearGradient>
<path class="st17" d="M184.9,214.1c-0.5,0-0.9,0.2-1.3,0.5c-0.2,0.2-0.3,0.5-0.4,0.7c-0.3,0.6-0.4,1.3-0.3,2c0.1,0.5,0.4,1,0.7,1.4
	c1,1.2,2.5,1.8,4.1,1.7c0.2,0,0.5-0.1,0.7-0.2c0.5-0.3,0.4-1,0.3-1.6c-0.2-1.3-0.6-2.6-1.1-3.9C187.2,213.8,185.8,213.9,184.9,214.1
	z"/>
<linearGradient id="SVGID_16_" gradientUnits="userSpaceOnUse" x1="260.6558" y1="202.9985" x2="287.9559" y2="202.9985" gradientTransform="matrix(1 0 0 -1 -1.46 391.2498)">
	<stop  offset="0" style="stop-color:#E5C6D6"/>
	<stop  offset="0.42" style="stop-color:#EAD4D0"/>
	<stop  offset="1" style="stop-color:#F0E9CB"/>
</linearGradient>
<path class="st18" d="M285.4,203.1c-1,3.8-4,7.4-7.9,7.8c-3.2,0.4-6.3-1.5-8.8-3.5c-2.4-1.8-4.5-3.9-6.2-6.4
	c-4.3-6.6-3.6-15.1-2.4-22.9c0.7-4.3,1.7-9.1,5.3-11.5c0.8-0.6,1.8-0.9,2.8-1c0.8,0,1.5,0.2,2.2,0.5c5,1.9,8.8,6.1,11.3,10.7
	C286,184.8,287.8,194.2,285.4,203.1z"/>
<linearGradient id="SVGID_17_" gradientUnits="userSpaceOnUse" x1="263.9807" y1="188.6854" x2="299.6707" y2="247.3254" gradientTransform="matrix(1 0 0 -1 -1.46 391.2498)">
	<stop  offset="0.12" style="stop-color:#010101;stop-opacity:0"/>
	<stop  offset="0.67" style="stop-color:#010101;stop-opacity:0.67"/>
	<stop  offset="0.95" style="stop-color:#010101"/>
</linearGradient>
<path class="st19" d="M261.7,171.7c0,0,3,23.2,12.7,26s11.7-1.8,11.7-1.8l0.3-17.1L261.7,171.7z"/>
<path class="st0" d="M413.3,360.2c-4,0.2-8.1,0.1-11.8-1.5c-10.2-4.5-12.5-17.7-13.3-28.8c-0.5-6.8-1-14,2.1-20.1
	c4.3-8.4,13.1-11,20.6-15.4c9.4-5.5,13.1-11.2,20.4-18.7c13.3-13.6,36.4-12,47.8,4.4C505.6,318.4,445.7,358.5,413.3,360.2z"/>
<linearGradient id="SVGID_18_" gradientUnits="userSpaceOnUse" x1="435.7409" y1="129.8698" x2="439.0309" y2="64.0398" gradientTransform="matrix(1 0 0 -1 -1.46 391.2498)">
	<stop  offset="0.12" style="stop-color:#010101;stop-opacity:0"/>
	<stop  offset="0.67" style="stop-color:#010101;stop-opacity:0.67"/>
	<stop  offset="0.95" style="stop-color:#010101"/>
</linearGradient>
<path class="st20" d="M413.3,360.2c-4,0.2-8.1,0.1-11.8-1.5c-10.2-4.5-12.5-17.7-13.3-28.8c-0.5-6.8-1-14,2.1-20.1
	c4.3-8.4,13.1-11,20.6-15.4c9.4-5.5,13.1-11.2,20.4-18.7c13.3-13.6,36.4-12,47.8,4.4C505.6,318.4,445.7,358.5,413.3,360.2z"/>
<linearGradient id="SVGID_19_" gradientUnits="userSpaceOnUse" x1="233.03" y1="183.3742" x2="239.11" y2="183.3742" gradientTransform="matrix(1 0 0 -1 -1.46 391.2498)">
	<stop  offset="0" style="stop-color:#E5C6D6"/>
	<stop  offset="0.42" style="stop-color:#EAD4D0"/>
	<stop  offset="1" style="stop-color:#F0E9CB"/>
</linearGradient>
<path class="st21" d="M235.5,201.8c1.3,0.5,1.9,2,2.1,3.4c0.3,2.8-0.6,5.7-2.5,7.8c-0.3,0.4-0.8,0.8-1.3,1c-0.5,0.2-1.1,0.1-1.5-0.4
	c-0.2-0.3-0.3-0.6-0.4-0.9C231.5,210.6,230.6,200,235.5,201.8z"/>
<linearGradient id="SVGID_20_" gradientUnits="userSpaceOnUse" x1="185.7955" y1="178.7774" x2="234.6023" y2="178.7774" gradientTransform="matrix(1 0 0 -1 -1.46 391.2498)">
	<stop  offset="0" style="stop-color:#E5C6D6"/>
	<stop  offset="0.42" style="stop-color:#EAD4D0"/>
	<stop  offset="1" style="stop-color:#F0E9CB"/>
</linearGradient>
<path class="st22" d="M233,211.9c-0.2,3.3-0.6,6.6-1,9.9c-0.3,2.5-0.8,4.9-1.7,7.2c-2.6,6.3-9.2,10.5-16,10.9
	c-6.9,0.2-13.5-2.8-18-8.1c-2.5-3.2-4.7-6.7-6.4-10.4c-1.9-3.5-3.4-7.3-4.6-11.1c-1.7-6.1-1.6-13.1,2.1-18.2c1.3-1.8,3-3.3,5-4.4
	c3.5-1.9,7.5-2.3,11.4-2.6c3-0.3,6-0.3,8.9,0.2c2.2,0.5,4.3,1.4,6.3,2.5c4.2,2.4,9,5.9,11.5,10.2C233,202,233.3,207.5,233,211.9z"/>
<linearGradient id="SVGID_21_" gradientUnits="userSpaceOnUse" x1="383.2961" y1="234.9039" x2="420.0577" y2="234.9039" gradientTransform="matrix(1 0 0 -1 -1.46 391.2498)">
	<stop  offset="0" style="stop-color:#E5C6D6"/>
	<stop  offset="0.42" style="stop-color:#EAD4D0"/>
	<stop  offset="1" style="stop-color:#F0E9CB"/>
</linearGradient>
<path class="st23" d="M414.4,151.6c2,5.1,5,10.2,4.1,15.6c-0.9,4.7-4.7,8.4-8.9,10.7c-3.7,2.1-7.9,3.5-12.1,2.8
	c-5.1-0.9-9.4-4.8-11.7-9.5s-3.1-9.9-3.6-15.1c-0.4-3.4-0.3-6.8,0.3-10.1c1.3-5.6,5.2-10.3,10.5-12.6c4.4-1.9,12.4-2.6,16.2,1.1
	C413.2,138.4,412.4,146.6,414.4,151.6z"/>
<linearGradient id="SVGID_22_" gradientUnits="userSpaceOnUse" x1="397.6213" y1="219.5696" x2="403.9613" y2="270.5296" gradientTransform="matrix(1 0 0 -1 -1.46 391.2498)">
	<stop  offset="0.12" style="stop-color:#010101;stop-opacity:0"/>
	<stop  offset="0.67" style="stop-color:#010101;stop-opacity:0.67"/>
	<stop  offset="0.95" style="stop-color:#010101"/>
</linearGradient>
<path class="st24" d="M412.6,139.5c0,0-4.8,15.7-8.1,20.1s-12,5.5-12,5.5l-5.6-18.7L412.6,139.5z"/>
<linearGradient id="SVGID_23_" gradientUnits="userSpaceOnUse" x1="543.1196" y1="224.5563" x2="573.9118" y2="224.5563" gradientTransform="matrix(1 0 0 -1 -1.46 391.2498)">
	<stop  offset="0" style="stop-color:#E5C6D6"/>
	<stop  offset="0.42" style="stop-color:#EAD4D0"/>
	<stop  offset="1" style="stop-color:#F0E9CB"/>
</linearGradient>
<path class="st25" d="M550.9,191.4c1,0.1,2,0,3-0.4c3.2-1.4,3.8-5.4,4.8-8.7c2-6.6,6.6-11.9,10-17.9s5.4-13.6,1.9-19.5
	c-3.1,1.7-6,3.9-8.5,6.4c-1.1,1.1-2.3,2.3-3.8,2.2c-1.1-0.3-2.1-0.9-2.8-1.9l-7.3-7.9c-0.8-0.9-2-1.9-3.2-1.6
	c-1.6,0.4-1.8,2.8-1.1,4.3c1,2.4,2.8,4.5,3.6,7c1.3,4.2-0.7,8.3-2.2,12.1c-1.3,3.6-2.1,7.3-3.2,10.9
	C540.3,182.8,543.4,190.9,550.9,191.4z"/>
<linearGradient id="SVGID_24_" gradientUnits="userSpaceOnUse" x1="327.3199" y1="230.7382" x2="381.5323" y2="230.7382" gradientTransform="matrix(0.9938 -0.1108 -0.1108 -0.9938 -47.3385 428.6185)">
	<stop  offset="0" style="stop-color:#E5C6D6"/>
	<stop  offset="0.42" style="stop-color:#EAD4D0"/>
	<stop  offset="1" style="stop-color:#F0E9CB"/>
</linearGradient>
<path class="st26" d="M292.5,194c-2.6,1.9-13.9-2.3-16.8-3.7c-3-1.3-5.7-3.2-8-5.5c-1.3-1.4-2.4-3-3.5-4.6c-1.3-1.7-2.4-3.6-3.1-5.7
	c-0.4-1.4-0.6-2.9-1.1-4.2c-1.3-3.1-8-6.7-8-10.4c0-1.9,0.2-3.9,1.3-5.4s3.6-2.3,5-1c-0.8-2.5-0.9-13.6,0.3-15.9
	c1.3-2.2,3-4.2,5.1-5.8c6.4-5.3,14.8-8.6,23-7.7c5.4,0.6,10.5,3,14.3,6.9C305.6,135.6,311.3,180.4,292.5,194z"/>
<path class="st0" d="M224.7,170.6c-1.7-1.9-3.8-3.4-6.2-4.4c-2.8-0.9-5.8-0.4-8.7-0.4c-2.2-0.1-4.4-0.5-6.6-0.6
	c-8.3-0.3-16.2,3.5-21.2,10.2c-4.9,6.7-6.6,15.2-4.8,23.2c0.7,3.2,1.9,6.3,3.4,9.2c2.2,4.5,5.2,8.5,8.9,11.8l-0.4-20.8
	c3,1,6.4,0.6,9.1-1.1c2.7-1.7,4.9-4,6.5-6.7c0.3-0.5,0.7-1,1.2-1s1,0.7,1.3,1.3c2,4.3,6,7.4,10.4,9.2s9.2,2.3,13.9,2.5
	c1.1,0.1,2.3,0,3-0.8c0.4-0.6,0.6-1.3,0.6-2C236.3,188.3,233,178.9,224.7,170.6z"/>
<linearGradient id="SVGID_25_" gradientUnits="userSpaceOnUse" x1="178.0296" y1="198.877" x2="236.756" y2="198.877" gradientTransform="matrix(1 0 0 -1 -1.46 391.2498)">
	<stop  offset="0.12" style="stop-color:#010101;stop-opacity:0"/>
	<stop  offset="0.67" style="stop-color:#010101;stop-opacity:0.67"/>
	<stop  offset="0.95" style="stop-color:#010101"/>
</linearGradient>
<path class="st27" d="M224.7,170.6c-1.7-1.9-3.8-3.4-6.2-4.4c-2.8-0.9-5.8-0.4-8.7-0.4c-2.2-0.1-4.4-0.5-6.6-0.6
	c-8.3-0.3-16.2,3.5-21.2,10.2c-4.9,6.7-6.6,15.2-4.8,23.2c0.7,3.2,1.9,6.3,3.4,9.2c2.2,4.5,5.2,8.5,8.9,11.8l-0.4-20.8
	c3,1,6.4,0.6,9.1-1.1c2.7-1.7,4.9-4,6.5-6.7c0.3-0.5,0.7-1,1.2-1s1,0.7,1.3,1.3c2,4.3,6,7.4,10.4,9.2s9.2,2.3,13.9,2.5
	c1.1,0.1,2.3,0,3-0.8c0.4-0.6,0.6-1.3,0.6-2C236.3,188.3,233,178.9,224.7,170.6z"/>
<path class="st0" d="M344.3,344c-8.2,6.3-17.1,11.8-23.5,19.9s-9.5,19.8-4.5,28.8c6.3,11.2,21.5,13,34.4,13.4
	c37.8,1.2,75.9,2.1,113.1-4.9c0.6-8.7-0.5-17.3-3.2-25.6c-0.2-0.9-0.7-1.8-1.3-2.5c-1.3-1.2-3.3-1-5.1-0.8
	c-15.6,1.8-31.4-0.2-46.1-5.8l12.5-10.5c7.2-6,14.8-12.8,16.3-22.1c1.9-12.4-8.8-23.8-20.8-27.3c-11.3-3.3-32.3-3.5-40.9,5.1
	C364.5,322.6,356.6,334.6,344.3,344z"/>
<linearGradient id="SVGID_26_" gradientUnits="userSpaceOnUse" x1="386.8849" y1="-35.9998" x2="398.8749" y2="90.2502" gradientTransform="matrix(1 0 0 -1 -1.46 391.2498)">
	<stop  offset="0.12" style="stop-color:#010101;stop-opacity:0"/>
	<stop  offset="0.67" style="stop-color:#010101;stop-opacity:0.67"/>
	<stop  offset="0.95" style="stop-color:#010101"/>
</linearGradient>
<path class="st28" d="M344.3,344c-8.2,6.3-17.1,11.8-23.5,19.9s-9.5,19.8-4.5,28.8c6.3,11.2,21.5,13,34.4,13.4
	c37.8,1.2,75.9,2.1,113.1-4.9c0.6-8.7-0.5-17.3-3.2-25.6c-0.2-0.9-0.7-1.8-1.3-2.5c-1.3-1.2-3.3-1-5.1-0.8
	c-15.6,1.8-31.4-0.2-46.1-5.8l12.5-10.5c7.2-6,14.8-12.8,16.3-22.1c1.9-12.4-8.8-23.8-20.8-27.3c-11.3-3.3-32.3-3.5-40.9,5.1
	C364.5,322.6,356.6,334.6,344.3,344z"/>
<linearGradient id="SVGID_27_" gradientUnits="userSpaceOnUse" x1="323.92" y1="46.4328" x2="412.0553" y2="46.4328" gradientTransform="matrix(1 0 0 -1 -1.46 391.2498)">
	<stop  offset="0.12" style="stop-color:#010101;stop-opacity:0"/>
	<stop  offset="0.67" style="stop-color:#010101;stop-opacity:0.67"/>
	<stop  offset="0.95" style="stop-color:#010101"/>
</linearGradient>
<path class="st29" d="M407.4,363.1c-1.4-0.6-2.6-1.6-3.6-2.8c-3.8-3.9-7.9-7.5-12.3-10.8c-1.2-1-2.5-1.8-4-2.2
	c-2.7-0.6-5.4,0.9-7.9,2.2c-6.5,3.3-13.7,5-20.9,5c-1.8-0.1-3.6,0-5.3,0.4c-1.8,0.6-3.6,1.6-5.1,2.7c-7.8,5.1-16.6,8.7-25.8,10.5
	c1.4-4,5.4-6.5,8.9-9c3.8-2.7,7.2-6,10.2-9.6c3.3-4,6.1-8.6,10.1-12c3.3-2.8,7.4-4.7,11.3-6.6l16.7-7.8c1.6-0.9,3.3-1.4,5.1-1.6
	c4.1-0.2,7.4,3.3,9.8,6.6c4.4,6,8.2,12.4,11.3,19.2C407.1,350,414.8,365.8,407.4,363.1z"/>
<path class="st0" d="M469,373.6c-1.3-0.1-2.6,0.3-3.7,0.9c-1,0.9-1.7,2.1-1.9,3.4c-2.6,8.5-2.3,17.5-2,26.4
	c-0.1,1.4,0.2,2.8,0.8,4.1c0.7,1.2,1.8,2.2,3,2.9c9.4,6.3,20.4,9.8,31.7,10.2c2.8,0.1,5.9-0.1,7.9-2.1s2.2-5.4,1.8-8.4
	c-0.6-4.5-2.1-8.8-4.5-12.6c-2.4-4-5.6-7.4-8.3-11.1c-2.5-3.6-3.4-11.4-6.9-13.7S473.3,373.4,469,373.6z"/>
<linearGradient id="SVGID_28_" gradientUnits="userSpaceOnUse" x1="462.3335" y1="-0.9981" x2="507.9435" y2="-0.9981" gradientTransform="matrix(1 0 0 -1 -1.46 391.2498)">
	<stop  offset="0.12" style="stop-color:#010101;stop-opacity:0"/>
	<stop  offset="0.67" style="stop-color:#010101;stop-opacity:0.67"/>
	<stop  offset="0.95" style="stop-color:#010101"/>
</linearGradient>
<path class="st30" d="M468.8,368.9c-1.3-0.1-2.6,0.3-3.7,0.9c-1,0.9-1.7,2.1-1.9,3.4c-2.6,8.5-2.3,17.5-2,26.4
	c-0.1,1.4,0.2,2.8,0.8,4.1c0.8,1.2,1.8,2.2,3,2.9c9.4,6.3,20.3,9.8,31.6,10.2c2.8,0.1,5.9-0.1,7.9-2.1s2.2-5.4,1.8-8.4
	c-0.6-4.5-2.2-8.8-4.5-12.6c-2.4-4-5.6-7.4-8.3-11.1c-2.5-3.6-3.4-11.3-6.9-13.7S473,368.7,468.8,368.9z"/>
<path class="st0" d="M165.5,333.6c-9-2.8-20-4.7-26.7,1.9c-4.1,4.1-5.3,10.5-4.2,16.1c1.4,7.4,6.2,13.8,12,18.6s12.7,8,19.6,11
	c24.8,10.7,50.9,18.4,76.8,26c4,1.2,8.1,2.4,12.2,1.5c7.7-1.6,12-9.6,15.3-16.7c1.2-1.7,0.8-4.1-0.9-5.2c-0.1-0.1-0.3-0.2-0.4-0.3
	c-14-12.5-30-20.3-46.7-28.8C204.2,348.4,185.3,339.5,165.5,333.6z"/>
<linearGradient id="SVGID_29_" gradientUnits="userSpaceOnUse" x1="135.7252" y1="21.2616" x2="272.7082" y2="21.2616" gradientTransform="matrix(1 0 0 -1 -1.46 391.2498)">
	<stop  offset="0.12" style="stop-color:#010101;stop-opacity:0"/>
	<stop  offset="0.67" style="stop-color:#010101;stop-opacity:0.67"/>
	<stop  offset="0.95" style="stop-color:#010101"/>
</linearGradient>
<path class="st31" d="M165.5,333.6c-9-2.8-20-4.7-26.7,1.9c-4.1,4.1-5.3,10.5-4.2,16.1c1.4,7.4,6.2,13.8,12,18.6s12.7,8,19.6,11
	c24.8,10.7,50.9,18.4,76.8,26c4,1.2,8.1,2.4,12.2,1.5c7.7-1.6,12-9.6,15.3-16.7c1.2-1.7,0.8-4.1-0.9-5.2c-0.1-0.1-0.3-0.2-0.4-0.3
	c-14-12.5-30-20.3-46.7-28.8C204.2,348.4,185.3,339.5,165.5,333.6z"/>
<path class="st3" d="M190.3,400c-1.8,1.6-3.5,3.3-4.2,5.5c-1.1,3.6,1,7.7,4.1,9.8s7.1,2.7,10.9,2.8c8.6,0.1,41.2-14.5,40.3-16.6
	c-2.1-4.8-9.8-17-15.7-17.6C217.8,383,195.7,395.1,190.3,400z"/>
<path class="st0" d="M190.3,400c-1.8,1.6-3.5,3.3-4.2,5.5c-1.1,3.6,1,7.7,4.1,9.8s7.1,2.7,10.9,2.8c8.6,0.1,41.2-14.5,40.3-16.6
	c-2.1-4.8-9.8-17-15.7-17.6C217.8,383,195.7,395.1,190.3,400z"/>
<linearGradient id="SVGID_30_" gradientUnits="userSpaceOnUse" x1="187.2368" y1="-9.699" x2="242.8187" y2="-9.699" gradientTransform="matrix(1 0 0 -1 -1.46 391.2498)">
	<stop  offset="0.12" style="stop-color:#010101;stop-opacity:0"/>
	<stop  offset="0.67" style="stop-color:#010101;stop-opacity:0.67"/>
	<stop  offset="0.95" style="stop-color:#010101"/>
</linearGradient>
<path class="st32" d="M190.3,400c-1.8,1.6-3.5,3.3-4.2,5.5c-1.1,3.6,1,7.7,4.1,9.8s7.1,2.7,10.9,2.8c8.6,0.1,41.2-14.5,40.3-16.6
	c-2.1-4.8-9.8-17-15.7-17.6C217.8,383,195.7,395.1,190.3,400z"/>
<linearGradient id="SVGID_31_" gradientUnits="userSpaceOnUse" x1="100.1634" y1="-34.2798" x2="132.1207" y2="-34.2798" gradientTransform="matrix(0.9684 0.2495 0.2495 -0.9684 127.3205 330.4787)">
	<stop  offset="0" style="stop-color:#E5C6D6"/>
	<stop  offset="0.42" style="stop-color:#EAD4D0"/>
	<stop  offset="1" style="stop-color:#F0E9CB"/>
</linearGradient>
<path class="st33" d="M220.1,387.4c-2,0.9-4.1,1.9-5,3.9c-0.5,1.2-0.6,2.6-0.4,3.9c0.6,4.3,3.1,8.8,7.4,9.9
	c3.6,0.9,7.3-0.7,10.6-2.4c5-2.5,10.2-5.1,13.8-9.3c1.3-1.5,2.4-3.6,1.9-5.5c-0.4-1.1-1.1-2.2-2-3c-3.3-3.4-6.4-6.3-10.9-4.5
	C230.3,382.5,225.2,385.1,220.1,387.4z"/>
<path class="st0" d="M281.1,391.4c6.3,2,12.1,5.6,18.4,7.5s13.9,1.9,18.9-2.5c0.9-0.8,1.7-1.8,2.2-2.9c0.6-1.8,0.8-3.7,0.5-5.5
	c-0.5-5.9-1.5-11.8-3-17.5c-0.4-2.1-1.3-4.1-2.7-5.7c-2.6-2.6-6.8-2.6-10.5-2.4l-19.7,1c-6.5,0.3-14.1,1.2-17.7,6.7
	c-1.1,1.9-1.9,3.9-2.3,6c-1.1,4-4.3,9.6,0.3,12.2c2,1.1,5,1,7.2,1.3C275.4,389.9,278.5,391.4,281.1,391.4z"/>
<linearGradient id="SVGID_32_" gradientUnits="userSpaceOnUse" x1="264.5994" y1="10.0259" x2="322.6294" y2="10.0259" gradientTransform="matrix(1 0 0 -1 -1.46 391.2498)">
	<stop  offset="0.12" style="stop-color:#010101;stop-opacity:0"/>
	<stop  offset="0.67" style="stop-color:#010101;stop-opacity:0.67"/>
	<stop  offset="0.95" style="stop-color:#010101"/>
</linearGradient>
<path class="st34" d="M281.1,391.4c6.3,2,12.1,5.6,18.4,7.5s13.9,1.9,18.9-2.5c0.9-0.8,1.7-1.8,2.2-2.9c0.6-1.8,0.8-3.7,0.5-5.5
	c-0.5-5.9-1.5-11.8-3-17.5c-0.4-2.1-1.3-4.1-2.7-5.7c-2.6-2.6-6.8-2.6-10.5-2.4l-19.7,1c-6.5,0.3-14.1,1.2-17.7,6.7
	c-1.1,1.9-1.9,3.9-2.3,6c-1.1,4-4.3,9.6,0.3,12.2c2,1.1,5,1,7.2,1.3C275.4,389.9,278.5,391.4,281.1,391.4z"/>
<path class="st0" d="M272.3,415.9c4.4,1,8.8,1.5,13.3,1.4c4.5-0.2,9.1-1.5,12.6-4.3s5.4-7.1,4.2-10.9c-1.6-4.9-7.5-7.4-13-9
	c-5.3-1.5-11.5-2.6-16.5,0c-2.2,1.3-4.1,2.9-5.8,4.8c-1.6,1.5-3,3.3-4.1,5.2C259.4,410.1,265.5,414.5,272.3,415.9z"/>
<linearGradient id="SVGID_33_" gradientUnits="userSpaceOnUse" x1="307.691" y1="-26.3482" x2="270.071" y2="-7.0682" gradientTransform="matrix(1 0 0 -1 -1.46 391.2498)">
	<stop  offset="0.12" style="stop-color:#010101;stop-opacity:0"/>
	<stop  offset="0.67" style="stop-color:#010101;stop-opacity:0.67"/>
	<stop  offset="0.95" style="stop-color:#010101"/>
</linearGradient>
<path class="st35" d="M272.3,415.9c4.4,1,8.8,1.5,13.3,1.4c4.5-0.2,9.1-1.5,12.6-4.3s5.4-7.1,4.2-10.9c-1.6-4.9-7.5-7.4-13-9
	c-5.3-1.5-11.5-2.6-16.5,0c-2.2,1.3-4.1,2.9-5.8,4.8c-1.6,1.5-3,3.3-4.1,5.2C259.4,410.1,265.5,414.5,272.3,415.9z"/>
<linearGradient id="SVGID_34_" gradientUnits="userSpaceOnUse" x1="257.0201" y1="-9.5715" x2="282.3774" y2="-9.5715" gradientTransform="matrix(1 0 0 -1 -1.46 391.2498)">
	<stop  offset="0" style="stop-color:#E5C6D6"/>
	<stop  offset="0.42" style="stop-color:#EAD4D0"/>
	<stop  offset="1" style="stop-color:#F0E9CB"/>
</linearGradient>
<path class="st36" d="M255.6,402.3c2.8,5.4,9.2,8.3,15.2,7.9c3.1-0.2,6.4-1.3,8.4-3.7c3.7-4.4,1.5-10.8-10.9-14.8
	C263.5,390,254.7,400.5,255.6,402.3z"/>
<linearGradient id="SVGID_35_" gradientUnits="userSpaceOnUse" x1="412.27" y1="287.5584" x2="417.74" y2="287.5584" gradientTransform="matrix(1 0 0 -1 -1.46 391.2498)">
	<stop  offset="0" style="stop-color:#E5C6D6"/>
	<stop  offset="0.42" style="stop-color:#EAD4D0"/>
	<stop  offset="1" style="stop-color:#F0E9CB"/>
</linearGradient>
<path class="st37" d="M411,99.2c0.3-1.3,1.3-2.6,2.5-2.6c0.8,0.1,1.6,0.6,1.9,1.3c0.4,0.7,0.6,1.5,0.6,2.4c0.2,2,0.2,4.1-0.1,6.2
	c-0.1,1.6-0.7,3.1-1.9,4.1c-0.1,0.2-0.4,0.2-0.5,0.1c-0.1,0-0.1-0.1-0.1-0.2c-1.1-1.7-1.8-3.6-2.2-5.6C411,103,410.5,101.1,411,99.2
	z"/>
<linearGradient id="SVGID_36_" gradientUnits="userSpaceOnUse" x1="355.3073" y1="271.2496" x2="366.4303" y2="271.2496" gradientTransform="matrix(1 0 0 -1 -1.46 391.2498)">
	<stop  offset="0" style="stop-color:#E5C6D6"/>
	<stop  offset="0.42" style="stop-color:#EAD4D0"/>
	<stop  offset="1" style="stop-color:#F0E9CB"/>
</linearGradient>
<path class="st38" d="M356,114.3c-0.6,0-1.2,0.3-1.7,0.7c-0.3,0.4-0.5,1-0.4,1.5c-0.1,3.6,2.9,6.6,6.1,8.4c1.3,0.8,3.2,1.4,4.3,0.3
	s0.8-2.9,0.2-4.3C362.9,117.2,360.5,113.8,356,114.3z"/>
<linearGradient id="SVGID_37_" gradientUnits="userSpaceOnUse" x1="355.4915" y1="275.9888" x2="417.2317" y2="275.9888" gradientTransform="matrix(1 0 0 -1 -1.46 391.2498)">
	<stop  offset="0" style="stop-color:#E5C6D6"/>
	<stop  offset="0.42" style="stop-color:#EAD4D0"/>
	<stop  offset="1" style="stop-color:#F0E9CB"/>
</linearGradient>
<path class="st39" d="M362.7,121c4.5,9.4,9.2,19,16.6,26.3c4.3,4.8,10.9,6.9,17.1,5.5c4.4-0.6,8.9-2,12-5.2c1.7-1.8,3-4,3.9-6.3
	c6.7-15.6,2.7-34-5.3-49.1c-2.5-4.7-5.5-9.3-9.9-12c-6.3-3.9-14.4-3.4-21.5-1.3c-6.2,1.8-20,6.5-21.3,13.9
	C352.7,101.8,359,113.3,362.7,121z"/>
<path class="st0" d="M346.9,96.4c-1.4-2.1-2.3-4.4-2.9-6.8c-0.4-2.4,0.3-5.2,2.2-6.7c0.5-0.3,0.9-0.7,1.3-1.1
	c0.3-0.6,0.5-1.4,0.4-2.1c0.4-6.8,6-12.5,12.4-15s13.4-2.5,20.3-2.5s13.9-0.2,20.2-2.9c0.7,2.1,0.7,4.4,0,6.6c1.6-1,3.8,0.7,4.1,2.6
	s-0.9,3.7-1.9,5.3c4,1,6.1,5.5,6.4,9.6s-0.4,8.3,0.7,12.3c0.4,1.1,0.6,2.2,0.8,3.3c0.2,1.2-0.4,2.3-1.4,3c-1.8-6-5.7-11.1-9.5-16.1
	c-1.1-1.6-2.4-3-3.9-4.1c-1.6-1.2-3.6-1.5-5.4-0.9c-1.2,0.7-2.3,1.4-3.3,2.3c-1.3,0.7-2.8,1.2-4.3,1.4c-8.6,1.6-17.9,1.5-25,6.4
	c-0.9,0.5-1.7,1.3-2.1,2.3c-0.3,1.1-0.4,2.2-0.1,3.3l1.5,11.5c0.3,2.5,0.8,5.1,2.7,6.9C354.5,109.7,350.6,102.9,346.9,96.4z"/>
<linearGradient id="SVGID_38_" gradientUnits="userSpaceOnUse" x1="345.3921" y1="304.1198" x2="412.4056" y2="304.1198" gradientTransform="matrix(1 0 0 -1 -1.46 391.2498)">
	<stop  offset="0.12" style="stop-color:#010101;stop-opacity:0"/>
	<stop  offset="0.67" style="stop-color:#010101;stop-opacity:0.67"/>
	<stop  offset="0.95" style="stop-color:#010101"/>
</linearGradient>
<path class="st40" d="M346.9,96.4c-1.4-2.1-2.3-4.4-2.9-6.8c-0.4-2.4,0.3-5.2,2.2-6.7c0.5-0.3,0.9-0.7,1.3-1.1
	c0.3-0.6,0.5-1.4,0.4-2.1c0.4-6.8,6-12.5,12.4-15s13.4-2.5,20.3-2.5s13.9-0.2,20.2-2.9c0.7,2.1,0.7,4.4,0,6.6c1.6-1,3.8,0.7,4.1,2.6
	s-0.9,3.7-1.9,5.3c4,1,6.1,5.5,6.4,9.6s-0.4,8.3,0.7,12.3c0.4,1.1,0.6,2.2,0.8,3.3c0.2,1.2-0.4,2.3-1.4,3c-1.8-6-5.7-11.1-9.5-16.1
	c-1.1-1.6-2.4-3-3.9-4.1c-1.6-1.2-3.6-1.5-5.4-0.9c-1.2,0.7-2.3,1.4-3.3,2.3c-1.3,0.7-2.8,1.2-4.3,1.4c-8.6,1.6-17.9,1.5-25,6.4
	c-0.9,0.5-1.7,1.3-2.1,2.3c-0.3,1.1-0.4,2.2-0.1,3.3l1.5,11.5c0.3,2.5,0.8,5.1,2.7,6.9C354.5,109.7,350.6,102.9,346.9,96.4z"/>
<linearGradient id="SVGID_39_" gradientUnits="userSpaceOnUse" x1="148.6797" y1="79.0476" x2="170.8897" y2="79.0476" gradientTransform="matrix(1 0 0 -1 -1.46 391.2498)">
	<stop  offset="0" style="stop-color:#E5C6D6"/>
	<stop  offset="0.42" style="stop-color:#EAD4D0"/>
	<stop  offset="1" style="stop-color:#F0E9CB"/>
</linearGradient>
<path class="st41" d="M153.7,297.4c2.7-0.1,5.3-0.1,8,0.1c2,0.1,4.6,0.9,4.8,2.9c0.2,1.6-1.2,3-2.7,3.5s-3.2,0.5-4.7,1.1
	c3-0.2,6,0.6,8.5,2.1c0.4,0.2,0.7,0.5,0.9,0.9c0.5,1.1-0.7,2.2-1.7,2.8c-1.4,0.7-2.9,1.2-4.5,1.6c1.9,0,3.7,0.5,5.3,1.5
	c0.7,0.3,1.2,0.9,1.6,1.5c0.4,1.3-0.3,2.7-1.5,3.2c-1.2,0.5-2.5,0.7-3.8,0.6c1.1,0.3,2.2,0.9,3.1,1.6c0.9,0.8,1.3,2,0.9,3.2
	c-0.6,1.3-2.2,1.6-3.6,1.8l-8.4,1.2c-0.8,0.2-1.7,0.2-2.6,0.1c-1.1-0.2-2.1-0.7-2.9-1.5c-3-2.8-3.2-7.3-3.3-11.4l-0.1-9.4
	C147.2,300.7,149.3,297.6,153.7,297.4z"/>
<path class="st0" d="M297.5,324.5c6.6-4.9,13.3-9.8,20.9-12.7s16.6-3.5,23.9,0.3s12.2,12.6,9.8,20.4c-1,3.4-3.2,6.2-5.4,8.9
	c-13.9,17.2-30.4,32.7-49.6,43.6s-41.4,17.4-63.5,16.3c-1.7,0.2-3.2-0.9-3.5-2.6l-3.3-8.8c-0.8-1.7-1.1-3.5-1.1-5.3
	c0.3-2.9,2.5-5.1,4.6-7.1C251.1,358,274.7,341.4,297.5,324.5z"/>
<linearGradient id="SVGID_40_" gradientUnits="userSpaceOnUse" x1="227.0885" y1="35.8152" x2="354.1601" y2="35.8152" gradientTransform="matrix(1 0 0 -1 -1.46 391.2498)">
	<stop  offset="0.12" style="stop-color:#010101;stop-opacity:0"/>
	<stop  offset="0.67" style="stop-color:#010101;stop-opacity:0.67"/>
	<stop  offset="0.95" style="stop-color:#010101"/>
</linearGradient>
<path class="st42" d="M297.5,324.5c6.6-4.9,13.3-9.8,20.9-12.7s16.6-3.5,23.9,0.3s12.2,12.6,9.8,20.4c-1,3.4-3.2,6.2-5.4,8.9
	c-13.9,17.2-30.4,32.7-49.6,43.6s-41.4,17.4-63.5,16.3c-1.7,0.2-3.2-0.9-3.5-2.6l-3.3-8.8c-0.8-1.7-1.1-3.5-1.1-5.3
	c0.3-2.9,2.5-5.1,4.6-7.1C251.1,358,274.7,341.4,297.5,324.5z"/>
<linearGradient id="SVGID_41_" gradientUnits="userSpaceOnUse" x1="376.068" y1="139.2604" x2="459.2019" y2="139.2604" gradientTransform="matrix(1 0 0 -1 -1.46 391.2498)">
	<stop  offset="0" style="stop-color:#E5C6D6"/>
	<stop  offset="0.42" style="stop-color:#EAD4D0"/>
	<stop  offset="1" style="stop-color:#F0E9CB"/>
</linearGradient>
<path class="st43" d="M406.2,251.6c7.6,1.4,15.2-2.1,22.1-5.5l16.8-8.3c2-1.2,4.3-1.9,6.6-2.2c2.3-0.1,4.9,1,5.7,3.2
	c0.9,2.4-0.6,5.1-2.6,6.7s-4.6,2.4-6.8,3.6c-6.6,3.6-10.5,10.7-16.5,15.1c-3.8,2.6-8,4.4-12.5,5.4c-11.6,2.7-24.8,1.3-34-6.3
	c-5.7-4.7-16.4-24.4-6-29.7c5.3-2.7,8.8,4.8,11.8,8C395.1,246.2,399.9,250.4,406.2,251.6z"/>
<path class="st0" d="M312.8,295.1c0,0-9.1,16.3-0.7,31s44.4,19.3,51,13.7s18.6-15.7,18.6-15.7s-2.9-6.9,2.6-17.6s8.8-13.7,11.1-12.4
	s17.3,17,19.3,25.2s14.7,10.8,18.6,11.1s16-5.6,16-5.6s-1.6-18.3-8.2-25.2s-20.3-29.7-39.9-20.9S368,292.5,368,292.5L312.8,295.1z"
	/>
<linearGradient id="SVGID_42_" gradientUnits="userSpaceOnUse" x1="358.3553" y1="147.2114" x2="393.1454" y2="30.1313" gradientTransform="matrix(1 0 0 -1 -1.46 391.2498)">
	<stop  offset="0.12" style="stop-color:#010101;stop-opacity:0"/>
	<stop  offset="0.45" style="stop-color:#010101;stop-opacity:0.35"/>
	<stop  offset="0.67" style="stop-color:#010101;stop-opacity:0.67"/>
	<stop  offset="0.95" style="stop-color:#010101"/>
</linearGradient>
<path class="st44" d="M312.8,295.1c0,0-9.1,16.3-0.7,31s44.4,19.3,51,13.7s18.6-15.7,18.6-15.7s-2.9-6.9,2.6-17.6
	s8.8-13.7,11.1-12.4s17.3,17,19.3,25.2s14.7,10.8,18.6,11.1s16-5.6,16-5.6s-1.6-18.3-8.2-25.2s-20.3-29.7-39.9-20.9
	S368,292.5,368,292.5L312.8,295.1z"/>
<path class="st3" d="M320.5,238.3c-2.6,9.2-1.4,19.1-3.3,28.5c-1.2,5.9-3.6,11.5-4.5,17.4s-0.1,12.6,4.1,16.8
	c2.6,2.4,5.8,3.9,9.2,4.5c7.7,1.7,15.8,0.5,23.2-2s14.4-6.4,21.2-10.2c1.8-0.9,3.5-2.1,4.9-3.5c2.7-3,3.1-7.5,3.1-11.5
	c0.1-8.1-0.4-16.4,1.1-24.4c1.1-5.7,3.3-11.2,3.1-17c-0.3-7.5-4.6-14.2-11.2-17.7c-5.8-3-12.4-3.1-18.7-4.3c-5.3-1-7.9-1.8-13.1,0.7
	C330.5,220,323.5,228.3,320.5,238.3z"/>
<linearGradient id="SVGID_43_" gradientUnits="userSpaceOnUse" x1="313.8618" y1="131.1888" x2="384.3416" y2="131.1888" gradientTransform="matrix(1 0 0 -1 -1.46 391.2498)">
	<stop  offset="0" style="stop-color:#FFFFFF;stop-opacity:0"/>
	<stop  offset="0.95" style="stop-color:#FFFFFF"/>
</linearGradient>
<path class="st45" d="M320.5,238.3c-2.6,9.2-1.4,19.1-3.3,28.5c-1.2,5.9-3.6,11.5-4.5,17.4s-0.1,12.6,4.1,16.8
	c2.6,2.4,5.8,3.9,9.2,4.5c7.7,1.7,15.8,0.5,23.2-2s14.4-6.4,21.2-10.2c1.8-0.9,3.5-2.1,4.9-3.5c2.7-3,3.1-7.5,3.1-11.5
	c0.1-8.1-0.4-16.4,1.1-24.4c1.1-5.7,3.3-11.2,3.1-17c-0.3-7.5-4.6-14.2-11.2-17.7c-5.8-3-12.4-3.1-18.7-4.3c-5.3-1-7.9-1.8-13.1,0.7
	C330.5,220,323.5,228.3,320.5,238.3z"/>
<linearGradient id="SVGID_44_" gradientUnits="userSpaceOnUse" x1="240.747" y1="74.3818" x2="282.853" y2="74.3818" gradientTransform="matrix(0.9901 0.1404 0.1404 -0.9901 65.8478 320.2618)">
	<stop  offset="0" style="stop-color:#E5C6D6"/>
	<stop  offset="0.42" style="stop-color:#EAD4D0"/>
	<stop  offset="1" style="stop-color:#F0E9CB"/>
</linearGradient>
<path class="st46" d="M315.1,289.4c-0.4,5.8-0.1,12.6,4.7,15.9c2.1,1.3,4.5,2,7,2c4.8,0.4,9.6,0.1,14.3-1c1.7-0.4,13.2-4.8,13.2-4.8
	c-0.5-0.7-16.4-5.5-19-7.7c-4.2-3.5-4-10-2.8-15.3s2.8-11.1,0.5-16s-12.3-9.3-14.5-2.7C315.3,268.6,315.6,280.2,315.1,289.4z"/>
<path class="st0" d="M332.4,151.9c-1.6,2-2.7,4.3-3.2,6.8c-1.2,4.9-1.5,9.9-0.9,14.9c0.9,6.8,3.4,14,0.7,20.4c-0.8,2-2.1,3.7-3,5.6
	c-1.1,1.9-1.3,4.1-0.6,6.2c0.2,0.6,0.7,1.2,1.3,1.6c1.2,0.5,2.5,0.3,3.4-0.6c0.9-0.9,1.6-1.9,2-3.1c-0.8,1.4,0.3,3.4,1.9,3.8
	c1.6,0.3,3.3-0.3,4.4-1.5c1-1.3,1.8-2.7,2.3-4.2c0.2,1,0.6,1.9,1.3,2.7c3-0.7,4.7-3.9,5.8-6.9c3.1-8.1,5-16.8,4-25.4
	C350.9,165.6,341.7,141.7,332.4,151.9z"/>
<linearGradient id="SVGID_45_" gradientUnits="userSpaceOnUse" x1="326.41" y1="212.717" x2="353.4183" y2="212.717" gradientTransform="matrix(1 0 0 -1 -1.46 391.2498)">
	<stop  offset="0.12" style="stop-color:#010101;stop-opacity:0"/>
	<stop  offset="0.45" style="stop-color:#010101;stop-opacity:0.35"/>
	<stop  offset="0.67" style="stop-color:#010101;stop-opacity:0.67"/>
	<stop  offset="0.95" style="stop-color:#010101"/>
</linearGradient>
<path class="st47" d="M332.4,151.9c-1.6,2-2.7,4.3-3.2,6.8c-1.2,4.9-1.5,9.9-0.9,14.9c0.9,6.8,3.4,14,0.7,20.4c-0.8,2-2.1,3.7-3,5.6
	c-1.1,1.9-1.3,4.1-0.6,6.2c0.2,0.6,0.7,1.2,1.3,1.6c1.2,0.5,2.5,0.3,3.4-0.6c0.9-0.9,1.6-1.9,2-3.1c-0.8,1.4,0.3,3.4,1.9,3.8
	c1.6,0.3,3.3-0.3,4.4-1.5c1-1.3,1.8-2.7,2.3-4.2c0.2,1,0.6,1.9,1.3,2.7c3-0.7,4.7-3.9,5.8-6.9c3.1-8.1,5-16.8,4-25.4
	C350.9,165.6,341.7,141.7,332.4,151.9z"/>
<linearGradient id="SVGID_46_" gradientUnits="userSpaceOnUse" x1="241.8507" y1="129.7492" x2="265.1407" y2="129.7492" gradientTransform="matrix(0.9832 0.1828 0.1828 -0.9832 86.647 299.7095)">
	<stop  offset="0" style="stop-color:#E5C6D6"/>
	<stop  offset="0.42" style="stop-color:#EAD4D0"/>
	<stop  offset="1" style="stop-color:#F0E9CB"/>
</linearGradient>
<path class="st48" d="M369.1,223.4c0.2,3.4,0.5,7-0.5,10.4s-4.2,6.1-6.6,4.6c-1-0.8-1.7-1.8-2.2-3l-8.2-16.1c-0.6-1-0.9-2.1-1.1-3.2
	c-0.1-2,0.8-4.9,0.8-6.8c0-3.2-0.7-7.5,0-9.3s5.4,1.8,6.6,0.3s3.4-1.5,4.9-0.7c3.3,1.6,5.8,5.3,6.5,9.8c0.2,1,0.4,1.9,0.6,2.9
	c0.4,1.7,0.5,0.8,0.1,2.6C369.3,217.7,369,220.5,369.1,223.4z"/>
<linearGradient id="SVGID_47_" gradientUnits="userSpaceOnUse" x1="390.3034" y1="158.0874" x2="400.5334" y2="224.9674" gradientTransform="matrix(0.9988 -4.954705e-02 -4.954705e-02 -0.9988 -23.0747 408.1651)">
	<stop  offset="0.12" style="stop-color:#010101;stop-opacity:0"/>
	<stop  offset="0.67" style="stop-color:#010101;stop-opacity:0.67"/>
	<stop  offset="0.95" style="stop-color:#010101"/>
</linearGradient>
<path class="st49" d="M355,212.2c2.4,4.5,5,9.3,9.7,11.4c0.5,0.3,1.1,0.4,1.6,0.3c0.4-0.1,0.8-0.4,1.1-0.7c1.5-1.5,1.8-3.8,1.9-5.9
	l0.4-4.9c0.1-0.4,0-0.9-0.2-1.2c-0.2-0.2-0.5-0.4-0.8-0.5l-11.3-5c-1.3-0.6-4.3-1.6-5,0.3C351.9,207.4,354.3,210.9,355,212.2z"/>
<linearGradient id="SVGID_48_" gradientUnits="userSpaceOnUse" x1="349.4758" y1="203.5787" x2="392.6034" y2="203.5787" gradientTransform="matrix(1 0 0 -1 -1.46 391.2498)">
	<stop  offset="0" style="stop-color:#E5C6D6"/>
	<stop  offset="0.42" style="stop-color:#EAD4D0"/>
	<stop  offset="1" style="stop-color:#F0E9CB"/>
</linearGradient>
<path class="st50" d="M367.3,216.9c-6.5-1.9-12.1-6-15.9-11.6c-1.1-1.5-1.9-3.2-2.5-4.9c-0.6-2-0.9-4.1-0.9-6.3
	c-0.2-8.5,1.6-16.9,5.3-24.6c0.9-1.9,2-3.7,3.4-5.3c3-3.3,7.5-4.7,11.9-5.4c3.4-0.5,6.8-0.8,10.2-0.8c1.9-0.2,3.9,0.1,5.7,0.8
	c1.3,0.7,2.5,1.6,3.4,2.7c2.5,2.9,2.6,6.7,3.1,10.5C391.7,176.2,386.8,222.2,367.3,216.9z"/>
<path class="st0" d="M398.5,164.9c-0.7-5.1-2.9-9.8-5.3-14.3c-1.1-2.1-2.4-4.1-4.3-5.4c-1.6-0.9-3.3-1.5-5.1-1.7l-10.7-2.2
	c-3-0.7-6.1-1.2-9.2-1.3c-10.3,0-19.8,7.5-23.2,17.2s-1.1,20.9,5,29.1c0.4,0.6,1,1.1,1.7,1.3c1.1,0.1,1.9-1.1,2.4-2.2
	c1.4-3.5,2.3-7.1,4-10.4s4.2-6.4,7.8-7.6c1.8-0.5,3.5-0.8,5.4-1.1c3-0.6,5.8-1.9,8.3-3.8c0.4-0.4,1-0.7,1.6-0.6
	c0.5,0.1,0.8,0.7,1.1,1.1c1.9,3.2,6.2,4,8.8,6.7c1.5,1.6,2.3,3.6,3.4,5.4C396.4,185.2,399.3,170.2,398.5,164.9z"/>
<linearGradient id="SVGID_49_" gradientUnits="userSpaceOnUse" x1="340.667" y1="227.4251" x2="400.1111" y2="227.4251" gradientTransform="matrix(1 0 0 -1 -1.46 391.2498)">
	<stop  offset="0.12" style="stop-color:#010101;stop-opacity:0"/>
	<stop  offset="0.67" style="stop-color:#010101;stop-opacity:0.67"/>
	<stop  offset="0.95" style="stop-color:#010101"/>
</linearGradient>
<path class="st51" d="M398.5,164.9c-0.7-5.1-2.9-9.8-5.3-14.3c-1.1-2.1-2.4-4.1-4.3-5.4c-1.6-0.9-3.3-1.5-5.1-1.7l-10.7-2.2
	c-3-0.7-6.1-1.2-9.2-1.3c-10.3,0-19.8,7.5-23.2,17.2s-1.1,20.9,5,29.1c0.4,0.6,1,1.1,1.7,1.3c1.1,0.1,1.9-1.1,2.4-2.2
	c1.4-3.5,2.3-7.1,4-10.4s4.2-6.4,7.8-7.6c1.8-0.5,3.5-0.8,5.4-1.1c3-0.6,5.8-1.9,8.3-3.8c0.4-0.4,1-0.7,1.6-0.6
	c0.5,0.1,0.8,0.7,1.1,1.1c1.9,3.2,6.2,4,8.8,6.7c1.5,1.6,2.3,3.6,3.4,5.4C396.4,185.2,399.3,170.2,398.5,164.9z"/>
<path class="st3" d="M386.3,234.2c2.5,3.2,5.2,6.7,5.2,10.8c-0.1,1.9-0.5,3.8-1.2,5.5c-1,3.1-2.3,6.2-3.6,9.2
	c-0.7,1.5-1.6,3.1-3.1,3.7c-3.5-1.6-5.6-5.5-6.1-9.4c-0.6-3.9,0-7.8,0.3-11.7c0.2-2.8,0.2-5.5,0.2-8.3c0-1.6-1.2-6.8-0.3-8
	C379.4,223.4,385,232.6,386.3,234.2z"/>
<linearGradient id="SVGID_50_" gradientUnits="userSpaceOnUse" x1="365.9897" y1="141.4107" x2="401.4797" y2="152.9007" gradientTransform="matrix(1 0 0 -1 -1.46 391.2498)">
	<stop  offset="0" style="stop-color:#FFFFFF;stop-opacity:0"/>
	<stop  offset="0.66" style="stop-color:#FFFFFF"/>
</linearGradient>
<path class="st52" d="M386.3,234.2c2.5,3.2,5.2,6.7,5.2,10.8c-0.1,1.9-0.5,3.8-1.2,5.5c-1,3.1-2.3,6.2-3.6,9.2
	c-0.7,1.5-1.6,3.1-3.1,3.7c-3.5-1.6-5.6-5.5-6.1-9.4c-0.6-3.9,0-7.8,0.3-11.7c0.2-2.8,0.2-5.5,0.2-8.3c0-1.6-1.2-6.8-0.3-8
	C379.4,223.4,385,232.6,386.3,234.2z"/>
<path class="st3" d="M326.3,226.2c-3.5,4.9-8.4,10.7-11,16.1c-2.4,5.2-2.5,25.5-1.5,25.9c4.8,1.9,14.2,1.5,19.2,0.4
	c0.7-0.1,1.3-0.4,1.9-0.9c0.5-0.7,0.7-1.5,0.6-2.3c0-6-2.4-15.3-2.4-21.3c0.1-2.9-0.2-5.9-1-8.7c-0.9-2.8-2.6-7-5.5-6.6L326.3,226.2
	z"/>
<linearGradient id="SVGID_51_" gradientUnits="userSpaceOnUse" x1="308.2494" y1="139.7039" x2="335.4894" y2="143.5039" gradientTransform="matrix(1 0 0 -1 -1.46 391.2498)">
	<stop  offset="0" style="stop-color:#FFFFFF;stop-opacity:0"/>
	<stop  offset="0.95" style="stop-color:#FFFFFF"/>
</linearGradient>
<path class="st53" d="M330.9,230.4c-1-2.1-3.5-3-5.6-2.1c-0.6,0.3-1.2,0.7-1.6,1.3c-3,4-6.4,8.4-8.3,12.6
	c-2.4,5.2-2.5,25.5-1.5,25.9c4.8,1.9,14.2,1.5,19.2,0.4c0.7-0.1,1.3-0.4,1.9-0.9c0.5-0.7,0.7-1.5,0.6-2.3c0-6-2.4-15.3-2.4-21.3
	c0-2.9-0.7-5.8-1-8.7C332,233.6,331.6,232,330.9,230.4z"/>
<path class="st0" d="M438.4,245.7c4.7-11.5,17.4-21.1,29.1-16.9c38.5,13.8,21.4,105.3,22.5,145.2c0,3.3-1.5,6.4-4.1,8.3
	c-1.9,1.3-14.5-0.8-16.8-0.6c-7.3,0.8-23.7-86.2-31.4-98.5C430.6,272.2,433.5,257.6,438.4,245.7z"/>
<linearGradient id="SVGID_52_" gradientUnits="userSpaceOnUse" x1="434.919" y1="85.9546" x2="494.2573" y2="85.9546" gradientTransform="matrix(1 0 0 -1 -1.46 391.2498)">
	<stop  offset="0.12" style="stop-color:#010101;stop-opacity:0"/>
	<stop  offset="0.67" style="stop-color:#010101;stop-opacity:0.67"/>
	<stop  offset="0.95" style="stop-color:#010101"/>
</linearGradient>
<path class="st54" d="M438.4,245.7c4.7-11.5,17.4-21.1,29.1-16.9c38.5,13.8,21.4,105.3,22.5,145.2c0,3.3-1.5,6.4-4.1,8.3
	c-1.9,1.3-14.5-0.8-16.8-0.6c-7.3,0.8-23.7-86.2-31.4-98.5C430.6,272.2,433.5,257.6,438.4,245.7z"/>
<linearGradient id="SVGID_53_" gradientUnits="userSpaceOnUse" x1="274.0251" y1="78.8029" x2="296.8851" y2="78.8029" gradientTransform="matrix(1 0 0 -1 -1.46 391.2498)">
	<stop  offset="0" style="stop-color:#E5C6D6"/>
	<stop  offset="0.42" style="stop-color:#EAD4D0"/>
	<stop  offset="1" style="stop-color:#F0E9CB"/>
</linearGradient>
<path class="st55" d="M272.6,311.8c-0.1,1.5,0.1,3.3,1.3,4.2c0.5,0.3,1,0.6,1.5,0.8l5,2c0.6,0.3,1.4,0.4,2,0.1
	c0.4-0.3,0.6-0.7,0.9-1.1c0.9-1,2.6-0.8,3.9-0.2c1,0.6,1.9,1.4,2.6,2.4c0.6,0.8,1.1,1.8,2,2.1c1,0.2,2-0.3,2.5-1.1
	c2-2.6,0.9-6.5-0.9-9.2c-2.8-4.2-6.9-7.2-11.7-8.7C276.4,301.4,273,307,272.6,311.8z"/>
<linearGradient id="SVGID_54_" gradientUnits="userSpaceOnUse" x1="209.9269" y1="81.5389" x2="240.1966" y2="81.5389" gradientTransform="matrix(1 0 0 -1 -1.46 391.2498)">
	<stop  offset="0" style="stop-color:#E5C6D6"/>
	<stop  offset="0.42" style="stop-color:#EAD4D0"/>
	<stop  offset="1" style="stop-color:#F0E9CB"/>
</linearGradient>
<path class="st56" d="M237.3,300.2c2.1,1.8,1.6,5.1,0.3,7.5c-3.4,6.3-19.6,17.4-26.9,12.2c-6.5-4.7,3.2-15.2,7.2-18
	C222.5,298.8,232.4,296.1,237.3,300.2z"/>
<linearGradient id="SVGID_55_" gradientUnits="userSpaceOnUse" x1="381.9865" y1="58.1305" x2="434.9233" y2="58.1305" gradientTransform="matrix(1 0 0 -1 -1.46 391.2498)">
	<stop  offset="0" style="stop-color:#E5C6D6"/>
	<stop  offset="0.42" style="stop-color:#EAD4D0"/>
	<stop  offset="1" style="stop-color:#F0E9CB"/>
</linearGradient>
<path class="st57" d="M389.5,334.4l27.7,32.7c1.1,1.4,2,3,3.7,3.5c2.8,0.9,12.9,2.9,12.4,1.7c-10.1-28.5-17.9-54.7-32.8-73.4
	c-1.6-2-3.4-4.1-5.9-4.9c-4.1-1.3-8.6,1.4-10.7,5.1C377.1,311.4,381.3,324.7,389.5,334.4z"/>
<linearGradient id="SVGID_56_" gradientUnits="userSpaceOnUse" x1="413.2451" y1="61.5252" x2="452.8772" y2="61.5252" gradientTransform="matrix(1 0 0 -1 -1.46 391.2498)">
	<stop  offset="0" style="stop-color:#E5C6D6"/>
	<stop  offset="0.42" style="stop-color:#EAD4D0"/>
	<stop  offset="1" style="stop-color:#F0E9CB"/>
</linearGradient>
<path class="st58" d="M411.9,296.2c0.4-4.4,3.1-8.9,7.4-9.8c2-0.4,4.1-0.2,6,0.6c6.9,2.7,10.7,10.1,13.3,17.1
	c7.3,20,15.1,46.9,12.3,68c-0.2,1.7-7.1,1-8.9,0.9c-1.1-0.1-12.6-26.5-17.7-39C419.8,323.4,410.8,308,411.9,296.2z"/>
<linearGradient id="SVGID_57_" gradientUnits="userSpaceOnUse" x1="344.03" y1="203.4239" x2="351.67" y2="203.4239" gradientTransform="matrix(1 0 0 -1 -1.46 391.2498)">
	<stop  offset="0" style="stop-color:#E5C6D6"/>
	<stop  offset="0.42" style="stop-color:#EAD4D0"/>
	<stop  offset="1" style="stop-color:#F0E9CB"/>
</linearGradient>
<path class="st59" d="M346.2,182.4c-0.5-0.1-0.9-0.1-1.4,0c-0.7,0.2-1.2,0.6-1.6,1.3c-0.3,0.6-0.5,1.3-0.6,2c-0.3,1.8,0,3.6,0.8,5.1
	c0.9,1.6,2.6,2.6,4.4,2.5c0.3,0,0.7-0.1,0.9-0.3c0.4-0.4,0.6-1,0.6-1.5c0.3-1.9,1.1-4.6,0.7-6.5
	C349.7,183.2,347.7,182.6,346.2,182.4z"/>
<linearGradient id="SVGID_58_" gradientUnits="userSpaceOnUse" x1="345.993" y1="201.9853" x2="355.2231" y2="208.2753" gradientTransform="matrix(1 0 0 -1 -1.46 391.2498)">
	<stop  offset="0.12" style="stop-color:#010101;stop-opacity:0"/>
	<stop  offset="0.67" style="stop-color:#010101;stop-opacity:0.67"/>
	<stop  offset="0.95" style="stop-color:#010101"/>
</linearGradient>
<path class="st60" d="M345.9,184.7c-0.7,0-1.4,0.4-1.6,1.1c-0.1,0.4-0.2,0.8-0.1,1.2c0,0.9,0.3,1.8,0.8,2.6c0.6,0.9,1.6,1.5,2.7,1.4
	c0.6,0,1-0.5,1-1c0-0.2,0-0.3-0.1-0.5c-0.4-0.8-0.7-1.7-0.9-2.6C347.5,185.8,347.1,184.7,345.9,184.7z"/>
<path class="st0" d="M260,154.6c1,0.3,2,0.4,3,0.4c3.5,0.2,7.4,0.3,10.3-1.8s4.2-5.6,5.3-8.9s2.3-6.9,5.1-9c3-2.2,7.4-2.5,9.5-5.6
	c0.5-0.7,0.8-1.7,0.7-2.6c-0.3-1.1-0.8-2-1.6-2.8c-1.1-1.5-2.5-2.7-4.2-3.4c-1.1-0.4-2.3-0.6-3.4-0.6c-3.6,0-7.3,0.1-10.9,0.5
	c-3.6,0.3-7.3,0.8-10.5,2.5c-3.1,1.8-5.8,4.2-7.9,7.1c-2,2.4-3.5,5.2-4.5,8.2c-1,3.4-0.8,7.8,1.7,10.6
	C254.6,151.6,257.1,153.4,260,154.6z"/>
<linearGradient id="SVGID_59_" gradientUnits="userSpaceOnUse" x1="314.3492" y1="272.2607" x2="276.9692" y2="240.7607" gradientTransform="matrix(1 0 0 -1 -1.46 391.2498)">
	<stop  offset="0.12" style="stop-color:#010101;stop-opacity:0"/>
	<stop  offset="0.67" style="stop-color:#010101;stop-opacity:0.67"/>
	<stop  offset="0.95" style="stop-color:#010101"/>
</linearGradient>
<path class="st61" d="M282,111.1c3.6,0.1,7.1,1.5,10.4,3c7.4,3.4,14.7,7.5,19.6,14c4.9,6.5,7,15.6,3.3,22.8
	c-2.5-5.2-5.5-10.1-9.1-14.7c-2-2.5-4.4-4.7-7-6.6c-2.1-1.5-4.7-2.3-6-4.7C290.1,119.4,287.8,114.6,282,111.1z"/>
<linearGradient id="SVGID_60_" gradientUnits="userSpaceOnUse" x1="376.8712" y1="157.7659" x2="391.4412" y2="157.7659" gradientTransform="matrix(1 0 0 -1 -1.46 391.2498)">
	<stop  offset="0" style="stop-color:#E5C6D6"/>
	<stop  offset="0.42" style="stop-color:#EAD4D0"/>
	<stop  offset="1" style="stop-color:#F0E9CB"/>
</linearGradient>
<path class="st62" d="M375.4,231.9c-0.1,0.6,0,1.4,0.5,1.7c0.4,0.1,0.8,0.1,1.2-0.1c1.2-0.5,2.3-1.4,3-2.5c-0.9,1.8-1.2,3.8-1,5.8
	c0.1,0.7,0.3,1.4,0.9,1.6c0.5,0.1,1.1,0,1.5-0.4c1.1-0.8,1.8-1.9,2.2-3.2c-0.8,2.3-1.1,4.8-0.8,7.3c0,0.5,0.2,1,0.6,1.3
	c0.4,0.2,0.9,0.1,1.3-0.1c1.7-1,3.1-2.5,3.9-4.4c0.8-1.3,1.2-2.8,1.1-4.3c-0.2-1.5-1.5-2.9-3-2.7c0.2,0-4.2-8-6.4-8.4
	C376.4,222.7,375.7,228.8,375.4,231.9z"/>
</svg>
