<?xml version="1.0" encoding="utf-8"?>
<!-- Generator: Adobe Illustrator 24.0.1, SVG Export Plug-In . SVG Version: 6.00 Build 0)  -->
<svg version="1.1" id="Layer_1" xmlns="http://www.w3.org/2000/svg" xmlns:xlink="http://www.w3.org/1999/xlink" x="0px" y="0px"
	 viewBox="0 0 684.4 548" style="enable-background:new 0 0 684.4 548;" xml:space="preserve">
<style type="text/css">
	.st0{opacity:0.55;fill:#FF0000;enable-background:new    ;}
	.st1{fill:#FF0000;}
	.st2{fill:url(#SVGID_1_);}
	.st3{fill:#606161;}
	.st4{fill:url(#SVGID_2_);}
	.st5{fill:url(#SVGID_3_);}
	.st6{fill:url(#SVGID_4_);}
	.st7{fill:url(#SVGID_5_);}
	.st8{fill:url(#SVGID_6_);}
	.st9{fill:url(#SVGID_7_);}
	.st10{fill:url(#SVGID_8_);}
	.st11{fill:url(#SVGID_9_);}
	.st12{fill:url(#SVGID_10_);}
	.st13{fill:url(#SVGID_11_);}
	.st14{fill:url(#SVGID_12_);}
	.st15{fill:url(#SVGID_13_);}
	.st16{fill:url(#SVGID_14_);}
	.st17{fill:url(#SVGID_15_);}
	.st18{fill:url(#SVGID_16_);}
	.st19{fill:url(#SVGID_17_);}
	.st20{fill:url(#SVGID_18_);}
	.st21{fill:url(#SVGID_19_);}
	.st22{fill:url(#SVGID_20_);}
	.st23{fill:url(#SVGID_21_);}
	.st24{fill:none;}
	.st25{fill:url(#SVGID_22_);}
	.st26{fill:url(#SVGID_23_);}
	.st27{fill:url(#SVGID_24_);}
	.st28{fill:url(#SVGID_25_);}
	.st29{fill:url(#SVGID_26_);}
	.st30{fill:url(#SVGID_27_);}
	.st31{fill:url(#SVGID_28_);}
	.st32{fill:url(#SVGID_29_);}
	.st33{opacity:0.79;fill:url(#SVGID_30_);enable-background:new    ;}
	.st34{fill:url(#SVGID_31_);}
</style>
<title>family 1</title>
<path class="st0" d="M160.2,496.6c-6.7,0.4-13.7,0.4-19.9-2.3c-1.2-0.4-2.1-1.1-2.8-2.2c-1.6-3.3,3.4-5.8,7-6.2l52.3-5.1
	c9.5-0.9,20.1-2.5,25.7-10.1c3.2-4.4,5-10.8,10.3-12c3.3-0.7,7.3,0.9,9.7-1.4c1.3-1.3,1.6-3.3,2.4-4.9c2.2-4.3,7.9-5.1,12.7-5.2
	c34-1,67.8,5.8,101.7,8.8c29,2.6,58.1,2.4,87-0.6c-5.1,9.5-17.2,12.5-28,13.6c-24.7,2.5-50,0.1-74.3,5c0.8,3,2.4,5.7,4.7,7.9
	c-7.7,3-16.1,3.3-24.4,3.7l-85.7,3.6c-12.4,0.5-25.5-0.4-37.5,2C187.6,494,173.9,495.8,160.2,496.6z"/>
<path class="st1" d="M280.3,204.8c-0.4,44.2,22.6,56.4,29.8,79.3c0.9,2.8-1.6,3.8-2.4,6.6s-4.1,5.1-6.8,3.8
	c-1.4-0.7-2.2-2.1-2.9-3.5c-9.2-16.9-20.4-14.6-25.7-33.1c-1.1-4-3.6-25.8-3.2-29.9c0.6-4.2,1.8-8.2,3.7-12
	c0.7-1.6-8.1-26.5-6.8-27.6S279.4,196.1,280.3,204.8"/>
<linearGradient id="SVGID_1_" gradientUnits="userSpaceOnUse" x1="292.9198" y1="271.6504" x2="240.0698" y2="254.0303" gradientTransform="matrix(1 0 0 -1 1.000000e-02 510.1098)">
	<stop  offset="0.12" style="stop-color:#010101;stop-opacity:0"/>
	<stop  offset="0.95" style="stop-color:#010101"/>
</linearGradient>
<path class="st2" d="M280.5,204.4c-0.4,44.2,22.6,56.4,29.8,79.3c0.9,2.8-1.6,3.8-2.4,6.6s-4.1,5.1-6.8,3.8
	c-1.4-0.7-2.2-2.1-2.9-3.5c-9.2-17-20.4-14.6-25.7-33.1c-1.1-4-3.6-25.8-3.2-29.9c0.6-4.2,1.8-8.2,3.7-12c0.7-1.6-8.1-26.5-6.8-27.6
	S279.6,195.8,280.5,204.4"/>
<path class="st3" d="M402.2,322c2.4,7,5,14.1,7.1,21.2c8.6,29.1,10.1,59.9,11.6,90.2c0.1,2.9,0.1,6.2-2.2,8c-2.5,1.9-12,2.1-14-0.3
	s-2.5-5.7-3-8.8c-1.3-8.8-6.7-28.9-8.5-37.6c-6.3-29.9-12.3-46.7-28.2-72.8c-7,11.8-9.5,31.5-15,44c-2.8,6.3-5.6,13-11,17.2
	c-3.4,2.7-11.5,9.7-15.5,11.5c-18.1,8.2-27.9,15.1-44.9,25.5c-0.8,0.5-1.7,0.9-2.6,1.1c-3.4,0.5-10.3-9.4-9.3-12.7s4.1-5.4,6.9-7.3
	c15.4-10.5,29.9-22.2,43.5-35c3.4-3.2,6.7-6.5,8.9-10.5c3-5.6,3.6-12.1,4.1-18.5c1-12.8,2.1-25.5,3.1-38.3
	c0.7-8.2,1.6-17.1,7.3-23.2c4.4-4.7,11-6.8,17.4-6.7s12.6,2.2,18.3,4.9c2.4,1.1,4.3,1.9,6.9,1.5c1.8-0.2,2.8-2.1,4.6-1
	c2.4,1.5,3.8,13.1,4.6,16C395.4,301.2,398.6,311.6,402.2,322z"/>
<linearGradient id="SVGID_2_" gradientUnits="userSpaceOnUse" x1="287.3393" y1="147.3399" x2="495.8693" y2="161.7199" gradientTransform="matrix(1 0 0 -1 1.000000e-02 510.1098)">
	<stop  offset="0.12" style="stop-color:#010101;stop-opacity:0"/>
	<stop  offset="0.95" style="stop-color:#010101"/>
</linearGradient>
<path class="st4" d="M402.2,322c2.4,7,5,14.1,7.1,21.2c8.6,29.1,10.1,59.9,11.6,90.2c0.1,2.9,0.1,6.2-2.2,8c-2.5,1.9-12,2.1-14-0.3
	s-2.5-5.7-3-8.8c-1.3-8.8-6.7-28.9-8.5-37.6c-6.3-29.9-12.3-46.7-28.2-72.8c-7,11.8-9.5,31.5-15,44c-2.8,6.3-5.6,13-11,17.2
	c-3.4,2.7-11.5,9.7-15.5,11.5c-18.1,8.2-27.9,15.1-44.9,25.5c-0.8,0.5-1.7,0.9-2.6,1.1c-3.4,0.5-10.3-9.4-9.3-12.7s4.1-5.4,6.9-7.3
	c15.4-10.5,29.9-22.2,43.5-35c3.4-3.2,6.7-6.5,8.9-10.5c3-5.6,3.6-12.1,4.1-18.5c1-12.8,2.1-25.5,3.1-38.3
	c0.7-8.2,1.6-17.1,7.3-23.2c4.4-4.7,11-6.8,17.4-6.7s12.6,2.2,18.3,4.9c2.4,1.1,4.3,1.9,6.9,1.5c1.8-0.2,2.8-2.1,4.6-1
	c2.4,1.5,3.8,13.1,4.6,16C395.4,301.2,398.6,311.6,402.2,322z"/>
<path class="st3" d="M251.4,367c-1.5,6.2-3.3,12.3-5.4,18.2c-5.3,13.7-14.1,25.7-22.9,37.5l-24,32.3c-1,1.4-2.2,2.9-4,3.1
	c-1.2,0.1-2.3-0.2-3.3-0.8c-2.9-1.4-5.8-3.2-7.4-6c-2.1-3.7-1.6-8.4,0.2-12.3s4.7-7,7.4-10.3c7.7-9.3,14.3-19.5,20.7-29.6
	c3.1-4.8,6.2-9.8,7.9-15.3c1.8-6.1,1.7-12.7,1.8-19.1c0.2-18,2.2-35.9,5.7-53.6c2.2-10.8,6.7-24.4,19.7-25.2
	c7.9-0.5,14.9,3.9,17.2,11.4c2.8,9.4-1,20.1-3.3,29.1C258.3,340.1,254.9,353.5,251.4,367z"/>
<linearGradient id="SVGID_3_" gradientUnits="userSpaceOnUse" x1="183.0304" y1="137.9947" x2="266.0411" y2="137.9947" gradientTransform="matrix(1 0 0 -1 1.000000e-02 510.1098)">
	<stop  offset="0.12" style="stop-color:#010101;stop-opacity:0"/>
	<stop  offset="0.95" style="stop-color:#010101"/>
</linearGradient>
<path class="st5" d="M251.4,367c-1.5,6.2-3.3,12.3-5.4,18.2c-5.3,13.7-14.1,25.7-22.9,37.5l-24,32.3c-1,1.4-2.2,2.9-4,3.1
	c-1.2,0.1-2.3-0.2-3.3-0.8c-2.9-1.4-5.8-3.2-7.4-6c-2.1-3.7-1.6-8.4,0.2-12.3s4.7-7,7.4-10.3c7.7-9.3,14.3-19.5,20.7-29.6
	c3.1-4.8,6.2-9.8,7.9-15.3c1.8-6.1,1.7-12.7,1.8-19.1c0.2-18,2.2-35.9,5.7-53.6c2.2-10.8,6.7-24.4,19.7-25.2
	c7.9-0.5,14.9,3.9,17.2,11.4c2.8,9.4-1,20.1-3.3,29.1C258.3,340.1,254.9,353.5,251.4,367z"/>
<path class="st3" d="M292.9,375.8c3,9,5.8,18,8.6,27l10.2,33c1.1,3.5,2.2,7.2,1.4,10.7s-4.3,6.8-7.9,5.9c-2.7-0.6-4.5-3.3-5.8-5.8
	c-16-28.4-26.7-60-46.4-86c-7.3-9.6-15.6-18.3-22-28.6s-10.4-22.5-8-34.3c0.6-2.9,1.8-5.9,4.3-7.3c1.9-1,4.1-1.1,6.2-1.1
	c22,0.1,28.7,6.5,37.2,24.9C279.4,333.6,286.3,356,292.9,375.8z"/>
<linearGradient id="SVGID_4_" gradientUnits="userSpaceOnUse" x1="222.2116" y1="139.0224" x2="313.287" y2="139.0224" gradientTransform="matrix(1 0 0 -1 1.000000e-02 510.1098)">
	<stop  offset="0.12" style="stop-color:#010101;stop-opacity:0"/>
	<stop  offset="0.95" style="stop-color:#010101"/>
</linearGradient>
<path class="st6" d="M292.9,375.8c3,9,5.8,18,8.6,27l10.2,33c1.1,3.5,2.2,7.2,1.4,10.7s-4.3,6.8-7.9,5.9c-2.7-0.6-4.5-3.3-5.8-5.8
	c-16-28.4-26.7-60-46.4-86c-7.3-9.6-15.6-18.3-22-28.6s-10.4-22.5-8-34.3c0.6-2.9,1.8-5.9,4.3-7.3c1.9-1,4.1-1.1,6.2-1.1
	c22,0.1,28.7,6.5,37.2,24.9C279.4,333.6,286.3,356,292.9,375.8z"/>
<path class="st3" d="M302,452l0.5,18.5c0.1,3.5,0.5,7.5,3.3,9.6c1.7,1,3.6,1.6,5.5,1.7c9.9,1.3,20,2.7,29.8,1c2.6-0.3,5-1.2,7.1-2.6
	c0.3-0.2,0.5-0.5,0.7-0.8c0.1-0.4,0.2-0.8,0.1-1.2c-0.5-3.6-3.5-6.3-6.5-8.4c-3.6-2.5-7.4-4.6-11.4-6.4c-2.7-1-5.3-2.2-7.7-3.6
	c-5.6-3.6-9-9.8-13.6-14.7c-0.4-0.5-0.9-0.9-1.5-1.2c-1.8-0.7-4.1,0.9-5.2,2.3C302,447.9,301.9,450.1,302,452z"/>
<path class="st3" d="M169.4,465.5c-0.8,1.1-1.6,2.4-1.4,3.7c0.2,0.9,0.6,1.7,1.3,2.3c2.4,2.6,5.7,4,8.8,5.7
	c5.9,3.2,11.3,7.3,17.7,9.5s14.2,1.9,18.8-2.9c0.4-0.4,0.8-0.9,0.9-1.5c0.2-1.1-0.8-2-1.6-2.7c-2.1-1.6-4.4-2.9-6.8-3.8
	c-1.7-0.7-3.6-1.2-5-2.4c-1-1-1.8-2.2-2.4-3.5c-2-4.2-3.4-8.6-4.1-13.2c-0.4-2.8-0.7-5.8-2.2-8.2c-4-6.5-8-1.3-11.4,2
	C177.3,455.1,173.1,460.1,169.4,465.5z"/>
<path class="st1" d="M398.1,235.6c-0.4,1.9-0.9,4-2.5,5.2c-2.3,1.7-5.6,0.5-7.9-1.1c-7.1-5.1-10.6-13.7-13.6-21.9
	c-2.5-6.9-4.8-14.1-4.3-21.4c0-0.8,0.2-1.7,0.7-2.4c0.5-0.5,1.2-0.8,1.9-0.9c10.3-2.4,21.2,0.8,28.5,8.5c4.2,4.4,2.7,7.7,1.5,13.4
	C401,221.8,399.6,228.7,398.1,235.6z"/>
<linearGradient id="SVGID_5_" gradientUnits="userSpaceOnUse" x1="403.8796" y1="289.1682" x2="376.0196" y2="296.0081" gradientTransform="matrix(1 0 0 -1 1.000000e-02 510.1098)">
	<stop  offset="0.12" style="stop-color:#010101;stop-opacity:0"/>
	<stop  offset="0.95" style="stop-color:#010101"/>
</linearGradient>
<path class="st7" d="M398.1,235.6c-0.4,1.9-0.9,4-2.5,5.2c-2.3,1.7-5.6,0.5-7.9-1.1c-7.1-5.1-10.6-13.7-13.6-21.9
	c-2.5-6.9-4.8-14.1-4.3-21.4c0-0.8,0.2-1.7,0.7-2.4c0.5-0.5,1.2-0.8,1.9-0.9c10.3-2.4,21.2,0.8,28.5,8.5c4.2,4.4,2.7,7.7,1.5,13.4
	C401,221.8,399.6,228.7,398.1,235.6z"/>
<path class="st1" d="M347.1,179.9c-2.5,23.2-7.4,55.3-11,78.3c-0.7,4.8-1.6,9.6-0.4,14.3c1.6,6.7,11.5,3.2,17.9,5.9s13.5,3.1,20.5,3
	c4,0,8.2-0.3,11.4-2.7c5-3.8,5.1-11.1,4.7-17.4c-0.6-12.5-1.2-25,0.7-37.4c2.4-15.8,8.7-31.7,5.2-47.3c-0.5-2.9-1.7-5.6-3.3-8
	c-1.2-1.6-2.6-3-4.1-4.3l-7.9-7.1c-2.3-2.1-4.8-4.2-7.8-5c-5.1-1.3-14,2.5-18.2,5.7C348.8,162.6,347.8,173.1,347.1,179.9z"/>
<linearGradient id="SVGID_6_" gradientUnits="userSpaceOnUse" x1="362.0131" y1="318.6245" x2="441.4731" y2="370.7545" gradientTransform="matrix(1 0 0 -1 1.000000e-02 510.1098)">
	<stop  offset="0.12" style="stop-color:#010101;stop-opacity:0"/>
	<stop  offset="0.95" style="stop-color:#010101"/>
</linearGradient>
<path class="st8" d="M361.3,164.5c1.6,0.7,3,1.7,4.4,2.8l15.1,11.6c0.6,0.4,1.2,0.9,1.6,1.6c0.4,0.8,0.6,1.6,0.6,2.5
	c0.4,5-0.1,10,0.4,15s2.1,10.1,6,13.4c2.5-2.2,2.5-5.9,2.4-9.1c-0.4-8.9-0.9-17.9-1.6-26.8c0.2-2.2-1.1-4.3-3.3-5l-25.9-13
	c-1.2-0.9-2.9-0.9-4.1,0.1c-2.1,1.3-7.2,3-4.1,5.1C354.3,163.4,359.6,164.5,361.3,164.5z"/>
<linearGradient id="SVGID_7_" gradientUnits="userSpaceOnUse" x1="376.4377" y1="277.5405" x2="237.8377" y2="285.6305" gradientTransform="matrix(1 0 0 -1 1.000000e-02 510.1098)">
	<stop  offset="0.12" style="stop-color:#010101;stop-opacity:0"/>
	<stop  offset="0.95" style="stop-color:#010101"/>
</linearGradient>
<path class="st9" d="M358.1,223.4c2.3-5.6,5.1-11.1,6-17.1c1.2-8.5-1.6-17.2-7.5-23.4c-6.7,13.4-11.9,27.5-15.7,42.1
	c-3.7,14.1-5.8,28.6-6.3,43.2c-0.2,2.2,0.1,4.4,0.9,6.4c1.4,2.8,4.6,4.4,7.7,4.7c6.8,0.6,8.4-0.2,8.5-5.9s-0.9-11.2-0.6-16.9
	C351.5,245.1,353.9,233.9,358.1,223.4z"/>
<linearGradient id="SVGID_8_" gradientUnits="userSpaceOnUse" x1="387.59" y1="327.0828" x2="408.37" y2="327.0828" gradientTransform="matrix(1 0 0 -1 1.000000e-02 510.1098)">
	<stop  offset="0" style="stop-color:#E5C6D6"/>
	<stop  offset="0.42" style="stop-color:#EAD4D0"/>
	<stop  offset="1" style="stop-color:#F0E9CB"/>
</linearGradient>
<path class="st10" d="M393.9,212.4c2.3,1.5,5.1,1.8,7.6,2.9c1.9,0.9,4.2,2.3,5.9,1s0.8-4-0.1-6c-6.9-14.7-5.6-31.8-8.3-47.8
	c-0.7-3.9-1.7-8-4.3-11.1c-6.8-7.9-7,7.6-7.1,11.1c0,4.8,0.3,9.5,0.7,14.3C389,185.9,385.2,206.6,393.9,212.4z"/>
<linearGradient id="SVGID_9_" gradientUnits="userSpaceOnUse" x1="402.0806" y1="350.4616" x2="361.9006" y2="352.4816" gradientTransform="matrix(1 0 0 -1 1.000000e-02 510.1098)">
	<stop  offset="0.12" style="stop-color:#010101;stop-opacity:0"/>
	<stop  offset="0.95" style="stop-color:#010101"/>
</linearGradient>
<path class="st11" d="M395.2,158.1c-0.2,1.3-0.6,2.7,0,3.8c0.2,0.4,0.5,0.7,0.8,1.1c0.6,0.8,1,1.8,1.2,2.8c-0.2,0.3-0.6,0.2-0.9,0
	c-2.2-1.2-4.2-2.7-5.9-4.6c0.6-0.9,0.9-2,1-3.1c-0.1-1.1,0-2.3,0.3-3.4c0.4-1,2.1-2.6,3.2-1.8S395.4,157,395.2,158.1z"/>
<linearGradient id="SVGID_10_" gradientUnits="userSpaceOnUse" x1="366.7234" y1="370.7357" x2="404.3761" y2="370.7357" gradientTransform="matrix(1 0 0 -1 1.000000e-02 510.1098)">
	<stop  offset="0" style="stop-color:#E5C6D6"/>
	<stop  offset="0.42" style="stop-color:#EAD4D0"/>
	<stop  offset="1" style="stop-color:#F0E9CB"/>
</linearGradient>
<path class="st12" d="M402.1,127.5c0.7,0.8,1.4,1.6,1.9,2.5c1.1,2.2-1.2,6.9-0.5,9.3c0.4,1.5,0.8,7.5,0.9,9
	c0.3,2.5-8.5,3.3-10.4,4.6c-3.6,2.5-2,5.7-3.5,10.3c-0.5,1.5-0.9,3.2-2,4.2c-1.3,1.3-3.2,1.1-4.8,0.7c-5.6-1.5-10.5-5.9-13.3-11.8
	c-2-4.7-3.1-9.6-3.2-14.7c-0.3-5-1.1-11.1,0.4-15.8c2-6.4,7.2-10.8,12.5-13.4c3.6-1.8,12.2-3.8,15.4,0.2c1.2,1.4,1.3,5.1,2,6.9
	C398.5,122.5,400.1,125.2,402.1,127.5z"/>
<linearGradient id="SVGID_11_" gradientUnits="userSpaceOnUse" x1="385.6137" y1="360.4672" x2="365.8037" y2="332.2871" gradientTransform="matrix(1 0 0 -1 1.000000e-02 510.1098)">
	<stop  offset="0.12" style="stop-color:#010101;stop-opacity:0"/>
	<stop  offset="0.95" style="stop-color:#010101"/>
</linearGradient>
<path class="st13" d="M389.2,157c0.5,0.2,0.9,0.4,1.3,0.8c0.8,0.9,0.5,2.3,0.3,3.4c-0.1,0.3-0.2,0.6-0.5,0.9c-0.4,0.2-0.8,0.2-1.2,0
	c-2.2-0.8-4.2-1.9-5.9-3.4c-2.1-1.6-4.1-3.3-6-5c-1.1-0.9-2-2-2.8-3.1c-0.5-0.9-1.7-4.1,0.4-3.5c1.3,0.4,3.3,3,4.4,3.9
	C382.3,153.4,385.7,155.4,389.2,157z"/>
<path class="st1" d="M362.9,66.5c-2-1.8-4.1-3.4-6.3-4.8c-0.7-0.5-1.5-0.9-2.4-1c-1,0-2,0.3-2.9,0.9c-4.1,2.8-5.7,8-7,12.8
	c-4.3,15.7-8.6,31.3-13,47c-0.4,1.5-0.8,3.2-0.1,4.5c0.6,1,1.5,1.7,2.5,2.2c8.4,4.5,17.9,6.5,27.4,5.8c1.6,0,3.2-0.5,4.6-1.4
	c1.6-1.2,1.1-4.1,1.6-6.1c2.6-8.8,6.4-16.6,9-25.4c2-6.8,4-14.4,1-20.9c-2.3-5-7.1-8.2-11.7-11.2l0.4,3.7"/>
<linearGradient id="SVGID_12_" gradientUnits="userSpaceOnUse" x1="460.5674" y1="374.3372" x2="472.7262" y2="374.3372" gradientTransform="matrix(0.9917 -0.1286 -0.1286 -0.9917 -47.743 502.2062)">
	<stop  offset="0" style="stop-color:#E5C6D6"/>
	<stop  offset="0.42" style="stop-color:#EAD4D0"/>
	<stop  offset="1" style="stop-color:#F0E9CB"/>
</linearGradient>
<path class="st14" d="M370.6,74.3c0,1,0.2,1.9,0.1,2.9c0,1-0.3,1.9-1,2.7c-0.6,0.5-1.4,0.8-2.2,0.8c-1.5-0.1-2.9-0.7-3.9-1.9
	c-1-1.1-1.7-2.5-2.1-3.9c-0.9-2.9-1-6-0.3-9c0.2-1.6,1-3,2.3-4c2-1.3,4.8-0.5,6.4,1.2c1.2,1.2,3.1,4.3,2.9,6.1
	c-0.1,0.8-1,1.4-1.4,2.1C370.8,72.3,370.6,73.3,370.6,74.3z"/>
<linearGradient id="SVGID_13_" gradientUnits="userSpaceOnUse" x1="464.2078" y1="372.5947" x2="477.1678" y2="391.9947" gradientTransform="matrix(0.9917 -0.1286 -0.1286 -0.9917 -47.743 502.2062)">
	<stop  offset="0.12" style="stop-color:#010101;stop-opacity:0"/>
	<stop  offset="0.95" style="stop-color:#010101"/>
</linearGradient>
<path class="st15" d="M366.4,72.2c0.4,0.5,1,1,1.6,1.3c0.6,0.3,1.3,0.3,2,0c0.7-0.4,1-1.2,1.5-1.9c0.8-1.3,2.3-2.3,2.3-3.8
	c0-0.8-0.4-1.6-1.1-2.2c-0.7-0.5-1.4-0.9-2.2-1.2c-1.6-0.6-3.3-1.2-5-1.6c-3.2-0.7-3,0.8-2.2,3.3C363.9,68.4,365,70.4,366.4,72.2z"
	/>
<path class="st3" d="M262.6,118.5c-9-2.4-19.1,1.1-25.6,7.9c-5.9,6.3-9.1,15.1-15.8,20.4c-7.9,6.3-19.1,6.6-27.6,11.9
	c-6.6,4.1-11.1,11-13.9,18.3c-2.5,6.5-3.6,14.2,0,20.2c1.4,2.4,3.5,4.5,4.2,7.1c1,3.7-0.9,7.4-1.9,11.1c-2,8,0.3,16.4,6,22.2
	c0.8,0.9,1.9,1.6,3.1,1.9c1.3,0.1,2.6-0.1,3.8-0.8c14.9-7.2,17.9-29.3,32.9-36.5c3.8-1.8,8-2.5,11.4-4.9c3.1-2.1,5.1-5.5,6.6-8.9
	c2.7-5.9,4.1-12.4,7.5-17.9c1.8-2.8,3.9-5.4,6.2-7.8c3.8-4.2,7.8-8.3,11.4-12.7c2.7-3.3,7.2-8.1,7.7-12.6
	C279.7,129.1,270.2,120.5,262.6,118.5z"/>
<linearGradient id="SVGID_14_" gradientUnits="userSpaceOnUse" x1="217.8149" y1="339.1634" x2="279.8449" y2="289.0034" gradientTransform="matrix(1 0 0 -1 1.000000e-02 510.1098)">
	<stop  offset="0.12" style="stop-color:#010101;stop-opacity:0"/>
	<stop  offset="0.95" style="stop-color:#010101"/>
</linearGradient>
<path class="st16" d="M278.7,137.8c-0.5,4.5-5.1,9.3-7.7,12.6c-3.6,4.4-7.5,8.5-11.4,12.7c-2.2,2.3-4.2,4.8-6,7.5
	c-0.1,0.1-0.1,0.2-0.2,0.3c-3.4,5.5-4.9,12-7.5,17.9c-1.5,3.4-3.6,6.7-6.6,8.9c-3.4,2.4-7.7,3.1-11.5,4.9
	c-15,7.1-17.9,29.2-32.9,36.5c-0.4,0.2-0.7,0.4-1.1,0.5c-0.8,0.3-1.7,0.4-2.6,0.3c-1.2-0.3-2.3-1-3.1-2c-5.7-5.9-8-14.3-6-22.2
	c1-3.7,2.8-7.5,1.9-11.1c-0.7-2.7-2.8-4.8-4.3-7.2c-3.5-6-2.4-13.7,0-20.2c2.8-7.3,7.3-14.1,13.9-18.3c8.5-5.3,19.7-5.7,27.6-11.9
	c6.8-5.4,9.9-14.1,15.9-20.4c6.4-6.8,16.5-10.3,25.6-7.9C270.2,120.5,279.7,129.1,278.7,137.8z"/>
<linearGradient id="SVGID_15_" gradientUnits="userSpaceOnUse" x1="192.9521" y1="309.778" x2="253.62" y2="309.778" gradientTransform="matrix(1 0 0 -1 1.000000e-02 510.1098)">
	<stop  offset="0.12" style="stop-color:#010101;stop-opacity:0"/>
	<stop  offset="0.95" style="stop-color:#010101"/>
</linearGradient>
<path class="st17" d="M253.6,170.6c-0.1,0.1-0.1,0.2-0.2,0.3c-3.4,5.5-4.9,12-7.5,17.9c-1.5,3.4-3.6,6.7-6.6,8.9
	c-3.4,2.4-7.7,3.1-11.5,4.9c-15,7.1-17.9,29.2-32.9,36.5c-0.4,0.2-0.7,0.4-1.1,0.5c-0.8-2.3-1.1-4.8-0.7-7.2
	c1.5-15.2,10.3-28.7,23.6-36.2c3.6-2,7.6-3.6,10.6-6.4c4.8-4.4,6.6-11,9.3-16.9c3.4-7.6,11.8-18,16-5.9
	C253.1,168,253.4,169.3,253.6,170.6z"/>
<linearGradient id="SVGID_16_" gradientUnits="userSpaceOnUse" x1="247.9412" y1="347.5951" x2="281.7512" y2="347.5951" gradientTransform="matrix(1 0 0 -1 1.000000e-02 510.1098)">
	<stop  offset="0" style="stop-color:#E5C6D6"/>
	<stop  offset="0.42" style="stop-color:#EAD4D0"/>
	<stop  offset="1" style="stop-color:#F0E9CB"/>
</linearGradient>
<path class="st18" d="M275,137.7c0.7,2.3,0.8,5,2.5,6.6c1.5,1.4,4,2.1,4.2,4.2c0,0.9-0.2,1.7-0.6,2.5c-1.3,3.7,0.8,11.2-1,14.8
	c-1.4,2.6-10.8,6.1-12.4,8.6c-3.2,4.9,0.4,16.1-1.9,16.2c-3,0.1-13.8,2.9-16.2,1.1c-3.2-2.5-0.8-13.9-0.7-18
	c0-7.2,0.7-14.5,1.9-21.6c0.9-5.1,2.1-10.3,5.4-14.3C260.1,133,272.4,129.5,275,137.7z"/>
<path class="st3" d="M267,136.5c-0.8,3.4,0.5,6.9,0,10.3c-1,7.7-7.8,12.6-13.4,12.6c-11.6-0.1-18.5,20.4-21.3,24
	c-9.7-16.7,0-29.6,2-36.5c1.6-5.6,12.7-17.6,17.5-20.8c4.5-3,11-5.1,16.5-4c3.9,0.8,4.9,8.1,2.9,9.1
	C269.2,132.2,267.6,134.2,267,136.5z"/>
<path class="st1" d="M283.9,245.5c-2.8,7.2-5.6,14.3-8.4,21.5c-3.1,8-5.4,29.3-9.6,36.8c-2.6,4.6-24.9,6.7-35.7,1.3
	c-1.6-0.7-3-1.7-4.1-3.1c-3.7-4.4-5.7-10-5.7-15.8c0.1-9,3.2-17.7,5.1-26.5c2.3-10.5,3.3-21.3,3.1-32.1v-2.2
	c-0.1-7-0.2-14.1,2.6-20.5c5.9-13.6,25.7-26.2,39-14.2C274.6,194.6,285.5,241.5,283.9,245.5z"/>
<linearGradient id="SVGID_17_" gradientUnits="userSpaceOnUse" x1="250.87" y1="247.3495" x2="163.41" y2="250.9095" gradientTransform="matrix(1 0 0 -1 1.000000e-02 510.1098)">
	<stop  offset="0.12" style="stop-color:#010101;stop-opacity:0"/>
	<stop  offset="0.95" style="stop-color:#010101"/>
</linearGradient>
<path class="st19" d="M240.1,229.6c-1.1,6.3-0.6,12.6-1.4,18.9c-1.3,11.1-6,21.6-7.2,32.7c-0.5,5.3-0.3,10.6,0.6,15.9
	c0.4,2.1,0.8,4.5-0.3,6.4c-0.4,0.6-1,1.1-1.7,1.5c-1.6-0.7-3-1.7-4.1-3.1c-3.7-4.4-5.7-10-5.7-15.8c0.1-9,3.2-17.7,5.1-26.5
	c2.3-10.5,3.3-21.3,3.1-32.1v-2.2c0.6-0.8,1.3-1.6,2-2.4c1.7-1.9,3.9-3.6,6.5-3.8C244.9,218.5,240.8,225.9,240.1,229.6z"/>
<linearGradient id="SVGID_18_" gradientUnits="userSpaceOnUse" x1="462.901" y1="391.1113" x2="487.341" y2="391.1113" gradientTransform="matrix(0.9917 -0.1286 -0.1286 -0.9917 -47.743 502.2062)">
	<stop  offset="0" style="stop-color:#E5C6D6"/>
	<stop  offset="0.42" style="stop-color:#EAD4D0"/>
	<stop  offset="1" style="stop-color:#F0E9CB"/>
</linearGradient>
<path class="st20" d="M377.8,68.8c2.9-1.7,5-4.4,6-7.6c1-3.2,1.4-6.5,1.3-9.8c0-3.3-0.5-6.6-1.6-9.8c-0.6-1.7-1.6-3.2-3-4.3
	c-2.4-1.8-5.8-1.6-8.5-0.4c-2.6,1.4-4.9,3.3-6.8,5.7c-1.4,1.4-2.4,3.1-3.2,4.9c-0.6,1.7-0.8,3.6-0.8,5.4c0,5,1.1,10.3,5,13.7
	C369.4,69.7,373.7,71,377.8,68.8z"/>
<path class="st3" d="M384.3,33.4c1.4,1.8,2,4.1,1.5,6.3c-0.1,0.6-0.3,1.1-0.7,1.5c-0.8,0.9-2.3,0.9-3.5,1.2c-1.5,0.4-2.8,1.4-4.2,2
	s-3.3,0.8-4.4-0.3c-0.2,1.1-0.9,1.9-1.9,2.3c-1,0.4-1.9,0.9-2.8,1.5c-1.3,1.2-1.5,3.2-1.6,4.9c-0.6-0.8-1.9-1.5-2.5-0.7
	c-0.2,0.3-0.2,0.6-0.2,0.9c0,1.5,0.4,2.9,0.6,4.4c0.3,1.5-0.1,3-0.9,4.2c-0.9,1.2-2.7,1.5-3.9,0.6c-0.5-0.5-0.8-1.1-1-1.7
	c-2.3-6.1-3.3-13-1.5-19.3s7-11.9,13.4-12.8c2.7-0.4,4.7,0.4,7.1,1.4C380.3,31,382.7,31.4,384.3,33.4z"/>
<linearGradient id="SVGID_19_" gradientUnits="userSpaceOnUse" x1="356.59" y1="464.4282" x2="385.97" y2="464.4282" gradientTransform="matrix(1 0 0 -1 1.000000e-02 510.1098)">
	<stop  offset="0.12" style="stop-color:#010101;stop-opacity:0"/>
	<stop  offset="0.95" style="stop-color:#010101"/>
</linearGradient>
<path class="st21" d="M384.3,33.4c1.4,1.8,2,4.1,1.5,6.3c-0.1,0.6-0.3,1.1-0.7,1.5c-0.8,0.9-2.3,0.9-3.5,1.2c-1.5,0.4-2.8,1.4-4.2,2
	s-3.3,0.8-4.4-0.3c-0.2,1.1-0.9,1.9-1.9,2.3c-1,0.4-1.9,0.9-2.8,1.5c-1.3,1.2-1.5,3.2-1.6,4.9c-0.6-0.8-1.9-1.5-2.5-0.7
	c-0.2,0.3-0.2,0.6-0.2,0.9c0,1.5,0.4,2.9,0.6,4.4c0.3,1.5-0.1,3-0.9,4.2c-0.9,1.2-2.7,1.5-3.9,0.6c-0.5-0.5-0.8-1.1-1-1.7
	c-2.3-6.1-3.3-13-1.5-19.3s7-11.9,13.4-12.8c2.7-0.4,4.7,0.4,7.1,1.4C380.3,31,382.7,31.4,384.3,33.4z"/>
<path class="st3" d="M349.1,35.8c-3,1.3-5,4.1-6.4,7s-2.2,6.1-3.6,9c-0.5,1.4-1.5,2.6-2.8,3.3c1.9-1,4.2-1,6.3-1.6
	c5.3-1.6,9.2-7.1,12.5-11.3c1.1-1.5,3.1-4,1.6-5.8C354.9,34.2,351.4,35.5,349.1,35.8z"/>
<path class="st3" d="M348.4,29.4c-2.3,1.3-4.7,2.3-7.2,3.1c6.5,1.2,13.4,1.6,19.4-1c1.8-0.6,3.3-1.8,4.3-3.4
	c0.7-1.3,0.8-3.5-0.4-4.6s-3.1-0.6-4.6-0.2C355.7,24.5,352.2,27.3,348.4,29.4z"/>
<linearGradient id="SVGID_20_" gradientUnits="userSpaceOnUse" x1="336.36" y1="465.0255" x2="357.327" y2="465.0255" gradientTransform="matrix(1 0 0 -1 1.000000e-02 510.1098)">
	<stop  offset="0.12" style="stop-color:#010101;stop-opacity:0"/>
	<stop  offset="0.95" style="stop-color:#010101"/>
</linearGradient>
<path class="st22" d="M349.1,35.8c-3,1.3-5,4.1-6.4,7s-2.2,6.1-3.6,9c-0.5,1.4-1.5,2.6-2.8,3.3c1.9-1,4.2-1,6.3-1.6
	c5.3-1.6,9.2-7.1,12.5-11.3c1.1-1.5,3.1-4,1.6-5.8C354.9,34.2,351.4,35.5,349.1,35.8z"/>
<linearGradient id="SVGID_21_" gradientUnits="userSpaceOnUse" x1="341.13" y1="482.0449" x2="365.3957" y2="482.0449" gradientTransform="matrix(1 0 0 -1 1.000000e-02 510.1098)">
	<stop  offset="0.12" style="stop-color:#010101;stop-opacity:0"/>
	<stop  offset="0.95" style="stop-color:#010101"/>
</linearGradient>
<path class="st23" d="M348.4,29.4c-2.3,1.3-4.7,2.3-7.2,3.1c6.5,1.2,13.4,1.6,19.4-1c1.8-0.6,3.3-1.8,4.3-3.4
	c0.7-1.3,0.8-3.5-0.4-4.6s-3.1-0.6-4.6-0.2C355.7,24.5,352.2,27.3,348.4,29.4z"/>
<path class="st1" d="M355.9,37.5c-0.9-0.1-1.8,0.5-2.2,1.3c-0.2,0.7,0,1.4,0.4,1.9c0.4,0.5,0.9,1,1.5,1.3c0.2,0.1,0.4,0.2,0.6,0.3
	c0.2,0,0.4-0.1,0.6-0.3c0.7-0.6,1.9-2,1.7-2.9S356.8,37.5,355.9,37.5z"/>
<path class="st1" d="M363.8,27.2c-0.9-0.1-1.8,0.4-2.2,1.3c-0.2,0.7,0,1.4,0.4,1.9c0.4,0.5,0.9,1,1.5,1.3c0.2,0.1,0.4,0.2,0.6,0.3
	c0.2,0,0.4-0.1,0.6-0.3c0.7-0.6,1.9-2,1.7-3S364.7,27.3,363.8,27.2z"/>
<path class="st24" d="M374.2,65.5c5.3,6.6,13.1,11.3,16.8,19c4.7,9.6,1.9,21.2,5.1,31.4"/>
<linearGradient id="SVGID_22_" gradientUnits="userSpaceOnUse" x1="529.9166" y1="323.1379" x2="553.967" y2="323.1379" gradientTransform="matrix(0.9637 -0.2671 -0.2671 -0.9637 -99.5654 496.7806)">
	<stop  offset="0" style="stop-color:#E5C6D6"/>
	<stop  offset="0.42" style="stop-color:#EAD4D0"/>
	<stop  offset="1" style="stop-color:#F0E9CB"/>
</linearGradient>
<path class="st25" d="M338.1,38.7c-4-7.6-6.6-15.9-9.2-24.2c-1.2-3.8-3-8.3-6.2-9.3s-6,2.5-6.1,6.3s1.6,7.7,3.7,10.9
	c1.2,1.8,2.5,3.4,3.6,5.3c1.1,2.1,2,4.2,2.8,6.4c5.3,13.7,11.7,27,19.3,39.5c0.5,0.9,1.1,1.7,1.8,2.3c2.1,1.6,4.7-0.1,5.9-2.5
	c2.3-4.9,2.1-14.8-2.2-18.5C345.9,50.5,341.3,45,338.1,38.7z"/>
<path class="st3" d="M345,158.6c1.9,1.4,4.1,2.6,6.4,2.3c1.5-0.3,2.9-0.9,4.1-1.7L371,150c1.5-0.9,3.1-2.3,2.6-3.9
	c-0.2-0.5-0.5-1-0.9-1.4c-5.5-6-3.2-10.1-11-12.4c-5-1.5-19.6-2.6-24.7-3.7c-6.2-1.5-6.3,1-5.5,6.9
	C332.7,144.7,337.6,153.1,345,158.6z"/>
<linearGradient id="SVGID_23_" gradientUnits="userSpaceOnUse" x1="328.7049" y1="409.0601" x2="467.5749" y2="342.7301" gradientTransform="matrix(1 0 0 -1 1.000000e-02 510.1098)">
	<stop  offset="0.12" style="stop-color:#010101;stop-opacity:0"/>
	<stop  offset="0.95" style="stop-color:#010101"/>
</linearGradient>
<path class="st26" d="M373.4,93.5c0,0.6-0.1,1.1-0.3,1.6c-0.3,0.6-0.8,1.2-1.5,1.5c-3.5,2.6-7.4,4.7-11.6,6.2
	c-1.7,0.6-3.6,1.2-4.8,2.6c-1.7,2.1-1.3,5.2-0.2,7.6c0.4,0.6,0.6,1.3,0.7,2.1c0,0.6-0.2,1.1-0.4,1.6c-0.7,1.9-1.1,3.9-1.2,6
	c-0.1,2-0.1,4.3-1.7,5.4c-0.5,0.4-1.1,0.5-1.7,0.8c-0.6,0.3-1,0.8-1,1.5c0,0.3,0.1,0.5,0.3,0.8l7.3,13.6c1,1.9,2.3,4.1,4.5,4.5
	c1.4,0.2,2.8-0.1,4.1-0.7l7-2.6c-0.7-2.5-2.9-4.2-4.3-6.4c-1.8-2.7-2.4-6-2.7-9.2c-0.5-4.2-0.7-8.6,0.5-12.7s3.8-8,7.6-9.7
	c1.7-0.8,3.7-1.4,4.3-3.1c0.2-0.8,0.2-1.7,0-2.6c-0.3-2.1-0.3-4.3,0-6.5c0.2-0.7,0.2-1.5-0.1-2.3c-0.2-0.4-0.6-0.8-0.9-1.1
	c-0.6-0.5-2.2-2.5-3.1-2.4C373.3,90.4,373.5,92.7,373.4,93.5z"/>
<linearGradient id="SVGID_24_" gradientUnits="userSpaceOnUse" x1="478.4083" y1="330.0046" x2="516.1442" y2="330.0046" gradientTransform="matrix(0.9863 -0.165 -0.165 -0.9863 -61.6998 501.1127)">
	<stop  offset="0" style="stop-color:#E5C6D6"/>
	<stop  offset="0.42" style="stop-color:#EAD4D0"/>
	<stop  offset="1" style="stop-color:#F0E9CB"/>
</linearGradient>
<path class="st27" d="M392.6,95.4c1,1.4,1.7,3,2,4.8c0.3,1.8-0.4,3.5-1.8,4.6c-0.9,0.5-1.8,0.9-2.8,1c-4.5,0.8-9.1,0.5-13.7,0.8
	s-9.3,1.5-12.5,4.8c-0.4,0.6-1.1,1-1.8,1.1c-0.5,0-0.9-0.2-1.2-0.5c-2.6-1.8-3.8-5-3.1-8c0.9-3,4-4.9,7.1-4.3c0.5,0.2,1,0.3,1.5,0.4
	c0.6,0,1.2-0.1,1.8-0.3l11.2-3.6c-2.2-0.9-3.9-2.9-4.6-5.2c-0.6-2.3-0.9-4.7-0.9-7.1c0-1.4-1.1-7.5,1.4-7.6c1.3,0,4.7,5.1,5.8,6.1
	C384.9,86.6,389.7,90.5,392.6,95.4z"/>
<linearGradient id="SVGID_25_" gradientUnits="userSpaceOnUse" x1="447.9651" y1="269.0439" x2="521.201" y2="269.0439" gradientTransform="matrix(0.9917 -0.1286 -0.1286 -0.9917 -47.743 502.2062)">
	<stop  offset="0" style="stop-color:#E5C6D6"/>
	<stop  offset="0.42" style="stop-color:#EAD4D0"/>
	<stop  offset="1" style="stop-color:#F0E9CB"/>
</linearGradient>
<path class="st28" d="M380.8,172.4c7.8,5.1,17.2,7.8,24,14.1c2.8,2.6,5.1,5.7,7.9,8.2s6.4,4.6,10.2,4.3c6.1-0.4,10.2-6.2,13.4-11.4
	c0.5-0.6,0.6-1.3,0.5-2c-0.2-0.4-0.6-0.7-1-0.8c-3.9-1.7-8.4,0-12.7-0.5c-4.8-0.6-8.6-4-12.3-7.2c-11.6-10.4-23.9-20-36.7-28.9
	c-0.8-0.6-0.9-1-1.9-1c-1.2,0-2.4,0.5-3.4,1.2c-2,1.7-8.5,5-9.4,7.4c-1.3,3.3,2.3,3.3,5.4,5.1S377.5,172.9,380.8,172.4z"/>
<path class="st3" d="M368.1,106.4c8.8-4.6,19.7-0.2,29.4-2.3c1.7-0.4,3.5-0.9,5-0.1s1.7,3.6,0,3.9c1.3,0,1,2.2-0.1,2.7
	s-2.5,0.4-3.5,1.2c-0.5,0.4-0.9,0.9-1.4,1.3c-1,0.5-2.2,0.6-3.3,0.4c-4.5-0.4-9.1,0-13.4,1.4c-2.9,0.9-3.5,2.3-5.5,4.6
	c-2.1,2.5-1.9,9-1.1,12c-0.3,0-3.6-5.5-3.9-5.2c-5.3,5.6,1.4,8.8,1.6,9.2c4.2,6.1-3.8,3.2-1.1,7.2c1.6,2.3-4.8-4.1-6.1-5.6
	c-2.3-2.5-5.1-5.4-5.6-8.9C358.3,120.1,360.3,110.5,368.1,106.4z"/>
<path class="st24" d="M353.8,148.4c-5-1.1-10.1,1.6-11.9,6.4"/>
<path class="st3" d="M413.9,458.8c0,0.7,0.1,1.4,0.3,2.1c0.5,1.2,1.4,2.2,2.5,2.8c2.9,1.6,6.4,1.7,9.6,1s6.3-1.8,9.5-2.6
	c7.7-1.9,16.4-1.5,22.6-6.3c0.4-0.3,0.7-0.6,1-1c0.9-1.6-0.5-3.5-2-4.5c-9.5-6.3-23.8-0.7-32.6-7.9c-3.5-2.8-9.8-8.7-13.6-2.8
	C407.7,444.8,413.5,453.4,413.9,458.8z"/>
<path class="st3" d="M254.1,412.6c-1.3,0.4-2.6,1.2-3.5,2.2c-0.8,1.2-1.3,2.6-1.4,4.1c-0.7,5.3-1.1,10.7-1.1,16.1
	c-0.1,1.9,0.1,3.7,0.5,5.6c1,3.9,3.8,7.2,7.5,8.8c2.4,1,6,0.7,6.6-1.8c0.5-2-1.3-3.9-1.6-6c-0.3-1.9,0.5-3.7,1.4-5.4l7.5-15
	c0.7-1.3,1.3-2.7,1.5-4.1c0.5-3-1.5-8.6-4.9-9.3S257.2,411.3,254.1,412.6z"/>
<linearGradient id="SVGID_26_" gradientUnits="userSpaceOnUse" x1="392.6671" y1="314.0506" x2="408.5371" y2="314.0506" gradientTransform="matrix(1 0 0 -1 1.000000e-02 510.1098)">
	<stop  offset="0" style="stop-color:#E5C6D6"/>
	<stop  offset="0.42" style="stop-color:#EAD4D0"/>
	<stop  offset="1" style="stop-color:#F0E9CB"/>
</linearGradient>
<path class="st29" d="M392.7,192.2c0.1,1.1,0.3,2.1,0.8,3.1l1.5,4.1c0.3,0.9,0.7,1.7,1.1,2.5c1.7,2.5,5,3.2,8,3.7
	c1,0.3,2.1-0.1,2.6-1c0.8-0.9,1.4-1.9,1.8-3.1c0.2-1.1,0.2-2.2-0.1-3.3c-0.8-4.4-2-11.5-7.2-11.7
	C397.5,186.3,392.5,187.6,392.7,192.2z"/>
<path class="st1" d="M347.6,163.6c-2.5,2.8-4.2,6.2-5.9,9.5c-5.6,11.2-11.1,22.5-14.5,34.6c-2.6,9.4-3.8,19.3-8.6,27.8
	c-2.2,4-6.8,42.2-8.5,46.4c-0.8,1.9-1.2,4.4,0.3,5.8c0.8,0.7,1.8,1.1,2.8,1.2c3.8,0.7,7.7,0.7,11.5,0c4.3-9.6,12.9-52.3,18.5-61.2
	c5.1-8.1,9-17,12.9-25.8c3.1-7.1,6.3-14.3,7.1-22c0.6-5.8-0.2-11.9-3.1-17C356.7,157,351.8,159.1,347.6,163.6z"/>
<linearGradient id="SVGID_27_" gradientUnits="userSpaceOnUse" x1="305.13" y1="207.8191" x2="322.5934" y2="207.8191" gradientTransform="matrix(1 0 0 -1 1.000000e-02 510.1098)">
	<stop  offset="0" style="stop-color:#E5C6D6"/>
	<stop  offset="0.42" style="stop-color:#EAD4D0"/>
	<stop  offset="1" style="stop-color:#F0E9CB"/>
</linearGradient>
<path class="st30" d="M310.7,305.5c0.7,1.4,1.5,2.8,2.5,4c1,1.1,2.2,2,3.4,2.8c1.5,1,3.7,2.1,5,0.8c0.9-0.8,1-2.3,0.9-3.5
	c-0.4-5.1-1.4-10.6-5-14.2c-1.6-1.5-3.4-2.7-5.4-3.6c-2.7-1.3-6.9-1.3-7,2.6C305.1,297.5,309.2,302.7,310.7,305.5z"/>
<linearGradient id="SVGID_28_" gradientUnits="userSpaceOnUse" x1="307.7945" y1="210.722" x2="322.3341" y2="210.722" gradientTransform="matrix(1 0 0 -1 1.000000e-02 510.1098)">
	<stop  offset="0" style="stop-color:#E5C6D6"/>
	<stop  offset="0.42" style="stop-color:#EAD4D0"/>
	<stop  offset="1" style="stop-color:#F0E9CB"/>
</linearGradient>
<path class="st31" d="M309.5,295.9c-1.7,4.3-2.2,9-1.3,13.6c0.3,1.5,1,3.3,2.6,3.5s2.8-1.5,3.5-2.9l4.6-8.9c2.1-4,4.2-8.5,3.1-12.9
	c-0.1-0.7-0.4-1.3-0.9-1.7c-1-0.7-2.2-0.8-3.4-0.4C312.3,287.5,311.5,291,309.5,295.9z"/>
<path class="st1" d="M211.5,225.9c-3.5,3.5-11.5,14.3-14.4,18.4c-6.7,9.2-5.4,21.7-3.8,32.9c1.2,8.6,2.5,17.5,6.6,25.2
	c2.3,0.3,4.7,0.7,6.8-0.3c4-1.8,8.1-5.8,8.3-10.1c0.6-9.3-0.8-30.9,0.3-32.4c4.5-5.9,11.9-16.5,17.2-21.6s16.1-19,17.8-26.1
	c2.4-9.7,4.3-33.7-15.7-15C225.9,205,220.2,217.4,211.5,225.9z"/>
<linearGradient id="SVGID_29_" gradientUnits="userSpaceOnUse" x1="201.5537" y1="200.4333" x2="216.6937" y2="200.4333" gradientTransform="matrix(1 0 0 -1 1.000000e-02 510.1098)">
	<stop  offset="0" style="stop-color:#E5C6D6"/>
	<stop  offset="0.42" style="stop-color:#EAD4D0"/>
	<stop  offset="1" style="stop-color:#F0E9CB"/>
</linearGradient>
<path class="st32" d="M202.9,314.2c1.2,4.3,4.1,8.3,8.2,9.9c0.3,0.1,0.6,0.2,0.9,0.2c0.4-0.1,0.7-0.2,1-0.5c1.7-1.5,2.9-3.5,3.4-5.6
	c0.9-4.2-0.8-8.6-0.1-12.9c0.2-0.7,0.3-1.5,0.3-2.3c-0.1-1.5-0.8-2.8-1.8-3.9c-1-1.2-2.2-2.3-3.4-3.3c-0.4-0.4-0.9-0.6-1.5-0.6
	c-2.6,0.1-7.1,4.5-7.9,7C200.9,305.5,201.9,310.8,202.9,314.2z"/>
<linearGradient id="SVGID_30_" gradientUnits="userSpaceOnUse" x1="370.6988" y1="377.6828" x2="375.8688" y2="379.7028" gradientTransform="matrix(1 0 0 -1 1.000000e-02 510.1098)">
	<stop  offset="0.12" style="stop-color:#010101;stop-opacity:0"/>
	<stop  offset="0.95" style="stop-color:#010101"/>
</linearGradient>
<path class="st33" d="M372.2,130.7c-0.4-0.6-1-1.1-1.6-1.3c-0.1,0-0.1-0.1-0.2-0.1c-0.2,0-0.3,0.2-0.4,0.4c-0.1,0.3-0.2,0.6-0.2,0.9
	c0,0.6,0.2,1.2,0.6,1.8c0.3,0.5,0.6,1,1,1.4c0.4,0.3,0.9,0.6,1.4,0.6c1.2,0.2,1.4-0.4,0.6-1.1C372.4,132.5,372.7,131.9,372.2,130.7z
	"/>
<path class="st3" d="M350.1,160.7c0,0,15.1-10.6,21.4-13.7c0,0-12.8,8.7-11.9,10.4s0.4,1.1,0.4,1.1S352.2,162.1,350.1,160.7z"/>
<linearGradient id="SVGID_31_" gradientUnits="userSpaceOnUse" x1="350.05" y1="356.0702" x2="371.43" y2="356.0702" gradientTransform="matrix(1 0 0 -1 1.000000e-02 510.1098)">
	<stop  offset="0.12" style="stop-color:#010101;stop-opacity:0"/>
	<stop  offset="0.95" style="stop-color:#010101"/>
</linearGradient>
<path class="st34" d="M350.1,160.7c0,0,15.1-10.6,21.4-13.7c0,0-12.8,8.7-11.9,10.4s0.4,1.1,0.4,1.1S352.2,162.1,350.1,160.7z"/>
</svg>
