<?xml version="1.0" encoding="utf-8"?>
<!-- Generator: Adobe Illustrator 24.0.1, SVG Export Plug-In . SVG Version: 6.00 Build 0)  -->
<svg version="1.1" id="Layer_1" xmlns="http://www.w3.org/2000/svg" xmlns:xlink="http://www.w3.org/1999/xlink" x="0px" y="0px"
	 viewBox="0 0 349.8 356" style="enable-background:new 0 0 349.8 356;" xml:space="preserve">
<style type="text/css">
	.st0{opacity:0.48;fill:#EE4A23;enable-background:new    ;}
	.st1{fill:#EE4A23;}
	.st2{fill:#F3BD8F;}
	.st3{fill:#3E3E54;}
	.st4{fill:url(#SVGID_1_);}
	.st5{fill:url(#SVGID_2_);}
	.st6{fill:url(#SVGID_3_);}
	.st7{fill:url(#SVGID_4_);}
	.st8{fill:url(#SVGID_5_);}
	.st9{fill:url(#SVGID_6_);}
	.st10{opacity:0.69;fill:url(#SVGID_7_);enable-background:new    ;}
	.st11{fill:none;stroke:#FFFFFF;stroke-width:0.8;stroke-miterlimit:10;}
	.st12{fill:url(#SVGID_8_);}
	.st13{fill:url(#SVGID_9_);}
</style>
<title>Following the idea</title>
<path class="st0" d="M246.1,139c-7.3,18.8,9.4,41.3,0.7,59.6c-7,14.6-26.5,18.3-37.1,30.4c-12.8,14.6-10,37.4-19.4,54.3
	c-9.9,17.8-32.2,27.3-39.3,46.4c-2.2,5.9-3.3,13.1-8.2,16.8c-12.1-1.7-23.7-5.8-34.1-12.2c-14-8.6-25.5-20.8-39-30.1
	c-11.5-8-24.3-13.8-35.5-22.2c-5.2-3.9-9.8-8.3-14-13.3c2.6-2,5.6-3.5,8.7-4.4c12.4-17.6,31.8-29,53.2-31.3
	c10.6-1.1,21.2,0.2,31.8,0.8c9.2,0.5,18.4,0.6,27.6,0.2c5.4-0.2,11-0.7,15.5-3.7c9.4-6.3,9.2-20.2,15.4-29.6
	c5.6-8.4,15.6-12.4,24.9-16.4s19.1-8.9,23.3-18.1c3.8-8.4,1.9-18.2,3.2-27.3c1.2-7.8,4.8-15,8.3-22.1c2-4.1,7.5-1.1,11.5,0.9
	c4.1,2.1,6.6,6.6,6.2,11.2C249.5,132.5,247.4,135.6,246.1,139z"/>
<path class="st0" d="M228.8,169.2c-6.6,16.9,8.5,37.2,0.6,53.6c-6.3,13.1-23.8,16.4-33.4,27.4c-11.5,13.1-9,33.6-17.5,48.9
	c-8.9,16.1-29,24.5-35.3,41.8c-2,5.3-3,11.8-7.4,15.1c-10.9-1.5-21.3-5.3-30.7-11c-12.6-7.8-22.9-18.7-35.1-27.1
	c-10.4-7.2-21.9-12.5-32-20c-4.6-3.5-8.9-7.5-12.6-12c2.3-1.8,5-3.1,7.9-3.9c11.2-15.9,28.6-26.1,47.9-28.2
	c9.5-0.9,19.1,0.2,28.6,0.7c8.3,0.5,16.5,0.6,24.8,0.2c4.8-0.2,9.9-0.6,13.9-3.3c8.4-5.7,8.3-18.2,13.9-26.7
	c5-7.6,14-11.2,22.4-14.8s17.2-8.1,21-16.3c3.4-7.6,1.7-16.4,2.9-24.6c1.1-7,20.5-46.9,23.7-53.2c1.8-3.7,7.5,0,11.1,1.9
	s1.8,1.4,1.4,5.5C244.7,126.4,230,166.1,228.8,169.2z"/>
<path class="st1" d="M108.8,257.2c-0.8,0-1.6,0.2-2.3,0.6c-1.3,0.4-2.4,1.1-3.3,2.1c-1.2,1.6-0.8,3.9-0.2,5.9c0.5,2,1.2,3.9,2.2,5.7
	c1,1.8,2.5,3.3,4.4,4.2c0.3,0.1,0.5,0.2,0.8,0.2c0.4-0.1,0.8-0.4,1-0.8c1-1.6,1.4-3.5,1.1-5.3c-0.2-0.8-0.2-1.6,0-2.3
	c0.3-0.5,0.7-1,1.1-1.4c1.1-1.4,1.2-3.3,0.2-4.8c-0.7-1.1-2-1.6-2.8-2.5C110.2,257.9,110,257.2,108.8,257.2z"/>
<path class="st2" d="M108.9,258.1c-0.4,0.4-0.8,0.8-0.9,1.3c-0.1,0.4-0.1,0.7,0.1,1.1c0.3,0.7,0.7,1.3,1.4,1.7
	c0.4,0.3,0.9,0.5,1.5,0.6c0.4,0,0.8-0.1,1.1-0.3c1.3-0.6,2.6-1.5,3.7-2.5c0.6-0.5,1-1.1,1.2-1.9c0-0.4,0-0.9-0.1-1.3
	c-0.1-0.4-0.2-0.9-0.3-1.3c0-0.2-0.1-0.4-0.2-0.5c-0.1-0.2-0.2-0.3-0.4-0.4c-0.6-0.6-1.2-1.1-2-1.5c-0.7-0.3-0.9,0.1-1.3,0.6
	C111.5,255.3,110.3,256.7,108.9,258.1z"/>
<path class="st3" d="M156,192.3c-0.7,5.7-3.9,17.2-5.5,22.8c-3.1,11-4.1,17.2-11.2,26.2c-3.9,5-8.4,9.5-13.4,13.5
	c-3,2.4-6.3,4.7-10.1,5.6c-0.8-1.7-3-2.4-4-4c-0.1-0.1-0.1-0.2-0.1-0.2c-1-1.9-0.1-4.2,0.9-6.1c4-7.8,8.5-15.4,13.4-22.8
	c0.8-1.1,1.5-2.3,2-3.6c0.4-1.2,0.6-2.4,0.6-3.7c0.2-1.7,0.5-3.4,0.8-5c1.3-6,3.1-11.9,5.2-17.7c0.6-2.1,1.5-4,2.8-5.7
	c2.4-2.8,6.3-3.8,9.9-4.4C152.8,186.4,156.8,185.6,156,192.3z"/>
<path class="st1" d="M74.4,202.7c-0.6-0.5-1.4-0.8-2.2-1.1c-1.2-0.5-2.6-0.7-3.9-0.5c-2,0.5-3.1,2.5-4,4.4c-0.9,1.8-1.6,3.8-2,5.8
	c-0.4,2-0.2,4.1,0.7,6c0.1,0.3,0.3,0.5,0.5,0.7c0.4,0.2,0.9,0.2,1.3,0c1.8-0.6,3.3-1.8,4.3-3.4c0.3-0.7,0.8-1.3,1.5-1.8
	c0.6-0.2,1.2-0.3,1.8-0.4c1.7-0.4,3-1.8,3.3-3.5c0.1-1.3-0.5-2.4-0.5-3.7C74.9,204.2,75.3,203.5,74.4,202.7z"/>
<linearGradient id="SVGID_1_" gradientUnits="userSpaceOnUse" x1="151.3922" y1="67.558" x2="163.3922" y2="67.558" gradientTransform="matrix(1 0 0 -1 -49.06 334.0797)">
	<stop  offset="1.000000e-02" style="stop-color:#000000"/>
	<stop  offset="0.13" style="stop-color:#000000;stop-opacity:0.69"/>
	<stop  offset="1" style="stop-color:#000000;stop-opacity:0"/>
</linearGradient>
<path class="st4" d="M108.8,257.2c-0.8,0-1.6,0.2-2.3,0.6c-1.3,0.4-2.4,1.1-3.3,2.1c-1.2,1.6-0.8,3.9-0.2,5.9c0.5,2,1.2,3.9,2.2,5.7
	c1,1.8,2.5,3.3,4.4,4.2c0.3,0.1,0.5,0.2,0.8,0.2c0.4-0.1,0.8-0.4,1-0.8c1-1.6,1.4-3.5,1.1-5.3c-0.2-0.8-0.2-1.6,0-2.3
	c0.3-0.5,0.7-1,1.1-1.4c1.1-1.4,1.2-3.3,0.2-4.8c-0.7-1.1-2-1.6-2.8-2.5C110.2,257.9,110,257.2,108.8,257.2z"/>
<linearGradient id="SVGID_2_" gradientUnits="userSpaceOnUse" x1="111.21" y1="124.5239" x2="124.627" y2="124.5239" gradientTransform="matrix(1 0 0 -1 -49.06 334.0797)">
	<stop  offset="1.000000e-02" style="stop-color:#000000"/>
	<stop  offset="0.13" style="stop-color:#000000;stop-opacity:0.69"/>
	<stop  offset="1" style="stop-color:#000000;stop-opacity:0"/>
</linearGradient>
<path class="st5" d="M74.4,202.7c-0.6-0.5-1.4-0.8-2.2-1.1c-1.2-0.5-2.6-0.7-3.9-0.5c-2,0.5-3.1,2.5-4,4.4c-0.9,1.8-1.6,3.8-2,5.8
	c-0.4,2-0.2,4.1,0.7,6c0.1,0.3,0.3,0.5,0.5,0.7c0.4,0.2,0.9,0.2,1.3,0c1.8-0.6,3.3-1.8,4.3-3.4c0.3-0.7,0.8-1.3,1.5-1.8
	c0.6-0.2,1.2-0.3,1.8-0.4c1.7-0.4,3-1.8,3.3-3.5c0.1-1.3-0.5-2.4-0.5-3.7C74.9,204.2,75.3,203.5,74.4,202.7z"/>
<path class="st2" d="M74.8,204.5c-0.5-0.1-1.1-0.1-1.6,0.1c-0.3,0.2-0.6,0.4-0.8,0.8c-0.4,0.7-0.5,1.4-0.4,2.1
	c0,0.5,0.2,1.1,0.5,1.5c0.3,0.3,0.6,0.5,1,0.6c1.4,0.6,2.8,1,4.3,1.2c0.7,0.1,1.5,0,2.2-0.3c0.4-0.2,0.7-0.6,0.9-0.9
	c0.3-0.4,0.5-0.7,0.8-1.1c0.1-0.1,0.2-0.3,0.3-0.5c0.1-0.2,0.1-0.4,0.1-0.6c0.1-0.8,0.1-1.6-0.1-2.4c-0.3-0.7-0.7-0.7-1.4-0.6
	C78.7,204.7,76.7,204.7,74.8,204.5z"/>
<path class="st3" d="M144.1,194.4c-0.2,0.8-0.6,1.4-1.2,1.9c-6.1,5.7-8.3,13.2-14.3,18.9c-1.4,1.4-3,2.6-4.8,3.5
	c-1.5,0.6-20.7,0.3-26.7,0.3s-12.5-0.5-17.7-3.8c-0.7-0.4-1.2-0.9-1.6-1.6c-0.3-0.9-0.4-1.8-0.2-2.8c0.2-1.7,0.6-3.4,1.2-5
	c0.4-1,1.1-1.9,1.9-2.5c2-1.5,4.7-1.5,7.3-1.4c9,0.3,18-0.1,26.9-0.9c0.6,0,1.1-0.2,1.6-0.4c0.5-0.5,0.9-1.2,1-1.9
	c1.2-4.2,2.6-8.4,4.3-12.5c0.9-2.1,3-9.3,5.5-10.1l0.2-0.1c2.7-0.5,7.2,5.4,8.8,7.2c2.6,2.9,5,6,7.1,9.3
	C143.9,193,144.1,193.7,144.1,194.4z"/>
<path class="st2" d="M93.2,157.2c0-1.2,0.3-2.5,0.9-3.6c2.1-4,5.8-7,10.2-8.3c0.9,1.6,1.8,3.1,2.6,4.7c0.3,0.4,0.5,0.9,0.5,1.4
	c0,0.9-0.3,1.7-0.8,2.4c-0.6,1.1-1.1,2.4-1.3,3.6c0,0.6-0.2,1.2-0.6,1.8c-0.4,0.5-1,0.6-1.6,0.3c0,0,0,0-0.1,0
	c0.1-1.4-0.1-2.8-0.5-4.1c-1.3,0.5-2,1.9-2.5,3.3c-0.3,1.4-0.9,2.7-1.8,3.8c-0.2,0.2-0.5,0.4-0.8,0.3s-0.3-0.5-0.3-0.8l0.2-3.2
	c0,1.5-1,2.9-2.4,3.4c-0.4-1.6-0.2-3.4,0.6-4.9c-0.4,0.4-0.5,1.1-0.8,1.6s-1.1,0.8-1.4,0.3c-0.1-0.2-0.1-0.5-0.1-0.7
	c0.2-1.3,0.5-2.6,0.9-3.8l-0.8,2.2C93.3,157.2,93.3,157.4,93.2,157.2z"/>
<path class="st1" d="M233.1,108.7c-0.5,1.5-1.3,2.9-2.4,4.1c-2.9,3.4-6.8,5.9-10.5,8.4c-9.9,6.8-19,14.7-29.7,20.1
	c-2.9,1.5-5.9,2.8-8.2,5c-1.4,1.4-2.5,2.9-3.5,4.6c-1.7,2.8-3.1,5.8-4.2,8.9c-2,5.6-4.7,10.8-6.9,16.3c-2.4,5.9-4.9,11.7-8.6,16.8
	c-2.5,3.4-5.8,6.6-10,7.4c-4,0.8-8.2-0.8-11.4-3.3s-5.6-5.8-8-9.1l-0.1-0.1c-0.6-0.8-1.2-1.6-1.7-2.5c-0.8-1.2-1.3-2.5-1.6-3.9
	c-0.1-0.5-0.1-1-0.1-1.5c0-2.8,1.2-5.6,2.5-8.2c4.6-9.6,9.1-19.2,13.6-28.7c6.8-14.4,0,0,0-0.1c-8.5,0.3-16.7,2.6-24.1,6.7
	c-2,1.2-4.1,2.3-6.3,3c-2.3,0.7-4.8,0.3-6.7-1.1c-2.4-2.1-2.3-6.1-0.6-8.9s4.5-4.6,7.3-6.2c10.4-6.3,21.6-12.3,33.7-12
	c4.8,0.1,11.8-0.9,16.6-0.4c10.1,1.1,19.6,3.9,27.8-2.2c5.8-4.5,11.8-8.5,18.2-12.1c4.5-2.4,9.2-4.3,13.8-6.3
	c1.7-0.8,3.6-1.4,5.5-1.6c1.9-0.2,3.8,0.6,5.1,2.1C233.3,105.4,233.5,107.1,233.1,108.7z"/>
<path class="st2" d="M165.7,108.5l-0.5-0.8c-0.2-0.4-0.6-0.8-0.9-1.1c-0.4-0.3-0.9-0.4-1.3-0.2c-0.6,0.3-1.4,0.6-1.4,1.3
	c0,1.6,0.4,3.1,1.1,4.5c0.5,0.6,0.8,1.3,1.1,2c0.1,0.4,0.1,0.8,0,1.2c-0.2,3.4,1.3,6.8,0.2,10c-0.4,1.1-1.1,2.1-1,3.2
	c0.1,0.9,0.4,1.6,1.1,2.2c0.6,0.6,1.4,1,2.2,1.3c1.2,0.5,2.5,0.8,3.8,0.9c1.1,0.2,2.2-0.2,2.9-1.2c1-1.2,1.9-2.6,2.4-4.1
	c1.8-1.1,3.8-2.1,5.7-3c5.5-2.3,8.2-8.7,8.9-14.7c0.3-2.8,0.3-5.7-1-8.1c-1.8-3.1-5-5-8.6-5.1c-3.5,0-6.9,1.3-9.6,3.6
	C168.3,102.5,165.5,105.5,165.7,108.5z"/>
<path class="st3" d="M187.1,94.2c-2.1-1.6-5-1.7-7.5-2.7c-0.8-0.4-1.7-0.8-2.5-1.1c-2.5-0.7-5,0.5-7.3,1.6c-1.3,0.6-2.5,1.4-3.6,2.4
	c-1.5,1.5-2.3,3.5-3.7,5.1s-3.3,2.7-4.9,4.1s-3.1,3.1-3.3,5.3c-0.2,2.6,1.8,4.9,3.9,6.6s4.5,3,5.9,5.4l0.6-4.7
	c0.1-0.4,0.1-0.9,0-1.3c-0.2-0.4-0.5-0.8-0.8-1.2c-1.3-1.5-1.9-3.5-1.9-5.5c0-0.6,0.2-1.2,0.7-1.4s1.3,0.4,1.7,0.9l2.6,3.5
	c-0.8-3.7,0.4-7.5,3.1-10.1c2.7-2.5,6.3-3.9,10.1-3.9c2.1,0,4.3,0.5,5.6,2.2s3,4.9,3.7,0.7C189.7,97.9,188.9,95.6,187.1,94.2z"/>
<path class="st2" d="M231.4,98.2c0.5-1.5,1.2-2.8,2-4.1c0.8-0.8,1.6-1.5,2.6-2c0.1-0.1,0.3-0.2,0.5-0.1c0.2,0.1,0.3,0.3,0.3,0.5
	c0.3,1.1-0.4,2.2-0.3,3.4c0,0.1,0,0.2,0.1,0.3c0.1,0.1,0.4,0,0.5-0.1c1.4-1.3,2.9-2.6,4.5-3.7c1.6-1.2,3.5-1.8,5.4-1.7
	c0,1.5-1.3,2.7-2.5,3.7c1.6-1.3,3.5-2.2,5.5-2.5c0.4,0.6-0.1,1.3-0.6,1.8l-3.3,3.4c1.4-1,3-1.6,4.7-1.8c0.2,0,0.3,0,0.5,0
	c0.3,0.2,0.4,0.5,0.2,0.8c-0.1,0.3-0.3,0.5-0.5,0.7c-1.9,1.7-3.9,3.2-6.1,4.4c1.2-0.6,2.5-1,3.9-1.2c0.1,0.7-0.2,1.4-0.7,1.8
	c-0.9,0.7-1.8,1.4-2.8,1.9c-1.8,1.2-3.9,2-6.1,2.5c-1.4,0.2-2.8,0.1-4,0.8c-0.5,0.3-1,0.8-1.5,1.2c-1,0.7-2.4,1-3.6,0.7
	c-1.1-0.3-2-1.1-2.5-2.1c-0.7-1.3-0.5-2.8,0.5-3.9C229.5,101.3,230.6,99.8,231.4,98.2z"/>
<linearGradient id="SVGID_3_" gradientUnits="userSpaceOnUse" x1="149.3499" y1="174.3091" x2="222.0199" y2="162.4591" gradientTransform="matrix(1 0 0 -1 -49.06 334.0797)">
	<stop  offset="1.000000e-02" style="stop-color:#000000"/>
	<stop  offset="0.13" style="stop-color:#000000;stop-opacity:0.69"/>
	<stop  offset="1" style="stop-color:#000000;stop-opacity:0"/>
</linearGradient>
<path class="st6" d="M145.6,152.9c-4.2,7.5-7.7,15.4-10.4,23.6c-1.4,4.1-2.6,8.3-5.5,11.5c-0.1,0.1-0.1,0.2-0.2,0.2
	c-0.6-0.9-1.1-1.8-1.6-2.8c-0.8-1.7-1.4-3.5-1.8-5.4c0-2.8,1.2-5.6,2.5-8.2c4.6-9.6,9.1-19.2,13.6-28.7c1.6-0.1,3.5,0.6,5.5,2.9
	C149.4,147.8,146.8,150.8,145.6,152.9z"/>
<linearGradient id="SVGID_4_" gradientUnits="userSpaceOnUse" x1="168.0707" y1="117.3764" x2="144.8307" y2="154.9364" gradientTransform="matrix(1 0 0 -1 -49.06 334.0797)">
	<stop  offset="1.000000e-02" style="stop-color:#000000"/>
	<stop  offset="0.13" style="stop-color:#000000;stop-opacity:0.69"/>
	<stop  offset="1" style="stop-color:#000000;stop-opacity:0"/>
</linearGradient>
<path class="st7" d="M129,187.2c-0.4,1.8-1.8,3.4-2.5,5c-1.5,3.7-1.9,9.1-5.3,11.6c-2.5,2.2-6,2.7-9.2,3c-9.6,0.9-19.4,0.7-29,0.5
	c-1.3,0.1-2.6-0.2-3.7-0.9c-0.2-0.1-0.3-0.3-0.5-0.5c0.4-1,1.1-1.9,1.9-2.5c2-1.5,4.7-1.5,7.3-1.4c9,0.3,18-0.1,26.9-0.9
	c0.6,0,1.1-0.2,1.6-0.4c0.5-0.5,0.9-1.2,1-1.9c1.2-4.3,2.6-8.4,4.3-12.5c0.9-2.1,3-9.3,5.5-10.1c0.6,1.1,0.9,2.2,1,3.4
	C128.7,181.8,129.6,184.8,129,187.2z"/>
<linearGradient id="SVGID_5_" gradientUnits="userSpaceOnUse" x1="162.3921" y1="109.4868" x2="193.5621" y2="84.0068" gradientTransform="matrix(1 0 0 -1 -49.06 334.0797)">
	<stop  offset="1.000000e-02" style="stop-color:#000000"/>
	<stop  offset="0.13" style="stop-color:#000000;stop-opacity:0.69"/>
	<stop  offset="1" style="stop-color:#000000;stop-opacity:0"/>
</linearGradient>
<path class="st8" d="M112.7,255.6c-0.3,0.3-0.6,0.5-0.9,0.7c-0.1-0.1-0.1-0.2-0.1-0.2c-1-1.9-0.1-4.2,0.9-6.1
	c4-7.8,8.5-15.4,13.4-22.8c0.8-1.1,1.5-2.3,2-3.6c0.4-1.2,0.6-2.4,0.6-3.7c0.2-1.7,0.5-3.4,0.8-5c2.5-2.1,6.5-4.2,6.5-5
	c0.2,3.7,0.3,7.5,0.3,11.2C136.2,223.5,115.8,252.9,112.7,255.6z"/>
<linearGradient id="SVGID_6_" gradientUnits="userSpaceOnUse" x1="210.4794" y1="226.8093" x2="215.7594" y2="220.0893" gradientTransform="matrix(1 0 0 -1 -49.06 334.0797)">
	<stop  offset="1.000000e-02" style="stop-color:#000000"/>
	<stop  offset="0.13" style="stop-color:#000000;stop-opacity:0.69"/>
	<stop  offset="1" style="stop-color:#000000;stop-opacity:0"/>
</linearGradient>
<path class="st9" d="M163.6,108.8c-0.3,0-0.6,0.1-0.7,0.4c-0.1,0.3-0.1,0.6-0.1,0.8c0.1,0.3,0.2,0.5,0.3,0.8c0.2,0.5,0.4,1,0.7,1.4
	c0.3,0.4,0.8,0.7,1.4,0.6c0.1,0,0.2-0.1,0.3-0.2c0.1-0.1,0.1-0.3,0.1-0.4c0-0.7-0.2-1.5-0.6-2.1c-0.2-0.2-0.4-0.4-0.6-0.5
	C164.1,109.2,163.9,108.9,163.6,108.8z"/>
<path class="st1" d="M237.1,105.4l17.3,7.6c1.2,0.5,1.7,1.9,1.2,3.1l-2.6,6c-0.5,1.2-1.9,1.7-3.1,1.2l-17.3-7.6
	c-1.2-0.5-1.7-1.9-1.2-3.1l2.6-6C234.5,105.5,235.9,104.9,237.1,105.4z"/>
<path class="st1" d="M234.1,108.2l20.6,9c1,0.4,1.5,1.6,1,2.6l-0.1,0.1c-0.4,1-1.6,1.5-2.6,1l-20.6-9c-1-0.4-1.5-1.6-1-2.6l0.1-0.1
	C231.9,108.2,233.1,107.8,234.1,108.2z"/>
<path class="st1" d="M278.1,89.7c-1.3,3.1-3.4,5.8-6,7.9l-16.5,16.2l-19.3-8.4l1.8-24c-0.1-11.5,9.3-21,20.8-21
	c11.5-0.1,21,9.3,21,20.8C279.8,84.1,279.2,87,278.1,89.7L278.1,89.7z"/>
<radialGradient id="SVGID_7_" cx="6309.4624" cy="308.7502" r="23.6066" gradientTransform="matrix(-0.9159 -0.4015 -0.4015 0.9159 6159.2686 2336.6963)" gradientUnits="userSpaceOnUse">
	<stop  offset="0.34" style="stop-color:#FFFFFF"/>
	<stop  offset="1" style="stop-color:#FFFFFF;stop-opacity:0.39"/>
</radialGradient>
<path class="st10" d="M278.1,89.7c-1.3,3.1-3.4,5.8-6,7.9l-16.5,16.2l-19.3-8.4l1.8-24c-0.1-11.5,9.3-21,20.8-21
	c11.5-0.1,21,9.3,21,20.8C279.8,84.1,279.2,87,278.1,89.7L278.1,89.7z"/>
<path class="st11" d="M243.1,108.7c-0.2-7.1,1.1-14.2,3.9-20.7c0.6-1.5,1.6-3.1,3.2-3.2c2-0.2,3.3,2,3.5,4c0.2,2.6-0.7,5.1-2.5,7
	c-0.3-1.8-0.1-3.6,0.5-5.3c0.3-1.3,0.9-2.5,1.8-3.5c0.9-1,2.3-1.4,3.6-1c1.9,0.8,2.2,3.4,1.6,5.4c-0.7,2.2-2.1,4.2-4.1,5.5
	c0.3-2.8,2-5.2,4.6-6.4c0.8-0.4,1.8-0.5,2.7-0.4c0.9,0.2,1.7,0.9,1.9,1.8c0.1,0.5,0,1.1-0.1,1.6c-1,3.8-3.8,6.8-6.8,9.3
	s-6.2,4.8-8.6,7.9"/>
<linearGradient id="SVGID_8_" gradientUnits="userSpaceOnUse" x1="-1040.9766" y1="-742.0607" x2="-1017.3166" y2="-742.0607" gradientTransform="matrix(0.9159 0.4015 0.4015 -0.9159 1483.9747 -152.0495)">
	<stop  offset="1.000000e-02" style="stop-color:#000000"/>
	<stop  offset="0.13" style="stop-color:#000000;stop-opacity:0.69"/>
	<stop  offset="1" style="stop-color:#000000;stop-opacity:0"/>
</linearGradient>
<path class="st12" d="M237.1,105.4l17.3,7.6c1.2,0.5,1.7,1.9,1.2,3.1l-2.6,6c-0.5,1.2-1.9,1.7-3.1,1.2l-17.3-7.6
	c-1.2-0.5-1.7-1.9-1.2-3.1l2.6-6C234.5,105.5,235.9,104.9,237.1,105.4z"/>
<linearGradient id="SVGID_9_" gradientUnits="userSpaceOnUse" x1="-1042.2466" y1="-742.2107" x2="-1015.7866" y2="-742.2107" gradientTransform="matrix(0.9159 0.4015 0.4015 -0.9159 1483.9745 -152.051)">
	<stop  offset="1.000000e-02" style="stop-color:#000000"/>
	<stop  offset="0.13" style="stop-color:#000000;stop-opacity:0.69"/>
	<stop  offset="1" style="stop-color:#000000;stop-opacity:0"/>
</linearGradient>
<path class="st13" d="M234.1,108.2l20.6,9c1,0.4,1.5,1.6,1,2.6l-0.1,0.1c-0.4,1-1.6,1.5-2.6,1l-20.6-9c-1-0.4-1.5-1.6-1-2.6l0.1-0.1
	C231.9,108.2,233.1,107.8,234.1,108.2z"/>
</svg>
