<!--?xml version="1.0" encoding="utf-8"?-->
<!-- Generator: Adobe Illustrator 23.1.1, SVG Export Plug-In . SVG Version: 6.00 Build 0)  -->
<svg version="1.1" xmlns="http://www.w3.org/2000/svg" xmlns:xlink="http://www.w3.org/1999/xlink" x="0px" y="0px" viewBox="0 0 1025.8 1818.4" style="" xml:space="preserve">
<style type="text/css">
	.st0{clip-path:url(#SVGID_2_);}
	.st1{fill:none;stroke:#FF0000;stroke-width:5;stroke-miterlimit:50;}
</style>
<g id="レイヤー_1">
	<g>
		<g>
			<defs>
				<path id="SVGID_1_" d="M-125,-759.2L1150.6,-759.2L1150.6,2642.4L-125,2642.4" class="VubwVqiI_0"></path>
			</defs>
			<clipPath id="SVGID_2_">
				<use xlink:href="#SVGID_1_" style="overflow:visible;"></use>
			</clipPath>
			<g class="st0">
				<path class="st1 VubwVqiI_1" d="M1019.7,501.9l-17-1v-17l-66,22l64,25l2-18l16,2l-2,23l-205-27l-1,9l-17-2l-7,48l17,2l-1,6l114,14l-5,42
					l93,13l-7,37l-4,19l-59-14l-82,40l51,72l63,16c0,0-20,63-26,70s-52-14-52-14c12-4,11-14,11-14c12-7-2-27-3-20c0,0-2,5-1-2
					s9-16,3-28s-20-1-20-1s-7-10-16-10s-16,12-16,12s-8-12-19-12s-16,19-16,19c-27-14-24,19-24,19c-23,6-5,27-5,27
					c-22,27,10,41,10,41c0,22,25,15,25,15c4,22,25,16,25,16c26,9,23-12,23-12s8,0,15-14s-7-23-7-23c10-4,59,26,59,26l-22,56l-16,36
					l-222-102l-6,12l-31-13l8-14l-13-6l-8,15l-63-24l3-6l-6-3l-3,6l-5-3l-2,5l5,3l-3,6l6,3l3-6l59,34l-6,13l12,6l6-12l30,14l-5,13
					l218,108l-16,40c0,0-7,15-9,20c-1.6,4-52-17.4-72.5-26.3c-0.5-0.2-0.7-0.7-0.5-1.2c0.2-0.4,0.6-0.6,1-0.5
					c18.9,4.1,61.3,13.3,65.9,14c6,1,8-2,5-8s-73-29-73-29s-55-13-41-16s25,13,25,13s2,6,3-5s-22-21-22-21s-34-5-37,4s-7,8-8,7
					s-5.1-7.6-13-9c-17-3-22.9,11.2-21,19c2,8,8,6,8,6s6-2,6,3s8,5,8,5s6,1,6-1c1-7,5-5,5-5s-1,10-1,13s74,37,82,37s-2-5-2-5
					c54,22,72,13,72,13l-33,70l-19-12l3-7c0,0,9,5,15,4s0-5,0-5l-11-5c0,0,6-11,7-31s-67,5-80-7s-23-11-26-9s-11-3-11-3
					c-1.2-1.8-1.2-4.2,0-6c2-3,0-4,0-4s-10-7-12-5s-6-2-6-2s-12-5-16,13c-3.3,14.8,26,23,26,23l4-9c0,0-4,9,32,22s36,12,35,16
					s-28-4-28-4l55,40l7-14l23,9l-38,72c0,0,1-25-10-33c0,0-6,24-2,33l-26-11c0,0,14-8,14-12s-13,0-19,4c0,0,6-15,2-23s-10,21-10,21
					s-7-29-13-20s8,23,8,23s-26-18-25-7s20,13,20,13s-11,4-14,12s21-7,21-7s-3,21,2,20s6-22,6-22l33,15c0,0-23,8-24,18
					c0,0,25-3,28-6l-39,71c0,0,3-27-19-27c0,0,12-51-20-48s-18,11-18,11l21-4c0,0,15-1,11,41c0,0-32-2-40,6c0,0-10-12-16-9l-12-4
					l-1,5l3,6c0,0-4.1,9.4,1,18c3,5,0,13,8,9l8-4c0,0,22,19,36,17s12,14,12,14s1,7,10-3s-12,26-12,26l-20,36l-19-13c0,0,14-32,2-32
					s-10,27-10,27s-31,12-22,19s28-12,28-12l19,14l-39,69l-24-14l11-26h-73l47,54l12-21l23,16c0,0-134,250.8-118,287.8
					c6-45-56-166.8-56-166.8l40-23l10,16l15-81l-78-21l9,18l-34,19l-30-58l157-84l-50-94l-158,85l-38-70l33-20c0,0-1,6,3,5
					c0,0-1,15,10,17c0,2,11,37,33,10c0,0,19,15,21-9c0,0,18,8,20-15c0,2,17,0,13-17c0,0,16-11,1-22c2,0,9-26-13-26c0,0,5-32-26-21
					c0,0-16-17-30,2c0,0-14-14-24,4c0,0-25-6-20,21c0,0-18,11,1,30c0,0-4,9,5,12c0,0-29,21-35,14s-40-72-40-72l52-26l7,14l8-31
					l28-15l-7-12l-18,9l12-41l-88-33l9,16l-48,25l-67-137l51-24l6,13l29-29l-39-89l21-9l-7-15l-21,9l-5-9h-38l5,10l-52,23l-9-26
					l-17-48l60-24c0,0,2,22,15,29c0,0-1,24,19,26s25-12,25-12s19-2,21-14c0,0,26,10,33-15c0,0,19-1,25-22c0,0,21-8,18-22
					c0,0,24-10,18-28s-20-22-35-15c0,0-13-26-34-11c0,0-18-21-37-1c0,0-22-25-38,3c0,0-27-24-34,18c0,0-14,3-11,20s15,20,15,20
					s-8,8-4,11s-60,20-60,20s-25-82-28-102c0,0,7,7,9,6c0,0,0,5,4,5s4-6,4-6s15-11,17-23c2-12,11,8,8,21s16-9,5-25s23,0,31,6
					s6-18-32-19c0,0-1-13-7-11s-11,11-11,11s0,4-6,3s-21-2-26,5c0,0-5-17-5-28c0,0,6-3,6-5s0,8,8,0s25-3,28-13c2-5,9,7,12,2
					s5-9-1-20s20-22,19-27s-26,11-28,17c-2,6,5-19,1-18s-7,28-14,27s-23-6-27-2c0,0,9-7-1-9s-5,6-5,6l-1.6-0.8
					c-4-2-6.6-5.8-7.1-10.2l-3.2-29.9l18-1l-8-7l23-5l-21-10l16-3h-28c0,0-6-1-6-44c0-9,1-187,34-297c16.2-53.9,60.7-140.1,123-184
					C183.5,11.7,213.8,5.3,240.3,4c41.8-2.1,82.9,10.5,117,34.7c54.1,38.4,86,99.4,111.5,159.2c19.5,45.8,36,100.8,52,148
					c17.7,52.2,42.9,168.9-6.1,171.9c-44.4-3.3-22.1-125-5.2-173.3c22.2-63.2,39.2-128.6,65.8-190.1c18.8-44.1,43.3-86.1,83-114.3
					C686.1,20,718.6,7.2,752.7,3.9c70.7-6.9,119,31,119,31s86.1,48.7,126,217C1030.7,390.9,1019.7,501.9,1019.7,501.9z"></path>
				<path class="st1 VubwVqiI_2" d="M476.5,1378.3L466.5,1360.3L483.5,1351.3L493.5,1369.3Z"></path>
				<path class="st1 VubwVqiI_3" d="M438.3,1469.7L428.3,1451.7L445.3,1442.7L455.3,1460.7Z"></path>
				<path class="st1 VubwVqiI_4" d="M423.3,1441.7L413.3,1423.7L430.3,1414.7L440.3,1432.7Z"></path>
				<path class="st1 VubwVqiI_5" d="M407.3,1414.7L397.3,1396.7L414.3,1387.7L424.3,1405.7Z"></path>
				<path class="st1 VubwVqiI_6" d="M471.3,1451.7L461.3,1433.7L478.3,1424.7L488.3,1442.7Z"></path>
				<path class="st1 VubwVqiI_7" d="M457.3,1423.7L447.3,1405.7L464.3,1396.7L474.3,1414.7Z"></path>
				<path class="st1 VubwVqiI_8" d="M442.3,1396.7L432.3,1378.7L449.3,1369.7L459.3,1387.7Z"></path>
				<path class="st1 VubwVqiI_9" d="M506.3,1432.7L496.3,1414.7L513.3,1405.7L523.3,1423.7Z"></path>
				<path class="st1 VubwVqiI_10" d="M490.3,1405.7L480.3,1387.7L497.3,1378.7L507.3,1396.7Z"></path>
				<path class="st1 VubwVqiI_11" d="M348.5,1437.3L388.5,1416.3L414.5,1466.3L374.5,1489.3L362,1463.8Z"></path>
				<path class="st1 VubwVqiI_12" d="M362.5,1462.3L396.5,1444.3"></path>
				<path class="st1 VubwVqiI_13" d="M228.5,1177.3L260.5,1160.3L290.5,1216.3L259.5,1233.3Z"></path>
				<path class="st1 VubwVqiI_14" d="M242,1204.8L276,1185.8"></path>
				<path class="st1 VubwVqiI_15" d="M245,1168.8L274.5,1225.1"></path>
				<path class="st1 VubwVqiI_16" d="M123.5,990.3L166.5,971.3L176.5,995.3L134.5,1013.3Z"></path>
				<path class="st1 VubwVqiI_17" d="M935.5,711.3L928.3,739.3L920.5,769.3L967.5,781.3L983.5,723.3Z"></path>
				<path class="st1 VubwVqiI_18" d="M931.5,740.3L974.3,751.6"></path>
				<path class="st1 VubwVqiI_19" d="M901.5,715.3L893,747.8"></path>
				<path class="st1 VubwVqiI_20" d="M882.5,726.3L913.5,736.3"></path>
				<path class="st1 VubwVqiI_21" d="M879.5,731.3A17,17 0,1,1 913.5,731.3A17,17 0,1,1 879.5,731.3"></path>
				<path class="st1 VubwVqiI_22" d="M824,523.8L840,525.8L838,538.8L823,536.8Z"></path>
				<path class="st1 VubwVqiI_23" d="M871.2,530.2L887.2,532.2L885.2,545.2L870.2,543.2Z"></path>
				<path class="st1 VubwVqiI_24" d="M847.2,527.2L863.2,529.2L861.2,542.2L846.2,540.2Z"></path>
				<path class="st1 VubwVqiI_25" d="M432.3,1588.3L456.4,1573.6L474.6,1603.7L450,1619.1L441.1,1603.7Z"></path>
				<path class="st1 VubwVqiI_26" d="M441.2,1602.9L462.5,1591.7"></path>
				<path class="st1 VubwVqiI_27" d="M228.5,1079.3c0,0-21,6-16,25c3,6,20-12,20-12s1,6,6,9s7,13,7,1c0,0,4-6-2-12s23-2,23-2s6-11-23-12
					c0,0-8-4-6-12s4.6-11.6-7-11c-19,1,0,12,0,12S224.5,1074.3,228.5,1079.3z"></path>
				<path class="st1 VubwVqiI_28" d="M252.5,1041.3c0,0,3,8,8,9s6,14,7,9s2-11,2-11s5-9-5-12s15-8,20-7s-1-13-25-8c0,0-3,1-2-3s-5-17-14-14
					c-8.1,2.7,4.9,9.5,6.8,16.6c0.1,0.2-0.1,0.5-0.3,0.5c-0.2,0-0.3,0-0.4-0.2c-0.9-1.1-2.7-2.6-6-4c-7-3-5-8-5-8l-8,3v1
					c0,0,9,4,10,7S240.5,1033.3,252.5,1041.3z"></path>
			</g>
		</g>
		<g>
			<defs>
				<path id="SVGID_3_" d="M-127.8,-759.2L1147.8,-759.2L1147.8,2642.4L-127.8,2642.4" class="VubwVqiI_29"></path>
			</defs>
			<clipPath id="SVGID_4_">
				<use xlink:href="#SVGID_3_" style="overflow:visible;"></use>
			</clipPath>
		</g>
	</g>
</g>
<g id="レイヤー_2">
</g>
<g id="レイヤー_3">
</g>
<style data-made-with="vivus-instant">.VubwVqiI_0{stroke-dasharray:5953 5955;stroke-dashoffset:5954;animation:VubwVqiI_draw 6666ms ease-in-out 0ms forwards;}.VubwVqiI_1{stroke-dasharray:12879 12881;stroke-dashoffset:12880;animation:VubwVqiI_draw 6666ms ease-in-out 114ms forwards;}.VubwVqiI_2{stroke-dasharray:80 82;stroke-dashoffset:81;animation:VubwVqiI_draw 6666ms ease-in-out 229ms forwards;}.VubwVqiI_3{stroke-dasharray:80 82;stroke-dashoffset:81;animation:VubwVqiI_draw 6666ms ease-in-out 344ms forwards;}.VubwVqiI_4{stroke-dasharray:80 82;stroke-dashoffset:81;animation:VubwVqiI_draw 6666ms ease-in-out 459ms forwards;}.VubwVqiI_5{stroke-dasharray:80 82;stroke-dashoffset:81;animation:VubwVqiI_draw 6666ms ease-in-out 574ms forwards;}.VubwVqiI_6{stroke-dasharray:80 82;stroke-dashoffset:81;animation:VubwVqiI_draw 6666ms ease-in-out 689ms forwards;}.VubwVqiI_7{stroke-dasharray:80 82;stroke-dashoffset:81;animation:VubwVqiI_draw 6666ms ease-in-out 804ms forwards;}.VubwVqiI_8{stroke-dasharray:80 82;stroke-dashoffset:81;animation:VubwVqiI_draw 6666ms ease-in-out 919ms forwards;}.VubwVqiI_9{stroke-dasharray:80 82;stroke-dashoffset:81;animation:VubwVqiI_draw 6666ms ease-in-out 1034ms forwards;}.VubwVqiI_10{stroke-dasharray:80 82;stroke-dashoffset:81;animation:VubwVqiI_draw 6666ms ease-in-out 1149ms forwards;}.VubwVqiI_11{stroke-dasharray:206 208;stroke-dashoffset:207;animation:VubwVqiI_draw 6666ms ease-in-out 1264ms forwards;}.VubwVqiI_12{stroke-dasharray:39 41;stroke-dashoffset:40;animation:VubwVqiI_draw 6666ms ease-in-out 1379ms forwards;}.VubwVqiI_13{stroke-dasharray:200 202;stroke-dashoffset:201;animation:VubwVqiI_draw 6666ms ease-in-out 1494ms forwards;}.VubwVqiI_14{stroke-dasharray:39 41;stroke-dashoffset:40;animation:VubwVqiI_draw 6666ms ease-in-out 1609ms forwards;}.VubwVqiI_15{stroke-dasharray:64 66;stroke-dashoffset:65;animation:VubwVqiI_draw 6666ms ease-in-out 1724ms forwards;}.VubwVqiI_16{stroke-dasharray:145 147;stroke-dashoffset:146;animation:VubwVqiI_draw 6666ms ease-in-out 1839ms forwards;}.VubwVqiI_17{stroke-dasharray:219 221;stroke-dashoffset:220;animation:VubwVqiI_draw 6666ms ease-in-out 1954ms forwards;}.VubwVqiI_18{stroke-dasharray:45 47;stroke-dashoffset:46;animation:VubwVqiI_draw 6666ms ease-in-out 2068ms forwards;}.VubwVqiI_19{stroke-dasharray:34 36;stroke-dashoffset:35;animation:VubwVqiI_draw 6666ms ease-in-out 2183ms forwards;}.VubwVqiI_20{stroke-dasharray:33 35;stroke-dashoffset:34;animation:VubwVqiI_draw 6666ms ease-in-out 2298ms forwards;}.VubwVqiI_21{stroke-dasharray:107 109;stroke-dashoffset:108;animation:VubwVqiI_draw 6666ms ease-in-out 2413ms forwards;}.VubwVqiI_22{stroke-dasharray:58 60;stroke-dashoffset:59;animation:VubwVqiI_draw 6666ms ease-in-out 2528ms forwards;}.VubwVqiI_23{stroke-dasharray:58 60;stroke-dashoffset:59;animation:VubwVqiI_draw 6666ms ease-in-out 2643ms forwards;}.VubwVqiI_24{stroke-dasharray:58 60;stroke-dashoffset:59;animation:VubwVqiI_draw 6666ms ease-in-out 2758ms forwards;}.VubwVqiI_25{stroke-dasharray:128 130;stroke-dashoffset:129;animation:VubwVqiI_draw 6666ms ease-in-out 2873ms forwards;}.VubwVqiI_26{stroke-dasharray:25 27;stroke-dashoffset:26;animation:VubwVqiI_draw 6666ms ease-in-out 2988ms forwards;}.VubwVqiI_27{stroke-dasharray:225 227;stroke-dashoffset:226;animation:VubwVqiI_draw 6666ms ease-in-out 3103ms forwards;}.VubwVqiI_28{stroke-dasharray:227 229;stroke-dashoffset:228;animation:VubwVqiI_draw 6666ms ease-in-out 3218ms forwards;}.VubwVqiI_29{stroke-dasharray:5953 5955;stroke-dashoffset:5954;animation:VubwVqiI_draw 6666ms ease-in-out 3333ms forwards;}@keyframes VubwVqiI_draw{100%{stroke-dashoffset:0;}}@keyframes VubwVqiI_fade{0%{stroke-opacity:1;}97.1830985915493%{stroke-opacity:1;}100%{stroke-opacity:0;}}</style></svg>
