<?xml version="1.0" encoding="utf-8"?>
<!-- Generator: Adobe Illustrator 24.0.1, SVG Export Plug-In . SVG Version: 6.00 Build 0)  -->
<svg version="1.1" id="Layer_1" xmlns="http://www.w3.org/2000/svg" xmlns:xlink="http://www.w3.org/1999/xlink" x="0px" y="0px"
	 viewBox="0 0 314.2 397" style="enable-background:new 0 0 314.2 397;" xml:space="preserve">
<style type="text/css">
	.st0{fill:#EE4A23;}
	.st1{fill:url(#SVGID_1_);}
	.st2{fill:url(#SVGID_2_);}
	.st3{fill:url(#SVGID_3_);}
	.st4{fill:url(#SVGID_4_);}
	.st5{fill:url(#SVGID_5_);}
	.st6{fill:#F3BD8F;}
	.st7{opacity:0.69;fill:url(#SVGID_6_);enable-background:new    ;}
	.st8{fill:none;stroke:#FFFFFF;stroke-width:1.39;stroke-miterlimit:10;}
	.st9{fill:url(#SVGID_7_);}
	.st10{fill:url(#SVGID_8_);}
	.st11{fill:url(#SVGID_9_);}
	.st12{fill:#3E3E54;}
	.st13{fill:url(#SVGID_10_);}
	.st14{fill:url(#SVGID_11_);}
	.st15{fill:url(#SVGID_12_);}
	.st16{fill:url(#SVGID_13_);}
</style>
<title>idea applications</title>
<path class="st0" d="M153.6,289.5H90.3c-2.3,0-4.1-1.9-4.1-4.1v0c0-2.3,1.9-4.1,4.1-4.1h63.3c2.3,0,4.1,1.9,4.1,4.1v0
	C157.7,287.7,155.9,289.5,153.6,289.5z"/>
<path class="st0" d="M164.9,330.6h-63.3c-2.3,0-4.1-1.9-4.1-4.1v0c0-2.3,1.9-4.1,4.1-4.1h63.3c2.3,0,4.1,1.9,4.1,4.1v0
	C169,328.7,167.2,330.6,164.9,330.6z"/>
<path class="st0" d="M176.2,371.7h-63.3c-2.3,0-4.1-1.9-4.1-4.1v0c0-2.3,1.9-4.1,4.1-4.1h63.3c2.3,0,4.1,1.9,4.1,4.1v0
	C180.4,369.8,178.5,371.7,176.2,371.7z"/>
<polygon class="st0" points="172.8,397 182.9,397 155.2,284.5 145.1,284.5 "/>
<polygon class="st0" points="116.2,397 126.4,397 98.7,284.5 88.5,284.5 "/>
<linearGradient id="SVGID_1_" gradientUnits="userSpaceOnUse" x1="168.5558" y1="141.0331" x2="300.4658" y2="-90.3769" gradientTransform="matrix(1 0 0 -1 -66.32 391.8497)">
	<stop  offset="1.000000e-02" style="stop-color:#000000"/>
	<stop  offset="0.13" style="stop-color:#000000;stop-opacity:0.69"/>
	<stop  offset="1" style="stop-color:#000000;stop-opacity:0"/>
</linearGradient>
<path class="st1" d="M153.6,289.5H90.3c-2.3,0-4.1-1.9-4.1-4.1v0c0-2.3,1.9-4.1,4.1-4.1h63.3c2.3,0,4.1,1.9,4.1,4.1v0
	C157.7,287.7,155.9,289.5,153.6,289.5z"/>
<linearGradient id="SVGID_2_" gradientUnits="userSpaceOnUse" x1="159.4106" y1="135.8201" x2="291.3206" y2="-95.5899" gradientTransform="matrix(1 0 0 -1 -66.32 391.8498)">
	<stop  offset="1.000000e-02" style="stop-color:#000000"/>
	<stop  offset="0.13" style="stop-color:#000000;stop-opacity:0.69"/>
	<stop  offset="1" style="stop-color:#000000;stop-opacity:0"/>
</linearGradient>
<path class="st2" d="M164.9,330.6h-63.3c-2.3,0-4.1-1.9-4.1-4.1v0c0-2.3,1.9-4.1,4.1-4.1h63.3c2.3,0,4.1,1.9,4.1,4.1v0
	C169,328.7,167.2,330.6,164.9,330.6z"/>
<linearGradient id="SVGID_3_" gradientUnits="userSpaceOnUse" x1="150.273" y1="130.6115" x2="282.183" y2="-100.7985" gradientTransform="matrix(1 0 0 -1 -66.32 391.8498)">
	<stop  offset="1.000000e-02" style="stop-color:#000000"/>
	<stop  offset="0.13" style="stop-color:#000000;stop-opacity:0.69"/>
	<stop  offset="1" style="stop-color:#000000;stop-opacity:0"/>
</linearGradient>
<path class="st3" d="M176.2,371.7h-63.3c-2.3,0-4.1-1.9-4.1-4.1v0c0-2.3,1.9-4.1,4.1-4.1h63.3c2.3,0,4.1,1.9,4.1,4.1v0
	C180.4,369.8,178.5,371.7,176.2,371.7z"/>
<linearGradient id="SVGID_4_" gradientUnits="userSpaceOnUse" x1="110.1495" y1="151.5795" x2="242.0595" y2="-79.8205" gradientTransform="matrix(1 0 0 -1 0 397.8898)">
	<stop  offset="1.000000e-02" style="stop-color:#000000"/>
	<stop  offset="0.13" style="stop-color:#000000;stop-opacity:0.69"/>
	<stop  offset="1" style="stop-color:#000000;stop-opacity:0"/>
</linearGradient>
<polygon class="st4" points="172.8,397 182.9,397 155.2,284.5 145.1,284.5 "/>
<linearGradient id="SVGID_5_" gradientUnits="userSpaceOnUse" x1="67.4835" y1="127.2618" x2="199.3936" y2="-104.1482" gradientTransform="matrix(1 0 0 -1 0 397.8898)">
	<stop  offset="1.000000e-02" style="stop-color:#000000"/>
	<stop  offset="0.13" style="stop-color:#000000;stop-opacity:0.69"/>
	<stop  offset="1" style="stop-color:#000000;stop-opacity:0"/>
</linearGradient>
<polygon class="st5" points="116.2,397 126.4,397 98.7,284.5 88.5,284.5 "/>
<path class="st6" d="M172.1,103.8c1.2-1.3,2.9-2,4.6-2c-0.1,1.7-0.6,3.3-1.6,4.7c-0.4,0.5-0.7,1.1-0.9,1.8c-0.2,0.6-0.1,1.3,0.4,1.8
	c0.3,0.3,0.8,0.5,1,0.9c0.2,0.5,0.1,1.1-0.3,1.4c-0.4,0.3-0.9,0.6-1.4,0.7l-2.6,0.7c-0.6,0.3-1.3,0.3-2,0.1
	C165.4,112.3,170.7,105.3,172.1,103.8z"/>
<path class="st0" d="M156.8,116c1.5-0.3,3-0.9,4.3-1.8c2.1-1.4,3.9-3,5.5-4.9c2.4,1.9,4.3,4.3,5.6,7.1c0.4,0.6,0.3,1.5-0.2,2
	c-3.8,4.3-8.6,8.3-14.4,8.5c-3.1,0.1-6.1-0.9-8.5-2.9c-2.4-2-6.6-8.8-3.3-11.6c1.8-1.5,3.2,0.4,4.6,1.4
	C152.1,115.3,154.5,116.2,156.8,116z"/>
<path class="st0" d="M225.7,66.8h-32.9c-2.3,0-4.1-1.8-4.1-4.1V51.3c0-2.3,1.8-4.1,4.1-4.1h32.9c2.3,0,4.1,1.8,4.1,4.1v11.4
	C229.8,65,227.9,66.8,225.7,66.8z"/>
<path class="st0" d="M228.5,60.3h-39.1c-1.9,0-3.4-1.5-3.4-3.4v-0.3c0-1.9,1.5-3.4,3.4-3.4h39.1c1.9,0,3.4,1.5,3.4,3.4v0.3
	C231.9,58.8,230.4,60.3,228.5,60.3z"/>
<path class="st0" d="M171.5,120.5c0-5.8,1.4-11.6,4.1-16.8l15-37.3h36.6l13.9,39.3c8.1,18.3-0.1,39.8-18.4,48
	c-18.3,8.1-39.8-0.1-48-18.4C172.5,130.6,171.4,125.6,171.5,120.5L171.5,120.5z"/>
<radialGradient id="SVGID_6_" cx="274.1045" cy="280.2091" r="41.019" gradientTransform="matrix(1 0 0 -1 -66.32 391.8498)" gradientUnits="userSpaceOnUse">
	<stop  offset="0.34" style="stop-color:#FFFFFF"/>
	<stop  offset="1" style="stop-color:#FFFFFF;stop-opacity:0.39"/>
</radialGradient>
<path class="st7" d="M171.5,120.5c0-5.8,1.4-11.6,4.1-16.8l15-37.3h36.6l13.9,39.3c8.1,18.3-0.1,39.8-18.4,48
	c-18.3,8.1-39.8-0.1-48-18.4C172.5,130.6,171.4,125.6,171.5,120.5L171.5,120.5z"/>
<path class="st8" d="M213.7,65.8c5.4,11.1,8.2,23.3,8.2,35.7c0,2.8-0.4,6-2.8,7.4c-3,1.7-6.6-0.9-8.3-3.9c-2.1-4-2.4-8.6-0.9-12.8
	c2,2.5,2.5,5.7,2.9,8.8c0.4,2.3,0.2,4.6-0.4,6.9c-0.8,2.2-2.7,4.1-5.1,4.2c-3.6,0.1-5.9-3.9-6.3-7.4c-0.4-4,0.5-8.1,2.6-11.6
	c1.5,4.6,0.5,9.7-2.8,13.4c-1.1,1.2-2.5,2.1-4.1,2.5c-1.6,0.4-3.3-0.2-4.3-1.5c-0.5-0.8-0.8-1.7-0.9-2.6c-1-6.7,1.4-13.4,4.3-19.5
	s6.4-12,8.1-18.6"/>
<linearGradient id="SVGID_7_" gradientUnits="userSpaceOnUse" x1="4949.0703" y1="-694.7103" x2="4990.1802" y2="-694.7103" gradientTransform="matrix(-1 0 0 1 5178.8301 751.7402)">
	<stop  offset="1.000000e-02" style="stop-color:#000000"/>
	<stop  offset="0.13" style="stop-color:#000000;stop-opacity:0.69"/>
	<stop  offset="1" style="stop-color:#000000;stop-opacity:0"/>
</linearGradient>
<path class="st9" d="M225.7,66.8h-32.9c-2.3,0-4.1-1.8-4.1-4.1V51.3c0-2.3,1.8-4.1,4.1-4.1h32.9c2.3,0,4.1,1.8,4.1,4.1v11.4
	C229.8,65,227.9,66.8,225.7,66.8z"/>
<linearGradient id="SVGID_8_" gradientUnits="userSpaceOnUse" x1="4946.8696" y1="-694.9753" x2="4992.8398" y2="-694.9753" gradientTransform="matrix(-1 0 0 1 5178.8198 751.7403)">
	<stop  offset="1.000000e-02" style="stop-color:#000000"/>
	<stop  offset="0.13" style="stop-color:#000000;stop-opacity:0.69"/>
	<stop  offset="1" style="stop-color:#000000;stop-opacity:0"/>
</linearGradient>
<path class="st10" d="M228.5,60.3h-39.1c-1.9,0-3.4-1.5-3.4-3.4v-0.3c0-1.9,1.5-3.4,3.4-3.4h39.1c1.9,0,3.4,1.5,3.4,3.4v0.3
	C231.9,58.8,230.4,60.3,228.5,60.3z"/>
<path class="st6" d="M140.5,206.7c0,1.6-0.1,3.1-0.4,4.7c-0.6,2.5-1.4,5-2.4,7.4c-1.3,3.8-2.3,7.8-3,11.8l-5.8,28.7
	c-0.1,0.4-0.1,0.8,0,1.2c0.2,0.3,0.4,0.6,0.7,0.8c0.9,0.8,2,1.3,3.1,1.8c0.4,0.2,0.7,0.2,1.1,0.1c0.5-0.2,0.8-0.6,1-1.1
	c2.2-3.9,3.9-8.1,5.1-12.4c6-20.9,12.4-33.4,13.6-43.7c0.2-1.7,2-3.2,1.1-4.6c-0.5-0.9-1.3-1.7-2.2-2.3c-2.3-1.5-7.4-6-10.4-4.2
	C139.4,196.2,140.5,204,140.5,206.7z"/>
<path class="st6" d="M127.4,206.2c-0.1,1.3-1.3,2.2-2.6,2.2c-13.8,2.1-28.3,2.4-40.9,8.4c-0.8,0.3-1.6,0.8-2.1,1.6
	c-1.2,1.8,0.4,4.3-0.3,6.4c7.8,0.2,15.6-1,23.3-2.3l28.6-4.6c1.8-0.3,3.8-0.7,5.1-2c0.9-1.2,1.6-2.5,1.9-4l2.2-8.4
	c0.4-1.7,0.9-3.5,0.1-5c-1-2.1-3.8-2.7-6.1-2.9C129.6,195.2,129.1,200.7,127.4,206.2z"/>
<linearGradient id="SVGID_9_" gradientUnits="userSpaceOnUse" x1="187.5996" y1="206.0264" x2="173.0896" y2="164.1964" gradientTransform="matrix(1 0 0 -1 -66.32 391.8498)">
	<stop  offset="1.000000e-02" style="stop-color:#000000"/>
	<stop  offset="0.13" style="stop-color:#000000;stop-opacity:0.69"/>
	<stop  offset="1" style="stop-color:#000000;stop-opacity:0"/>
</linearGradient>
<path class="st11" d="M127.4,206.2c-0.1,1.3-1.3,2.2-2.6,2.2c-13.8,2.1-28.3,2.4-40.9,8.4c-0.8,0.3-1.6,0.8-2.1,1.6
	c-1.2,1.8,0.4,4.3-0.3,6.4c7.8,0.2,15.6-1,23.3-2.3l28.6-4.6c1.8-0.3,3.8-0.7,5.1-2c0.9-1.2,1.6-2.5,1.9-4l2.2-8.4
	c0.4-1.7,0.9-3.5,0.1-5c-1-2.1-3.8-2.7-6.1-2.9C129.6,195.2,129.1,200.7,127.4,206.2z"/>
<path class="st6" d="M184.9,125c0.2-0.4,0.7-0.9,1-0.6c0.1,0.1,0.2,0.3,0.2,0.5l0.3,2.2c0,0.1,0.1,0.3,0.1,0.4
	c0.3,0.3,0.7,0.1,1-0.1c1.8-1.2,3.4-2.7,4.9-4.3c0.3-0.3,0.7-0.7,1.1-0.5c0.2,0.1,0.4,0.3,0.4,0.5c0.4,1.2,0.6,2.6,0.3,3.9
	c-0.2,1.6-0.7,3.1-1.5,4.5c-0.8,1.4-2.2,2.4-3.7,2.8c-1.2,0.3-2.6,0.2-3.7,0.8c-0.7,0.4-1.3,0.9-2.1,0.9c-0.9-0.1-1.4-1.2-1.5-2.1
	C181.5,130.6,183.6,127.7,184.9,125z"/>
<path class="st12" d="M147,91.3c0.3,2.8,0.6,5.9,2.4,8.1c0.8,0.9,1.7,1.6,2.4,2.6c0.6,0.9,1,2,0.9,3.1c-4.9-0.2-9.6,2-14.4,1.6
	c-0.4-2.7-0.2-5.4,0.4-8.1c0.8-3.7,2.6-7.3,2.4-11c0-1.2-0.4-2.8,0.4-3.9c0.6-0.9,2.2-1.4,3-0.5c0.7,1,1.3,2.2,1.6,3.4
	C146.5,88.1,146.8,89.7,147,91.3z"/>
<path class="st0" d="M143.7,107.1c8.6,5,12,23.4,13.4,27.9c2,6.9,2.8,14,2.5,21.1c-0.1,3.1-0.3,6.4-1.7,9.2
	c-1.9,3.9-5.8,6.5-9.9,7.8s-8.5,1.3-12.8,1c-2.8-0.1-5.8-0.5-7.9-2.3c-2.9-2.5-3.2-6.7-3.2-10.5c-0.2-15,0-30.1,0.4-45.1
	c0-2.3,0.3-4.5,0.9-6.7c0.6-2.2,2.2-4,4.3-4.9C133.6,103.2,140.1,105,143.7,107.1z"/>
<linearGradient id="SVGID_10_" gradientUnits="userSpaceOnUse" x1="229.1686" y1="256.4792" x2="198.6386" y2="251.9592" gradientTransform="matrix(1 0 0 -1 -66.32 391.8498)">
	<stop  offset="1.000000e-02" style="stop-color:#000000"/>
	<stop  offset="0.13" style="stop-color:#000000;stop-opacity:0.69"/>
	<stop  offset="1" style="stop-color:#000000;stop-opacity:0"/>
</linearGradient>
<path class="st13" d="M143.7,107.1c8.6,5,12,23.4,13.4,27.9c2,6.9,2.8,14,2.5,21.1c-0.1,3.1-0.3,6.4-1.7,9.2
	c-1.9,3.9-5.8,6.5-9.9,7.8s-8.5,1.3-12.8,1c-2.8-0.1-5.8-0.5-7.9-2.3c-2.9-2.5-3.2-6.7-3.2-10.5c-0.2-15,0-30.1,0.4-45.1
	c0-2.3,0.3-4.5,0.9-6.7c0.6-2.2,2.2-4,4.3-4.9C133.6,103.2,140.1,105,143.7,107.1z"/>
<path class="st6" d="M146.9,97.1c0.1,1-0.3,2-0.9,2.8c-0.8,0.6-1.8,0.9-2.8,0.8c-1-0.2-2-0.3-3-0.3c-0.9-0.1-1.7,0.5-1.8,1.4
	c0,0.1,0,0.2,0,0.4c0,1.4,0.6,2.7,0.6,4.1c0,1.4-1.1,3-2.4,2.7c-0.7-0.2-1.2-0.6-1.5-1.2c-1.9-2.8-2.1-6.5-3.5-9.6
	c-0.9-1.8-2.2-3.4-2.8-5.3c-1-3.3,0.1-6.8,2.7-9.1c2.5-2.2,8.4-3.8,11.1-1.1C145.8,86.2,147.1,92.4,146.9,97.1z"/>
<path class="st12" d="M141.4,77.5c0.7,0.2,1.3,0.6,1.9,1c1.4,1.2,2.3,2.9,2.8,4.7l-7.1,3.8c-0.2,0.1-0.5,0.2-0.7,0.2
	c-0.5-0.1-0.8-0.8-1.3-0.8c0.2,0.4,0.4,0.9,0.6,1.3l-2.8,2c-0.3,0.2-0.6,0.4-0.8,0.7c-0.3,0.6-0.4,1.2-0.4,1.8
	c0.3,5.3,1.1,10.6,2.4,15.8c-1.1,0.6-2.2,0.9-3.5,1c-4.6,0.7-9,2-13.2,4c0-1.4-0.2-2.9-0.6-4.2c-0.4-1.1-0.7-2.3-0.8-3.4
	c0.1-1.3,0.6-2.6,1.2-3.8c0.8-1.7,1.4-3.5,2.1-5.3c0.5-1.2,0.8-2.4,1-3.7c0-1.6-0.1-3.3-0.4-4.9c-0.3-1.6,0-3.3,0.9-4.7
	c1.4-1.9,4.2-2.4,6.1-3.7c2.3-1.6,5.1-2.5,7.9-2.6C138.3,76.7,139.9,77,141.4,77.5z"/>
<path class="st0" d="M146.6,146.5c2,2,11.1,4.1,14.4,4c8.4,0,25.8-10.4,25.5-11.1l-5.1-12.6c-4.3,2.8-8.9,5.6-13.9,6.6
	c-5.1,1-10.8,0.1-14.4-3.7c-2.6-2.7-3.7-6.3-5.8-9.4s-5.9-5.6-9.3-4.2c-4.5,1.8-5.5,9.2-3.9,13.2
	C136.6,135.7,141.8,141.7,146.6,146.5z"/>
<path class="st12" d="M119.1,197.1c-0.3,1-0.7,2-1.1,3c-1.1,2.7-2.1,6.4,0.2,8.2c0.8,0.6,1.8,0.9,2.8,0.9c3.3,0.4,6.6-0.3,9.9-0.2
	c7.2,0.1,13.9,3.6,20.2,7.2c1.3,0.9,2.8,1.5,4.3,1.9c1.6,0.4,3.2-0.1,4.3-1.3c1-1.3,1-3,0.9-4.6l-1.6-30c-0.2-3.7,1-15.1-3.4-16.1
	c-2.8-0.7-7.1,0.7-10,0.9c-3.5,0.2-7,0.3-10.6,0.3c-1.8,0-3.5-0.1-5.2-0.6c-1-0.3-4.3-2.1-5.4-1.9c-3.4,0.8-1.9,11.9-2.1,14.6
	C122.1,185.3,121,191.3,119.1,197.1z"/>
<linearGradient id="SVGID_11_" gradientUnits="userSpaceOnUse" x1="229.1704" y1="200.7037" x2="168.4904" y2="199.9537" gradientTransform="matrix(1 0 0 -1 -66.32 391.8498)">
	<stop  offset="1.000000e-02" style="stop-color:#000000"/>
	<stop  offset="0.13" style="stop-color:#000000;stop-opacity:0.69"/>
	<stop  offset="1" style="stop-color:#000000;stop-opacity:0"/>
</linearGradient>
<path class="st14" d="M119.1,197.1c-0.3,1-0.7,2-1.1,3c-1.1,2.7-2.1,6.4,0.2,8.2c0.8,0.6,1.8,0.9,2.8,0.9c3.3,0.4,6.6-0.3,9.9-0.2
	c7.2,0.1,13.9,3.6,20.2,7.2c1.3,0.9,2.8,1.5,4.3,1.9c1.6,0.4,3.2-0.1,4.3-1.3c1-1.3,1-3,0.9-4.6l-1.6-30c-0.2-3.7,1-15.1-3.4-16.1
	c-2.8-0.7-7.1,0.7-10,0.9c-3.5,0.2-7,0.3-10.6,0.3c-1.8,0-3.5-0.1-5.2-0.6c-1-0.3-4.3-2.1-5.4-1.9c-3.4,0.8-1.9,11.9-2.1,14.6
	C122.1,185.3,121,191.3,119.1,197.1z"/>
<path class="st0" d="M76.9,217.2c-0.8,0-1.6,0.3-2.2,0.9c-0.5,0.8-0.7,1.7-0.6,2.6c0.3,7.4,1.1,14.7,2.4,22c0.2,0.9,0.5,2,1.3,2.2
	c1.3,0.4,2.2-1.1,2.7-2.4l5.6-16.3c0.2-0.5,0.3-1.1,0.2-1.6c-0.2-0.9-1.2-1.4-1.8-2.1c-1.1-1.4-0.4-3.9-1.8-5.1
	C81.5,216.4,78.4,217,76.9,217.2z"/>
<path class="st0" d="M123.6,262.6c-0.5,0.6-0.8,1.4-0.8,2.2c0.2,0.9,0.8,1.7,1.6,2.2c5.7,4.7,11.7,9.1,17.9,13
	c0.8,0.5,1.8,1,2.6,0.5c1.2-0.7,0.7-2.4,0-3.6l-8.4-15.1c-0.2-0.5-0.6-0.9-1-1.3c-0.8-0.5-1.9,0-2.8-0.1c-1.8-0.1-3.1-2.3-5-2
	C126.1,258.7,124.5,261.4,123.6,262.6z"/>
<linearGradient id="SVGID_12_" gradientUnits="userSpaceOnUse" x1="137.167" y1="159.5065" x2="175.047" y2="166.2965" gradientTransform="matrix(1 0 0 -1 -66.32 391.8498)">
	<stop  offset="1.000000e-02" style="stop-color:#000000"/>
	<stop  offset="0.13" style="stop-color:#000000;stop-opacity:0.69"/>
	<stop  offset="1" style="stop-color:#000000;stop-opacity:0"/>
</linearGradient>
<path class="st15" d="M76.9,217.2c-0.8,0-1.6,0.3-2.2,0.9c-0.5,0.8-0.7,1.7-0.6,2.6c0.3,7.4,1.1,14.7,2.4,22c0.2,0.9,0.5,2,1.3,2.2
	c1.3,0.4,2.2-1.1,2.7-2.4l5.6-16.3c0.2-0.5,0.3-1.1,0.2-1.6c-0.2-0.9-1.2-1.4-1.8-2.1c-1.1-1.4-0.4-3.9-1.8-5.1
	C81.5,216.4,78.4,217,76.9,217.2z"/>
<linearGradient id="SVGID_13_" gradientUnits="userSpaceOnUse" x1="194.6927" y1="114.5273" x2="217.4928" y2="137.8973" gradientTransform="matrix(1 0 0 -1 -66.32 391.8498)">
	<stop  offset="1.000000e-02" style="stop-color:#000000"/>
	<stop  offset="0.13" style="stop-color:#000000;stop-opacity:0.69"/>
	<stop  offset="1" style="stop-color:#000000;stop-opacity:0"/>
</linearGradient>
<path class="st16" d="M123.6,262.6c-0.5,0.6-0.8,1.4-0.8,2.2c0.2,0.9,0.8,1.7,1.6,2.2c5.7,4.7,11.7,9.1,17.9,13
	c0.8,0.5,1.8,1,2.6,0.5c1.2-0.7,0.7-2.4,0-3.6l-8.4-15.1c-0.2-0.5-0.6-0.9-1-1.3c-0.8-0.5-1.9,0-2.8-0.1c-1.8-0.1-3.1-2.3-5-2
	C126.1,258.7,124.5,261.4,123.6,262.6z"/>
<path class="st0" d="M87.5,280.7h63.3c2.3,0,4.1,1.9,4.1,4.1v0c0,2.3-1.9,4.1-4.1,4.1H87.5c-2.3,0-4.2-1.9-4.2-4.1v0
	C83.3,282.6,85.2,280.7,87.5,280.7z"/>
<path class="st0" d="M76.1,321.8h63.3c2.3,0,4.1,1.9,4.1,4.1v0c0,2.3-1.9,4.1-4.1,4.1H76.1c-2.3,0-4.2-1.9-4.2-4.1v0
	C72,323.7,73.8,321.8,76.1,321.8z"/>
<path class="st0" d="M64.8,362.9h63.3c2.3,0,4.1,1.9,4.1,4.1v0c0,2.3-1.9,4.1-4.1,4.1H64.8c-2.3,0-4.1-1.9-4.1-4.1v0
	C60.7,364.7,62.5,362.9,64.8,362.9z"/>
<polygon class="st0" points="68.3,396.5 58.1,396.5 85.8,284 96,284 "/>
<polygon class="st0" points="124.8,396.5 114.7,396.5 142.4,284 152.5,284 "/>
<path class="st0" d="M208.7,1.7v45.6h-2.3V1.4L208.7,1.7z"/>
</svg>
