<?xml version="1.0" encoding="utf-8"?>
<!-- Generator: Adobe Illustrator 24.0.1, SVG Export Plug-In . SVG Version: 6.00 Build 0)  -->
<svg version="1.1" id="Layer_1" xmlns="http://www.w3.org/2000/svg" xmlns:xlink="http://www.w3.org/1999/xlink" x="0px" y="0px"
	 viewBox="0 0 424.6 361.5" style="enable-background:new 0 0 424.6 361.5;" xml:space="preserve">
<style type="text/css">
	.st0{fill:#3E3E54;}
	.st1{fill:url(#SVGID_1_);}
	.st2{fill:#EE4A23;}
	.st3{fill:url(#SVGID_2_);}
	.st4{fill:url(#SVGID_3_);}
	.st5{fill:url(#SVGID_4_);}
	.st6{fill:url(#SVGID_5_);}
	.st7{fill:url(#SVGID_6_);}
	.st8{fill:url(#SVGID_7_);}
	.st9{fill:url(#SVGID_8_);}
	.st10{fill:#FFFFFF;}
	.st11{fill:url(#SVGID_9_);}
	.st12{fill:url(#SVGID_10_);}
	.st13{fill:url(#SVGID_11_);}
	.st14{fill:url(#SVGID_12_);}
	.st15{fill:url(#SVGID_13_);}
	.st16{fill:url(#SVGID_14_);}
	.st17{fill:#B7A451;}
	.st18{fill:url(#SVGID_15_);}
	.st19{fill:url(#SVGID_16_);}
	.st20{fill:url(#SVGID_17_);}
	.st21{fill:url(#SVGID_18_);}
	.st22{fill:url(#SVGID_19_);}
	.st23{fill:url(#SVGID_20_);}
	.st24{fill:url(#SVGID_21_);}
	.st25{fill:url(#SVGID_22_);}
	.st26{fill:url(#SVGID_23_);}
	.st27{fill:url(#SVGID_24_);}
	.st28{opacity:0.43;fill:#EE4A23;enable-background:new    ;}
	.st29{fill:none;stroke:#FFFFFF;stroke-width:0.78;stroke-miterlimit:10;}
</style>
<title>Looking for idea with team</title>
<path class="st0" d="M177.9,246.4c0.6,9.3-1,18.6-0.1,27.8c0.3,3,0.9,6.1-0.1,9c-0.9,2.5-2.7,4.5-5.1,5.6c-5.5,2.8-12.6,1-16.9-3.5
	s-6-10.9-5.6-17s2.5-12,5.1-17.6c2.3-5,6.2-14.9,11.9-17C174.3,231.1,177.6,241.2,177.9,246.4z"/>
<path class="st0" d="M168.2,229.7c-2.3-4.1-8.6-5.9-13.2-3.6c-1.4,0.9-2.8,1.6-4.2,2.3c-1.7,0.6-3.6,0.4-5.4,0.6
	c-5.8,0.6-10.9,5.1-11.8,10.4c-0.5,3,0.3,6-0.2,9c-1.1,7.1-8.9,12.4-9.6,19.5c-0.3,2.3,0.3,4.6,0.5,6.9c0.4,4.3-0.4,8.7-2.2,12.6
	c-1.3,2.8-3.1,5.5-3.5,8.5c-0.9,6,4.1,11.8,10.4,13.6s13.4,0.4,19.4-2.4c6.6-3.1,12.4-8.2,14.4-14.7c3.1-10.1-3.7-20.8-0.6-30.9
	c0.8-2.3,1.9-4.6,3-6.9C168,248,171.9,236.4,168.2,229.7z"/>
<linearGradient id="SVGID_1_" gradientUnits="userSpaceOnUse" x1="168.4441" y1="62.5569" x2="178.1741" y2="97.8469" gradientTransform="matrix(1 0 0 -1 -18.92 354.7697)">
	<stop  offset="0" style="stop-color:#000000;stop-opacity:0"/>
	<stop  offset="0.99" style="stop-color:#000000"/>
</linearGradient>
<path class="st1" d="M142.7,268.2c0.1-2.7-0.4-6,1.7-7.7c0.2-0.2,0.4-0.3,0.6-0.3c0.2,0,0.5,0.1,0.7,0.2c2.3,1.2,4.3,2.9,6,4.9
	c2.1,2.4,3.7,5.3,6.4,7c1.1,0.7,2.3,1.1,3.4,1.8c2.3,1.3,4.3,3.1,5.6,5.3c0.4,0.5,0.6,1.2,0.5,1.9c-0.3,0.9-1.2,1.2-2.1,1.4
	c-2.5,0.4-5,0.6-7.6,0.4c-3.5-0.1-6.9-0.2-10.4-0.4c-2.2,0-4.4-0.3-6.6-0.9c-0.9-0.3-2.6-0.9-2.8-2s1.3-2.2,1.9-3.1
	C141.6,274,142.5,271.2,142.7,268.2z"/>
<rect x="0.2" y="317.3" class="st2" width="424.4" height="15.6"/>
<linearGradient id="SVGID_2_" gradientUnits="userSpaceOnUse" x1="0.2" y1="40.4798" x2="424.64" y2="40.4798" gradientTransform="matrix(1 0 0 -1 0 361.8898)">
	<stop  offset="0" style="stop-color:#000000;stop-opacity:0"/>
	<stop  offset="0.99" style="stop-color:#000000"/>
</linearGradient>
<rect x="0.2" y="317.3" class="st3" width="424.4" height="8.2"/>
<path class="st2" d="M179.1,293.4l3.2,26.8c-23.3,1.2-46.6,1-69.8-0.6c-0.5-4.8,1.3-9.5,3.1-14c4.6-11.1,11.1-22.9,22.5-26.6
	c8.7-2.8,16.4,0.7,25,1.5c4.3,0.4,8.9-1,12.3,2.4C178,285.5,178.7,289.9,179.1,293.4z"/>
<linearGradient id="SVGID_3_" gradientUnits="userSpaceOnUse" x1="161.7027" y1="58.8939" x2="182.6827" y2="-6.3761" gradientTransform="matrix(1 0 0 -1 -18.92 354.7697)">
	<stop  offset="0" style="stop-color:#000000;stop-opacity:0"/>
	<stop  offset="0.8" style="stop-color:#000000"/>
</linearGradient>
<path class="st4" d="M179.1,293.4l3.2,26.8c-23.3,1.2-46.6,1-69.8-0.6c-0.5-4.8,1.3-9.5,3.1-14c4.6-11.1,11.1-22.9,22.5-26.6
	c8.7-2.8,16.4,0.7,25,1.5c4.3,0.4,8.9-1,12.3,2.4C178,285.5,178.7,289.9,179.1,293.4z"/>
<path class="st2" d="M76.5,277.6c2.7,0.6,5.5,1.4,7.7,3.2c1.7,1.5,3.1,3.2,4.2,5.2c5.3,8.9,8.8,18.9,10,29.3
	c0.2,0.8,0.1,1.7-0.2,2.5c-0.8,1.5-2.8,1.7-4.5,1.7l-78.9-0.9l-8.9,0.6c2-8.9,7.8-38.3,20.4-42.2c5-1.3,10.1-2.1,15.3-2.6
	c5.4-0.2,10.7-0.1,16.1,0.2C63.9,275.1,70.3,276.1,76.5,277.6z"/>
<linearGradient id="SVGID_4_" gradientUnits="userSpaceOnUse" x1="63.1944" y1="64.895" x2="85.0444" y2="-5.915" gradientTransform="matrix(1 0 0 -1 -18.92 354.7697)">
	<stop  offset="0" style="stop-color:#000000;stop-opacity:0"/>
	<stop  offset="0.8" style="stop-color:#000000"/>
</linearGradient>
<path class="st5" d="M76.5,277.6c2.7,0.6,5.5,1.4,7.7,3.2c1.7,1.5,3.1,3.2,4.2,5.2c5.3,8.9,8.8,18.9,10,29.3
	c0.2,0.8,0.1,1.7-0.2,2.5c-0.8,1.5-2.8,1.7-4.5,1.7l-78.9-0.9l-8.9,0.6c2-8.9,7.8-38.3,20.4-42.2c5-1.3,10.1-2.1,15.3-2.6
	c5.4-0.2,10.7-0.1,16.1,0.2C63.9,275.1,70.3,276.1,76.5,277.6z"/>
<linearGradient id="SVGID_5_" gradientUnits="userSpaceOnUse" x1="64.2952" y1="82.436" x2="83.0768" y2="82.436" gradientTransform="matrix(1 0 0 -1 -18.92 354.7697)">
	<stop  offset="0" style="stop-color:#E5C5D5"/>
	<stop  offset="0.42" style="stop-color:#EAD4D1"/>
	<stop  offset="1" style="stop-color:#F0E9CB"/>
</linearGradient>
<path class="st6" d="M64.1,275c0,1.3-0.1,2.6-0.5,3.9c-1.1,3.3-4.9,5.2-8.3,4.7c-3.4-0.7-6.4-2.9-7.9-6.1c-1.5-3.1-2.2-6.6-2-10
	c-0.1-1.6,0.3-3.1,1.1-4.5c1.1-1.3,2.8-2,4.5-2c3-0.2,6,0.8,8.3,2.8c1.1,1,3.3,1.8,4,2.9C64.2,268.2,64.2,273.2,64.1,275z"/>
<linearGradient id="SVGID_6_" gradientUnits="userSpaceOnUse" x1="72.4739" y1="71.2494" x2="75.8539" y2="109.5994" gradientTransform="matrix(1 0 0 -1 -18.92 354.7697)">
	<stop  offset="0" style="stop-color:#000000;stop-opacity:0"/>
	<stop  offset="0.99" style="stop-color:#000000"/>
</linearGradient>
<path class="st7" d="M46.5,264.8c0,0,10.5,16.5,14.3,11.8c2.3-2.8,3.2-6.4,2.5-9.9L46.5,264.8z"/>
<path class="st2" d="M84.7,276.3l-6.2,4.3c-0.5,0.3-0.9,0.7-1.3,1.1c-0.5,0.8-0.9,1.7-1,2.6c-2,9.5-2.9,19.3-2.8,29
	c-0.1,1,0.1,2,0.4,3c0.6,1.1,1.5,2,2.7,2.5c2.3,1.1,4.9,1.2,7.5,1.3l10.1,0.3c1,0.1,2,0,3-0.3c2.3-0.9,3.2-3.8,3.1-6.3
	c-0.3-2.6-1.1-5.2-2.3-7.5L91,290C89.3,286,87.9,279.3,84.7,276.3z"/>
<path class="st2" d="M151.6,312.8c2,0,4,0.2,6,0.7c2,0.5,3.6,2,4.3,3.9c0.8,2.7-1.2,5.5-3.7,6.7s-5.4,1.1-8.2,1.1l-22.4-0.5
	c-2.6,0.1-5.2-0.2-7.7-0.9c-2.5-0.7-4.7-2.4-5.9-4.8c-1.6-3.6,0.3-8.1,3.7-10.3c5.1-3.3,10.5-1.6,15.6,0.3
	C139.1,311.2,145.3,312.4,151.6,312.8z"/>
<path class="st2" d="M323.4,319.7c4.5-11.4,13.7-27.5,18.2-38.9c2.1-5.3,4.4-11,9.3-14.1c3.3-2.1,7.2-2.6,11.1-3.2l19.1-2.6
	c5.1-0.7,9.3,1,13.5,4.1s7.3,7.4,10,11.8c6.3,10.3,10.7,21.5,13.1,33.3c0.5,2.6,0.8,5.7-1,7.6c-1.4,1.4-3.5,1.6-5.4,1.7
	C383.5,320.9,351.2,318.2,323.4,319.7z"/>
<linearGradient id="SVGID_7_" gradientUnits="userSpaceOnUse" x1="398.6606" y1="68.2025" x2="378.2606" y2="-1.4375" gradientTransform="matrix(1 0 0 -1 -18.92 354.7697)">
	<stop  offset="0" style="stop-color:#000000;stop-opacity:0"/>
	<stop  offset="0.99" style="stop-color:#000000"/>
</linearGradient>
<path class="st8" d="M323.4,319.7c4.5-11.4,13.7-27.5,18.2-38.9c2.1-5.3,4.4-11,9.3-14.1c3.3-2.1,7.2-2.6,11.1-3.2l19.1-2.6
	c5.1-0.7,9.3,1,13.5,4.1s7.3,7.4,10,11.8c6.3,10.3,10.7,21.5,13.1,33.3c0.5,2.6,0.8,5.7-1,7.6c-1.4,1.4-3.5,1.6-5.4,1.7
	C383.5,320.9,351.2,318.2,323.4,319.7z"/>
<linearGradient id="SVGID_8_" gradientUnits="userSpaceOnUse" x1="381.5" y1="96.1969" x2="397.13" y2="96.1969" gradientTransform="matrix(1 0 0 -1 -18.92 354.7697)">
	<stop  offset="0" style="stop-color:#867580"/>
	<stop  offset="0.57" style="stop-color:#9B8F8E"/>
</linearGradient>
<path class="st9" d="M375.7,267c-2.1,2.8-5.8,4-9.2,3.1c-0.5-0.1-1-0.4-1.4-0.7c-0.4-0.4-0.7-0.9-0.9-1.4c-1.5-3.5-1.6-7.4-1.6-11.2
	c-0.1-1.5,0.1-3.1,0.6-4.6c1.9-4.1,10.7-8.2,13.5-3.2C379.1,253.2,378.5,263.2,375.7,267z"/>
<path class="st10" d="M91.1,206c-1.7-1-3.8-0.7-5.1,0.6c-1.3,1.4-1.9,3.2-1.9,5.1c-0.1,1.1,0.2,2.2,0.7,3.2c0.5,1,1.6,1.6,2.7,1.6
	c0.8-0.1,1.6-0.5,2.2-1.1c2.6-2.7,2.4-7-0.3-9.6c0,0-0.1-0.1-0.1-0.1"/>
<path class="st10" d="M107.5,194c-1.2,1.8-1,4.6,0.9,5.8c0.9,0.5,2,0.7,3,0.6c1.2,0,2.4-0.2,3.6-0.6c0.4-0.2,0.8-0.2,1.1-0.2
	c0.3,0.1,0.6,0.4,0.9,0.6c1.9,1.6,4.7,1.4,6.3-0.5c1.6-1.9,1.4-4.7-0.5-6.3c-0.3-0.2-0.6-0.4-0.5-0.8c0-0.2,0.1-0.3,0.2-0.4
	c1.2-1.8,0.7-4.2-1-5.5c-3.6-2.5-4.3,1.1-5.9,3C113.6,192.3,109.6,190.9,107.5,194z"/>
<path class="st10" d="M151.2,175.6c1.5-0.1,3.1-0.5,3.9-1.8c0.4-0.7,0.6-1.5,0.6-2.3c0.1-1.3,0-2.5-0.2-3.8
	c-0.6-4.2-6.5-6.2-8.7-2.2S145.6,176,151.2,175.6z"/>
<path class="st10" d="M188.2,192.2c-0.4-0.3-0.8,0.2-1,0.6c-1.1,2.5-0.9,5.4,0.5,7.7c0.1,0.3,0.4,0.5,0.6,0.7
	c0.3,0.1,0.5,0.2,0.8,0.2c1.5-0.1,2.8-1.2,3.1-2.7c0.3-1.5-0.1-3-1-4.2c-0.8-1.2-2-2.1-3.4-2.6"/>
<path class="st10" d="M267.7,204.4c1.2,0,2.1-1,2.1-2.1c0.8-4.4-4.6-12-9.3-7.7C255.9,198.8,263.1,205.1,267.7,204.4z"/>
<path class="st10" d="M312.5,167.6c1.1-1.9,0.6-4.3-1.1-5.7c-1.1-0.8-2.5-0.9-3.7-0.2c-1.2,0.9-1.3,2.7-1.3,4.2
	c-1.2-0.6-2.6,0.6-2.8,1.8c0,1.3,0.6,2.6,1.7,3.3c1.1,0.9,2.5,1.4,3.9,1.3c1.4-0.2,2.6-1.2,2.9-2.6c0.1-0.9-0.3-1.9-0.1-2.9"/>
<path class="st10" d="M329,184.4c-1.2-0.6-2.5-0.7-3.7-0.4c-0.5,0.1-0.9,0.3-1.3,0.7c-0.3,0.5-0.5,1.1-0.4,1.7
	c0,0.9,0.1,1.8,0.3,2.6c0.1,0.6,0.4,1.1,0.8,1.5c0.9,0.8,2.3,0.3,3.4-0.2c0.9-0.4,1.8-0.9,2-1.8c0.1-0.6,0-1.2-0.3-1.7
	c-0.5-1.2-1.1-2.3-1.9-3.4"/>
<path class="st10" d="M354.3,187.9c-1,1.4-0.8,3.2,0.3,4.5c0.5,0.6,1.2,0.9,2,0.8c0.9-0.3,1.6-1.1,1.7-2c0.4-2.4-1.1-4.7-3.4-5.3"/>
<path class="st10" d="M196.1,33.6c-4,3-7.2,6.9-9.2,11.5c-0.4,1-1,2-1.8,2.8c-1.8,1.6-4.5,1.1-6.9,0.8c-15.7-2-30,9-32,24.7
	c-0.3,2.3-0.3,4.7,0,7c-8.4,0.3-14.9,8.3-16.9,16.5c-2.3,8.9-0.6,18.3,4.5,25.8c5.3,7.5,13.8,11.9,23,11.9c-0.6,6.4,2.3,12.5,5.6,18
	c2.2,3.7,4.6,7.4,8,10.1s7.8,4.4,12,3.7c0.6,9.5,9.4,17.2,18.9,18.6s19.1-2.7,26.3-8.9c3.9,3.8,10,4.4,15.3,2.9s9.7-4.9,13.7-8.5
	c7.6,2.2,15.5-1.6,22.5-5.2c4.5-2.3,9.1-4.8,11.8-9.1s2.9-9.5,1.8-14.4s-3.5-9.3-5.8-13.6c4-2.4,8.2-4.8,10.9-8.7s3.6-9.4,0.7-13.1
	c-0.7-0.9-1.7-1.8-1.9-3c-0.3-1.3,0.4-2.6,1-3.9c2.8-6,1.9-13.2-0.9-19.2s-7.5-10.9-12.4-15.3c-3.7-3.3-7.6-6.4-12.2-8.3
	s-10-2.2-14.4,0c-1.2-3.8-2.5-7.8-5.3-10.8s-7.5-4.5-11-2.5c1.2-0.7-6.9-8.8-7.8-9.4c-3.6-2.5-7.7-4.1-12-4.6
	C214.2,28.9,202.3,29.3,196.1,33.6z"/>
<path class="st2" d="M250.3,279.1c-4.9,5.3-7.7,12.1-10.5,18.7l-7.8,19c-0.5,0.9-0.6,1.9-0.3,2.9c0.6,0.8,1.5,1.2,2.5,1.3
	c4,0.6,8,1,12.1,1.2c20.4,1.3,40.7,1.7,61.1,1.4c2.4,0,5-0.1,7.2-1.2c5.6-2.9,6.1-10.7,5.1-16.9c-1.2-7.2-3.2-14.3-6.1-21
	c-1-2.7-2.5-5.1-4.4-7.3c-4.7-4.9-12.1-5.7-18.8-5.9C277.4,270.9,259.9,268.7,250.3,279.1z"/>
<path class="st2" d="M235.3,274.8c-0.2-0.8-0.7-1.4-1.3-1.9c-0.5-0.3-1.1-0.4-1.8-0.4c-1.8-0.1-3.6,0-5.3,0.2
	c-1.1,0-2.2,0.4-3.1,1.2c-0.6,0.8-1,1.7-1.1,2.7c-1.4,7.8,0.2,15.7,0.9,23.5c0.4,5.4,0.5,11,3.4,15.6c2.6,4,7.2,6.5,12,6.5
	c2,0,4.3-0.7,5.1-2.6c0.3-0.9,0.4-1.9,0.3-2.9C243.3,302.5,241.3,287.7,235.3,274.8z"/>
<linearGradient id="SVGID_9_" gradientUnits="userSpaceOnUse" x1="232.0055" y1="89.9805" x2="257.1705" y2="89.9805" gradientTransform="matrix(1 0 0 -1 -18.92 354.7697)">
	<stop  offset="0" style="stop-color:#E5C5D5"/>
	<stop  offset="0.42" style="stop-color:#EAD4D1"/>
	<stop  offset="1" style="stop-color:#F0E9CB"/>
</linearGradient>
<path class="st11" d="M234.3,267.9c0.9-2,2.2-3.9,3.4-5.9c0.3-0.5,0.5-1,0.6-1.6c0.1-0.6-0.2-1.2-0.8-1.4c-1.1-0.4-2,1.1-3.2,1.4
	s-2-0.7-2.8-1.5c-3.3-3.3-7.3-6-11.6-7.8c-0.4-0.3-1-0.3-1.5-0.2c-0.5,0.2-0.6,1-0.1,1.2c-0.5,0-0.9-0.1-1.3-0.3
	c-0.4-0.2-1.1-0.2-1.2,0.2s0.4,1,0.2,1.6c-0.5,0-1-0.1-1.5-0.2c-0.5-0.1-1.2,0.1-1.3,0.6c0,0.2,0,0.4,0.1,0.6c0.1,0.8,0.1,1.6,0,2.4
	c0,2.1,1.3,4,2.5,5.6c2.6,3.6,5.5,7,7.6,11c0.5,1.3,1.3,2.4,2.1,3.5c1.2,1.3,5.8,3.2,7,0.9c0.6-1.1,0.1-3.5,0.3-4.7
	C233,271.3,233.5,269.5,234.3,267.9z"/>
<linearGradient id="SVGID_10_" gradientUnits="userSpaceOnUse" x1="283.0865" y1="69.7562" x2="305.5265" y2="-15.6138" gradientTransform="matrix(1 0 0 -1 -18.92 354.7697)">
	<stop  offset="0" style="stop-color:#000000;stop-opacity:0"/>
	<stop  offset="0.99" style="stop-color:#000000"/>
</linearGradient>
<path class="st12" d="M296.3,299.6c0.4,1.9,0.5,4.2-0.8,5.7s-3.6,1.9-5.7,2c-10,0.5-20.3-1.2-30,1.1c-1.4,0.2-2.7,0.9-3.7,1.9
	c-1,1.4-0.9,3.2-0.7,4.9l0.8,7.2l-9.8-1.8c-1,0-1.9-0.9-1.8-2c0,0,0-0.1,0-0.1c-0.8-3.7-1.1-7.6-1-11.4c0.1-3.8,1.6-7.5,4.2-10.3
	c2.4-2.3,5.5-3.5,8.7-4.5c7.5-2.1,15.4-2.8,23.3-3.4c3.4-0.3,9-1,11.9,1.3C294.3,292.1,295.7,296.8,296.3,299.6z"/>
<path class="st2" d="M388.8,295.5c-1,1.6-3.3,1.7-5.2,1.7c-8.4,0-16.7,1-24.9,2.7c-3,0.5-5.9,1.5-8.6,3c-2.7,1.5-4.7,4-5.5,7
	c-0.6,3,0.7,6.5,3.4,7.8c1.7,0.7,3.5,0.9,5.4,0.8l54.5-0.6c1.2,0.1,2.5-0.1,3.7-0.5c2.7-1.2,3.9-4.6,3.7-7.5
	c-1.9-35.3-19.6-45.4-22.5-44.9c-2.4,0.4-2.8,18.6-3.4,21.2C388.4,289.1,390.7,292.6,388.8,295.5z"/>
<linearGradient id="SVGID_11_" gradientUnits="userSpaceOnUse" x1="341.42" y1="38.7807" x2="368.53" y2="38.7807" gradientTransform="matrix(1 0 0 -1 -18.92 354.7697)">
	<stop  offset="0" style="stop-color:#867580"/>
	<stop  offset="0.57" style="stop-color:#9B8F8E"/>
</linearGradient>
<path class="st13" d="M341.7,310.6c-2.2-0.3-4.5-0.2-6.6,0.4c-4.4,1-8.4,3.2-11.6,6.4c-0.4,0.3-0.7,0.7-0.9,1.2
	c-0.2,1.1,0.4,2.2,1.4,2.6c1,0.4,2.2,0.5,3.3,0.3l10.2-0.7c1.5,0,3-0.3,4.4-0.8c1.7-0.8,3.1-2.2,5-2.3c0.5,0,1.1,0,1.6-0.1
	c1.6-0.6,1.2-3.2,0.3-4.2C347.4,311.8,343.7,310.9,341.7,310.6z"/>
<linearGradient id="SVGID_12_" gradientUnits="userSpaceOnUse" x1="51.8006" y1="115.4136" x2="95.32" y2="115.4136" gradientTransform="matrix(1 0 0 -1 -18.92 354.7697)">
	<stop  offset="0" style="stop-color:#E5C5D5"/>
	<stop  offset="0.42" style="stop-color:#EAD4D1"/>
	<stop  offset="1" style="stop-color:#F0E9CB"/>
</linearGradient>
<path class="st14" d="M76.4,244c0,9.1-3.2,19.2-11.4,23.1c-5.9,2.8-13.2,1.5-18.5-2.3s-8.9-9.5-11.1-15.7
	c-2.5-7.1-3.4-14.9-1.3-22.1c2.1-7.2,7.5-13.6,14.7-15.9C68.7,204.9,76.4,229,76.4,244z"/>
<path class="st0" d="M47.2,224.3c0.7-0.2,1.4-0.4,2-0.8c1.2-0.7,1.8-2.1,2.8-3c1.2-0.8,2.5-1.3,3.9-1.4c3.6-0.9,7.1-2.4,10.2-4.5
	c3-2.1,5.8-5.6,4.6-9c-0.5-1.2-1.3-2.3-2.3-3.1c-3.2-2.6-7.4-3.5-11.3-2.4c-5.3,1.5-9,6.2-13.5,9.5c-5.3,3.8-12.3,6.2-14.7,12.2
	c-1.3,3.3-0.9,7.1-2.4,10.3c-0.7,1.5-1.9,3.1-1.4,4.7c0.4,1.4,2.1,2.4,2.2,3.9c0,0.7-0.3,1.4-0.6,2.1c-1.3,3.3-0.6,7.1,1,10.2
	c1.8,3.1,4,5.8,6.6,8.2c3,3,6.9,6.3,11.1,5.5c0.2,0,0.5-0.1,0.7-0.3c0.9-0.6,0-2-0.8-2.7c-2.9-2.8-5-6.2-6.2-10
	c-0.2-0.5-0.2-0.9-0.1-1.4c0.3-0.7,1.2-1.1,1.9-0.9c0.7,0.2,1.4,0.7,2,1.2c0.8-0.8,1-2.1,0.4-3.1c-1.3-2.5-3.6-4-4.8-6.7
	c-1-2.1-1.4-4.4-1.1-6.7C38.4,230.9,42,226,47.2,224.3z"/>
<linearGradient id="SVGID_13_" gradientUnits="userSpaceOnUse" x1="84.5274" y1="84.2235" x2="104.193" y2="84.2235" gradientTransform="matrix(1 0 0 -1 -18.92 354.7697)">
	<stop  offset="0" style="stop-color:#E5C5D5"/>
	<stop  offset="0.42" style="stop-color:#EAD4D1"/>
	<stop  offset="1" style="stop-color:#F0E9CB"/>
</linearGradient>
<path class="st15" d="M74.6,258.5c-2.7-0.2-5.3,0.6-7.4,2.3c-0.9,0.7-1.9,1.7-1.6,2.8c0.5,0.9,1.4,1.5,2.5,1.4c1-0.1,2,0,3,0.2
	c-1.8,2.4-3,5.2-3.5,8.2c-0.4,2.9,0,6.3,2.4,8c1.7,1,3.8,1.4,5.8,1.1c1.6-0.1,3.2-0.5,4.6-1.2c3.1-1.8,5-5.2,4.8-8.8
	c-0.1-3.4-1.8-6.3-4.1-8.8C79.2,261.6,77.8,258.9,74.6,258.5z"/>
<linearGradient id="SVGID_14_" gradientUnits="userSpaceOnUse" x1="280.006" y1="102.9784" x2="320.0153" y2="102.9784" gradientTransform="matrix(1 0 0 -1 -18.92 354.7697)">
	<stop  offset="0" style="stop-color:#E5C5D5"/>
	<stop  offset="0.42" style="stop-color:#EAD4D1"/>
	<stop  offset="1" style="stop-color:#F0E9CB"/>
</linearGradient>
<path class="st16" d="M263.7,244.4c-1.2,2.2-2,4.5-2.5,6.9c-0.6,4.4,0.9,8.9,4.2,11.9c2.3,2.2,5.5,3.8,6.5,6.9
	c0.9,2.8-0.3,6,0.9,8.7s4.4,3.8,7.2,3.3c2.8-0.7,5.2-2.5,6.7-5c1.5-2.5,2.7-5.1,3.6-7.8c1.5-3.5,3.2-6.9,5.1-10.2
	c1.5-2.2,2.7-4.6,3.9-7c1.1-2.9,1.7-6,1.7-9.1c0.1-7.2-2.5-14.7-8.2-18.9c-5.4-3.9-12.8-3.8-18.1,0.2c-2.7,2-3.6,4.7-5,7.6
	C267.7,236.1,265.7,240.2,263.7,244.4z"/>
<path class="st17" d="M276.3,208c-1-0.9-2.4-2-3.5-1.3c-0.4,0.3-0.7,0.7-0.9,1.2c-0.7,1.8-0.8,3.7-0.3,5.6c-1.1-0.5-2.4-0.7-3.6-0.3
	c-1.8,0.8-2.1,3.3-1.5,5.2s1.7,3.6,1.7,5.6c0,1-0.3,2-0.3,3.1c-0.1,1,0.4,2.1,1.3,2.6c1.2,0.6,2.5-0.4,3.7-1.2
	c5.9-4,15-2.1,18.9,3.9s2.4,13.8,0.9,20.8c0.4,0.6,1.1-0.3,1.6-0.9c1-1.1,3.2-0.2,3.5,1.3c0.1,1.6-0.6,3.1-1.9,3.9
	c-1.2,0.9-2.7,1.4-4,2.2c-0.4,0.2-0.6,0.5-0.8,0.9c0,0.3,0,0.7,0.2,1c0.4,0.9,0.9,1.9,1.4,2.8c0.3,0.8,1,1.4,1.8,1.6
	c0.6,0,1.2-0.1,1.7-0.4c4.1-2,6.9-5.9,9.2-9.9c2.3-3.9,4.1-8.6,1.9-12.4c-0.4-0.8-1-1.4-1.4-2.2c-0.6-1.5-1-3-1.1-4.6
	c-1.1-7.3-4.7-13.9-10.1-18.9c-2.5-2.4-5.3-4.4-8.7-5C281.9,211.7,279.2,210.9,276.3,208z"/>
<linearGradient id="SVGID_15_" gradientUnits="userSpaceOnUse" x1="370.0333" y1="122.5882" x2="406.2633" y2="122.5882" gradientTransform="matrix(1 0 0 -1 -18.92 354.7697)">
	<stop  offset="0" style="stop-color:#867580"/>
	<stop  offset="0.57" style="stop-color:#9B8F8E"/>
</linearGradient>
<path class="st18" d="M351.2,241.8c-0.3,3.7,0.3,8,3.4,10.1c2.2,1.5,5.1,1.5,7.8,1.3c3.8-0.1,7.6-0.3,11-2
	c5.1-2.5,8.2-7.9,10.5-13.1c1.8-3.6,2.9-7.4,3.4-11.4c0.3-4-0.7-8.2-3.4-11.1c-1.7-1.7-3.9-3-6.3-3.7
	C361,206.5,352.2,228.9,351.2,241.8z"/>
<path class="st0" d="M362.2,206.4c0.1-1.3,0.4-2.7,1.1-3.8c0.8-1.2,2-2,3.4-2.4c4.2-1.3,8.6,0.6,12.5,2.6l10.2,5
	c3.9,1.3,6.9,4.3,8.2,8.2c0.6,1.2,1,2.6,1.2,4c0,1.8-0.4,3.7-1.3,5.3c-0.5,1.4-1.5,2.7-2.7,3.6c1,0.5,1.4,1.9,1.2,3
	c-0.3,2-1.2,3.9-2.7,5.4c-1.4,1.4-3,2.7-4.8,3.8l-3.3,2.3c-0.6,0.4-1.3,0.8-2,0.5c-0.5-0.3-0.8-0.8-0.7-1.4c0.1-0.5,0.2-1.1,0.4-1.6
	c1.7-4.3,2.5-9,2.2-13.6c0-0.8-0.2-1.6-0.5-2.4c-0.4-0.6-0.8-1.2-1.4-1.7l-4.8-4.8c-1.2-1.3-2.5-2.4-4-3.4c-2.8-1.6-6.3-1.8-9.3-0.5
	c-0.7,0.3-1.8,1.1-2.6,0.9c-1-0.3-0.7-1.2-0.8-2.2C361.9,210.9,361.9,208.6,362.2,206.4z"/>
<linearGradient id="SVGID_16_" gradientUnits="userSpaceOnUse" x1="399.2" y1="112.4456" x2="406.61" y2="112.4456" gradientTransform="matrix(1 0 0 -1 -18.92 354.7697)">
	<stop  offset="0" style="stop-color:#867580"/>
	<stop  offset="0.57" style="stop-color:#9B8F8E"/>
</linearGradient>
<path class="st19" d="M387.6,240.3c0.2,1.2-0.2,2.5-1,3.5c-0.8,1.1-1.9,1.9-3.1,2.5c-0.6,0.3-1.2,0.4-1.8,0.2
	c-0.8-0.4-1.4-1.3-1.3-2.3c-0.1-2.1,0.9-4.2,2.7-5.4C384.7,237.6,387.2,237.9,387.6,240.3z"/>
<path class="st0" d="M350.8,234.8c1-0.3,1.9-0.5,3-0.6c0.7-0.1,1.3-0.1,2,0c0.8,0.2,1.6,0.5,2.4,0.9c2,0.9,4.2,2,5.1,4
	c0.3,0.7,0.5,1.4,0.9,2c0.9,1.1,2,1.8,3.3,2.2c1.1,0.4,1.2,1.9,2.1,2.6c1.1,0.8,2.6,0.5,3.9-0.1c1.4-0.7,2.6-1.6,3.5-2.8
	c0.6-0.9,1.3-1.7,2.2-2.3c0.9-0.6,2.2-0.3,2.8,0.6c0.2,0.7,0.1,1.5-0.3,2.1c-1.5,3-3.5,5.6-5.9,7.9c-0.8,0.8-1.7,1.5-2.6,2
	c-1.5,0.7-3.1,1.1-4.7,1.3c-3.2,0.5-6.5,0.7-9.7,0.8c-1.9,0.1-3.8-0.1-5.6-0.8c-0.5-0.2-1.1-0.5-1.5-0.9c-1.1-1.1-1.8-2.6-2-4.1
	C348.4,244.1,349.1,239.8,350.8,234.8z"/>
<linearGradient id="SVGID_17_" gradientUnits="userSpaceOnUse" x1="371.87" y1="111.1248" x2="380.1071" y2="111.1248" gradientTransform="matrix(1 0 0 -1 -18.92 354.7697)">
	<stop  offset="0" style="stop-color:#867580"/>
	<stop  offset="0.57" style="stop-color:#9B8F8E"/>
</linearGradient>
<path class="st20" d="M361.2,245.9c0.1,0.6-0.1,1.2-0.4,1.8c-0.6,1-2.1,1.2-3.3,1c-1.1-0.2-2.2-0.5-3.2-1c-0.4-0.2-0.7-0.5-1-0.8
	c-0.4-0.6-0.5-1.3-0.4-2c0-1,0.1-2,0.2-2.9c0.1-0.7,0.2-1.4,0.5-2.1c0.5-1,1.2-1.7,2.3-1.3c1,0.4,1.8,1,2.6,1.7
	C360.1,241.8,361,243.8,361.2,245.9z"/>
<linearGradient id="SVGID_18_" gradientUnits="userSpaceOnUse" x1="191.17" y1="78.2331" x2="205.11" y2="78.2331" gradientTransform="matrix(1 0 0 -1 -18.92 354.7697)">
	<stop  offset="0" style="stop-color:#E5C5D5"/>
	<stop  offset="0.42" style="stop-color:#EAD4D1"/>
	<stop  offset="1" style="stop-color:#F0E9CB"/>
</linearGradient>
<path class="st21" d="M172.8,278.1c0.8-2.7,2-5.2,3.6-7.5l5.3-8.5c0.1-0.3,0.4-0.5,0.7-0.7c0.4-0.1,0.7,0,1,0.2
	c2.5,1.5,3.1,4.9,2.8,7.8s-1.3,5.7-1,8.6c0.3,1.6,0.6,3.1,0.7,4.7c-0.1,2.4-1.2,4.6-3.1,6.1c-2.3,1.9-7.3,4.5-9.2,1.1
	C171.9,287,172.1,281.2,172.8,278.1z"/>
<path class="st2" d="M178.4,286.9c-2.6,0.7-5.3,2-6.4,4.4c-0.5,1.2-0.7,2.5-0.7,3.8c-0.4,6.8-0.5,13.6-0.4,20.3
	c-0.1,1.4,0.2,2.8,0.9,3.9c1,1.3,2.8,1.6,4.4,1.7c3.1,0.1,6.1-0.5,9-1.6c0.9-0.3,1.7-0.9,2.2-1.7c0.3-0.7,0.4-1.4,0.3-2.2
	c-0.4-6.7-1.9-13.5-2-20.2C185.6,290.6,184.8,285.1,178.4,286.9z"/>
<linearGradient id="SVGID_19_" gradientUnits="userSpaceOnUse" x1="177.067" y1="33.3991" x2="204.205" y2="33.3991" gradientTransform="matrix(1 0 0 -1 -18.92 354.7697)">
	<stop  offset="0" style="stop-color:#E5C5D5"/>
	<stop  offset="0.42" style="stop-color:#EAD4D1"/>
	<stop  offset="1" style="stop-color:#F0E9CB"/>
</linearGradient>
<path class="st22" d="M160.1,317c-0.4,0-0.8,0.1-1.1,0.3c-0.4,0.4-0.6,0.8-0.6,1.3c-0.4,1.8-0.5,4.1,0.9,5.3
	c0.7,0.5,1.6,0.8,2.4,0.9c2.1,0.4,4.3,0.8,6.4,1.1c0.7,0.2,1.4,0.1,2.1-0.1c0.5-0.3,1-0.6,1.4-1c0.8-0.4,1.8-0.5,2.7-0.3
	c2.3,0.2,4.6,0.5,6.9,1c0.8,0.2,1.6,0.2,2.4,0.1c0.8-0.1,1.5-0.7,1.7-1.4c0.3-1.1-0.8-2.2-1.8-2.8
	C176.3,316.7,168.3,316.4,160.1,317z"/>
<linearGradient id="SVGID_20_" gradientUnits="userSpaceOnUse" x1="169.3563" y1="76.8863" x2="183.6063" y2="76.8863" gradientTransform="matrix(1 0 0 -1 -18.92 354.7697)">
	<stop  offset="0" style="stop-color:#E5C5D5"/>
	<stop  offset="0.42" style="stop-color:#EAD4D1"/>
	<stop  offset="1" style="stop-color:#F0E9CB"/>
</linearGradient>
<path class="st23" d="M152.1,284.9c1.6,1.8,6.8,3.4,8.9,2.3c1.4-0.7,1.5-4.5,2.1-6c0.5-1.1,0.8-2.3,1.1-3.5c0.5-1.7,0.6-3.4,0.3-5.2
	c-0.3-1.8-1.6-3.2-3.4-3.6c-1.6-0.3-11.6-1.4-10.6,0C154.4,274.6,148.4,280.8,152.1,284.9z"/>
<linearGradient id="SVGID_21_" gradientUnits="userSpaceOnUse" x1="171.7985" y1="68.7907" x2="187.8585" y2="93.6007" gradientTransform="matrix(1 0 0 -1 -18.92 354.7697)">
	<stop  offset="0" style="stop-color:#000000;stop-opacity:0"/>
	<stop  offset="0.99" style="stop-color:#000000"/>
</linearGradient>
<path class="st24" d="M155.4,278.8c0.5,1.4,1.1,2.7,1.8,3.9c0.8,1.2,2.1,2,3.5,2.3c0.3,0,0.7,0,1-0.1c0.9-0.4,1.1-1.6,1.3-2.5
	l0.7-5.3c0.1-0.4,0.1-0.8-0.1-1.2c-0.2-0.3-0.4-0.6-0.8-0.8c-0.8-0.6-1.5-1.1-2.4-1.6c-1.7-1-3.9-2.1-5.9-1.7
	c-0.7,0.1-1.3,0.6-1.5,1.2c-0.3,0.9,0.4,1.8,0.8,2.5C154.4,276.5,154.9,277.6,155.4,278.8z"/>
<linearGradient id="SVGID_22_" gradientUnits="userSpaceOnUse" x1="161.6239" y1="97.9571" x2="194.6475" y2="97.9571" gradientTransform="matrix(1 0 0 -1 -18.92 354.7697)">
	<stop  offset="0" style="stop-color:#E5C5D5"/>
	<stop  offset="0.42" style="stop-color:#EAD4D1"/>
	<stop  offset="1" style="stop-color:#F0E9CB"/>
</linearGradient>
<path class="st25" d="M173.8,247.4c0,0,4.8,19.5-0.6,26.2s-14.2,6.6-17.7,2.8s-16.5-20-11.7-29.8
	C148.6,236.8,167.4,225.1,173.8,247.4z"/>
<path class="st0" d="M153.7,241.9c-0.4,2.3-0.1,4.6-0.9,6.8c-1.4,3.7-5.8,5.7-7.2,9.4c-0.4,0.9-0.5,1.9-0.9,2.7
	c-0.4,0.9-1.2,1.6-2.1,1.8c-1,0-1.9-0.5-2.3-1.4c-0.4-0.9-0.7-1.8-0.7-2.8c-0.6-6.4,0.1-13.2,3.7-18.6c2.8-4.2,7.3-6.9,12.4-7.4
	c3-0.2,4,0.5,1.9,2.7C155.7,237.1,154.2,239,153.7,241.9z"/>
<linearGradient id="SVGID_23_" gradientUnits="userSpaceOnUse" x1="162.51" y1="87.5146" x2="169.03" y2="87.5146" gradientTransform="matrix(1 0 0 -1 -18.92 354.7697)">
	<stop  offset="0" style="stop-color:#E5C5D5"/>
	<stop  offset="0.42" style="stop-color:#EAD4D1"/>
	<stop  offset="1" style="stop-color:#F0E9CB"/>
</linearGradient>
<path class="st26" d="M145.1,264.8c-0.2,0-0.5,0.1-0.7,0.2c-0.1,0.1-0.2,0.2-0.3,0.4c-0.4,0.6-0.6,1.3-0.5,2.1
	c0.3,1.1,1.3,1.9,2.4,2.1c1.2,0.3,2.5,0.3,3.7-0.1c0.1,0,0.2-0.1,0.3-0.2c0.1-0.2,0.1-0.5,0-0.7c-0.5-1.1-1.1-2.1-1.9-2.9
	C147.4,264.9,146.2,264.5,145.1,264.8z"/>
<linearGradient id="SVGID_24_" gradientUnits="userSpaceOnUse" x1="253.1611" y1="38.0892" x2="274.5951" y2="38.0892" gradientTransform="matrix(1 0 0 -1 -18.92 354.7697)">
	<stop  offset="0" style="stop-color:#E5C5D5"/>
	<stop  offset="0.42" style="stop-color:#EAD4D1"/>
	<stop  offset="1" style="stop-color:#F0E9CB"/>
</linearGradient>
<path class="st27" d="M234.9,319.6c-0.5,0.7-1,1.7-0.4,2.3c0.4,0.3,0.9,0.4,1.4,0.3l17.9-1.1c0.3,0,0.6-0.1,0.9-0.2
	c0.9-0.4,1-1.6,0.9-2.6c-0.1-1.5-0.2-3.1-0.3-4.6s0.2-2.2-1.4-2.4c-2.2-0.3-5.1,0.4-7.2,1C242.2,313.4,238,316,234.9,319.6z"/>
<path class="st28" d="M200.8,99.6c-6-9.2-6.8-22.5,0.6-30.7c3.5-3.7,8.1-6.2,13.1-7.1c8.7-1.8,18.7,0.7,24,7.8
	c3.2,4.4,4.6,9.8,4.2,15.1c-0.5,5.4-2.2,10.5-5,15.1c-1.6,2.7-3.5,5.3-4.2,8.3c-0.4,2-0.4,4-0.8,6c-1.2,5.7-5.9,9.9-11.7,10.6
	c-5,0.4-12-2.9-13-8.2c-0.5-2.9,0-5.2-1.4-8.1C205.1,105.2,202.7,102.5,200.8,99.6z"/>
<path class="st29" d="M211.3,118.1c1.1-5.5,0-11.2-0.7-16.8c-0.3-1.8-0.3-3.7,0.2-5.6c0.6-1.8,2.3-3.3,4.2-3.1
	c2.1,0.2,3.5,2.3,4.2,4.3c0.8,2.5,1.1,5.1,0.8,7.7c-0.2,1.4-0.7,2.9-2,3.4c-2.5-3.7-1.8-8.6,1.6-11.4c0.7-0.6,1.6-0.9,2.5-0.9
	c1.5,0.2,2.4,1.7,2.8,3.1c0.4,1.6,0.4,3.4-0.1,5c-0.1,0.5-0.4,0.9-0.7,1.2c-0.4,0.3-1,0.3-1.3-0.1c-0.1-0.2-0.2-0.5-0.2-0.8
	c-0.2-3.1,0-6.6,2.2-8.8c0.3-0.4,0.8-0.7,1.3-0.8c0.4,0,0.8,0.1,1.2,0.3c2.1,1.2,2.7,3.9,2.4,6.3s-1.6,4.5-2.4,6.7
	c-1.4,3.6-2,7.4-1.8,11.2"/>
<path class="st0" d="M205.7,121.5c-0.2,0.4-0.6,0.7-0.8,1c-0.7,1.2-0.3,2.8,0.1,4.1c0.9,2.6,1.9,5.5,4.1,7.2
	c1.6,1.1,3.4,1.7,5.3,1.9c3.7,0.6,7.4,0.5,11.1-0.2c1.7-0.3,3.3-0.8,4.7-1.7c1.5-0.9,2.5-2.3,2.9-3.9c0.1-0.5,0.1-1,0.3-1.5
	c0.1-0.4,0.4-0.8,0.6-1.2c0.4-1,0.4-2,0-3c-0.3-0.6-0.6-1.2-0.8-1.8c-0.1-0.6,0-1.2,0.1-1.8c0.3-2.3-0.1-4.7-1.4-6.6
	c-3,2.5-6.6,4.2-10.4,4.8c-3.6,0.6-7.4-0.2-10.5-2.1c-1.3-0.8-2.7-2.4-3.9-0.5C206.1,117.7,206.7,119.9,205.7,121.5z"/>
</svg>
