<?xml version="1.0" encoding="utf-8"?>
<!-- Generator: Adobe Illustrator 24.0.1, SVG Export Plug-In . SVG Version: 6.00 Build 0)  -->
<svg version="1.1" id="Layer_1" xmlns="http://www.w3.org/2000/svg" xmlns:xlink="http://www.w3.org/1999/xlink" x="0px" y="0px"
	 viewBox="0 0 374.5 371.9" style="enable-background:new 0 0 374.5 371.9;" xml:space="preserve">
<style type="text/css">
	.st0{fill:url(#SVGID_1_);}
	.st1{fill:url(#SVGID_2_);}
	.st2{fill:#F5BBB9;}
	.st3{fill:#EE4A23;}
	.st4{fill:url(#SVGID_3_);}
	.st5{fill:#2E2E3F;}
	.st6{fill:url(#SVGID_4_);}
	.st7{fill:url(#SVGID_5_);}
	.st8{fill:url(#SVGID_6_);}
	.st9{fill:url(#SVGID_7_);}
	.st10{opacity:0.69;fill:url(#SVGID_8_);enable-background:new    ;}
	.st11{fill:none;stroke:#FFFFFF;stroke-width:0.79;stroke-miterlimit:10;}
	.st12{fill:url(#SVGID_9_);}
	.st13{fill:url(#SVGID_10_);}
</style>
<title>Thinking</title>
<radialGradient id="SVGID_1_" cx="250.59" cy="299.3598" r="42.55" gradientTransform="matrix(1 0 0 -1 0 371.8898)" gradientUnits="userSpaceOnUse">
	<stop  offset="0" style="stop-color:#FFFFFF"/>
	<stop  offset="1" style="stop-color:#FFFFFF;stop-opacity:0"/>
</radialGradient>
<circle class="st0" cx="250.6" cy="72.5" r="63.1"/>
<linearGradient id="SVGID_2_" gradientUnits="userSpaceOnUse" x1="188.7426" y1="222.8897" x2="183.4026" y2="-89.8503" gradientTransform="matrix(1 0 0 -1 0 371.8898)">
	<stop  offset="1.000000e-02" style="stop-color:#000000"/>
	<stop  offset="0.13" style="stop-color:#000000;stop-opacity:0.69"/>
	<stop  offset="1" style="stop-color:#000000;stop-opacity:0"/>
</linearGradient>
<ellipse class="st1" cx="186.1" cy="303.2" rx="145.2" ry="30.3"/>
<path class="st2" d="M250.2,304.9c0.3,1,0.8,1.9,1.6,2.6c0.7,0.5,1.5,0.9,2.4,1c3,0.5,7-2.5,6.6-4.2s0.2-7.4-0.1-9.1
	c-0.1-0.7-0.3-1.5-0.6-2.2c-0.9-1.5-3-1.7-4.8-1.5c-2.4,0.2-6.1,1-6.8,3.6C247.7,297.9,249.2,302.3,250.2,304.9z"/>
<path class="st3" d="M155.6,138.8c-3.3,2.5-4.4,7.2-3.4,11.3s3.4,7.6,6.1,10.8c6.8,8.2,14.9,15.3,24,21.1c3.3,2.1,6.8,4,10.7,4.4
	c4.4,0.5,8.7-1,12.8-2.4c1.9-0.5,3.8-1.4,5.4-2.6c1.6-1.5,2.9-3.3,3.6-5.3c2.1-4.9,3.2-10.2,3.3-15.6c0.3-7.1-1.2-7.2-3.7-13.8
	c-1.8-5-4.8-10.8-9.9-9.4c-13.7,3.8-9.7,18.4-9.7,25.1c-4.5-5.3-12.9-12.9-18.1-17.5C172.5,140.9,161.4,134.5,155.6,138.8z"/>
<linearGradient id="SVGID_3_" gradientUnits="userSpaceOnUse" x1="217.5244" y1="199.4262" x2="253.7544" y2="184.5762" gradientTransform="matrix(1 0 0 -1 -37.58 353.1598)">
	<stop  offset="1.000000e-02" style="stop-color:#000000"/>
	<stop  offset="0.13" style="stop-color:#000000;stop-opacity:0.69"/>
	<stop  offset="1" style="stop-color:#000000;stop-opacity:0"/>
</linearGradient>
<path class="st4" d="M155.6,138.8c-3.3,2.5-4.4,7.2-3.4,11.3s3.4,7.6,6.1,10.8c6.8,8.2,14.9,15.3,24,21.1c3.3,2.1,6.8,4,10.7,4.4
	c4.4,0.5,8.7-1,12.8-2.4c1.9-0.5,3.8-1.4,5.4-2.6c1.6-1.5,2.9-3.3,3.6-5.3c2.1-4.9,3.2-10.2,3.3-15.6c0.3-7.1-1.2-7.2-3.7-13.8
	c-1.8-5-4.8-10.8-9.9-9.4c-13.7,3.8-9.7,18.4-9.7,25.1c-4.5-5.3-12.9-12.9-18.1-17.5C172.5,140.9,161.4,134.5,155.6,138.8z"/>
<path class="st2" d="M198.6,117.2c-1.3,2.5-0.1,5.7-1.3,8.2c-0.8,1.3-1.9,2.3-3.4,2.9c-2.5,1.1-5.3,1.2-7.7,2.4
	c-2.1,1-3.8,2.8-4.8,5c-0.9,2.2-1.1,4.8-2.9,6.5c-2.1,2-5.4,1.6-8.2,0.8c-1.9-0.5-3.9-1.3-4.9-3c-0.6-1.1-0.9-2.4-0.8-3.7
	c0-3.1,0.9-6.1,1.5-9c0.9-4.3,1.1-8.7,2.1-13s2.8-8.5,6.2-11.4s10.6-10.3,14.8-9.6c4,0.7,4.9,9.6,7.1,13c0.8,1.3,1.4,2.6,2,4
	C199.7,113.2,200.1,114.3,198.6,117.2z"/>
<path class="st5" d="M192.2,94.8c-0.8,2.7-3.4,4.3-5.8,5.7s-4.9,3.2-5.6,5.9c-0.4,1.7,0,3.5-1,5c-0.3-0.7-0.8-1.4-1.3-2
	c-0.6-0.6-1.5-0.8-2.2-0.5c-0.8,0.4-1.3,1.3-1.3,2.2c0,2,1.5,3.7,3.5,4.1c-1.2,1.7-1.9,3.6-2.2,5.6c-0.3,2.1-0.1,4.4-1.5,6
	c-1.5,1.7-4,1.9-5.7,0.6c-0.3,0.7-0.8,1.3-1.4,1.6c-1.7-0.9-1.6-3.2-2-5.1c-0.8-5-5.5-8.5-7.1-13.3c-0.7-2.6-0.9-5.3-0.5-8
	c0-2.6,0.6-5.1,1.5-7.4c1.7-3.2,4.5-5.8,7.9-7.1c3.1-1.2,6.3-2.1,9.5-2.6c2.7-0.6,5.4-1.1,8.2-1.3C190.1,83.9,193.5,90.3,192.2,94.8
	z"/>
<path class="st5" d="M238.5,204.9c1,0,2,0.1,3,0.5c0.9,0.4,1.6,0.9,2.3,1.6c7.6,7.2,10,18.2,11.9,28.5c3.2,17.3,6.5,34.6,6.9,52.2
	c0.1,3.5,1.5,6.6-0.1,9.7s-9.1,3.4-12.3,2.2s-2.5-2.4-3.8-5.7c-2.7-6.5-6.5-12.5-10.3-18.5l-13.8-21.8c-2.2-3.5-4.5-7.1-7.9-9.4
	c-4.7-3.3-10.8-3.8-16.5-4.8s-11.9-3.3-14.5-8.4c-4.7-9.3,1.5-21.9,11.5-23.1C209.5,205.8,223.8,204.3,238.5,204.9z"/>
<linearGradient id="SVGID_4_" gradientUnits="userSpaceOnUse" x1="255.3558" y1="127.6279" x2="294.3958" y2="40.2779" gradientTransform="matrix(1 0 0 -1 -37.58 353.1598)">
	<stop  offset="1.000000e-02" style="stop-color:#000000"/>
	<stop  offset="0.13" style="stop-color:#000000;stop-opacity:0.69"/>
	<stop  offset="1" style="stop-color:#000000;stop-opacity:0"/>
</linearGradient>
<path class="st6" d="M238.5,204.9c1,0,2,0.1,3,0.5c0.9,0.4,1.6,0.9,2.3,1.6c7.6,7.2,10,18.2,11.9,28.5c3.2,17.3,6.5,34.6,6.9,52.2
	c0.1,3.5,0.8,6.5-0.9,9.5s-6.7,3.8-10,2.7s-4.1-2.7-5.4-6c-2.7-6.5-6.5-12.5-10.3-18.5l-13.8-21.8c-2.2-3.5-4.5-7.1-7.9-9.4
	c-4.7-3.3-10.8-3.8-16.5-4.8s-11.9-3.3-14.5-8.4c-4.7-9.3,1.5-21.9,11.5-23.1C209.5,205.8,223.8,204.3,238.5,204.9z"/>
<path class="st2" d="M254.7,261.5c0.1,1.1,0.5,2.2,1,3.1c1.4,2.4,4.4,3.4,7.1,3.4c1.2,0.1,2.4-0.2,3.4-0.7c1.2-0.8,2.1-2,2.4-3.5
	c0.3-1.4,0.4-2.9,0.2-4.3c-0.2-3.1-0.6-6.1-1.1-9.2c-0.1-0.5-0.2-0.9-0.5-1.3c-0.6-0.8-1.8-0.5-2.8-0.2c-2.4,0.7-8.2,1.3-9.9,3.2
	C252.6,254.2,254.7,259,254.7,261.5z"/>
<path class="st5" d="M267.8,263.5c-1.2,0.4-2.4,0.8-3.6,1.4c-1.6,0.5-3.2,0.7-4.8,0.4c-1.8-0.3-3.9-0.9-5,0.5
	c-0.6,1-0.7,2.1-0.4,3.2c0.4,2.1,1,4.2,1.8,6.2c0.2,0.7,0.6,1.4,1.1,2c1.2,1.3,3.2,1.5,5,1.6c6.4,0.4,12.8,0.4,19.1,0
	c1.9-0.1,4.3-0.7,4.7-2.6c0.1-1-0.2-2.1-0.8-2.9c-1.9-3-4.9-5-8-6.6C274.1,265.3,271,262.8,267.8,263.5z"/>
<path class="st5" d="M260.2,302.9c-1,0.3-2.1,0.7-3.1,1.1c-1.3,0.5-2.7,0.6-4.1,0.4c-1.5-0.2-3.3-0.8-4.3,0.4
	c-0.5,0.8-0.6,1.8-0.3,2.8c0.3,1.8,0.8,3.6,1.5,5.3c0.2,0.6,0.5,1.2,0.9,1.7c1,1.1,2.7,1.3,4.2,1.3c5.4,0.3,10.9,0.3,16.3,0
	c1.6-0.1,3.6-0.6,4-2.2c0.1-0.9-0.1-1.8-0.7-2.5c-1.7-2.5-4.1-4.4-6.8-5.6C265.6,304.5,262.9,302.4,260.2,302.9z"/>
<path class="st3" d="M164,132.3c-7.4,3.1-12.7,9.7-16.7,16.6c-9.7,16.7-13.6,36-17.4,54.9c-0.8,3.9-1.6,7.9-1.3,11.9
	c0.1,1.7,0.5,3.3,1.1,4.9c2.5,5.8,9,8.9,15.3,9.3c5.6,0.4,11.1-1,16.6-1.8c4.6-0.7,9.4-0.9,13.9-2s9-3.3,11.8-7.1
	c3.3-4.3,3.8-10.1,4.3-15.5l2.5-29.3c0.8-8.8,1.4-18-2-26.1c-2.4-5.5-6.5-10-11.7-13C175.6,132.3,169.4,129.9,164,132.3z"/>
<linearGradient id="SVGID_5_" gradientUnits="userSpaceOnUse" x1="162.8223" y1="151.4251" x2="224.3023" y2="182.1651" gradientTransform="matrix(1 0 0 -1 -37.58 353.1598)">
	<stop  offset="1.000000e-02" style="stop-color:#000000"/>
	<stop  offset="0.13" style="stop-color:#000000;stop-opacity:0.69"/>
	<stop  offset="1" style="stop-color:#000000;stop-opacity:0"/>
</linearGradient>
<path class="st7" d="M194.3,174.2l-0.5,5.9c-0.7,7.8-1.3,15.6-2,23.4c-0.4,4-0.8,8.1-2.2,11.7c-0.5,1.3-1.2,2.6-2.1,3.7
	c-2.8,3.7-7.3,5.9-11.8,7.1s-9.3,1.4-13.9,2c-5.5,0.8-11.1,2.2-16.6,1.8c-6.3-0.4-12.9-3.5-15.3-9.3c-0.6-1.6-1-3.2-1.1-4.9
	c-0.3-4,0.5-8,1.3-11.9c3.8-18.9,7.7-38.2,17.4-54.9c4-6.9,9.3-13.6,16.7-16.6c5.4-2.3,11.7,0.1,16.6,2.9c5.2,2.9,9.3,7.5,11.7,13
	C195.7,156.3,195,165.4,194.3,174.2z"/>
<linearGradient id="SVGID_6_" gradientUnits="userSpaceOnUse" x1="274.6775" y1="157.9076" x2="181.8975" y2="168.3076" gradientTransform="matrix(1 0 0 -1 -37.58 353.1598)">
	<stop  offset="1.000000e-02" style="stop-color:#000000"/>
	<stop  offset="0.13" style="stop-color:#000000;stop-opacity:0.69"/>
	<stop  offset="1" style="stop-color:#000000;stop-opacity:0"/>
</linearGradient>
<path class="st8" d="M194.1,171.6c-0.1,2.8-0.2,5.7-0.3,8.5c-0.7,7.8-1.3,15.6-2,23.4c-0.4,4-0.8,8.1-2.2,11.7
	c-2.7,2.6-6.7,3.5-10.5,4.2c-0.6,0.3-1.3,0-1.6-0.6c-0.1-0.2-0.2-0.5-0.1-0.8c-0.8-9.2,2.4-18.3,3-27.5c0.4-6.6-0.5-13.3-2.8-19.5
	c-1.3-3.5-8.8-13.7-0.3-13.4c1.8,0.2,3.5,0.8,5,1.9c3.6,2.2,7,4.8,10,7.8c0.7,0.6,1.2,1.3,1.5,2.1
	C194,170.2,194.1,170.9,194.1,171.6z"/>
<path class="st2" d="M195.4,130.6c-0.4-1-0.4-2.2,0.1-3.1c0.6-0.7,1.4-1.1,2.3-1.3c1.4-0.4,2.8-0.7,4.2-1c0.6-0.2,1.3-0.2,1.9-0.2
	c1.5,0.2,2.7,1.4,3.7,2.6c1.1,1.1,1.9,2.4,2.5,3.8c0.4,1.4,0.5,2.8,0.3,4.2l-0.1,3.2c0,0.6-0.1,1.2-0.3,1.8
	c-0.3,0.6-0.7,1.2-1.3,1.5c-1,0.7-2.2,1.1-3.5,1.2c-1.4,0.1-3.6,0.1-4.5-1.2c-0.6-0.8-0.4-2.2-0.8-3.2
	C198.8,136,196.4,133.6,195.4,130.6z"/>
<path class="st5" d="M131.8,223.9h-0.4l0.2-1.4c-1.6,14.1,3.1,31.1,18.2,35.3c13,3.6,25.5,3.7,38-0.5c10.2-3.4,19.8-10.1,27.7-17.4
	c6.8-6.2,12.1-14,19.1-20c1.6,2.6,4,4.3,5.8,6.8c2.2,3,2.5,6.3,3.7,9.7c1.3,3.6,3.6,6.7,5.1,10.2c3.1,7,4.5,10.3,12.5,10.3
	c2.7,0,3.9,0.5,5.7-1.5c2.9-3.3,1.8-12.5,1.6-16.5c-0.7-13.9-2.8-28.4-7.6-41.5c-2.7-7.2-6-14.3-11.4-19.8
	c-7.3-7.4-15.6-4.4-23.5,0.3c-9.6,5.7-18.3,14.2-26.3,22.1c-3.3,3.3-5.4,6.2-9.4,8.8c-4.4,3-8.7,5.3-13.4,7.8
	C164.1,223.8,146.4,223.9,131.8,223.9z"/>
<path class="st3" d="M242.6,293.9c-0.1,1.4-0.4,2.7-0.7,4c-2.6,9.4-11.6,15.8-21.1,18s-19.3,1-28.9-0.3
	c-21.5-2.9-142.9-11.3-128.5-153.7c1.7-17.2,12.2-39.8,28.5-43.1c3.1-0.6,6.3-0.5,9.4,0.3c34.1,8.4,7.7,69.3,54.4,90.8
	c13.9,6.4,25.5,17.1,39.8,22.6c25.5,9.9,41,38.2,41,38.2C239.9,278,243.3,286,242.6,293.9z"/>
<path class="st2" d="M250.3,158.4c3.1,2.6,4,6.9,4.1,11c0.1,0.8-0.1,1.7-0.5,2.4c-0.3,0.4-0.7,0.7-1.1,0.9c-2.3,1.4-5,2.8-7.5,1.9
	c-2.2-0.7-3.6-3-5.8-3.9c-1.8-0.7-4-0.5-5.4-1.9c-0.6-0.6-1-1.4-1.2-2.3C230,155.8,243.5,152.8,250.3,158.4z"/>
<path class="st3" d="M203.6,153c1.1,1,2.3,1.7,3.6,2.3c1.4,0.4,3,0.5,4.4,0.3c8.6-0.7,17.4-3.5,25.8-1.2c1.2,0.2,2.3,0.9,3.2,1.7
	c0.7,1,1.1,2.2,1,3.4c0,6-4.9,11-10.3,13.8c-6.2,3.1-13.2,4.2-20.1,5.2c-4.7,0.7-9.4,1.4-14.1,0.9c-2.2-0.1-4.2-0.7-6.1-1.9
	c-40.6-29.4-26.5-33.8-23.7-42.2c1.4-4.4,19.6,4.4,23.8,7.8S199.4,149.7,203.6,153z"/>
<linearGradient id="SVGID_7_" gradientUnits="userSpaceOnUse" x1="106.7507" y1="47.3791" x2="239.1807" y2="180.5191" gradientTransform="matrix(1 0 0 -1 -37.58 353.1598)">
	<stop  offset="1.000000e-02" style="stop-color:#000000"/>
	<stop  offset="0.13" style="stop-color:#000000;stop-opacity:0.69"/>
	<stop  offset="1" style="stop-color:#000000;stop-opacity:0"/>
</linearGradient>
<path class="st9" d="M242.6,293.9c-0.1,1.4-0.4,2.7-0.7,4c-2.6,9.4-11.6,15.8-21.1,18s-19.3,1-28.9-0.3
	c-21.5-2.9-142.9-11.3-128.5-153.7c1.7-17.2,12.2-39.8,28.5-43.1c0.8,4.5-3.2,9.9-4.7,14.7c-4.8,15.7-5.8,32.4-2.8,48.6
	c1.7,9.2,4.6,18.2,8.8,26.6c5.7,11.4,13.5,21.6,21.7,31.5c6.1,7.4,12.5,14.8,20.8,19.7c7.4,4.5,16,6.7,24.4,8.5
	c11.2,2.4,22.5,4.2,33.9,5.3c15.4,1.5,32.3,2.3,43.5,13C239.7,288.7,241.5,291.1,242.6,293.9z"/>
<path class="st3" d="M270.8,56c0,3.3-0.8,6.6-2.4,9.6L260,86.9h-20.9l-7.9-22.4c-1.2-2.6-1.8-5.5-1.8-8.4
	c0.3-11.4,9.7-20.5,21.2-20.3C261.7,36,270.6,44.9,270.8,56L270.8,56z"/>
<radialGradient id="SVGID_8_" cx="287.705" cy="292.0798" r="23.3923" gradientTransform="matrix(1 0 0 -1 -37.58 353.1598)" gradientUnits="userSpaceOnUse">
	<stop  offset="0.34" style="stop-color:#FFFFFF"/>
	<stop  offset="1" style="stop-color:#FFFFFF;stop-opacity:0.39"/>
</radialGradient>
<path class="st10" d="M270.8,56c0,3.3-0.8,6.6-2.4,9.6L260,86.9h-20.9l-7.9-22.4c-1.2-2.6-1.8-5.5-1.8-8.4
	c0.3-11.4,9.7-20.5,21.2-20.3C261.7,36,270.6,44.9,270.8,56L270.8,56z"/>
<path class="st11" d="M246.7,87.2c-3-6.4-4.6-13.3-4.7-20.4c0-1.6,0.2-3.4,1.6-4.2c1.7-0.9,3.8,0.5,4.7,2.2c1.2,2.3,1.4,4.9,0.5,7.3
	c-1-1.5-1.6-3.2-1.6-5c-0.2-1.3-0.1-2.7,0.2-3.9c0.4-1.3,1.5-2.2,2.9-2.4c2-0.1,3.4,2.2,3.6,4.2c0.3,2.3-0.3,4.6-1.5,6.6
	c-0.9-2.6-0.3-5.6,1.6-7.6c0.6-0.7,1.4-1.2,2.3-1.4c0.9-0.2,1.9,0.1,2.5,0.9c0.3,0.4,0.5,1,0.5,1.5c0.5,3.8-0.8,7.7-2.5,11.2
	c-1.7,3.5-3.7,6.8-4.6,10.6"/>
<path class="st3" d="M239.9,86.6h18.8c1.3,0,2.3,1,2.3,2.3v6.5c0,1.3-1,2.3-2.3,2.3h-18.8c-1.3,0-2.3-1-2.3-2.3V89
	C237.6,87.7,238.6,86.6,239.9,86.6z"/>
<linearGradient id="SVGID_9_" gradientUnits="userSpaceOnUse" x1="237.59" y1="279.6748" x2="261.04" y2="279.6748" gradientTransform="matrix(1 0 0 -1 0 371.8898)">
	<stop  offset="1.000000e-02" style="stop-color:#000000"/>
	<stop  offset="0.13" style="stop-color:#000000;stop-opacity:0.69"/>
	<stop  offset="1" style="stop-color:#000000;stop-opacity:0"/>
</linearGradient>
<path class="st12" d="M239.9,86.6h18.8c1.3,0,2.3,1,2.3,2.3v6.5c0,1.3-1,2.3-2.3,2.3h-18.8c-1.3,0-2.3-1-2.3-2.3V89
	C237.6,87.7,238.6,86.6,239.9,86.6z"/>
<path class="st3" d="M238.3,90.3h22.3c1.1,0,2,0.9,2,2v0.1c0,1.1-0.9,2-2,2h-22.3c-1.1,0-2-0.9-2-2v-0.1
	C236.3,91.2,237.2,90.3,238.3,90.3z"/>
<linearGradient id="SVGID_10_" gradientUnits="userSpaceOnUse" x1="236.34" y1="279.5298" x2="262.56" y2="279.5298" gradientTransform="matrix(1 0 0 -1 0 371.8898)">
	<stop  offset="1.000000e-02" style="stop-color:#000000"/>
	<stop  offset="0.13" style="stop-color:#000000;stop-opacity:0.69"/>
	<stop  offset="1" style="stop-color:#000000;stop-opacity:0"/>
</linearGradient>
<path class="st13" d="M238.3,90.3h22.3c1.1,0,2,0.9,2,2v0.1c0,1.1-0.9,2-2,2h-22.3c-1.1,0-2-0.9-2-2v-0.1
	C236.3,91.2,237.2,90.3,238.3,90.3z"/>
</svg>
