<svg xmlns="http://www.w3.org/2000/svg" xmlns:xlink="http://www.w3.org/1999/xlink" viewBox="0 0 148.57 220.95"><defs><style>.cls-1{isolation:isolate;}.cls-2{fill:#beebfe;}.cls-3{fill:#dff5ff;}.cls-17,.cls-18,.cls-4{fill:#9ee1fe;}.cls-5{fill:#ffcea9;}.cls-6{fill:#5dcdfd;}.cls-7{fill:#fc31c9;}.cls-8{fill:#3809a3;}.cls-9{fill:url(#linear-gradient);}.cls-10,.cls-11{opacity:0.3;}.cls-10,.cls-11,.cls-16,.cls-17,.cls-18,.cls-19{mix-blend-mode:multiply;}.cls-10{fill:url(#linear-gradient-2);}.cls-11{fill:url(#linear-gradient-3);}.cls-12,.cls-14{fill:#fff;}.cls-12,.cls-13{mix-blend-mode:soft-light;}.cls-15{mix-blend-mode:overlay;}.cls-16{fill:#e6e7e8;}.cls-17{opacity:0.5;}.cls-19{fill:#886bc8;}</style><linearGradient id="linear-gradient" x1="63.76" y1="68.37" x2="50.3" y2="66.9" gradientUnits="userSpaceOnUse"><stop offset="0" stop-color="#ffc073"/><stop offset="1" stop-color="#fc31c9"/></linearGradient><linearGradient id="linear-gradient-2" x1="86.22" y1="123.55" x2="86.22" y2="48.84" gradientUnits="userSpaceOnUse"><stop offset="0" stop-color="#fc31c9"/><stop offset="1" stop-color="#3809a3"/></linearGradient><linearGradient id="linear-gradient-3" x1="92.38" y1="123.55" x2="92.38" y2="48.84" xlink:href="#linear-gradient-2"/></defs><title>アセット 1</title><g class="cls-1"><g id="レイヤー_2" data-name="レイヤー 2"><g id="OBJECTS"><polygon class="cls-2" points="84.84 18.4 116.71 0 148.57 18.4 116.71 36.79 84.84 18.4"/><polygon class="cls-3" points="116.71 36.79 116.71 73.59 148.57 55.19 148.57 18.4 116.71 36.79"/><polygon class="cls-4" points="84.84 18.4 84.84 55.19 116.71 73.59 116.71 36.79 84.84 18.4"/><path class="cls-5" d="M64.88,114.54s6,20.3,6.28,24.13S57.45,169.6,57.45,169.6l-5-2.19s3.63-9.91,4.37-12.7,1.32-11.53,3.09-14.13L47.81,119.69Z"/><path class="cls-5" d="M42.71,112.48a20.26,20.26,0,0,0-1.08,8.14c.4,4.32-1.27,17.56-1.66,19.52s-4.22.49-8.63,4.81-11.78,10.2-11.78,10.2l1.87,5.1s23.64-10.69,26.48-12.16S61.55,115,61.55,115Z"/><path class="cls-5" d="M68,83.68l1.48.25c.35.06,15-7.36,15-7.36L87,80.23s-10.45,7.24-14.27,9.5c-2.6,1.53-7.33-.41-7.33-.41Z"/><path class="cls-6" d="M50,77.86s.69.45,3.06.42,3.65-.18,6.27,1.89c2.18,1.74,9.47,3.24,9.47,3.24l-.51,8.5-11.72.41Z"/><path class="cls-7" d="M42.78,110.77a24.52,24.52,0,0,0-2.12,8.43l-3.73,12.45s5.23,6.68,16.61,6.59,17.18-9.14,17.18-9.14l-6-21.55Z"/><path class="cls-6" d="M50.91,78.24a8,8,0,0,0,3.11.81c1.79.08,4.25-.94,6,2.47s2.18,7.42,2.17,13c0,5,2.78,11.48,4.17,13.45a14.34,14.34,0,0,1-9,6.47c-8.18,2-12.21,0-15.77-2.22a38.36,38.36,0,0,1,0-6.81c.29-2.6,2.67-4.66.25-8.89a23.54,23.54,0,0,1-3.6-11.68c-.29-3.71,6.8-6.38,6.8-6.38Z"/><rect class="cls-5" x="45.08" y="71.28" width="7.66" height="8.31" transform="translate(6.46 -3.82) rotate(4.78)"/><polygon class="cls-8" points="58.32 60.74 63.41 72 57.86 71.42 56.49 61.55 58.32 60.74"/><path class="cls-5" d="M59,64.62a7.52,7.52,0,1,1-8.84-5.9A7.52,7.52,0,0,1,59,64.62Z"/><path class="cls-5" d="M53.77,76.55h0a7.52,7.52,0,0,1-8.84-5.89l-.78-3.91,14.73-2.94.78,3.91A7.51,7.51,0,0,1,53.77,76.55Z"/><path class="cls-8" d="M54.23,63.08s-.7,3.83-5.41,6c-1.71,1.06-1.49,4.63.8,9.69l-7.81-2S41.1,71,40.27,66.53,42.21,60,42.21,60s2-4.38,6.58-4.78,8.46,3.16,9.21,4.43a12.46,12.46,0,0,1,.88,4.19S57.26,64.55,54.23,63.08Z"/><path class="cls-5" d="M44.75,79.26s1.78,3.9,5.26,4.3,2.37-3.66,2.37-3.66Z"/><path class="cls-5" d="M41.66,85.28a10.88,10.88,0,0,1,7.27,2.1c3.83,2.64,8.53,3.85,11.79,4.55s22,1,22,1L83,96.7s-16.17,2.12-21.34,2.43S45.11,95.2,43.49,94,37.22,89.72,41.66,85.28Z"/><polygon class="cls-6" points="54.4 89.51 51.51 98.72 41.95 93.88 39.65 90.56 39 85.6 43.62 81.06 54.4 89.51"/><path class="cls-5" d="M21.43,160.25l-2.55,3.09s-2.6,9.37-5,10-4.37-.68-4.66-3.23,1.91-6.4,1.71-8.49c-.39-4.07,1-6.67,2.95-6.77a55.34,55.34,0,0,1,5.73.25Z"/><path class="cls-7" d="M18.88,163.34l1.4-1.7a2.36,2.36,0,0,0-1.19-.94c-.79-.34-1,.55-2,.78-.64.14-1-3.24-.48-4.47.47-1,1.52-.34,1.44-2a40.75,40.75,0,0,0-4.23-.13c-2,.1-3.34,2.7-2.95,6.77.2,2.09-2,5.94-1.71,8.49s2.2,3.92,4.66,3.23S18.88,163.34,18.88,163.34Z"/><path class="cls-5" d="M57.45,169.6l.47,4s5,8.35,3.79,10.6-3.51,2.68-5.56,1.13-3.3-5.8-4.95-7.1c-3.22-2.52-4.15-5.31-2.87-6.8a57.06,57.06,0,0,1,4.14-4Z"/><path class="cls-7" d="M57.92,173.58l-.26-2.19a2.35,2.35,0,0,0-1.5.22c-.79.33-.31,1.12-.81,2-.33.56-3.06-1.48-3.56-2.73-.42-1,.8-1.34-.44-2.42-.94.86-2.26,2.1-3,3-1.28,1.49-.35,4.28,2.87,6.8,1.65,1.3,2.91,5.55,4.95,7.1s4.37,1.11,5.56-1.13S57.92,173.58,57.92,173.58Z"/><path class="cls-5" d="M82.73,93A50.4,50.4,0,0,0,86,88l2.72-2.17,2-.57a.5.5,0,0,1,.64.42h0a.5.5,0,0,1-.29.52L89.38,87l-1.29,1.54,1.48-1.14,2.11-.74a.54.54,0,0,1,.7.43h0a.54.54,0,0,1-.3.56l-2,.93-1.4,1.66L90.26,89l1.57-.23a.41.41,0,0,1,.48.36v0a.44.44,0,0,1-.25.45l-1,.46.8.1a.44.44,0,0,1,.36.35h0A.43.43,0,0,1,92,91L90,91.66l-.92,1.62S87.44,96,83,96.7Z"/><path class="cls-5" d="M84.53,76.57l3-5.22,4-2.31,2.5-.27a.58.58,0,0,1,.64.52h0a.58.58,0,0,1-.42.62l-2.53.7-2.89,2.85s-.44,2.45-.1,3.19,1.67.54,2.7.54c.78,0,1.26-.69,2-.88a.72.72,0,0,1,.89.55h0a.74.74,0,0,1-.24.73L91.81,79l-2.7,1-2.1.22Z"/><path class="cls-5" d="M91.05,70.81l2.17-.18a.44.44,0,0,1,.47.44h0a.44.44,0,0,1-.34.43l-2.3.63-3,2.63-.37-1.87Z"/><polygon class="cls-8" points="50.56 71.87 48.58 71.82 46.72 70.67 46.2 66.75 48.58 65.25 50.56 71.87"/><path class="cls-8" d="M50.56,71.87a1.5,1.5,0,0,1-1.47-1.17L48,66.81A1.52,1.52,0,0,1,49.16,65l9.12-2.08a2,2,0,0,1,.34,0A1.5,1.5,0,0,1,60.09,64l.81,3.57a1.52,1.52,0,0,1-.19,1.14,1.47,1.47,0,0,1-.94.66l-8.85,2.43A1.59,1.59,0,0,1,50.56,71.87Z"/><path class="cls-9" d="M59.64,68.83l-8.88,2.43a.91.91,0,0,1-1.09-.69L48.6,66.66a.9.9,0,0,1,.69-1.1l9.12-2.09a.92.92,0,0,1,1.1.7l.82,3.56A.92.92,0,0,1,59.64,68.83Z"/><polygon class="cls-10" points="48.34 86.07 124.11 42.32 124.11 100.65 48.34 144.4 48.34 86.07"/><polygon class="cls-11" points="54.5 86.07 130.27 42.32 130.27 100.65 54.5 144.4 54.5 86.07"/><path class="cls-12" d="M119.89,68a7,7,0,0,0-2.45-3.24,6.43,6.43,0,0,0-3.86-1.11,11.15,11.15,0,0,0-4.94,1.44,20.47,20.47,0,0,0-5.09,3.94,28.5,28.5,0,0,0-4.18,5.59,29.23,29.23,0,0,0-2.75,6.41,20.71,20.71,0,0,0-.85,6.35,11,11,0,0,0,1.25,5,6.32,6.32,0,0,0,2.91,2.75,7.13,7.13,0,0,0,4,.47,12.87,12.87,0,0,0,4.74-1.88,22.26,22.26,0,0,0,4.6-3.88A29.75,29.75,0,0,0,119.6,79a21.52,21.52,0,0,0,1.05-5.91A12.76,12.76,0,0,0,119.89,68Zm-4.79,8a12.38,12.38,0,0,1-.58,3.27,16,16,0,0,1-1.42,3.2A15.71,15.71,0,0,1,111,85.3a12.19,12.19,0,0,1-2.55,2.15,7.22,7.22,0,0,1-2.62,1,3.91,3.91,0,0,1-2.25-.26A3.51,3.51,0,0,1,102,86.71a6.08,6.08,0,0,1-.69-2.75,11.52,11.52,0,0,1,.47-3.51,16.29,16.29,0,0,1,3.84-6.65,11.44,11.44,0,0,1,2.82-2.18,6.21,6.21,0,0,1,2.73-.8,3.57,3.57,0,0,1,2.14.61,3.93,3.93,0,0,1,1.36,1.8A7.11,7.11,0,0,1,115.1,76Z"/><path class="cls-12" d="M80.74,110.52A3.32,3.32,0,0,0,79.6,109a3,3,0,0,0-1.81-.51,5.16,5.16,0,0,0-2.31.67A9.6,9.6,0,0,0,73.11,111a13.4,13.4,0,0,0-2,2.61,13.55,13.55,0,0,0-1.28,3,9.47,9.47,0,0,0-.4,3,5.08,5.08,0,0,0,.58,2.32,2.94,2.94,0,0,0,1.36,1.28,3.28,3.28,0,0,0,1.89.22,6.08,6.08,0,0,0,2.22-.88,9.85,9.85,0,0,0,2.15-1.81,13,13,0,0,0,1.74-2.39,13.41,13.41,0,0,0,1.2-2.69,10.56,10.56,0,0,0,.49-2.77A5.76,5.76,0,0,0,80.74,110.52Zm-2.24,3.73a5.6,5.6,0,0,1-.27,1.53,7.29,7.29,0,0,1-.66,1.49,7.09,7.09,0,0,1-1,1.32,6.2,6.2,0,0,1-1.19,1,3.47,3.47,0,0,1-1.23.48,1.82,1.82,0,0,1-1-.12,1.61,1.61,0,0,1-.75-.71,2.84,2.84,0,0,1-.33-1.28,5.36,5.36,0,0,1,.22-1.65,8.3,8.3,0,0,1,.71-1.66,7.86,7.86,0,0,1,1.09-1.45,5.12,5.12,0,0,1,1.31-1,2.89,2.89,0,0,1,1.28-.38,1.6,1.6,0,0,1,1,.29,1.84,1.84,0,0,1,.64.84A3.21,3.21,0,0,1,78.5,114.25Z"/><g class="cls-13"><path class="cls-14" d="M59.56,118.62a5.66,5.66,0,0,1,2.44-.71,3.21,3.21,0,0,1,1.91.55,3.5,3.5,0,0,1,1.22,1.6,6.29,6.29,0,0,1,.37,2.49,10.51,10.51,0,0,1-.52,2.92,13.61,13.61,0,0,1-1.26,2.85,14.64,14.64,0,0,1-1.84,2.53,11,11,0,0,1-2.28,1.92,6.43,6.43,0,0,1-2.35.93,3.57,3.57,0,0,1-2-.23,3.19,3.19,0,0,1-1.44-1.36,5.5,5.5,0,0,1-.62-2.46,10.32,10.32,0,0,1,.43-3.14A14.13,14.13,0,0,1,55,123.34,14.71,14.71,0,0,1,57,120.57,10.62,10.62,0,0,1,59.56,118.62Z"/></g><g class="cls-13"><polygon class="cls-14" points="54.93 105.84 54.93 92.79 58.7 90.61 58.7 103.67 54.93 105.84"/><polygon class="cls-14" points="59.36 103.28 59.36 94.73 63.13 92.56 63.13 101.1 59.36 103.28"/><polygon class="cls-14" points="63.78 100.71 63.78 85 67.55 82.82 67.55 98.53 63.78 100.71"/><polygon class="cls-14" points="68.21 98.14 68.21 93.86 71.98 91.68 71.98 95.97 68.21 98.14"/></g><g class="cls-13"><polygon class="cls-14" points="86.5 90.88 54.94 109.1 54.94 110.46 86.5 92.23 86.5 90.88"/><polygon class="cls-14" points="86.5 94.78 54.94 113.01 54.94 114.37 86.5 96.14 86.5 94.78"/><polygon class="cls-14" points="86.5 98.69 54.94 116.92 54.94 118.28 86.5 100.05 86.5 98.69"/></g><path class="cls-7" d="M33.09,22.63A1.62,1.62,0,0,1,33.9,24v28.1a.78.78,0,0,1-1.31.58l-6.8-6.21L2.28,32.92a1.62,1.62,0,0,1-.81-1.4V7.17a1.61,1.61,0,0,1,2.42-1.4Z"/><g class="cls-15"><polygon class="cls-14" points="5.15 14.87 28.79 28.52 28.79 30.56 5.15 16.91 5.15 14.87"/><polygon class="cls-14" points="5.15 19.96 28.79 33.6 28.79 35.64 5.15 21.99 5.15 19.96"/><polygon class="cls-14" points="5.15 25.04 28.79 38.69 28.79 40.73 5.15 27.08 5.15 25.04"/></g><polygon class="cls-3" points="105.85 147.01 120.66 138.47 135.46 147.01 120.66 155.56 105.85 147.01"/><polygon class="cls-4" points="120.66 155.56 120.66 172.66 135.46 164.11 135.46 147.01 120.66 155.56"/><polygon class="cls-2" points="105.85 147.01 105.85 164.11 120.66 172.66 120.66 155.56 105.85 147.01"/><ellipse class="cls-16" cx="35.05" cy="208.38" rx="35.05" ry="12.57"/><circle class="cls-14" cx="52.55" cy="32.05" r="8.07" transform="translate(-7.27 46.54) rotate(-45)"/><path class="cls-17" d="M51.88,25.3A8.07,8.07,0,0,1,60,33.37a7.91,7.91,0,0,1-.55,2.93A8.07,8.07,0,1,0,45,29.12,8.06,8.06,0,0,1,51.88,25.3Z"/><circle class="cls-18" cx="53.98" cy="33.74" r="4.9"/><path class="cls-19" d="M58.28,33.85a4.13,4.13,0,1,1-4.12-4.13A4.13,4.13,0,0,1,58.28,33.85Z"/><path class="cls-19" d="M54.2,32.47a1.11,1.11,0,1,1-1.11-1.11A1.11,1.11,0,0,1,54.2,32.47Z"/><path class="cls-19" d="M54.84,31.88l-.32,0a1.56,1.56,0,0,1,.11.57A1.54,1.54,0,0,1,53.09,34a1.6,1.6,0,0,1-.62-.13,2.58,2.58,0,0,0,0,.4,2.41,2.41,0,1,0,2.41-2.4Z"/></g></g></g></svg>