<svg xmlns="http://www.w3.org/2000/svg" xmlns:xlink="http://www.w3.org/1999/xlink" viewBox="0 0 210.87 192.69"><defs><style>.cls-1{isolation:isolate;}.cls-2{fill:#beebfe;}.cls-17,.cls-18,.cls-3{fill:#9ee1fe;}.cls-4,.cls-7{fill:#fff;}.cls-17,.cls-5,.cls-6{opacity:0.5;}.cls-17,.cls-18,.cls-19,.cls-5,.cls-6,.cls-9{mix-blend-mode:multiply;}.cls-5{fill:url(#linear-gradient);}.cls-6{fill:url(#linear-gradient-2);}.cls-7,.cls-8{mix-blend-mode:soft-light;}.cls-9{fill:#e6e7e8;}.cls-10{fill:#ffcea9;}.cls-11{fill:#fc31c9;}.cls-12,.cls-13{fill:#3809a3;}.cls-13{mix-blend-mode:screen;}.cls-14{fill:#5dcdfd;}.cls-15{mix-blend-mode:overlay;}.cls-16{fill:#dff5ff;}.cls-19{fill:#886bc8;}</style><linearGradient id="linear-gradient" x1="77.69" y1="92.45" x2="77.69" y2="46.83" gradientUnits="userSpaceOnUse"><stop offset="0" stop-color="#fc31c9"/><stop offset="1" stop-color="#3809a3"/></linearGradient><linearGradient id="linear-gradient-2" x1="74.71" y1="89.47" x2="74.71" y2="43.85" xlink:href="#linear-gradient"/></defs><title>アセット 2</title><g class="cls-1"><g id="レイヤー_2" data-name="レイヤー 2"><g id="OBJECTS"><polygon class="cls-2" points="0 71.14 20.03 59.58 40.06 71.14 20.03 82.71 0 71.14"/><polygon class="cls-3" points="20.03 82.71 20.03 105.84 40.06 94.27 40.06 71.14 20.03 82.71"/><polygon class="cls-4" points="0 71.14 0 94.27 20.03 105.84 20.03 82.71 0 71.14"/><polygon class="cls-5" points="54.55 69.57 100.83 42.85 100.83 78.47 54.55 105.19 54.55 69.57"/><polygon class="cls-6" points="51.57 66.58 97.84 39.87 97.84 75.49 51.57 102.21 51.57 66.58"/><polygon class="cls-7" points="58.43 72.82 68.65 66.92 68.65 74.78 58.43 80.69 58.43 72.82"/><polygon class="cls-7" points="78.07 75.83 95.7 65.65 95.7 72.53 78.07 82.71 78.07 75.83"/><g class="cls-8"><polygon class="cls-4" points="60.27 93.43 60.27 86.39 62.31 85.21 62.31 92.26 60.27 93.43"/><polygon class="cls-4" points="62.66 92.05 62.66 87.44 64.7 86.26 64.7 90.87 62.66 92.05"/><polygon class="cls-4" points="65.05 90.66 65.05 82.18 67.09 81 67.09 89.49 65.05 90.66"/><polygon class="cls-4" points="67.44 89.28 67.44 86.96 69.48 85.79 69.48 88.1 67.44 89.28"/></g><g class="cls-8"><polygon class="cls-4" points="85.93 65.23 85.93 58.18 87.96 57.01 87.96 64.06 85.93 65.23"/><polygon class="cls-4" points="88.32 63.85 88.32 59.23 90.36 58.06 90.36 62.67 88.32 63.85"/><polygon class="cls-4" points="90.71 62.46 90.71 53.98 92.75 52.8 92.75 61.28 90.71 62.46"/><polygon class="cls-4" points="93.1 61.07 93.1 58.76 95.14 57.59 95.14 59.9 93.1 61.07"/></g><path class="cls-9" d="M210.87,172.63c0-3.1-7-5.62-15.66-5.62s-15.67,2.52-15.67,5.62a2.71,2.71,0,0,0,.9,1.88.47.47,0,0,1-.38.79c-1.88-.16-3.84-.25-5.85-.25-13.59,0-24.6,3.95-24.6,8.82s11,8.82,24.6,8.82,24.6-3.95,24.6-8.82c0-1.74-1.42-3.37-3.86-4.74a.47.47,0,0,1,.23-.88h0C203.86,178.25,210.87,175.73,210.87,172.63Z"/><path class="cls-10" d="M118.38,77.79c-6.37,0-17.45-.19-23.22-1.21L94.56,80s11.93,3.66,16,4.38a52.06,52.06,0,0,0,9.21.53Z"/><path class="cls-11" d="M141.36,76.34a5.7,5.7,0,1,1-7.6-2.68A5.7,5.7,0,0,1,141.36,76.34Z"/><path class="cls-11" d="M133.74,73.67s-5.7,3.8-15.36,4.12l1.71,9.36a45.68,45.68,0,0,0,19.22-2Z"/><path class="cls-12" d="M148.57,125.89h0a12.49,12.49,0,0,1-17-4.85l-.84-1.53,21.81-12.11.85,1.53A12.48,12.48,0,0,1,148.57,125.89Z"/><path class="cls-12" d="M131.36,120s4.09,19.11,6,22.5,21.09,21.57,23.72,23.86c1.77,1.53,4.56.27,6.14-1.85a4.17,4.17,0,0,0-.73-5.36,105.22,105.22,0,0,1-8.46-8.67c-2.27-3-5.42-7.57-8.52-9.61,0,0-.73-11.28-1.1-14.14s1.13-7.54-1.29-14.9Z"/><path class="cls-12" d="M141.45,121.89s10.34,16.84,13.2,19.37S181,153.73,184.16,154.9c2.11.78,4.17-1.54,4.83-4.22a4.34,4.34,0,0,0-2.53-4.88,95.17,95.17,0,0,1-10.58-5c-3.08-2-7.48-5.16-11-5.9,0,0-4.6-10.61-5.94-13.22s-1.63-7.73-6.36-13.88Z"/><path class="cls-10" d="M166.21,161.62a2.42,2.42,0,1,1-2.89.23A2.1,2.1,0,0,1,166.21,161.62Z"/><path class="cls-10" d="M162.85,164.84s2.37,1.72,2.71,2a17.39,17.39,0,0,1,1.38,3.68c.22.85-.25,5.19.5,7.1s3.42,2.52,4.71-.07,1-5,1.44-6.82,1.09-4.86-1.28-5.31-6.1-3.84-6.1-3.84Z"/><path class="cls-12" d="M172.31,165.46a8.26,8.26,0,0,1-2.63-1.19c-.26-.06-.59-.1-1,.45-.63.75.14,1-.3,2.12-.38,1-1.55.89-2,1.7.27.77.54,1.6.64,2,.22.85-.25,5.19.5,7.1s3.42,2.52,4.71-.07,1-5,1.44-6.82S174.68,165.91,172.31,165.46Z"/><path class="cls-13" d="M172.75,165.59h-.1c-1.45,0-1.83,2.92-2.17,5.39a58.65,58.65,0,0,1-1.6,6c-.25,1.31.37,2.3,1.17,2.31h.09a2.86,2.86,0,0,0,2-1.7c1.29-2.59,1-5,1.44-6.82S174.6,166.33,172.75,165.59Z"/><path class="cls-10" d="M187.13,148.46a2.42,2.42,0,1,1-2.52,1.45A2.1,2.1,0,0,1,187.13,148.46Z"/><path class="cls-10" d="M185.48,152.82s2.88.53,3.31.68a17.66,17.66,0,0,1,2.84,2.73c.55.67,2,4.79,3.5,6.19s4.16.81,4.22-2.08-1.3-5-1.63-6.78-1.1-4.86-3.44-4.24-7.15-.86-7.15-.86Z"/><path class="cls-12" d="M194.28,149.32a8.54,8.54,0,0,1-2.88.05c-.27.06-.58.16-.75.86-.24.94.56.84.64,2,.07,1-1,1.47-1.12,2.41.58.58,1.18,1.23,1.46,1.56.55.67,2,4.79,3.5,6.19s4.16.81,4.22-2.08-1.3-5-1.63-6.78S196.62,148.7,194.28,149.32Z"/><path class="cls-13" d="M194.74,149.24l-.09,0c-1.33.6-.41,3.42.34,5.79a55.85,55.85,0,0,1,1.14,6.11c.34,1.3,1.32,1.92,2.05,1.59l.08,0a2.85,2.85,0,0,0,1.09-2.39c.05-2.9-1.3-5-1.63-6.78S196.72,149.11,194.74,149.24Z"/><path class="cls-11" d="M132.94,73.37s5.92-1.5,8.93,2.84,2.95,8.69,4.34,13.36c1.5,5,8.49,17.07,8.49,17.07a52.29,52.29,0,0,1-11.06,8.41,44.86,44.86,0,0,1-14.86,5.48s-4.93-17.54-6.92-25.61c-1.83-7.42-1.2-14.12,2-17S132.94,73.37,132.94,73.37Z"/><rect class="cls-10" x="125.63" y="69.23" width="7.75" height="8.06" transform="translate(3.27 -5.5) rotate(2.47)"/><path class="cls-10" d="M134.84,63.4a8.48,8.48,0,1,1-8.1-8.84A8.47,8.47,0,0,1,134.84,63.4Z"/><path class="cls-10" d="M125.87,75.05h0a8.48,8.48,0,0,1-8.1-8.83l.2-4.48,16.91.73L134.69,67A8.47,8.47,0,0,1,125.87,75.05Z"/><path class="cls-10" d="M133.21,77.45c0-.48-1.7-.94-3.84-1s-3.89.23-3.91.71,1.7.94,3.84,1S133.19,77.93,133.21,77.45Z"/><path class="cls-12" d="M119.39,62.64l4.52,1.14a2.46,2.46,0,0,0-.7,1.54L119,65.14Z"/><path class="cls-12" d="M117.45,60.91h.34a0,0,0,0,1,0,0V68a0,0,0,0,1,0,0h-.34a.75.75,0,0,1-.75-.75V61.66A.75.75,0,0,1,117.45,60.91Z"/><polygon class="cls-14" points="117.79 67.97 119.65 66.17 119.65 62.97 117.79 60.91 117.79 67.97"/><path class="cls-12" d="M117.9,62.67s-2.81-2.22-.41-5.9c1.92-3,5.2-3.88,9.31-3.7a9,9,0,0,1,7.2,3.74s5.12,3.08.57,12.91c0,0-1.11,2.43-5.09,1.93-4.41-.55-5.28-2.21-5.6-3.31s1.87-.32,2.63-1.91-.53-3.56-2.18-2.87-.66,3-1.7,3-1.55-1.56-1.51-2.65S117.9,62.67,117.9,62.67Z"/><path class="cls-10" d="M131.18,101.83a140,140,0,0,1,6.66,20.57l3.65-.76s-1.44-11.79-2.2-15.43a46.61,46.61,0,0,0-2.64-7.9Z"/><circle class="cls-11" cx="126.03" cy="86.53" r="5.14"/><path class="cls-11" d="M122.57,90.33s5.1,3.51,8.61,11.5l7.27-4.57a41.1,41.1,0,0,0-8.09-15.47Z"/><path class="cls-10" d="M137.89,122.35l.16,6.36,1.19,2.25,2.46,1.33.45-.6-1.68-1.14,1.33.68.47-.46-.1-.6,1.66-1.59-.15-1.94-.56-.23a6.49,6.49,0,0,0-1.64-4.84Z"/><path class="cls-10" d="M95.16,76.58s-3.52-1.49-4-1.63-4.38.67-6.09.76a.48.48,0,0,0-.45.62h0a.48.48,0,0,0,.42.35,14,14,0,0,0,3.16-.11A5.78,5.78,0,0,0,87.66,78a2.69,2.69,0,0,0,.82,2.14c.66.44,1.43.73,1.9.47,0,0,.36-.47.05-.68a6,6,0,0,0,4.13.07Z"/><path class="cls-14" d="M127.47,17.07a1.63,1.63,0,0,0-.81,1.4V46.58a.77.77,0,0,0,1.3.57l6.8-6.21,23.52-13.57a1.62,1.62,0,0,0,.81-1.4V1.62a1.62,1.62,0,0,0-2.43-1.4Z"/><g class="cls-15"><polygon class="cls-4" points="155.41 9.32 131.77 22.97 131.77 25.01 155.41 11.36 155.41 9.32"/><polygon class="cls-4" points="155.41 14.4 131.77 28.05 131.77 30.09 155.41 16.44 155.41 14.4"/><polygon class="cls-4" points="155.41 19.48 131.77 33.13 131.77 35.17 155.41 21.52 155.41 19.48"/></g><polygon class="cls-16" points="159.09 64.62 169.71 58.48 180.33 64.62 169.71 70.75 159.09 64.62"/><polygon class="cls-3" points="169.71 70.75 169.71 83.02 180.33 76.88 180.33 64.62 169.71 70.75"/><polygon class="cls-2" points="159.09 64.62 159.09 76.88 169.71 83.02 169.71 70.75 159.09 64.62"/><polygon class="cls-2" points="78.9 119.62 92.48 111.78 106.06 119.62 92.48 127.46 78.9 119.62"/><polygon class="cls-4" points="92.48 127.46 92.48 143.14 106.06 135.3 106.06 119.62 92.48 127.46"/><polygon class="cls-3" points="78.9 119.62 78.9 135.3 92.48 143.14 92.48 127.46 78.9 119.62"/><path class="cls-4" d="M53.07,129.14a6.57,6.57,0,1,0-7.8,5.06A6.57,6.57,0,0,0,53.07,129.14Z"/><path class="cls-17" d="M46.05,133.12a6.57,6.57,0,0,1-5.06-7.8,6.69,6.69,0,0,1,.75-1.94,6.48,6.48,0,0,0-1.53,3,6.57,6.57,0,0,0,12.11,4.67A6.56,6.56,0,0,1,46.05,133.12Z"/><path class="cls-18" d="M52,127.5a4,4,0,1,0-4.74,3.07A4,4,0,0,0,52,127.5Z"/><circle class="cls-19" cx="48.22" cy="126.61" r="3.36" transform="translate(-61.15 46.66) rotate(-32.98)"/><path class="cls-19" d="M48,127.71a.9.9,0,1,0-1.77-.37.9.9,0,0,0,1.77.37Z"/><path class="cls-19" d="M48.44,128.29l-.25-.07a1.24,1.24,0,0,0,.18-.44,1.26,1.26,0,0,0-1-1.49,1.51,1.51,0,0,0-.52,0,1.22,1.22,0,0,1,0-.32,2,2,0,1,1,1.51,2.32Z"/><path class="cls-9" d="M53.21,140c0-1.05-2.75-1.9-6.15-1.9S40.9,139,40.9,140s2.76,1.9,6.16,1.9S53.21,141.08,53.21,140Z"/></g></g></g></svg>